<?xml version="1.0" encoding="utf-8"?>
<!-- Generator: Adobe Illustrator 19.0.0, SVG Export Plug-In . SVG Version: 6.00 Build 0)  -->
<svg version="1.1" id="Layer_1" xmlns="http://www.w3.org/2000/svg" xmlns:xlink="http://www.w3.org/1999/xlink" x="0px" y="0px"
	 viewBox="0 0 50 50" style="enable-background:new 0 0 50 50;" xml:space="preserve">
<style type="text/css">
	.st0{fill:#F37626;}
	.st1{fill:#FFFFFF;}
</style>
<g id="XMLID_35_">
	<g id="XMLID_426_">
		<g id="XMLID_429_">
			<path id="XMLID_436_" class="st0" d="M24.9-48.2c0-0.4-0.1-0.7-0.3-0.9c-0.3,0.3-0.4,0.7-0.4,1.1c0,0.3,0.2,0.5,0.4,0.5
				C24.9-47.6,24.9-48,24.9-48.2z M20.8-55.8c1.1-1.1,2.5-1.6,4.2-1.6c1.8,0,3.2,0.5,4.3,1.6c2.3,2.3,2.1,6.3,2.1,6.5v12.8h0.9v1.9
				h-3.6v5.3h-1.6v-5.3h-4.4v2.4h-1.6v-2.4h-3.4v-1.9h0.9v-12.6C18.6-49.3,18.4-53.4,20.8-55.8z M21.4-48c0-2.2,1.4-2.9,2.1-3l0.1,0
				l0.1,0c0,0,0.5,0.1,0.9,0.4c0.5-0.3,1-0.5,1.7-0.5c1,0,1.7,1.1,1.7,2.6c0,1.5-0.6,2.9-2.1,3l0-1c0.9,0,1.1-1.2,1.1-2
				c0-0.9-0.4-1.6-0.7-1.6c-0.3,0-0.6,0.1-0.9,0.2c0.3,0.4,0.5,0.9,0.5,1.5c0,1.1-0.7,1.7-1.3,1.7c-0.4,0-0.7-0.2-1-0.4
				c-0.3-0.3-0.4-0.7-0.4-1.1c0-0.6,0.2-1.2,0.6-1.7c-0.1-0.1-0.2-0.1-0.3-0.1c-0.3,0.1-1,0.4-1,1.9c0,1.7,1.2,1.8,1.4,1.8l0.5,0
				l0,0.5v9.1h6.2v-12.8c0-0.1,0.2-3.8-1.9-5.9c-0.9-0.9-2.2-1.4-3.7-1.4c-1.5,0-2.7,0.5-3.6,1.4c-2.1,2.1-1.9,6-1.9,6.1v12.6h3.9
				v-8.6C22.5-45.4,21.4-46.1,21.4-48z"/>
			<path id="XMLID_433_" class="st1" d="M25-65.7c11.4,0,20.7,9.2,20.7,20.7S36.4-24.4,25-24.4S4.3-33.6,4.3-45S13.6-65.7,25-65.7z
				 M32.3-34.7v-1.9h-0.9v-12.8c0-0.2,0.2-4.1-2.1-6.5c-1.1-1.1-2.5-1.6-4.3-1.6c-1.7,0-3.2,0.5-4.2,1.6c-2.4,2.4-2.2,6.5-2.2,6.6
				v12.6h-0.9v1.9h3.4v2.4h1.6v-2.4h4.4v5.3h1.6v-5.3H32.3z"/>
			<path id="XMLID_432_" class="st1" d="M24.6-49.1c0.2,0.2,0.3,0.5,0.3,0.9c0,0.2,0,0.6-0.3,0.6c-0.2,0-0.4-0.2-0.4-0.5
				C24.2-48.4,24.3-48.8,24.6-49.1z"/>
			<path id="XMLID_431_" class="st1" d="M23.5-50.9c-0.7,0.1-2.1,0.8-2.1,3c0,1.8,1.1,2.5,1.9,2.7v8.6h-3.9v-12.6
				c0,0-0.2-3.9,1.9-6.1c0.9-0.9,2.1-1.4,3.6-1.4c1.5,0,2.8,0.5,3.7,1.4c2.1,2.1,1.9,5.8,1.9,5.9v12.8h-6.2v-9.1l0-0.5l-0.5,0
				c-0.2,0-1.4-0.1-1.4-1.8c0-1.5,0.8-1.8,1-1.9c0.1,0,0.2,0.1,0.3,0.1c-0.4,0.5-0.6,1.1-0.6,1.7c0,0.4,0.2,0.8,0.4,1.1
				c0.3,0.3,0.6,0.4,1,0.4c0.7,0,1.3-0.5,1.3-1.7c0-0.6-0.2-1.1-0.5-1.5c0.3-0.1,0.5-0.2,0.9-0.2c0.3,0,0.7,0.7,0.7,1.6
				c0,0.7-0.2,1.9-1.1,2l0,1c1.5-0.1,2.1-1.6,2.1-3c0-1.5-0.7-2.6-1.7-2.6c-0.6,0-1.2,0.2-1.7,0.5c-0.5-0.3-0.9-0.4-0.9-0.4l-0.1,0
				L23.5-50.9z"/>
		</g>
		<g id="XMLID_430_">
		</g>
	</g>
</g>
<g id="XMLID_34_">
	<g id="XMLID_239_">
		<g id="XMLID_242_">
			<path id="XMLID_253_" class="st0" d="M102.9-39.1c0-1.9-1.5-3.5-3.4-3.5c-1.9,0-3.4,1.5-3.4,3.5c0,1.9,1.5,3.5,3.4,3.5
				C101.4-35.7,102.9-37.2,102.9-39.1z M105.4-47c0-1.9-1.5-3.5-3.5-3.5c-1.9,0-3.4,1.5-3.4,3.5c0,1.9,1.5,3.4,3.4,3.4
				C103.9-43.6,105.4-45.1,105.4-47z M88.1-43.7c1.9,0,3.4-1.5,3.4-3.5c0-1.9-1.5-3.4-3.4-3.4c-1.9,0-3.4,1.5-3.4,3.4
				C84.6-45.2,86.2-43.7,88.1-43.7z M107.3-45c0,6.8-5.5,12.3-12.3,12.3S82.7-38.2,82.7-45S88.2-57.3,95-57.3S107.3-51.8,107.3-45z
				 M90.6-35.8c1.9,0,3.5-1.5,3.5-3.4c0-1.9-1.5-3.5-3.5-3.5c-1.9,0-3.4,1.5-3.4,3.5C87.2-37.3,88.7-35.8,90.6-35.8z M95-48.8
				c1.9,0,3.5-1.5,3.5-3.5c0-1.9-1.6-3.5-3.5-3.5c-1.9,0-3.4,1.5-3.4,3.5C91.5-50.3,93.1-48.8,95-48.8z M95-46.1
				c-0.6,0-1.1,0.5-1.1,1.1c0,0.6,0.5,1.1,1.1,1.1c0.6,0,1.1-0.5,1.1-1.1C96.1-45.6,95.6-46.1,95-46.1z"/>
			<path id="XMLID_250_" class="st1" d="M95-65.7c11.4,0,20.7,9.2,20.7,20.7S106.4-24.4,95-24.4S74.3-33.6,74.3-45
				S83.6-65.7,95-65.7z M95-32.7c6.8,0,12.3-5.5,12.3-12.3S101.8-57.3,95-57.3S82.7-51.8,82.7-45S88.2-32.7,95-32.7z"/>
			<path id="XMLID_249_" class="st1" d="M102-50.5c1.9,0,3.5,1.5,3.5,3.5c0,1.9-1.5,3.4-3.5,3.4c-1.9,0-3.4-1.5-3.4-3.4
				C98.5-48.9,100.1-50.5,102-50.5z"/>
			<path id="XMLID_248_" class="st1" d="M99.5-42.6c1.9,0,3.4,1.5,3.4,3.5c0,1.9-1.5,3.5-3.4,3.5c-1.9,0-3.4-1.5-3.4-3.5
				C96.1-41,97.6-42.6,99.5-42.6z"/>
			<path id="XMLID_247_" class="st1" d="M98.4-52.2c0,1.9-1.6,3.5-3.5,3.5c-1.9,0-3.4-1.5-3.4-3.5c0-1.9,1.5-3.5,3.4-3.5
				C96.9-55.7,98.4-54.2,98.4-52.2z"/>
			<path id="XMLID_246_" class="st1" d="M95-46.1c0.6,0,1.1,0.5,1.1,1.1c0,0.6-0.5,1.1-1.1,1.1c-0.6,0-1.1-0.5-1.1-1.1
				C93.9-45.6,94.4-46.1,95-46.1z"/>
			<path id="XMLID_245_" class="st1" d="M94.1-39.2c0,1.9-1.5,3.4-3.5,3.4c-1.9,0-3.4-1.5-3.4-3.4c0-1.9,1.5-3.5,3.4-3.5
				C92.5-42.7,94.1-41.2,94.1-39.2z"/>
			<path id="XMLID_244_" class="st1" d="M91.5-47.2c0,1.9-1.5,3.5-3.4,3.5c-1.9,0-3.4-1.5-3.4-3.5c0-1.9,1.5-3.4,3.4-3.4
				C90-50.6,91.5-49,91.5-47.2z"/>
		</g>
		<g id="XMLID_243_">
		</g>
	</g>
</g>
<g id="XMLID_188_">
	<g id="XMLID_191_">
		<path id="XMLID_195_" class="st1" d="M165-65.6c11.4,0,20.6,9.2,20.6,20.6c0,11.4-9.2,20.7-20.6,20.7s-20.6-9.2-20.6-20.7
			C144.4-56.4,153.6-65.6,165-65.6z M174.8-39.8l4.5-4.6l-4.5-4.5h-2.9l4.5,4.5l-4.5,4.6H174.8z M164.2-34.7l4.5-19.1h-2.4
			l-4.5,19.1H164.2z M154-44.3l4.5-4.5h-2.9l-4.5,4.5l4.5,4.6h2.9L154-44.3z"/>
		<polygon id="XMLID_194_" class="st0" points="179.3,-44.4 174.8,-39.8 171.9,-39.8 176.4,-44.3 171.9,-48.9 174.8,-48.9 		"/>
		<polygon id="XMLID_193_" class="st0" points="168.7,-53.8 164.2,-34.7 161.8,-34.7 166.3,-53.8 		"/>
		<polygon id="XMLID_90_" class="st0" points="158.6,-48.9 154,-44.3 158.6,-39.8 155.7,-39.8 151.2,-44.4 155.7,-48.9 		"/>
	</g>
	<g id="XMLID_192_">
	</g>
</g>
<g id="XMLID_19_">
	<g id="XMLID_325_">
		<g id="XMLID_328_">
			<path id="XMLID_346_" class="st0" d="M33.5,26.1l0.2,0.3l-3.8,6.9h0.7l0.6,4.6H19.1l0.7-4.6h0.6l-3.8-6.9l0.2-0.3
				c0.1-0.1,6.1-9.7,6.5-14.1l0-0.5h1.3h1H27l0,0.5C27.4,16.4,33.4,26,33.5,26.1z M28.8,33l3.6-6.6c-1-1.6-5.7-9.4-6.4-13.8h-0.4V24
				c0.5,0.2,0.8,0.6,0.8,1.2c0,0.7-0.6,1.3-1.3,1.3c-0.7,0-1.3-0.6-1.3-1.3c0-0.5,0.3-1,0.8-1.2V12.6h-0.4
				c-0.7,4.4-5.4,12.2-6.4,13.8l3.6,6.6L21,33.2h8.3L28.8,33z"/>
			<path id="XMLID_331_" class="st1" d="M25,4.3c11.4,0,20.7,9.2,20.7,20.6S36.4,45.7,25,45.7S4.3,36.4,4.3,25S13.6,4.3,25,4.3z
				 M33.6,26.4l-0.2-0.3C33.4,26,27.4,16.4,27,12l0-0.5h-1.3h-1h-1.3l0,0.5c-0.4,4.4-6.4,14-6.5,14.1l-0.2,0.3l3.8,6.9h-0.6
				l-0.7,4.6h12.1l-0.6-4.6h-0.7L33.6,26.4z"/>
			<path id="XMLID_330_" class="st1" d="M32.4,26.4L28.8,33l0.5,0.2H21l0.5-0.2l-3.6-6.6c1-1.6,5.7-9.4,6.4-13.8h0.4V24
				c-0.5,0.2-0.8,0.6-0.8,1.2c0,0.7,0.6,1.3,1.3,1.3c0.7,0,1.3-0.6,1.3-1.3c0-0.5-0.3-1-0.8-1.2V12.6H26
				C26.7,17,31.4,24.8,32.4,26.4z"/>
		</g>
		<g id="XMLID_329_">
		</g>
	</g>
</g>
<g id="XMLID_375_">
	<g id="XMLID_378_">
		<polygon id="XMLID_412_" class="st0" points="106.6,18.7 96.6,23.1 85.5,18.8 96.2,15.2 		"/>
		<polygon id="XMLID_411_" class="st0" points="95.8,24.4 95.8,35.8 85.2,30.7 85.2,20.1 		"/>
		<polygon id="XMLID_397_" class="st0" points="106.5,20.4 106.5,30.6 97.5,35.8 97.5,24.2 		"/>
		<path id="XMLID_380_" class="st1" d="M96.1,4.3c11.4,0,20.6,9.2,20.6,20.6s-9.2,20.7-20.6,20.7c-11.4,0-20.7-9.2-20.7-20.7
			S84.6,4.3,96.1,4.3z M96.6,23.1l10-4.4l-10.4-3.5l-10.7,3.6L96.6,23.1z M106.5,30.6V20.4l-9,3.8v11.6L106.5,30.6z M95.8,35.8V24.4
			l-10.7-4.3v10.6L95.8,35.8z"/>
	</g>
	<g id="XMLID_379_">
	</g>
</g>
</svg>
