<?xml version="1.0" encoding="utf-8"?>
<!-- Generator: Adobe Illustrator 19.0.0, SVG Export Plug-In . SVG Version: 6.00 Build 0)  -->
<svg version="1.1" id="Layer_1" xmlns="http://www.w3.org/2000/svg" xmlns:xlink="http://www.w3.org/1999/xlink" x="0px" y="0px"
	 viewBox="0 0 50 50" style="enable-background:new 0 0 50 50;" xml:space="preserve">
<style type="text/css">
	.st0{fill:#F37626;}
	.st1{fill:#FFFFFF;}
</style>
<g id="XMLID_35_">
	<g id="XMLID_426_">
		<g id="XMLID_429_">
			<path id="XMLID_436_" class="st0" d="M-115.1,21.8c0-0.4-0.1-0.7-0.3-0.9c-0.3,0.3-0.4,0.7-0.4,1.1c0,0.3,0.2,0.5,0.4,0.5
				C-115.1,22.4-115.1,22-115.1,21.8z M-119.2,14.2c1.1-1.1,2.5-1.6,4.2-1.6c1.8,0,3.2,0.5,4.3,1.6c2.3,2.3,2.1,6.3,2.1,6.4v12.8
				h0.9v1.9h-3.6v5.3h-1.6v-5.3h-4.4v2.4h-1.6v-2.4h-3.4v-1.9h0.9V20.8C-121.4,20.7-121.6,16.6-119.2,14.2z M-118.6,22
				c0-2.2,1.3-2.9,2.1-2.9l0.1,0l0.1,0c0,0,0.5,0.1,0.9,0.4c0.5-0.3,1-0.5,1.7-0.5c1,0,1.7,1.1,1.7,2.6c0,1.4-0.6,2.9-2.1,3l-0.1-1
				c0.9-0.1,1.1-1.2,1.1-2c0-0.9-0.4-1.6-0.7-1.6s-0.6,0.1-0.9,0.2c0.3,0.4,0.5,0.9,0.5,1.5c0,1.1-0.7,1.6-1.3,1.6
				c-0.4,0-0.7-0.1-1-0.4c-0.3-0.3-0.4-0.7-0.4-1.1c0-0.6,0.2-1.2,0.6-1.7c-0.1-0.1-0.2-0.1-0.3-0.1c-0.3,0.1-1,0.4-1,1.9
				c0,1.7,1.2,1.8,1.4,1.8l0.5,0l0,0.5v9.1h6.2V20.6c0-0.1,0.2-3.8-1.9-5.9c-0.9-0.9-2.2-1.4-3.7-1.4c-1.5,0-2.7,0.5-3.6,1.4
				c-2.1,2.1-1.9,6-1.9,6.1v12.6h3.9v-8.6C-117.5,24.6-118.6,23.9-118.6,22z"/>
			<path id="XMLID_433_" class="st1" d="M-115,4.3c11.4,0,20.7,9.2,20.7,20.6s-9.2,20.7-20.7,20.7s-20.6-9.2-20.6-20.7
				S-126.4,4.3-115,4.3z M-107.7,35.3v-1.9h-0.9V20.6c0-0.2,0.2-4.1-2.1-6.4c-1.1-1.1-2.5-1.6-4.3-1.6c-1.7,0-3.2,0.5-4.2,1.6
				c-2.3,2.4-2.2,6.5-2.2,6.6v12.6h-0.9v1.9h3.4v2.4h1.6v-2.4h4.4v5.3h1.6v-5.3H-107.7z"/>
			<path id="XMLID_432_" class="st1" d="M-115.4,20.9c0.2,0.2,0.3,0.5,0.3,0.9c0,0.1,0,0.6-0.3,0.6c-0.2,0-0.4-0.2-0.4-0.5
				C-115.8,21.6-115.7,21.2-115.4,20.9z"/>
			<path id="XMLID_431_" class="st1" d="M-116.5,19.1c-0.7,0.1-2.1,0.8-2.1,2.9c0,1.8,1.1,2.5,1.9,2.7v8.6h-3.9V20.8
				c0,0-0.2-3.9,1.9-6.1c0.9-0.9,2.1-1.4,3.6-1.4c1.5,0,2.8,0.5,3.7,1.4c2.1,2.1,1.9,5.8,1.9,5.9v12.8h-6.2v-9.1l0-0.5l-0.5,0
				c-0.2,0-1.4-0.1-1.4-1.8c0-1.5,0.8-1.8,1-1.9c0.1,0,0.2,0.1,0.3,0.1c-0.4,0.5-0.6,1.1-0.6,1.7c0,0.4,0.2,0.8,0.4,1.1
				c0.3,0.3,0.6,0.4,1,0.4c0.7,0,1.3-0.5,1.3-1.6c0-0.6-0.2-1.1-0.5-1.5c0.3-0.1,0.6-0.2,0.9-0.2s0.7,0.7,0.7,1.6
				c0,0.7-0.2,1.9-1.1,2l0.1,1c1.5-0.1,2.1-1.6,2.1-3c0-1.5-0.7-2.6-1.7-2.6c-0.6,0-1.2,0.2-1.7,0.5c-0.5-0.3-0.9-0.4-0.9-0.4
				L-116.5,19.1L-116.5,19.1z"/>
		</g>
		<g id="XMLID_430_">
		</g>
	</g>
</g>
<g id="XMLID_34_">
	<g id="XMLID_239_">
		<g id="XMLID_242_">
			<path id="XMLID_253_" class="st0" d="M-37.1,30.9c0-1.9-1.5-3.4-3.4-3.4c-1.9,0-3.5,1.5-3.5,3.4c0,1.9,1.5,3.5,3.5,3.5
				C-38.6,34.3-37.1,32.8-37.1,30.9z M-34.6,23c0-1.9-1.5-3.4-3.5-3.4c-1.9,0-3.5,1.5-3.5,3.4s1.6,3.5,3.5,3.5
				C-36.1,26.4-34.6,24.9-34.6,23z M-51.9,26.3c1.9,0,3.5-1.5,3.5-3.4c0-1.9-1.5-3.5-3.5-3.5c-1.9,0-3.5,1.6-3.5,3.5
				C-55.4,24.8-53.8,26.3-51.9,26.3z M-32.7,25c0,6.8-5.5,12.3-12.3,12.3S-57.3,31.8-57.3,25s5.5-12.3,12.3-12.3S-32.7,18.2-32.7,25
				z M-49.4,34.2c1.9,0,3.5-1.5,3.5-3.4c0-1.9-1.5-3.5-3.5-3.5c-1.9,0-3.4,1.5-3.4,3.5C-52.8,32.7-51.3,34.2-49.4,34.2z M-45,21.2
				c1.9,0,3.4-1.5,3.4-3.5c0-1.9-1.5-3.4-3.4-3.4c-1.9,0-3.5,1.6-3.5,3.4C-48.5,19.7-46.9,21.2-45,21.2z M-45,23.9
				c-0.6,0-1.1,0.5-1.1,1.1c0,0.6,0.5,1.1,1.1,1.1c0.6,0,1.1-0.5,1.1-1.1C-43.9,24.4-44.4,23.9-45,23.9z"/>
			<path id="XMLID_250_" class="st1" d="M-45,4.3c11.4,0,20.6,9.2,20.6,20.6S-33.6,45.7-45,45.7S-65.7,36.4-65.7,25
				S-56.4,4.3-45,4.3z M-45,37.3c6.8,0,12.3-5.5,12.3-12.3S-38.2,12.7-45,12.7S-57.3,18.2-57.3,25S-51.8,37.3-45,37.3z"/>
			<path id="XMLID_249_" class="st1" d="M-38,19.5c1.9,0,3.5,1.5,3.5,3.4s-1.5,3.5-3.5,3.5c-1.9,0-3.5-1.6-3.5-3.5
				S-39.9,19.5-38,19.5z"/>
			<path id="XMLID_248_" class="st1" d="M-40.5,27.4c1.9,0,3.4,1.5,3.4,3.4c0,1.9-1.5,3.5-3.4,3.5c-1.9,0-3.5-1.5-3.5-3.5
				C-44,29-42.4,27.4-40.5,27.4z"/>
			<path id="XMLID_247_" class="st1" d="M-41.6,17.8c0,1.9-1.5,3.5-3.4,3.5c-1.9,0-3.5-1.5-3.5-3.5c0-1.9,1.5-3.4,3.5-3.4
				C-43.1,14.3-41.6,15.9-41.6,17.8z"/>
			<path id="XMLID_246_" class="st1" d="M-45,23.9c0.6,0,1.1,0.5,1.1,1.1c0,0.6-0.5,1.1-1.1,1.1c-0.6,0-1.1-0.5-1.1-1.1
				C-46.1,24.4-45.6,23.9-45,23.9z"/>
			<path id="XMLID_245_" class="st1" d="M-46,30.8c0,1.9-1.5,3.4-3.5,3.4c-1.9,0-3.4-1.5-3.4-3.4c0-1.9,1.5-3.5,3.4-3.5
				C-47.5,27.3-46,28.8-46,30.8z"/>
			<path id="XMLID_244_" class="st1" d="M-48.5,22.9c0,1.9-1.5,3.4-3.5,3.4c-1.9,0-3.5-1.5-3.5-3.4c0-1.9,1.5-3.5,3.5-3.5
				C-50,19.4-48.5,21-48.5,22.9z"/>
		</g>
		<g id="XMLID_243_">
		</g>
	</g>
</g>
<g id="XMLID_188_">
	<g id="XMLID_191_">
		<path id="XMLID_195_" class="st1" d="M25,4.4c11.4,0,20.7,9.2,20.7,20.6c0,11.4-9.2,20.6-20.7,20.6S4.3,36.4,4.3,25
			C4.3,13.6,13.6,4.4,25,4.4z M34.8,30.2l4.5-4.6l-4.5-4.5h-2.9l4.5,4.5l-4.5,4.6H34.8z M24.2,35.3l4.5-19.1h-2.4l-4.5,19.1H24.2z
			 M14,25.6l4.5-4.5h-2.9l-4.5,4.5l4.5,4.6h2.9L14,25.6z"/>
		<polygon id="XMLID_194_" class="st0" points="39.3,25.6 34.8,30.2 31.9,30.2 36.4,25.6 31.9,21.1 34.8,21.1 		"/>
		<polygon id="XMLID_193_" class="st0" points="28.7,16.2 24.2,35.3 21.8,35.3 26.3,16.2 		"/>
		<polygon id="XMLID_90_" class="st0" points="18.6,21.1 14,25.6 18.6,30.2 15.7,30.2 11.2,25.6 15.7,21.1 		"/>
	</g>
	<g id="XMLID_192_">
	</g>
</g>
<g id="XMLID_19_">
	<g id="XMLID_325_">
		<g id="XMLID_328_">
			<path id="XMLID_346_" class="st0" d="M-106.5,96.1l0.2,0.3l-3.8,6.9h0.7l0.6,4.6h-12.1l0.7-4.6h0.6l-3.8-6.9l0.2-0.3
				c0.1-0.1,6.1-9.7,6.5-14.1l0-0.5h1.3h1.1h1.3l0,0.5C-112.6,86.4-106.6,96-106.5,96.1z M-111.2,103l3.6-6.6
				c-1-1.6-5.7-9.4-6.4-13.8h-0.4V94c0.5,0.2,0.8,0.7,0.8,1.2c0,0.7-0.6,1.3-1.3,1.3c-0.7,0-1.3-0.6-1.3-1.3c0-0.5,0.3-1,0.8-1.2
				V82.6h-0.4c-0.7,4.4-5.4,12.2-6.4,13.8l3.6,6.6l-0.5,0.2h8.3L-111.2,103z"/>
			<path id="XMLID_331_" class="st1" d="M-115,74.3c11.4,0,20.7,9.2,20.7,20.7s-9.2,20.7-20.7,20.7s-20.6-9.2-20.6-20.7
				S-126.4,74.3-115,74.3z M-106.4,96.3l-0.2-0.3c-0.1-0.1-6.1-9.7-6.5-14.1l0-0.5h-1.3h-1.1h-1.3l0,0.5c-0.4,4.4-6.4,14-6.5,14.1
				l-0.2,0.3l3.8,6.9h-0.6l-0.7,4.6h12.1l-0.6-4.6h-0.7L-106.4,96.3z"/>
			<path id="XMLID_330_" class="st1" d="M-107.6,96.4l-3.6,6.6l0.5,0.2h-8.3l0.5-0.2l-3.6-6.6c1-1.6,5.7-9.4,6.4-13.8h0.4V94
				c-0.4,0.2-0.8,0.7-0.8,1.2c0,0.7,0.6,1.3,1.3,1.3c0.7,0,1.3-0.6,1.3-1.3c0-0.5-0.3-1-0.8-1.2V82.6h0.4
				C-113.3,87-108.6,94.8-107.6,96.4z"/>
		</g>
		<g id="XMLID_329_">
		</g>
	</g>
</g>
<g id="XMLID_375_">
	<g id="XMLID_378_">
		<polygon id="XMLID_412_" class="st0" points="-33.4,88.7 -43.4,93.1 -54.5,88.8 -43.8,85.2 		"/>
		<polygon id="XMLID_411_" class="st0" points="-44.2,94.4 -44.2,105.8 -54.8,100.7 -54.8,90.1 		"/>
		<polygon id="XMLID_397_" class="st0" points="-33.5,90.4 -33.5,100.6 -42.5,105.8 -42.5,94.2 		"/>
		<path id="XMLID_380_" class="st1" d="M-44,74.3c11.4,0,20.7,9.2,20.7,20.7s-9.2,20.7-20.7,20.7c-11.4,0-20.6-9.2-20.6-20.7
			S-55.4,74.3-44,74.3z M-43.4,93.1l10-4.4l-10.4-3.5l-10.7,3.6L-43.4,93.1z M-33.5,100.6V90.4l-9,3.8v11.6L-33.5,100.6z
			 M-44.2,105.8V94.4l-10.7-4.3v10.6L-44.2,105.8z"/>
	</g>
	<g id="XMLID_379_">
	</g>
</g>
</svg>
