<?xml version="1.0" encoding="utf-8"?>
<!-- Generator: Adobe Illustrator 19.0.0, SVG Export Plug-In . SVG Version: 6.00 Build 0)  -->
<svg version="1.1" xmlns="http://www.w3.org/2000/svg" xmlns:xlink="http://www.w3.org/1999/xlink" x="0px" y="0px"
	 viewBox="0 0 50 50" style="enable-background:new 0 0 50 50;" xml:space="preserve">
<style type="text/css">
	.st0{fill:#F37626;}
	.st1{fill:#FFFFFF;}
	.st2{fill:#B5B5B5;}
	.st3{font-family:'Lato-Bold';}
	.st4{font-size:32.0553px;}
</style>
<g id="Layer_1">
	<g id="XMLID_34_">
		<g id="XMLID_239_">
			<g id="XMLID_242_">
				<path id="XMLID_253_" class="st0" d="M102.9,30.9c0-1.9-1.5-3.4-3.4-3.4s-3.4,1.5-3.4,3.4s1.5,3.5,3.4,3.5
					C101.4,34.3,102.9,32.8,102.9,30.9z M105.4,23c0-1.9-1.5-3.4-3.5-3.4c-1.9,0-3.4,1.5-3.4,3.4s1.5,3.5,3.4,3.5
					C103.9,26.4,105.4,24.9,105.4,23z M88.1,26.3c1.9,0,3.4-1.5,3.4-3.4s-1.5-3.5-3.4-3.5s-3.4,1.6-3.4,3.5
					C84.6,24.8,86.2,26.3,88.1,26.3z M107.3,25c0,6.8-5.5,12.3-12.3,12.3S82.7,31.8,82.7,25S88.2,12.7,95,12.7S107.3,18.2,107.3,25z
					 M90.6,34.2c1.9,0,3.5-1.5,3.5-3.4s-1.5-3.5-3.5-3.5c-1.9,0-3.4,1.5-3.4,3.5C87.2,32.7,88.7,34.2,90.6,34.2z M95,21.2
					c1.9,0,3.5-1.5,3.5-3.5c0-1.9-1.6-3.4-3.5-3.4s-3.4,1.6-3.4,3.4C91.5,19.7,93.1,21.2,95,21.2z M95,23.9c-0.6,0-1.1,0.5-1.1,1.1
					s0.5,1.1,1.1,1.1s1.1-0.5,1.1-1.1S95.6,23.9,95,23.9z"/>
				<path id="XMLID_250_" class="st1" d="M95,4.3c11.4,0,20.7,9.2,20.7,20.6S106.4,45.7,95,45.7S74.3,36.4,74.3,25S83.6,4.3,95,4.3z
					 M95,37.3c6.8,0,12.3-5.5,12.3-12.3S101.8,12.7,95,12.7S82.7,18.2,82.7,25S88.2,37.3,95,37.3z"/>
				<path id="XMLID_249_" class="st1" d="M102,19.5c1.9,0,3.5,1.5,3.5,3.4s-1.5,3.5-3.5,3.5c-1.9,0-3.4-1.6-3.4-3.5
					S100.1,19.5,102,19.5z"/>
				<path id="XMLID_248_" class="st1" d="M99.5,27.4c1.9,0,3.4,1.5,3.4,3.4c0,1.9-1.5,3.5-3.4,3.5s-3.4-1.5-3.4-3.5
					C96.1,29,97.6,27.4,99.5,27.4z"/>
				<path id="XMLID_247_" class="st1" d="M98.4,17.8c0,1.9-1.6,3.5-3.5,3.5s-3.4-1.5-3.4-3.5c0-1.9,1.5-3.4,3.4-3.4
					C96.9,14.3,98.4,15.9,98.4,17.8z"/>
				<path id="XMLID_246_" class="st1" d="M95,23.9c0.6,0,1.1,0.5,1.1,1.1s-0.5,1.1-1.1,1.1s-1.1-0.5-1.1-1.1S94.4,23.9,95,23.9z"/>
				<path id="XMLID_245_" class="st1" d="M94.1,30.8c0,1.9-1.5,3.4-3.5,3.4c-1.9,0-3.4-1.5-3.4-3.4s1.5-3.5,3.4-3.5
					C92.5,27.3,94.1,28.8,94.1,30.8z"/>
				<path id="XMLID_244_" class="st1" d="M91.5,22.9c0,1.9-1.5,3.4-3.4,3.4s-3.4-1.5-3.4-3.4s1.5-3.5,3.4-3.5S91.5,21,91.5,22.9z"/>
			</g>
			<g id="XMLID_243_">
			</g>
		</g>
	</g>
	<g id="XMLID_188_">
		<g id="XMLID_191_">
			<path id="XMLID_195_" class="st1" d="M165,4.4c11.4,0,20.6,9.2,20.6,20.6s-9.2,20.6-20.6,20.6s-20.6-9.2-20.6-20.6
				S153.6,4.4,165,4.4z M174.8,30.2l4.5-4.6l-4.5-4.5h-2.9l4.5,4.5l-4.5,4.6H174.8z M164.2,35.3l4.5-19.1h-2.4l-4.5,19.1H164.2z
				 M154,25.6l4.5-4.5h-2.9l-4.5,4.5l4.5,4.6h2.9L154,25.6z"/>
			<polygon id="XMLID_194_" class="st0" points="179.3,25.6 174.8,30.2 171.9,30.2 176.4,25.6 171.9,21.1 174.8,21.1 			"/>
			<polygon id="XMLID_193_" class="st0" points="168.7,16.2 164.2,35.3 161.8,35.3 166.3,16.2 			"/>
			<polygon id="XMLID_90_" class="st0" points="158.6,21.1 154,25.6 158.6,30.2 155.7,30.2 151.2,25.6 155.7,21.1 			"/>
		</g>
		<g id="XMLID_192_">
		</g>
	</g>
	<g id="XMLID_19_">
		<g id="XMLID_325_">
			<g id="XMLID_328_">
				<path id="XMLID_346_" class="st0" d="M33.5,96.1l0.2,0.3l-3.8,6.9h0.7l0.6,4.6H19.1l0.7-4.6h0.6l-3.8-6.9l0.2-0.3
					c0.1-0.1,6.1-9.7,6.5-14.1v-0.5h1.3h1H27V82C27.4,86.4,33.4,96,33.5,96.1z M28.8,103l3.6-6.6c-1-1.6-5.7-9.4-6.4-13.8h-0.4V94
					c0.5,0.2,0.8,0.7,0.8,1.2c0,0.7-0.6,1.3-1.3,1.3c-0.7,0-1.3-0.6-1.3-1.3c0-0.5,0.3-1,0.8-1.2V82.6h-0.4
					c-0.7,4.4-5.4,12.2-6.4,13.8l3.6,6.6l-0.5,0.2h8.3L28.8,103z"/>
				<path id="XMLID_331_" class="st1" d="M25,74.3c11.4,0,20.7,9.2,20.7,20.7s-9.2,20.7-20.7,20.7S4.3,106.4,4.3,95
					S13.6,74.3,25,74.3z M33.6,96.3L33.4,96c0,0-6-9.6-6.4-14v-0.5h-1.3h-1h-1.3V82C23,86.4,17,96,16.9,96.1l-0.2,0.3l3.8,6.9h-0.6
					l-0.7,4.6h12.1l-0.6-4.6H30L33.6,96.3z"/>
				<path id="XMLID_330_" class="st1" d="M32.4,96.4l-3.6,6.6l0.5,0.2H21l0.5-0.2l-3.6-6.6c1-1.6,5.7-9.4,6.4-13.8h0.4V94
					c-0.5,0.2-0.8,0.7-0.8,1.2c0,0.7,0.6,1.3,1.3,1.3c0.7,0,1.3-0.6,1.3-1.3c0-0.5-0.3-1-0.8-1.2V82.6H26
					C26.7,87,31.4,94.8,32.4,96.4z"/>
			</g>
			<g id="XMLID_329_">
			</g>
		</g>
	</g>
	<g id="XMLID_375_">
		<g id="XMLID_378_">
			<polygon id="XMLID_412_" class="st0" points="106.6,88.7 96.6,93.1 85.5,88.8 96.2,85.2 			"/>
			<polygon id="XMLID_411_" class="st0" points="95.8,94.4 95.8,105.8 85.2,100.7 85.2,90.1 			"/>
			<polygon id="XMLID_397_" class="st0" points="106.5,90.4 106.5,100.6 97.5,105.8 97.5,94.2 			"/>
			<path id="XMLID_380_" class="st1" d="M96.1,74.3c11.4,0,20.6,9.2,20.6,20.7s-9.2,20.7-20.6,20.7S75.4,106.5,75.4,95
				S84.6,74.3,96.1,74.3z M96.6,93.1l10-4.4l-10.4-3.5l-10.7,3.6L96.6,93.1z M106.5,100.6V90.4l-9,3.8v11.6L106.5,100.6z
				 M95.8,105.8V94.4l-10.7-4.3v10.6L95.8,105.8z"/>
		</g>
		<g id="XMLID_379_">
		</g>
	</g>
	<rect class="st2" width="50" height="50"/>
</g>
<g id="Layer_2">
	<text transform="matrix(1 0 0 1 12.6998 36.3001)" class="st1 st3 st4">In</text>
</g>
</svg>
