<svg viewBox="0 0 202 197"
	xmlns="http://www.w3.org/2000/svg"
     xmlns:xlink="http://www.w3.org/1999/xlink" >
<defs>
<linearGradient id="myG"  fy="0" gradientTransform="rotate(60 .5 .5)">

	<stop offset="0" stop-color="#E1BE29">
	</stop>
	<stop offset=".25" stop-color="#BC9908">
	<animate attributeName="offset" dur="9s" values="0;1;0"
		repeatCount="finite" />
		<!-- indefinite for loop -->
	</stop>
	<stop offset="1" stop-color="#F7DB63"/>

</linearGradient>
<style type="text/css">
	.st0{fill:#9F1D20;}
	.st1{fill:#9F1D20;}
</style>
</defs>
<g id="XMLID_252_">
	<path id="XMLID_356_" class="st0" d="M139.4,44.6c-0.1,0,0,0.1,0,0.1c0.1-0.1,0.2-0.2,0.3-0.3C139.5,44.4,139.4,44.6,139.4,44.6z"
		/>
	<path id="XMLID_355_" class="st0" d="M141,40.9c-0.2,0.5-0.5,1-0.8,1.4c-0.3,0.3-0.5,0.7-0.8,1.1c-0.1,0.1-0.2,0.1-0.3,0.2
		c-0.1,0.3-0.4,0.5-0.6,0.7c-0.1,0.1-0.2,0.2-0.2,0.3c0.1-0.1,0.2,0,0.2,0.1c0.1,0.1,0.1,0.1,0.2,0c0.1-0.1,0.2-0.1,0.2-0.2
		c0.1-0.1,0.3-0.2,0.4-0.3c0.2,0,0.3-0.2,0.3-0.3c0,0,0-0.1,0-0.1c0,0-0.1,0-0.1,0c-0.1,0-0.1,0.1-0.2,0.2c0.3-0.3,0.4-0.7,0.5-1.1
		c0.1-0.3,0.4-0.6,0.6-0.9c0.1-0.2,0.3-0.4,0.4-0.6c0.1-0.2,0.2-0.4,0.2-0.7C141.1,40.8,141,40.9,141,40.9z"/>
	<path id="XMLID_354_" class="st0" d="M142.4,35.7c0-0.1,0-0.2,0-0.3c0-0.3,0-0.6-0.1-0.9c0-0.1-0.1-0.2-0.2-0.2
		c-0.1,0-0.1,0.1-0.1,0.2c0,0.3,0,0.7,0,1c0,0.6-0.1,1.2,0,1.8c0,0.3-0.1,0.6-0.2,0.9c-0.1,0.3-0.1,0.5-0.2,0.8c0,0.1,0,0.2,0.1,0.2
		c0,0,0.1-0.1,0.1-0.1c0.1-0.2,0.1-0.5,0.2-0.7c0.1-0.4,0.1-0.8,0.4-1.1c0,0,0,0,0-0.1C142.4,36.7,142.6,36.2,142.4,35.7z"/>
	<path id="XMLID_353_" class="st0" d="M138.7,43.4c-0.1,0.1-0.2,0.2-0.2,0.3c-0.1,0.1-0.1,0.2,0,0.3c0.1,0.1,0.2,0,0.3-0.1
		c0.2-0.1,0.2-0.4,0.3-0.5c0.3-0.2,0.3-0.5,0.5-0.7c0.1-0.1,0-0.1,0-0.2c-0.2-0.2-0.1-0.4,0.1-0.4c0.1,0,0.2,0,0.2-0.1
		c0.1,0,0.2-0.1,0-0.2c-0.1,0,0,0,0-0.1c0-0.2,0.2-0.3,0.3-0.6c0-0.1,0.1-0.2,0-0.3c-0.1,0-0.1,0.1-0.2,0.2
		c-0.4,0.6-0.7,1.3-1.2,1.8c0,0-0.1,0.1,0,0.1C138.8,43.3,138.8,43.4,138.7,43.4z"/>
	<path id="XMLID_352_" class="st0" d="M143.1,34.8c0,0,0-0.1-0.1-0.1c-0.3,0-0.5,0.2-0.4,0.6c0.1,0.3,0.2,0.5,0.3,0.8
		c0.1-0.2,0.2-0.5,0.2-0.7C143.2,35.2,143.2,35,143.1,34.8z"/>
	<path id="XMLID_351_" class="st0" d="M141.5,36.7c0,0.1,0,0.2,0,0.3c0,0.1-0.1,0.2,0,0.3c0.2-0.1,0.2-0.7,0.1-0.9
		C141.5,36.5,141.5,36.6,141.5,36.7z"/>
	<path id="XMLID_350_" class="st0" d="M141.7,34.7C141.7,34.7,141.6,34.6,141.7,34.7c-0.1,0-0.1,0-0.1,0.1c0,0.2,0,0.3,0,0.5
		c0,0-0.1,0.1,0.1,0.1c0.1,0,0.1-0.1,0.1-0.2C141.7,35.1,141.7,34.9,141.7,34.7C141.7,34.7,141.7,34.7,141.7,34.7z"/>
	<path id="XMLID_349_" class="st0" d="M142.1,33.2C142.1,33.2,142,33.1,142.1,33.2c-0.1,0-0.1,0-0.1,0c0,0.2,0.1,0.4,0.1,0.6
		C142.2,33.6,142.2,33.4,142.1,33.2z"/>
	<path id="XMLID_348_" class="st0" d="M141.6,32.7c-0.1-0.2,0-0.3-0.2-0.5C141.4,32.6,141.4,32.6,141.6,32.7z"/>
	<path id="XMLID_347_" class="st0" d="M141.6,33.4c0-0.1-0.1-0.2-0.1-0.3c0,0-0.1,0-0.1,0c0,0.1,0,0.1,0,0.2
		C141.4,33.3,141.4,33.4,141.6,33.4C141.5,33.4,141.6,33.4,141.6,33.4z"/>
	<path id="XMLID_346_" class="st0" d="M133.2,46.8c0,0,0.1,0,0.1,0c0.1-0.1,0-0.1,0-0.2c0,0-0.1,0-0.1,0
		C133.2,46.7,133.2,46.8,133.2,46.8z"/>
	<polygon id="XMLID_268_" class="st0" points="133.4,46.6 133.4,46.6 133.4,46.6 133.4,46.6 133.4,46.6 	"/>
	<path id="XMLID_267_" class="st0" d="M139.1,38.2c0,0-0.1-0.1-0.2-0.1c-0.1,0-0.1,0.1-0.1,0.2c0,0.1,0,0.1,0,0.2
		c0,0.1,0,0.2,0.1,0.2c0.1,0,0.1,0,0.1-0.1c0-0.1,0-0.1,0.1-0.2C139.2,38.4,139.2,38.3,139.1,38.2z"/>
	<path id="XMLID_266_" class="st0" d="M140,37.3c0,0.1-0.1,0.2,0,0.2c0,0,0.1,0.1,0.1,0c0.1-0.1,0.1-0.2,0-0.3
		C140,37.3,140,37.3,140,37.3z"/>
	<path id="XMLID_265_" class="st0" d="M139.1,37.8c0,0-0.1,0.1,0,0.1c0,0,0.1,0.1,0.1,0c0,0,0-0.1,0-0.1
		C139.2,37.7,139.1,37.7,139.1,37.8z"/>
	<path id="XMLID_253_" class="st0" d="M142.7,31.5c-0.1-0.2-0.2-0.4-0.3-0.7c-0.1-0.2-0.2-0.4-0.2-0.6c0-0.1,0-0.1-0.1-0.1
		c-0.3-0.4-0.5-0.8-0.7-1.2c-0.1-0.2-0.2-0.4-0.4-0.6c-0.1-0.1-0.1-0.1,0-0.2c0.1-0.1,0-0.1-0.1-0.2c-0.5-0.4-0.9-0.8-1.3-1.2
		c0.2,0,0.3,0.1,0.4,0.2c0.1-0.1,0-0.2,0-0.2c-0.5-0.5-1-1-1.6-1.6c0,0,0,0,0,0c-0.5-0.3-0.9-0.7-1.5-0.9c0,0,0,0,0,0
		c-0.1-0.1-0.3-0.2-0.4-0.2c-0.3-0.1-0.6-0.2-0.9-0.3c-0.7-0.3-1.5-0.4-2.3-0.5c-0.8-0.1-1.6,0-2.3,0c-0.4,0-0.8,0.1-1.3,0
		c-0.2,0-0.4-0.1-0.5,0c-0.5,0.1-1,0.2-1.4,0.3c-0.5,0.1-1.1,0.2-1.5,0.5c-0.4,0.3-0.6,0.7-0.9,1c-0.4,0.4-0.7,0.9-0.7,1.5
		c0,0.1,0,0.2,0,0.3c0.1,0.1,0.1,0.2,0.1,0.4c0,0.2,0,0.3,0.1,0.5l-0.4,0.3c0,0,0.4-0.4,0-0.3c-0.4,0.1-0.7,0.8-0.8,1
		c0-0.1,0.1-0.2-0.2-0.2c-0.4,0.1-0.8,0.9-1.1,1.5c-0.3,0.6-0.6,1.3-0.6,1.3c0-0.2,0.1-0.4,0.1-0.6c0.1-0.2,0.1-0.5,0.1-0.8
		c0-0.2,0.1-0.4,0.1-0.5c0-0.1,0.1-0.2,0-0.3c-0.1-0.1-0.2,0.1-0.2,0.1c0,0,0,0,0,0c0,0.2-0.3,0.3-0.2,0.5c0,0,0,0.1-0.1,0.1
		c-0.1,0.1-0.1,0.2-0.2,0.2c-0.1,0.1-0.2,0.2-0.2,0.3c0,0.1,0,0.2-0.1,0.2c0,0-0.1,0.1-0.1,0c0,0,0-0.1,0-0.1c0-0.1,0.1-0.2,0.1-0.2
		c0-0.1,0.1-0.2,0-0.2c-0.1,0-0.1,0.1-0.1,0.2c-0.4,0.6-0.5,1.3-0.7,2c-0.1,0.2-0.2,0.5-0.1,0.7c0,0.1,0,0.2-0.2,0.2
		c-0.1,0-0.2-0.1-0.2-0.2c0-0.4,0.1-0.7,0.1-1c0-0.2,0.1-0.3,0.2-0.5c0,0,0.1-0.1,0.1-0.1c0-0.4,0.1-0.7,0.3-1.1
		c0.1-0.2,0.1-0.4,0.1-0.6c-0.1-0.1-0.1-0.3,0.1-0.3c0.1,0,0.1,0,0-0.1c0,0,0-0.1,0-0.1c0.2-0.1,0.1-0.4,0.3-0.5c0,0,0-0.1,0-0.2
		c-0.1,0-0.1,0-0.1,0.1c-0.1,0.1-0.3,0.2-0.4,0.4c-0.3,0.4-0.6,0.8-0.7,1.3c0,0.2-0.1,0.3-0.2,0.4c-0.1,0.1-0.2,0.3-0.2,0.4
		c0,0.2-0.1,0.4-0.2,0.5c-0.1,0.1-0.2,0.2-0.1,0.4c0,0,0,0.1,0,0.1c-0.1,0.2-0.3,0.4-0.1,0.6c0,0.1,0,0.1,0,0.2
		c-0.2,0.3-0.2,0.7-0.2,1c0,0.1,0,0.1,0,0.2c-0.1,0.2-0.1,0.4-0.1,0.6c0,0.2,0,0.3-0.1,0.5c0,0.1,0,0.1,0,0.2
		c0.1,0.1,0.2,0.2,0.2,0.4c0,0.6,0.1,1.2,0.2,1.8c0,0.3,0.2,0.6,0.2,0.9c0,0,0,0.1,0.1,0.1c0.1,0.2,0.2,0.3,0.2,0.5
		c0.1,0.3,0.2,0.6,0.3,0.9c0.3,0.7,0.8,1.2,1.1,1.9c0.2,0.3,0.4,0.6,0.6,0.9c-0.1,0-0.1-0.1-0.2,0c0.5,0.5,0.9,0.9,1.4,1.4
		c0.3,0.2,0.6,0.4,0.9,0.6c0.3,0.3,0.7,0.6,1.2,0.9c0,0-0.1,0.1-0.1,0.1c0,0,0,0.1,0,0.1c0,0,0.1,0,0.1,0c0.1-0.2,0.2,0,0.3,0.1
		c0,0.1-0.2,0-0.1,0.1c0,0.1,0.1,0.1,0.1,0.2c0.1,0,0.1,0,0.2-0.1c0,0,0-0.1,0.1,0c0,0,0.1,0.1,0,0.1c-0.1,0.1,0,0.1,0.1,0.2
		c0.1,0.1,0.1,0,0.2,0c0.1-0.1,0.1-0.1,0.2,0c0.9,0.6,1.8,0.8,2.8,1.1c0.2,0.1,0.5,0.2,0.8,0.2c0.1,0,0.2,0,0.4,0.1
		c0.2,0.1,0.4,0.1,0.7,0.1c0.1,0,0.2,0,0.2,0c0,0,0.1,0,0.1,0c0.1-0.2,0.3,0,0.4,0c0.2,0,0.3-0.1,0.5,0.1c0,0,0.1,0,0.1,0
		c0.1-0.1,0.2,0,0.3-0.1c0.3-0.1,0.6-0.2,0.8-0.2c0.1,0,0.1-0.1,0.1-0.1c0-0.1,0.1-0.1,0.2-0.1c0.2,0,0.2,0,0.2-0.1c0,0,0-0.1,0-0.1
		c0.1-0.1,0-0.3,0.2-0.3c0.1,0,0.2-0.1,0.1,0.1c0,0,0,0,0,0.1c0.1,0,0.3,0,0.2-0.2c0-0.1,0.1-0.2,0.2-0.2c0.2-0.1,0.4-0.1,0.5-0.2
		c0.2,0,0.4-0.1,0.3-0.3c0-0.1-0.2-0.1-0.4-0.1c-0.2,0-0.4,0.1-0.7,0.1c-0.3,0.1-0.7,0.1-1,0.3c0,0-0.1,0-0.1,0
		c-0.1-0.2-0.3-0.1-0.4-0.1c0,0-0.1,0-0.1,0c-0.4-0.1-0.8,0-1.2,0c0,0-0.1,0-0.1,0c0.1-0.1,0.3-0.1,0.4-0.1c0.5,0,0.9-0.1,1.3-0.1
		c0.4,0,0.7-0.1,1-0.2c0.8-0.2,1.5-0.5,2.3-0.8c1.1-0.5,2-1.2,2.9-2c0.2-0.1,0.3-0.3,0.5-0.5c0,0.2-0.3,0.3-0.3,0.4
		c0.3-0.1,0.4-0.3,0.4-0.6c0-0.1,0-0.1,0.1-0.1c0.1-0.1,0.2-0.3,0.4-0.5c0.1-0.1,0.2-0.3,0.1-0.5c0-0.1,0-0.2,0.1-0.2
		c0-0.1,0.2-0.2,0-0.3c0.1-0.1,0-0.3,0.1-0.4c0.2-0.3,0.3-0.7,0.5-1.1c0.1-0.2,0.2-0.5,0.3-0.7c0.1-0.1,0.1-0.3,0.1-0.4
		c0-0.2,0.1-0.4,0.3-0.6c0.1-0.2,0.1-0.4,0.1-0.6c0,0,0-0.1,0-0.1c0.1-0.3,0.1-0.6,0.2-1c0.1-0.3,0-0.6-0.1-0.8
		c-0.1-0.3-0.1-0.5,0-0.8c0,0,0-0.1,0-0.1c-0.2-0.2,0-0.4-0.1-0.7c0-0.1-0.1-0.3-0.1-0.4c0-0.1-0.1-0.2,0-0.3c0.1-0.1,0.1-0.2,0-0.4
		c-0.1-0.1-0.2-0.2-0.2-0.4c0-0.1-0.1-0.2,0-0.2c0.1-0.1,0.1,0.1,0.2,0.1c0.1,0.1,0.2,0.2,0.2,0.3c0,0,0,0.1,0.1,0.1
		c0.1,0,0.1-0.1,0-0.1c0-0.1-0.1-0.2-0.1-0.3c0,0-0.1-0.1,0-0.1c0.1,0,0.1,0.1,0.1,0.1c0,0.1,0,0.1,0,0.2c0.1,0.2,0.2,0.3,0.4,0.1
		c0,0,0.1-0.1,0.1-0.1c0.1,0.1,0.2,0,0.2-0.1c0.1,0.2,0.2,0.3,0.3,0.4c0.1,0.1,0.1,0.1,0.2,0C142.8,31.9,142.8,31.7,142.7,31.5z
		 M132.4,46.8c0.1-0.1,0.2-0.1,0.3,0C132.6,46.9,132.5,46.9,132.4,46.8C132.4,46.9,132.4,46.8,132.4,46.8z M127.9,37
		c-1.3,0.3-2.1,0.5-2.4,0.7c-0.4,0.1-0.8,0.3-1.1,0.5c-0.2,0.1-0.4,0.1-0.5-0.1c-0.1-0.2-0.2-0.5-0.3-0.8c-0.1-0.3,0-0.5,0.5-0.4
		c0.9-0.1,1.6-0.3,2-0.4c0.4-0.1,0.8-0.3,1.3-0.4c0.5-0.1,1.1-0.3,1.8-0.4c0.6-0.1,1.1-0.2,1.6-0.3c0.3-0.1,0.5,0.2,0.7,0.8
		c0.2,0.6,0.1,0.9-0.2,0.7C130.7,36.6,129.6,36.7,127.9,37z M134.1,44.8c-0.1,0.1-0.2,0-0.2,0c0,0-0.1,0-0.1,0c0-0.1,0-0.1,0.1-0.1
		C133.9,44.7,134,44.7,134.1,44.8C134.1,44.7,134.1,44.8,134.1,44.8z M135.5,34.3c-0.1,0.2-0.4,0.6-0.6,1.3
		c-0.2,0.7-0.6,1.5-0.9,2.5c-0.4,1-0.9,2.1-1.5,3.5c-0.2,0.4-0.3,0.4-0.5,0.2c-0.1-0.2-0.5-0.5-1-0.8c-0.5-0.3-1.1-1-1.8-1.8
		c-0.4-0.5-0.2-0.6,0.4-0.2c0.8,0.6,1.4,0.8,2,0.7c0.3-0.1,0.7-0.9,1.3-2.5c0.6-1.6,0.7-2.5,0.4-2.9c-0.7-0.6-1.9-0.7-3.4-0.5
		c-1.5,0.2-2.6,0.5-3.1,0.7c-0.2,0.3-0.4,0.3-0.6,0.1c-0.2-0.8-0.1-1.8,0.3-2.9c0.4-1.2,0.6-2.2,0.7-3c0-0.5,0.1-0.8,0.4-0.7
		c0.2,0,0.4,0.1,0.7,0.2c0.2,0.1,0.3,0.3,0.2,0.6c-0.1,0.3-0.3,0.8-0.5,1.3c0,0,0,0,0,0.1c0.2,0.1,0.4,0.2,0.5,0.1
		c1.5-0.3,2.7-0.7,3.7-1.3c0.2-0.1,0.4-0.1,0.5,0c0.1,0.1,0.3,0.3,0.5,0.4c0.1,0.1,0.3,0.3,0.3,0.6c0,0.3-0.1,0.4-0.3,0.4
		c-0.3,0-1.3,0.2-2.8,0.6c-1.4,0.4-2.4,0.8-3,1c-0.2,0.9-0.2,1.4-0.1,1.4c0.1,0.2,0.6,0.2,1.5-0.1c0.9-0.2,1.8-0.4,3-0.5
		c1.1-0.1,1.8-0.1,2.2,0c0.3,0.2,0.6,0.4,1.1,0.8C135.7,33.9,135.7,34.1,135.5,34.3z M136.2,43.7c0.1-0.2,0.4-0.3,0.6-0.4
		C136.7,43.5,136.4,43.5,136.2,43.7z M139.2,34.1c0,0.2,0,0.3,0.1,0.4c0.1,0.1-0.1,0.1-0.1,0.2c-0.1-0.3-0.1-0.6-0.2-0.9
		C139.2,33.9,139.2,34,139.2,34.1z M140.2,37.7c-0.2,0.4-0.2,0.7-0.3,1.1c-0.1,0.3-0.2,0.6-0.2,0.9c0,0.1-0.1,0.2-0.2,0.2
		c-0.1,0-0.1-0.1-0.1-0.2c0,0,0-0.1,0-0.1c0.2-0.4,0.2-0.8,0.3-1.2c0,0,0-0.1-0.1-0.1c-0.1,0-0.1,0-0.1,0.1c0,0.4-0.3,0.6-0.4,0.9
		c0,0,0,0.1-0.1,0.1c-0.1,0-0.1,0-0.1-0.1c0,0,0-0.1,0-0.1c0-0.1-0.1-0.1-0.1,0c-0.1,0.1-0.2,0.2-0.3,0.3c0-0.1,0-0.2,0-0.3
		c0.1-0.4,0.3-0.7,0.3-1.1c0,0,0,0,0-0.1c0.4-0.3,0.3-0.7,0.4-1.1c0.1-0.3,0.1-0.5,0.1-0.8c0-0.1,0-0.2,0.1-0.3c0-0.3-0.1-0.6,0-0.9
		c0.2,0.3,0.3,0.6,0,0.9c0.2,0.2,0.2,0.4,0.2,0.6c0,0.3,0,0.3,0.3,0.3c0.1,0,0.1,0,0.1,0.1c0.1,0.1,0.2,0.2,0.3,0.3
		c0.1,0,0.1,0.1,0.1,0.2C140.2,37.4,140.2,37.6,140.2,37.7z"/>
</g>
<g id="XMLID_40_">
	<path id="XMLID_41_" fill="url(#myG)" d="M24.8,157.1c1,0.4,2,1,3,1.5c-0.4-1.2-0.6-3-0.7-5.8C26.6,150.9,25.8,154.2,24.8,157.1z"/>
	<path id="XMLID_248_" fill="url(#myG)" d="M31.1,160.4c0.2-0.4,0.5-0.8,0.7-1.3c-0.4,0.4-0.8,0.7-1.2,1
		C30.7,160.2,30.9,160.3,31.1,160.4z"/>
	<path id="XMLID_250_" fill="url(#myG)" d="M33.7,157.4c0.6,1.3,1.5,1.6,2.8,0C35.7,156.3,34.7,156.6,33.7,157.4z"/>
	<path id="XMLID_360_" fill="url(#myG)" d="M31.8,159C31.8,159.1,31.8,159.1,31.8,159c0.6-0.6,1.3-1.2,1.9-1.7c-0.5-1-0.8-2.7-0.9-4.7
		C32.8,155,32.6,157.4,31.8,159z"/>
	<path id="XMLID_361_" fill="url(#myG)" d="M32.7,152.7c0-2.3-0.2-4.4-0.2-5.7C32.5,149,32.6,151,32.7,152.7z"/>
	<path id="XMLID_363_" fill="url(#myG)" d="M49.7,99.5c1.4-3.3,0.8,14,2.3,10.8c1.4-2,4.3-7.8,6.2-13.2c2-5.4,3.1-10.2,1.3-10
		c-2.7,0.7-5,1.9-7.2,3.3c-1.1,0.7-2.3,1.4-3.4,2c-1.2,0.6-2.3,1.1-3.6,1.6c-4.6,5.3-9.4,11.8-14.3,16.4c-1.2,0.5-2.1-0.9-3-2.2
		c1,2.7,2,5.3,3.2,7.9c0.7,2.3,2.5-1.2,4.4-5.8c2-4.5,4.2-10,6.1-11.4c0.7-1.6-1.5,13.7-0.1,10.5c1.5-1.9,2.9-4.4,4.3-6.5
		c0.7-1,1.3-1.9,2-2.5C48.6,99.8,49.2,99.4,49.7,99.5z"/>
	<path id="XMLID_364_" fill="url(#myG)" d="M11.4,141.1c-1.3-9-3.6-11-6.5-10.2c-0.6,4.2-1.5,8.9-1.2,11.2c0.8-1.5,2.5-4.7,2.5-4.7
		c0.3,11.5,3.6,8,6.9,4.4c0.1-2.6,0.2-5.2,0.2-7.9C12,134.3,11.1,137.7,11.4,141.1z"/>
	<path id="XMLID_366_" fill="url(#myG)" d="M3,131.3c0,0.1,0,0.3,0,0.4c0.6-0.3,1.3-0.6,1.9-0.8c0.1-0.4,0.1-0.9,0.2-1.3
		C4.4,130.1,3.7,130.7,3,131.3z"/>
	<path id="XMLID_368_" fill="url(#myG)" d="M245.4,76.9c0.1,0,0.2-0.1,0.3-0.1c0.1,0,0.2-0.1,0.3-0.2c0.1-0.1,0.1-0.1,0.1-0.1
		c0,0,0,0,0-0.1c0,0,0,0,0,0c0,0,0,0,0,0l0.1-0.2c0-0.1,0-0.1,0-0.1c0,0,0-0.1,0-0.1c0.1-0.1,0.1-0.3,0.1-0.4c0-0.1,0-0.2,0.1-0.2
		l0.2-0.5l-0.2-0.2c0,0-0.4,0-0.4,0c0,0,0.2,0,0.2,0c0,0,0.3,0,0.2,0.1c-0.1,0.1-0.1,0.2-0.2,0.2c0,0-0.1,0-0.2,0.1
		c0,0-0.1,0.1-0.2,0.2c-0.1,0.1-0.2,0.2-0.4,0.3c-0.2,0.1-0.2,0.2-0.3,0.2c0,0.1-0.1,0.1-0.2,0.2c-0.1,0-0.1,0.1-0.1,0.1
		c0,0,0,0,0,0.1c0,0.2-0.1,0.3-0.1,0.4c0,0.1,0,0.3,0.1,0.4c0.1,0,0.2,0,0.2,0C245.3,76.9,245.3,76.9,245.4,76.9z"/>
	<path id="XMLID_369_" fill="url(#myG)" d="M247.3,85.8c0.1,0.1,0.2,0.1,0.3,0.2c0.1,0.1,0.2,0.1,0.3,0c0,0,0.1-0.1,0.1-0.1
		c0,0,0-0.1,0.1-0.2c0.1-0.1,0.1-0.2,0.1-0.3c0-0.1,0-0.1,0-0.1c0,0,0-0.1,0.1-0.2c0-0.1,0.1-0.2,0.2-0.4c0-0.1,0.1-0.2,0.2-0.5
		c0.1-0.2,0.2-0.4,0.2-0.6c0-0.1,0-0.1,0.1-0.2c0,0,0-0.1,0-0.1c0-0.1,0-0.1,0-0.1c0,0,0,0,0-0.1c0,0,0-0.1,0-0.2c0-0.2,0-0.2,0-0.2
		c0,0,0,0,0.1-0.1c0-0.1,0.1-0.2,0.1-0.4c0-0.1,0.1-0.3,0.1-0.4c0.1-0.3,0.2-0.5,0.2-0.6c0-0.1,0-0.3-0.1-0.5c0,0-0.1-0.1-0.1-0.1
		c-0.1,0-0.1,0-0.1-0.1c-0.2-0.2-0.4-0.3-0.6-0.3c-0.2,0-0.3-0.1-0.4-0.1c-0.1,0-0.2-0.1-0.3-0.1c-0.1,0-0.2,0-0.3,0
		c-0.1,0-0.1,0-0.2,0c-0.1,0-0.1,0-0.2,0c-0.1,0-0.2,0-0.4,0c0,0-0.1,0-0.2,0c-0.1,0-0.1,0-0.2,0c0,0-0.2,0-0.4,0.1
		c-0.2,0-0.3,0.1-0.4,0.1c-0.1,0-0.2,0.1-0.2,0.1c0,0-0.1,0-0.1,0.1c0,0,0,0.1-0.1,0.1c0,0,0,0.1-0.1,0.2c0,0.1,0,0.2,0,0.4
		c0,0.2,0,0.3,0,0.4c0,0.1,0,0.2,0,0.4c0,0.1,0,0.3,0,0.4c0.1-0.1,0.2-0.1,0.2-0.1c0,0,0.1,0,0.3,0c0,0,0-0.1,0.1-0.2
		c0-0.1,0.1-0.2,0.1-0.3c0-0.1,0.1-0.2,0.1-0.4c0-0.1,0-0.1,0-0.1c0,0,0-0.1,0-0.2l0,0h0c0.1,0,0.1-0.1,0.1-0.1c0,0,0-0.1,0.1-0.1
		c0.1,0,0.3,0,0.4,0.1c0.1,0.1,0.2,0.1,0.3,0.2c0.1,0.1,0.1,0.1,0.2,0.1c0,0,0,0.1,0.1,0.1c0,0,0,0,0.1,0.1c0,0,0.1,0.1,0.2,0.2
		c0.1,0.1,0.1,0.1,0.1,0.1c0,0,0,0.1,0.1,0.2c0,0,0,0,0,0.1c0,0,0,0,0.1,0.1c0,0,0,0,0,0c0,0,0,0,0,0.1c0,0.1,0,0.1,0.1,0.2
		c0,0,0.1,0.1,0.1,0.1c0,0.1,0,0.1,0,0.1c0,0,0,0.1,0,0.1c0,0,0,0.1,0,0.2c0,0.1,0,0.1,0,0.2c0,0.1,0,0.1,0.1,0.2
		c0,0.1,0,0.2,0.1,0.3c0,0,0,0.1,0,0.1c0,0,0,0,0,0.1c0,0,0,0.1,0,0.1c0,0.1,0,0.2,0,0.2c0,0,0,0.1,0,0.1c0,0,0,0,0,0.1
		c0,0,0,0.1-0.1,0.1c-0.1,0.2-0.2,0.3-0.4,0.4c-0.2,0-0.3,0-0.4,0.1c0,0,0,0,0,0c0,0,0,0,0,0c-0.1,0-0.1-0.1-0.2-0.1
		c-0.1,0-0.1-0.1-0.1-0.2c0,0-0.1-0.1-0.1-0.2c0-0.1-0.1-0.2-0.1-0.3c-0.1-0.1-0.1-0.1-0.2-0.1c-0.1,0-0.2,0.1-0.3,0.2
		c0.1,0.2,0.3,0.3,0.4,0.4c0.1,0.1,0.3,0.3,0.4,0.5c0.1,0.1,0.1,0.2,0.2,0.2C247.1,85.6,247.2,85.7,247.3,85.8z"/>
	<path id="XMLID_370_" fill="url(#myG)" d="M245.3,72c0.1,0.1,0.1,0.2,0.1,0.3c0,0.1,0,0.1,0,0.1c0,0,0,0,0,0c0,0,0,0.1,0,0.1
		c0,0,0,0.1,0,0.1c0,0,0,0,0.1,0.1c0,0.1,0,0.2,0,0.4c0,0.2,0,0.3,0,0.3c0,0,0.1,0.1,0.1,0c0.1,0,0.1,0,0.2,0c0.1,0,0.1,0,0.2,0
		c0,0,0.1,0,0.2,0c0.1,0,0.3-0.1,0.3-0.1c0.1,0,0.2,0,0.3,0c0.2,0,0.3,0.1,0.4,0.3l0,0l0.1-0.1c0.1-0.1,0.1-0.2,0.2-0.3
		c0-0.1,0.1-0.2,0.1-0.3c0.1-0.1,0.1-0.2,0.2-0.4c0.1-0.2,0.1-0.3,0.1-0.4c0-0.1-0.1-0.1-0.2-0.2c-0.1-0.1-0.2-0.1-0.2-0.2
		c-0.2-0.1-0.4-0.2-0.5-0.2c-0.1,0-0.2,0-0.3-0.1c-0.1,0-0.2,0-0.3-0.1c-0.2-0.1-0.4-0.1-0.6-0.1c-0.2,0-0.4,0-0.6,0l-0.6,0.2
		c-0.3,0.1-0.5,0.2-0.6,0.3s-0.2,0.2-0.3,0.3c-0.1,0-0.1,0.1-0.1,0.1c0,0,0,0.1,0,0.1c0,0,0,0.1,0,0.1c0,0-0.1,0.1-0.1,0.1
		c-0.1,0.1-0.2,0.1-0.2,0.2c-0.1,0.1-0.1,0.1-0.3,0.1c-0.1,0-0.2,0-0.1,0c0,0,0,0-0.1,0.1c-0.1,0-0.1,0.1-0.2,0.1
		c-0.1,0.1-0.1,0.2-0.3,0.6c0,0.1,0,0.2,0,0.3c0,0.1,0,0.3,0,0.3c0,0,0.1,0,0.1,0c0,0,0,0,0.1,0c0.2,0,0.3,0,0.3,0
		c0.1,0,0.1,0,0.2,0c0.2-0.1,0.3-0.1,0.4-0.1c0.1,0,0.2,0,0.3-0.1c0.2-0.1,0.2-0.1,0.2-0.1c0,0,0-0.1,0.1-0.1c0-0.1,0-0.1,0-0.1
		c0,0,0,0,0,0c0-0.1,0-0.2,0-0.3c-0.1-0.1-0.2-0.1-0.2-0.2c0,0,0-0.1,0-0.1c0,0,0-0.1,0-0.1c0,0,0-0.1-0.1-0.1c0-0.1,0-0.1,0-0.1
		c0,0,0,0,0-0.1c0,0,0,0,0.1,0c0,0,0,0,0.1,0c0.1,0,0.1-0.1,0.1-0.1c0,0,0-0.1,0-0.2c0,0,0,0,0.1,0c0,0,0-0.1,0.1-0.2
		c0.1-0.1,0.1-0.1,0.1-0.1c0,0,0.1,0,0.1-0.1c0.1-0.1,0.1-0.2,0.1-0.2c0,0,0,0,0.1,0c0.1,0,0.1,0,0.2-0.1c0,0,0.1,0,0.2,0
		C245,71.6,245.2,71.7,245.3,72z"/>
	<path id="XMLID_371_" fill="url(#myG)" d="M245.4,74.6c0,0.1-0.1,0.1-0.1,0.2c0,0.1-0.1,0.1-0.1,0.2c-0.1,0.1-0.1,0.2-0.2,0.3
		c0,0.1,0,0.2,0,0.3c0,0,0.1,0,0.1-0.1c0.1-0.1,0.2-0.2,0.2-0.3c0.1-0.1,0.2-0.2,0.2-0.3c0.1-0.1,0.1-0.2,0.2-0.2
		c0-0.1,0.1-0.1,0.1-0.1c0,0,0.1-0.1,0.1-0.2c-0.2,0-0.3,0-0.4,0C245.5,74.5,245.5,74.5,245.4,74.6z"/>
	<path id="XMLID_372_" fill="url(#myG)" d="M242.1,81c0,0,0.1-0.1,0.2-0.1c0.1,0,0.2-0.1,0.2-0.1l0.3-0.2c0.1-0.1,0.2-0.1,0.3-0.1
		c0.1,0,0.2-0.1,0.3-0.3c0,0-0.1,0-0.2,0c-0.1,0-0.2,0.1-0.2,0.2c-0.1,0.1-0.1,0.1-0.2,0.1c-0.1,0-0.2,0-0.3,0.1
		c-0.2,0.1-0.3,0.2-0.5,0.2c-0.2,0.1-0.3,0.1-0.4,0.2l0,0.1c0,0.1,0,0.1,0,0.1c0,0,0,0,0,0.1c0.1,0,0.2,0,0.3-0.1
		C241.9,81,242,81,242.1,81z"/>
	<path id="XMLID_379_" fill="url(#myG)" d="M242.6,77.6c0,0.1,0,0.2,0,0.3c0,0.1,0.1,0.1,0.2,0.3c0.1,0,0.2-0.1,0.3-0.2
		c0.1-0.1,0.1-0.1,0.1-0.1c0,0,0,0,0.2-0.1c0.2-0.1,0.2-0.2,0.2-0.3c-0.1-0.1-0.1-0.2,0-0.3c0.1-0.2,0.1-0.4,0.1-0.6
		c0-0.1,0-0.3,0-0.4c0-0.1,0.1-0.2,0.1-0.2c0-0.1,0-0.2,0-0.2l0-0.4c0-0.1,0-0.1,0-0.1c0,0,0,0,0-0.1c-0.1,0-0.2,0-0.2,0.1
		c0,0-0.1,0.1-0.2,0.1c0,0-0.1,0-0.3,0.1c-0.2,0.1-0.3,0.1-0.4,0.2c0,0.1-0.1,0.1,0,0.1c0,0,0,0-0.1,0c0,0,0,0,0,0c0,0,0,0-0.1,0.1
		c0,0.2,0,0.4,0.1,0.6c0,0.2,0.1,0.4,0.1,0.5C242.5,77.2,242.5,77.4,242.6,77.6z"/>
	<path id="XMLID_380_" fill="url(#myG)" d="M241.9,76.4l0-0.4c0-0.1,0-0.1-0.1-0.1c0,0-0.1-0.1-0.1-0.2c0-0.1-0.1-0.1-0.1-0.1
		c0,0-0.1-0.1-0.1-0.1c0,0,0,0.1,0,0.1c0,0,0,0,0,0.1c0,0.1,0.1,0.2,0.1,0.3c0,0.1,0.1,0.3,0.2,0.5c0,0,0.1,0.1,0.1,0.2
		c0,0.1,0.1,0.1,0.1,0.1c0,0,0-0.1,0-0.2C242,76.5,242,76.5,241.9,76.4z"/>
	<path id="XMLID_381_" fill="url(#myG)" d="M240,83.6C240,83.5,240.1,83.5,240,83.6L240,83.6z"/>
	<path id="XMLID_382_" fill="url(#myG)" d="M243.8,81.5c0-0.1,0-0.2-0.1-0.3c-0.2,0-0.4,0.1-0.6,0.3c-0.3,0.2-0.5,0.3-0.7,0.4
		c-0.1,0.1-0.2,0.1-0.2,0.1c-0.1,0-0.1,0.1-0.2,0.2c0,0-0.1,0.1-0.1,0.1c0,0-0.1,0.1-0.1,0.1l-0.1,0.2c0,0.1,0,0.2,0,0.3
		c0,0.1,0,0.1,0,0.2c0,0,0,0.1,0,0.1c0,0,0,0.1,0,0.1c0,0,0,0.1,0,0.2c0,0.1,0,0.1,0,0.1c0,0,0,0,0,0.1c0,0,0,0.1,0,0.1
		c0,0,0,0.1,0,0.2c0,0.1,0.1,0.1,0.1,0.1c0,0,0,0.1,0.1,0.1c0.1,0,0.3-0.1,0.4-0.1c0.1,0,0.3-0.1,0.4-0.1c0.1,0,0.2-0.1,0.3-0.1
		c0,0-0.3,0,0.4-0.1v0l0.1-0.2c0,0-0.1-0.1,0-0.1c0.1-0.1,0.1-0.1,0.2-0.2c0.1-0.2,0.1-0.3,0.1-0.3c0,0,0-0.1,0-0.2
		c0-0.2,0-0.3,0.1-0.5c0-0.2,0-0.4,0-0.6C243.8,81.6,243.8,81.5,243.8,81.5z"/>
	<path id="XMLID_383_" fill="url(#myG)" d="M191.7,76.1c-1.6,0.4-2.1,1.3-2.1,2.7v2.7c0,1.2,0.4,2.4,1.5,2.4h0.9c0.8,0,1.3-1.5,1.4-3.9
		C193.3,77.6,192.8,76.1,191.7,76.1z"/>
	<path id="XMLID_384_" fill="url(#myG)" d="M186.2,77.1L186.2,77.1l0.5,0l0.2-0.4v-1h0C186.5,75.8,186.2,76.3,186.2,77.1z"/>
	<path id="XMLID_385_" fill="url(#myG)" d="M267.9,124.2l-0.4,0.2c-0.1,0.1-0.2,0.2-0.3,0.3c-0.1,0.1-0.3,0.2-0.5,0.3
		c-0.1,0-0.2,0.1-0.2,0.1c-0.2,0.1-0.3,0.2-0.4,0.2c0,0.1-0.1,0.1-0.1,0.2c0,0,0,0.1,0,0.2c0,0.1-0.1,0.1-0.3,0.1
		c-0.1,0-0.2,0.1-0.2,0.1c-0.1,0-0.2,0-0.3,0.1l-0.2,0.2c-0.4,0.3-0.8,0.5-1,0.6c-0.2,0-0.4,0.2-0.5,0.6c-0.2,0-0.3,0-0.4,0.1
		l-1,0.7c0.1,0,0.2,0,0.2-0.1c0.1,0,0.1-0.1,0.2-0.1c0.2-0.1,0.3-0.1,0.3-0.1c0,0,0.1,0,0.6-0.1c0.5-0.1,0.8-0.1,0.8-0.2
		c0,0,0.2-0.1,0.5-0.2c0.2,0,0.4-0.1,0.6-0.2c0.1-0.1,0.3-0.1,0.6-0.2c0.2-0.1,0.5-0.2,0.9-0.3c0.3-0.1,0.6-0.2,0.9-0.3
		c0.2-0.1,0.3-0.2,0.2-0.2c0.1,0,0.2,0,0.3,0c0.2-0.7,0.4-0.1,0.6-0.2c0.2-0.1,0.4-0.2,0.5-0.5c0.2-0.4,0.2-0.9,0.1-1.2
		c0-0.3-0.1-0.5,0-0.6c0-0.1,0.1-0.1,0.1-0.1s0.1,0,0.2-0.1c0-0.1,0.1-0.2,0.1-0.4c-0.2,0-0.5,0.2-0.9,0.4
		C268.4,124,268.1,124.1,267.9,124.2z"/>
	<path id="XMLID_386_" fill="url(#myG)" d="M210.7,124.4c0,0.1-0.2,0-0.2-0.2v-0.9c0-0.1,0.2-0.2,0.2-0.2c-0.1-0.1,0.1-0.2,0.1-0.5
		l-0.1-2.7c-0.1,0-0.1,0-0.2,0c0,0-0.1,0-0.2,0c-0.1,0-0.2,0.1-0.5,0.4c-0.2,0.3-0.3,0.4-0.4,0.5c-0.2,0.2-0.3,0.4-0.3,0.3
		c0,0,0,0.1-0.1,0.3c-0.1,0.2-0.3,0.5-0.5,0.7c-0.2,0.2-0.2,0.5,0.1,0.8c0.1,0.1,0.2,0.2,0.3,0.3c0.2,0.2,0.3,0.4,0.5,0.7
		c0.1,0.1,0.2,0.2,0.3,0.3c0.1,0.1,0.2,0.2,0.3,0.3c0.1,0.1,0.2,0.2,0.3,0.3l0.1,0.2h0.3l0-0.4C210.7,124.4,210.6,124.3,210.7,124.4
		z"/>
	<path id="XMLID_387_" fill="url(#myG)" d="M212.5,145.9C212.6,146,212.6,146,212.5,145.9C212.6,145.9,212.5,145.9,212.5,145.9z"/>
	<path id="XMLID_388_" fill="url(#myG)" d="M234.9,38.2c-0.7-0.4-1.4-0.8-2.1-1.2C233.6,37.4,234.3,37.8,234.9,38.2z"/>
	<path id="XMLID_389_" fill="url(#myG)" d="M162.4,131.9c0-0.2,0-0.3,0-0.3c0,0,0-0.1,0-0.2c0-0.1,0-0.2,0-0.2c0,0,0.1-0.1,0.1-0.2
		c0-0.2,0-0.3-0.1-0.5c0-0.2-0.1-0.3-0.1-0.5l-2,0.8c-0.2,0.1-0.4,0.3-0.7,0.3h-0.1c-0.1,0-0.1,0.1-0.1,0c0,0,0,0-0.1,0.1l-0.9,0.6
		c-0.2,0.1-0.4,0.2-0.6,0.4c-0.1,0.1-0.2,0.3-0.4,0.4l-0.1,0.1c-0.1,0.1-0.2,0.2-0.2,0.4l-0.4,0.6c-0.1,0.1-0.1,0.1-0.2,0.2
		c0,0-0.1,0.2-0.2,0.4c0,0.3-0.1,0.4,0,0.3c0-0.1,0.1,0,0.2,0.2c0,0.2,0,0.4,0,0.6c-0.1,0.2,0.1,0.4,0.6,0.7
		c0.2,0.2,0.4,0.4,0.6,0.6c0.1,0.2,0.4,0.4,1,0.7l0.8,0.7c0.2,0.2,0.7,0.5,1.3,0.9c0.6,0.4,1,0.7,1.3,0.7c0-0.2,0.1-0.4,0-0.4
		c0,0,0-0.2,0.1-0.4c0.1-0.4,0.1-0.5,0.1-0.5c0,0-0.1-0.1-0.1-0.3c0-0.1,0-0.2,0-0.5c0-0.2,0.1-0.4,0.1-0.5c0-0.2,0-0.4,0-0.5
		c0-0.1,0-0.3,0-0.6c0-0.2,0.2-0.6,0.2-1c0-0.4,0.2-0.8,0.2-1.1v-0.6v-0.6c0-0.3-0.2-0.5-0.1-0.5
		C162.5,132.2,162.4,132.1,162.4,131.9z"/>
	<path id="XMLID_390_" fill="url(#myG)" d="M153.5,125.4c-0.4,0.2-0.7,0.4-0.9,0.6c-0.2,0.3-0.4,0.3-0.7,0.3h-1.7
		c-0.2,1.3-0.3,0.6-0.3,0.8c0,0.2-0.1,0.6-0.2,0.9c-0.1,0.6-0.2,1.1-0.3,1.5c-0.1,0.4,0,0.9,0.2,1.6c0.3,0.9,0.4,1.7,0.4,2.3
		c0,0.6,0,1,0,1.3c0.2,0,0.3-0.1,0.3-0.1c0,0,0.1-0.1,0.4-0.2c0.2-0.1,0.2-0.1,0.2-0.2c0,0,0.1-0.1,0.2-0.2c0.6-0.4,1-0.7,1.1-0.9
		c0.1-0.2,0.2-0.4,0.4-0.6c0.2-0.2,0.3-0.3,0.3-0.4c0-0.1,0-0.1,0-0.1c0,0,0,0,0-0.2c0-0.2,0.1-0.1,0.1-0.1c0,0,0.1,0,0.1,0
		c0,0,0-0.3,0-0.4c0-0.2,0-0.7,0.1-1.1c0,0,0,0,0,0c0,0,0,0,0,0c0,0,0,0,0,0c0,0,0,0,0,0c0-0.2,0.1-0.7,0.1-1.2
		c0.1-0.3,0.1-0.5,0.2-0.7c0.1-0.3,0.2-0.6,0.2-0.8c0-0.2,0-0.5,0.1-0.7l0.2-1.4c-0.1,0-0.2,0.1-0.3,0.1
		C153.7,125.4,153.6,125.4,153.5,125.4z"/>
	<path id="XMLID_391_" fill="url(#myG)" d="M162.6,122c-0.2-0.1-0.2-0.1-0.2-0.1c0,0,0,0.1-0.2,0.2c-0.2,0.1-0.4,0.1-0.4,0.1
		c0,0-0.1,0-0.4,0.2l-0.7,0.5c0,0-0.1,0.1-0.1,0.1h-0.1c-0.4,0-0.6,0.5-0.7,0.5c-0.1,0-0.3,0.2-0.7,0.5c-0.1,0.1-0.3,0.2-0.6,0.4
		c-0.3,0.2-0.6,0.3-0.8,0.4c0,0,0,0-0.1,0c0,0,0,0.1-0.1,0.2c-0.3,0.1-0.6,0.2-0.8,0.2c-0.3,0.1-0.4-0.1-0.4-0.6
		c0.3-0.1,0.6-0.2,0.8-0.3c0.2-0.1,0.3-0.2,0.5-0.3c0.1-0.1,0.2-0.2,0.4-0.4c0.1-0.2,0.3-0.3,0.6-0.5c0.1,0,0.2-0.1,0.4-0.2
		c0.1-0.1,0.4-0.1,0.4-0.2v-0.2c0,0-0.4,0.1-0.9,0.3c-0.5,0.2-0.8,0.3-1,0.5c-0.4,0.2-0.6,0.3-0.7,0.4c-0.1,0.1-0.2,0.2-0.2,0.2
		c0,0.1-0.1,0.1-0.1,0.2c0,0.1-0.1,0.3-0.2,0.5c-0.2,0.3-0.2,0.5-0.1,0.6c0.1,0.1,0.1,0.3,0,0.6c-0.1,0.6-0.2,1-0.2,1.3
		c-0.1,0.2-0.1,0.4-0.1,0.6c0,0.1-0.1,0.3-0.2,0.4c-0.1,0.1-0.3,0.4-0.3,0.8v1.9c0,0.1,0,0.1,0,0.1c0,0,0,0.1,0.1,0.2
		c0,0,0,0.1,0,0.1c0,0,0,0,0,0.2c0.5-0.1,0.7-0.3,0.7-0.5c0-0.2,0.1-0.5,0.3-0.9l0.5-1.8c0.1-0.3,0.2-0.6,0.2-0.8
		c0-0.2,0.1-0.3,0.1-0.4c0.1,0.1,0.1,0.1,0.1,0.1c0,0-0.1,0.1-0.1,0.2v1.2c0,0.5,0,0.8,0,1.1c0,0.2,0,0.5,0,0.7
		c0.2,0,0.6-0.2,1.1-0.6c0.5-0.4,0.9-0.6,1.3-0.7c0,0,0.1-0.1,0.2-0.1c0,0,0.1-0.1,0.1-0.1c0,0,0.1-0.1,0.1-0.1l1.7-0.7
		c0.1-0.1,0.1-0.2,0.1-0.1c0,0.1,0,0,0.2-0.1c0.2-0.2,0.3-0.4,0.3-0.6c0-0.2,0-0.4,0-0.5l0.3-2.5c0-0.2,0-0.3-0.1-0.3
		c-0.1,0,0-0.1,0.1-0.4c0,0,0-0.3,0-0.8C162.8,122.4,162.7,122.1,162.6,122z"/>
	<path id="XMLID_392_" fill="url(#myG)" d="M136.8,117.1c0,0.2,0,0.3-0.1,0.2c0-0.1,0-0.1,0.1,0.2c0.1,0,0.1-0.1,0.2-0.1c0,0,0-0.1,0-0.3
		H136.8z"/>
	<path id="XMLID_393_" fill="url(#myG)" d="M162.9,113.1c0-0.2,0-0.4,0-0.6c0-0.3,0.1-0.4,0-0.4c0,0-0.1-0.1-0.1-0.3
		c-0.1-0.4-0.1-0.6-0.1-0.6c0,0,0-0.2-0.2-0.4c-0.1,0-0.2,0-0.3,0c-0.1,0-0.2,0.1-0.4,0.1c-0.5,0.1-0.8,0.1-0.9,0.2
		c-0.1,0-0.4,0.1-0.8,0.2c-0.1,0-0.1,0.1-0.2,0c0,0-0.1,0-0.2,0c-0.2,0.1-0.3,0.2-0.4,0.3c-0.1,0.1-0.3,0.3-0.4,0.5
		c-0.1,0.1-0.2,0.2-0.4,0.4c-0.2,0.2-0.3,0.4-0.3,0.6c-0.1,0.2-0.2,0.5-0.2,0.7c-0.1,0.2-0.2,0.4-0.2,0.5c-0.1,0.1-0.2,0.3-0.2,0.4
		c0,0-0.1,0.1-0.2,0.1l-0.1,0.1v0.1l-0.1,0.2c0,0.1,0,0.1,0,0.2c0,0,0,0.1-0.1,0.2c-0.1,0.1-0.2,0.2-0.2,0.2c0,0.1-0.1,0.2-0.1,0.2
		c-0.1,0.1-0.2,0.2-0.2,0.2c-0.1,0.1-0.1,0.1-0.2,0.2c0,0.1-0.1,0.3-0.2,0.7c-0.1,0.4-0.1,0.6-0.1,0.7c0,0.2,0,0.3,0,0.2
		c0-0.1,0,0,0,0.2c0,0.5,0,0.8-0.1,0.9c0,0.1-0.1,0.2-0.1,0.5c0,0.2-0.1,0.6-0.1,0.9c0,0.2-0.1,0.4-0.1,0.5c0,0.1,0,0.2,0.2,0.3
		c0.1,0,0.4,0,0.8-0.2c0.5-0.1,0.7-0.2,0.8-0.2l2.4-1.3c0.1-0.1,0.3-0.2,0.5-0.3c0.2-0.1,0.3-0.2,0.4-0.2c0.1-0.1,0.2-0.2,0.4-0.3
		c0.2-0.1,0.4-0.3,0.6-0.3c0.2-0.2,0.4-0.6,0.5-1c0.1-0.2,0.1-0.3,0.1-0.4c0-0.1,0-0.2,0-0.4c0-0.2,0.1-0.3,0.1-0.2
		c0,0.1,0.1,0.1,0.1-0.1c0-0.2,0-0.3,0-0.2c0,0.1,0,0.1,0-0.1c0,0,0-0.1,0-0.2c0-0.1,0-0.1,0-0.2c0-0.1,0.1-0.2,0.1-0.2
		c0,0,0-0.1-0.1-0.3l0.1-1.4C162.9,113.6,162.9,113.3,162.9,113.1z"/>
	<path id="XMLID_394_" fill="url(#myG)" d="M171.5,128.9c-0.3-0.2-0.7-0.3-1.3-0.4c-0.5-0.1-1.2-0.1-2-0.1c-0.1,0-0.1,0-0.2,0
		c0.1,0,0.1-0.1-0.1,0c-0.4,0.1-0.9,0-1.4,0c-0.5,0-0.8,0.5-1,1.4c0,0.2-0.1,0.3,0,0.4c0,0.1,0,0.2,0,0.3c0,0.2-0.1,0.3-0.1,0.3
		c0,0,0,0-0.1,0.2c0,0.1-0.1,0.3-0.1,0.7c0,0.4-0.1,0.6-0.1,0.8c0,0.2,0,0.4,0,0.3c0,0,0,0.1-0.1,0.3c0,0.1,0,0.1,0,0.1
		c0,0,0,0.1,0,0.2c0,0,0,0.1,0,0.1c0,0,0,0,0,0.1c0,0.2-0.1,0.3-0.1,0.3c0-0.1,0,0,0.1,0.3c0,0.1,0.1,0.3,0,0.6
		c0,0.3-0.1,0.6-0.2,0.8c-0.1,0.6-0.1,1.2,0,2c0.1,0.8,0.1,1.3,0,1.7c-0.1,0.6-0.1,0.9-0.2,1.1c0,0.2,0.1,0.4,0.3,0.7l0.2,0.3
		c0.3,0.3,0.6,0.5,0.9,0.5c0.2,0,0.4-0.1,0.5-0.2c0.1-0.1,0.2-0.2,0.4-0.3c0.1-0.1,0.2-0.1,0.2-0.1c0,0,0.1-0.1,0.1-0.2
		c0-0.2,0.1-0.3,0.2-0.4c0.1-0.1,0.2-0.1,0.2-0.1c0.1,0,0.1,0,0.2-0.1c0.6-0.5,1-1,1.3-1.6c0.3-0.6,0.5-1.2,0.7-1.7
		c0.2-0.6,0.4-1.2,0.5-1.9c0.2-0.7,0.5-1.3,0.9-1.9c0.4-0.7,0.7-1.3,0.9-1.8c0.2-0.5,0.3-1.2,0.3-2c-0.1,0-0.3-0.1-0.5-0.2
		C172.1,129.2,171.8,129.1,171.5,128.9z"/>
	<path id="XMLID_395_" fill="url(#myG)" d="M165.9,114l0.1,1.5c0.2,0,0.4,0,0.4-0.1c0-0.1,0.1-0.3,0.3-0.6l0.7-0.9c0.5-0.6,0.9-1,1-1.3
		c0.2-0.3,0.2-0.5,0.1-0.6c-0.1-0.1-0.3-0.2-0.5-0.2c-0.2,0-0.4-0.1-0.6-0.2l-0.4-0.2l-0.7-0.2c-0.1,0.2-0.1,0.3-0.2,0.3
		c0,0-0.1,0.1-0.2,0.3c-0.1,0.5-0.2,0.8-0.1,0.9c0,0.1,0.1,0.4,0.1,0.7c0,0.1,0,0.2-0.1,0.2C166,113.6,165.9,113.7,165.9,114z"/>
	<path id="XMLID_396_" fill="url(#myG)" d="M271.7,118.4C271.7,118.4,271.7,118.4,271.7,118.4C271.7,118.4,271.7,118.4,271.7,118.4z"/>
	<path id="XMLID_397_" fill="url(#myG)" d="M218.9,82.2c0,0,0,0.1,0,0.1c0,0,0,0.1,0.1,0.1c0,0,0.1,0.1,0.2,0.2c0.2,0,0.2,0,0.3-0.1
		c0,0,0.1,0,0.1-0.1c0,0,0.1,0,0.1,0c0,0,0.1,0,0.1,0l0.8-0.4c0.1-0.1,0.2-0.1,0.4-0.1c0.2,0,0.3-0.1,0.5-0.1c0.1,0,0.2,0,0.4,0
		c0.2,0,0.4,0,0.5,0.1c0,0,0.1,0.1,0.1,0.2c0,0.1,0.1,0.2,0.1,0.2c0,0.1,0,0.2,0,0.2c0,0-0.1,0.1-0.1,0.2c0.1,0.1,0.2,0.2,0.1,0.3
		c0,0.1-0.1,0.2-0.3,0.3c-0.1,0.1-0.3,0.2-0.4,0.3c-0.2,0.1-0.3,0.2-0.3,0.3c0,0-0.1,0.1-0.1,0.1c0,0-0.1,0.1-0.1,0.1c0,0,0,0-0.1,0
		c0,0-0.1,0.1-0.1,0.1c-0.1,0-0.1,0-0.1,0c0,0,0,0,0,0c0,0-0.1,0-0.2,0.1c-0.1,0.1-0.2,0.1-0.3,0.2c-0.1,0.1-0.2,0.1-0.2,0.2
		c-0.1,0.1-0.1,0.1-0.1,0.2c0,0-0.1,0-0.2,0.1c-0.1,0-0.2,0.1-0.2,0.1c0,0.1,0,0.1,0,0c0,0,0,0,0.1,0.1c0,0,0,0.1,0,0.1
		c0,0.1,0,0.1,0,0.1c0,0,0,0,0.1,0.1c0.1,0.1,0.2,0.2,0.3,0.2c0.1,0,0.2,0,0.3-0.1l0.1,0c0.1,0,0.2,0,0.1,0c0,0,0.1,0,0.3,0
		c0.2,0,0.4,0,0.6,0c0.2,0,0.3,0.1,0.4,0.1c0.1,0,0.2,0,0.2,0c0.1,0,0.1,0,0.2,0c0.1,0,0.2,0,0.2,0.1c0,0,0.1,0.1,0.1,0.2
		c0.1,0,0.2,0,0.2,0c0,0,0,0,0.1,0.1c0,0.1,0,0.2,0,0.3c0,0.1,0,0.2,0,0.3c0,0.1,0,0.2-0.1,0.3c0,0-0.1,0.1-0.2,0.1
		c-0.1,0-0.1,0.1-0.2,0.1c0.1,0.1,0.3,0.2,0.6,0.3c0.2,0.1,0.4,0.2,0.6,0.3l0.2,0c0,0,0-0.1,0.1-0.2c0-0.1,0-0.2,0-0.3
		c0-0.4,0-0.7,0-1c0-0.2,0-0.5-0.1-0.9c0-0.1,0-0.2,0-0.3c0-0.1,0-0.2-0.1-0.3c0-0.1,0-0.2,0-0.3c0-0.1,0-0.2,0-0.3
		c0-0.1,0-0.1,0-0.2c0,0,0-0.1,0-0.1c0-0.2,0-0.4,0-0.6c0-0.2,0-0.4,0-0.6c0-0.2,0-0.4,0-0.6c0-0.2,0-0.4,0-0.6c0-0.2,0-0.4,0-0.6
		c0-0.2,0.1-0.4,0.1-0.6c0-0.2,0-0.4,0.1-0.6c0-0.2,0.1-0.5,0.1-0.6l0.1-1.2c0-0.2,0-0.4,0-0.6c0-0.2,0-0.4,0-0.6c0-0.3,0-0.7,0-1.1
		c0-0.4-0.1-0.8-0.3-1.2c-0.1-0.1-0.1-0.2-0.1-0.3c-0.4-0.2-0.9-0.3-1.4-0.3c-0.1,0-0.2,0-0.2,0c0,0-0.1,0-0.1,0c0,0-0.1,0-0.1,0
		c-0.1,0-0.2,0-0.3,0c-0.1,0-0.2,0.1-0.3,0.1c-0.1,0.1-0.3,0.1-0.3,0.1c-0.2,0.1-0.4,0.2-0.6,0.5c-0.1,0.1-0.2,0.3-0.2,0.5
		c0,0.2-0.1,0.3-0.1,0.5c0,0.2-0.1,0.3-0.1,0.4c0,0.1,0,0.2-0.1,0.2c0,0.1-0.1,0.2-0.2,0.2c-0.1,0.1-0.2,0.1-0.3,0.2
		c0,0.1,0,0.2,0,0.2c0,0.1,0,0.1,0,0.2c-0.1,0.1-0.1,0.3-0.1,0.3c0,0.1,0,0.1,0,0.1c0,0,0,0.1,0,0.1c0,0,0,0.1,0,0.2
		c0,0.1,0,0.1-0.1,0.1c0,0-0.1,0.1-0.1,0.1l0.1,0.2c0.1,0,0.2,0,0.3,0c0.1,0,0.2,0,0.2,0c0.1,0,0.2,0,0.2-0.1c0,0,0.1,0,0.1-0.1
		c0,0,0.1,0,0.2-0.1c0.1,0,0.3,0,0.5,0c0,0,0.1,0,0.1,0c0,0,0,0,0.1,0c0.1,0,0.2,0,0.2,0c0.1,0,0.1,0,0.2,0c0.2,0,0.2,0,0.2,0
		c0,0,0.1,0,0.2,0c0.1,0,0.2,0,0.2,0c0.1,0,0.1,0,0.2,0c0.3,0,0.4,0,0.4,0.1c0,0,0.1,0.1,0.1,0.3c0,0,0.1,0.2,0.1,0.4
		c0.1,0.2,0.1,0.4,0,0.5c-0.2,0.2-0.3,0.3-0.4,0.3c-0.1,0-0.3,0.1-0.4,0.1c-0.1,0-0.2,0.1-0.4,0.2c-0.1,0.1-0.3,0.3-0.4,0.6
		c-0.1,0.2-0.1,0.2-0.1,0.2c0,0-0.1,0.1-0.1,0.2c-0.1,0.1-0.1,0.1-0.2,0.2c-0.1,0-0.2,0-0.2,0c0-0.1-0.1-0.1,0-0.2
		c0,0,0-0.1,0.1-0.2c0-0.1,0-0.2,0-0.3c0,0,0-0.1,0.1-0.1c0,0,0-0.1,0-0.2c0-0.1,0-0.2,0-0.4c-0.1,0-0.2,0-0.4,0
		c-0.1,0-0.2,0-0.3,0.2c-0.1,0.2-0.2,0.3-0.2,0.3c0,0-0.1,0.1-0.3,0.1c0,0.1,0,0.1,0,0.2c0,0.1,0,0.1-0.1,0.1
		c-0.1,0.1-0.1,0.1-0.2,0.1c0,0-0.1,0-0.1,0c0,0,0,0-0.1,0.1c0,0,0,0.1-0.1,0.2c0,0.1,0,0.2,0,0.2c0,0,0,0,0,0.1
		c0,0.1-0.1,0.1-0.1,0.1c0,0,0,0.1,0.1,0.2C219,82,219,82.1,218.9,82.2z"/>
	<path id="XMLID_400_" fill="url(#myG)" d="M344.3,109.2c-0.3-1.1-0.6-2.2-0.9-3.3c-0.7-2.2-1.5-4.3-2.6-6.4c-1-2.1-2.1-4.2-3.4-6.2
		c-0.6-1-1.3-1.9-2-2.9c-0.3-0.5-0.7-0.9-1.1-1.4c-0.4-0.3-0.9-0.7-1.3-1c-6.8-5.4-14.2-11.3-21.3-16.5c-7.1-5.3-13.8-9.9-19-13.1
		c-5.2-3.3-8.9-5.2-9.6-5.5c-2.7-1.4-5.1-2.6-7.3-3.8c-2-1-4-2.1-5.9-3.1c-1.8-0.9-3.3-1.7-4.7-2.4c-1.4-0.7-2.7-1.2-3.8-1.7
		c-4.4-1.9-6.8-2.1-8.7-1.7c-2,0.4-3.6,1.3-6.5,1.4c-0.7,0-1.5,0-2.4-0.2c-0.9-0.1-1.9-0.4-3-0.7c-1.7-0.5-3.7-1.3-6-2.6
		c0.2,0.1,0.5,0.3,0.7,0.4c0.9,0.6,1.7,1.2,2.4,1.8c1.5,1.3,2.8,2.6,3.8,4c1,1.4,1.7,2.8,2.1,4.2c0.4,1.3,0.4,2.6,0.1,3.6
		c-0.3,1-0.9,1.9-2,2.3c-1,0.4-2.4,0.5-4.2,0.1c-0.9-0.2-1.8-0.6-2.8-1.1c-1-0.5-2.2-1.2-3.4-2c-2.4-1.7-5.2-4-8.3-7.2
		c-1.1-1.1-2.2-2.3-3.3-3.4c-1.1-1.1-2.1-2.1-3-3c-1.9-1.9-3.6-3.5-5.1-4.8c-3-2.7-5.3-4.3-7.2-5.3c-1.9-0.9-3.3-1-4.4-0.5
		c-1.2,0.4-2,1.4-2.8,2.8c-0.7,1.4-1.5,2.9-2.2,4.6c-0.7,1.6-1.4,3.4-2.4,4.7c-0.9,1.3-2,2.4-3.3,2.9c-0.6,0.3-1.4,0.3-2.2,0.2
		c-0.8-0.1-1.6-0.4-2.5-1c-0.9-0.6-1.7-0.7-2.4-0.7c-0.4,0-0.7,0.1-1,0.2c-0.3,0.1-0.7,0.2-1,0.4c-1.3,0.7-2.6,1.7-4.2,1.8
		c-1.3-0.7-2.6-1.4-3.8-1.9c-1.2-0.5-2.4-0.8-3.5-1.1c-2.2-0.4-4.3-0.5-6.3-0.1c-1,0.2-2,0.5-2.9,0.9c-0.5,0.2-1,0.4-1.5,0.6
		c-0.5,0.2-1,0.4-1.5,0.6c-1,0.5-1.9,1-2.9,1.6c-0.5,0.3-1,0.6-1.4,0.9c-0.5,0.3-1,0.7-1.5,0.9c-2,1.2-4.1,2.6-6.1,3.9l-1.6,1
		c-0.5,0.3-1.1,0.6-1.6,0.9c-1.1,0.6-2.2,1.1-3.3,1.6c-1.1,0.5-2.3,1-3.4,1.4c-0.6,0.2-1.1,0.4-1.8,0.6c-0.6,0.1-1.2,0.3-1.8,0.4
		c-2.4,0.4-4.9,0.5-7.5,0.2c-1.3,0.2-2.6,1.1-3.9,2.7c-1.3,1.5-2.5,3.6-3.7,6c-1.2,2.3-2.4,4.9-3.6,7.4c-0.6,1.2-1.2,2.5-1.8,3.6
		c-0.6,1.1-1.3,2.2-1.9,3.2c-1.8,1.3-3.7,0-5.5-1.6c-1.8-1.6-3.4-3.5-4.9-3.6C94,73.3,89.7,78.4,85.3,85c4.6-2.5,8-6.4,12.9-8.4
		c1.6-0.5,0.9,4.5-0.5,10.1c-1.4,5.6-3.7,11.7-4.9,13.8c-1.1,3.4-1.9-13.9-3-10.5c-2.1-0.1-4.3,6.7-6.9,10.9
		c-1.2,3.4-0.1-12.1-0.7-10.4c-1.6,1.6-3.4,7.2-5,12c-1.6,4.7-3,8.5-3.9,6.2c-1.3-2.5-2.5-5.1-3.6-7.6c-0.8-1-1.5-1.7-2.5-1.3
		c-0.7,1.2-1.4,2.4-2.1,3.7c-5,8.3-10.8,15.6-16.3,21.4c0,0.4-0.1,0.9-0.1,1.4c2.8-1,5.2,0.6,7,9.6c-0.5-3.4,0.1-6.9,1.5-7.5
		c0.1,2.6,0.2,5.3,0.2,7.9c-2.9,3.9-5.9,7.8-6.9-3.7c0,0-1.5,3.3-2.2,4.9c-0.5-2.3,0.1-7.1,0.5-11.2c-0.6,0.2-1.2,0.5-1.8,0.9
		c0.1,3.9,0.7,8.5,1.4,12.1c0.6,3.6,1.3,6.2,1.3,6.2c3.6,0.3,7,0.9,10.4,1.8c3.3,0.8,6.6,1.7,9.8,2.9c0.8-3,1.4-6.4,1.9-4.5
		c0.3,2.8,0.7,4.5,1.1,5.7c0.9,0.4,1.9,0.8,2.8,1.2c0.4-0.3,0.7-0.7,1.1-1.1c0,0,0,0,0-0.1c0.7-1.7,0.7-4.1,0.5-6.4
		c-0.3-1.7-0.5-3.7-0.6-5.7c0.1,1.3,0.4,3.5,0.6,5.7c0.3,2,0.7,3.6,1.2,4.6c0.4-0.4,0.9-0.7,1.3-0.9c-0.4,0.3-0.7,0.7-1.1,1.2
		c-0.1-0.1-0.1-0.2-0.2-0.3c-0.6,0.6-1.2,1.3-1.8,1.9c-0.2,0.4-0.4,0.9-0.6,1.3c2.1,1,4.3,1.8,6.5,2.8c0.5-0.4,1-0.7,1.5-1.2
		c1.7-2,3.4-3.9,4,3.7c0.4,0.2,0.8,0.3,1.2,0.6c-0.1-0.5-0.1-0.9-0.2-1.4c0.2,0.5,0.3,1,0.4,1.5c1.6,0.8,3.3,1.6,5,2.4
		c3.3,1.5,6.6,2.8,10.1,4.2c1.4,0.6,2.8,1.3,4.2,1.8c1.4,0.6,2.8,1.1,4.2,1.5c2.8,0.8,5.5,1.5,8.3,2.1c1.4,0.3,2.8,0.6,4.2,0.8
		l2.1,0.3l2.1,0.2c2.8,0.3,5.6,0.5,8.4,0.6c1.4,0.1,2.8,0.2,4.2,0.3c1.4,0.1,2.8,0,4.2,0c2.8,0,5.7,0,8.6,0.1c0.7,0,1.5,0,2.2,0.1
		c0.7,0,1.5,0,2.2,0c1.5,0,3,0,4.5,0c1.5,0,3,0.1,4.6,0.2c1.5,0.1,3.1,0.2,4.7,0.2c3.4,0.2,6.9,0.6,10.4,1.1
		c0.9,0.1,1.8,0.2,2.6,0.4c0.9,0.1,1.8,0.2,2.6,0.3c1.8,0.2,3.5,0.5,5.3,0.7c1.8,0.3,3.6,0.6,5.4,0.9c1.8,0.3,3.7,0.6,5.5,0.8
		c1.8,0.3,3.7,0.6,5.6,1c1.9,0.4,3.8,0.8,5.7,1.1c3.8,0.6,7.5,0.7,11.1,0.3c3.5-0.5,7-1.5,10.3-2.6c0.8-0.3,1.7-0.6,2.5-0.9l2.4-1.1
		c1.6-0.7,3.2-1.5,4.8-2.3l2.4-1.2c0.8-0.4,1.6-0.8,2.4-1.3c1.6-0.9,3.2-1.7,4.8-2.6c1.6-0.8,3.3-1.6,4.9-2.4
		c1.6-0.8,3.3-1.6,5.1-2.4c1.7-0.7,3.5-1.4,5.3-2c1.8-0.7,3.7-1.3,5.7-1.8c2-0.5,4-0.9,6.1-1.3c2.1-0.4,4.3-0.7,6.7-0.9
		c4.7-0.3,9.8-0.5,15.6-0.1c2.1,0.1,4.2-0.4,6.3-1.2c2.1-0.8,4.1-1.9,6-3.4c1.9-1.5,3.8-3.2,5.6-5.2c0.5-0.5,0.9-1,1.3-1.5
		c0.4-0.5,0.9-1.1,1.3-1.6c0.9-1.1,1.7-2.2,2.5-3.4c0.8-1.2,1.6-2.3,2.4-3.5c0.8-1.2,1.5-2.5,2.2-3.7c0.7-1.2,1.4-2.5,2.1-3.7
		c0.7-1.3,1.3-2.6,2-3.8c0.6-1.3,1.2-2.5,1.8-3.7c0.6-1.3,1.2-2.5,1.7-3.7c1.1-2.4,2.2-4.7,3.1-6.7
		C344.8,111.4,344.5,110.3,344.3,109.2z M101.2,152.6c1.6-2.7,3.6,0.1,5.2,7.7C104.2,166.8,102.5,160.4,101.2,152.6z M171.5,76.5
		h0.3l1.8,0.7c0.3,0,0.5-0.7,0.7-1.4h0.2c0.3,0,0.6,1.4,0.9,4.1c0,2.9-0.3,4.3-0.9,4.3c-2-1.1-3.1-2.7-3.1-4.7
		c-0.2,0-0.4-0.9-0.6-2.3L171.5,76.5z M160,85.4l0,0.5v0.5l0.3,1c0,0.4-0.2,0.6-0.5,0.6h-0.3c-0.2,0-0.8-0.1-1.7-0.3
		c-0.8-0.4-1.2-0.6-1.2-1.2l-0.1-0.5l0.1-1v-0.6c0-0.2-0.1-0.4-0.2-0.5c0.1-0.2,0.1-0.4,0.1-0.7c0-0.2,0.1-0.9-1.3-2.2v-0.2
		c1.3,0.4,2.7,1,3.5,1.9C159.2,83.6,159.7,84.5,160,85.4z M135.1,72.4c0.9,0.4,1.4,0.7,2,0.7h0.8c1,0,3.8-1.1,8.4-3.1l2.8-1.3l0-0.3
		c0-0.3-0.1-0.6-0.2-0.8l0,0.1h-0.3l-0.2-0.3c-0.1,0-0.2,0-0.3,0l-0.1-0.3c0,0,0.1,0,0.2,0l0.2,0.3c0.2,0,0.4,0.1,0.5,0.3l0.2-0.6
		v-0.4c0,0,0.6-0.1,0.6-0.3c-0.2-0.6-0.3-1.8-0.4-3.4c-0.2-0.6-0.3-1-0.6-1.1c-0.9-0.4-2.3-0.6-2.3-0.7V61l1.8-0.4l0.2,0.1v-0.1v0
		v-0.1c0-0.2,0-0.4-1.3-0.6v-0.1l0.1-0.1h0l1.2,0.1v-0.1c0,0.1,0.3,0.1,0.6,0.1l0,0c0.7,0,1.4,0.6,2.5,1.7c0.8,1.2,1,2.2,1,3.2v1
		l0.1,0.9c0.4,0.2,0.9,0.5,1.4,0.5h1.5c0.9,0,1.6,0,2.1,0.5c1.4,0.1,2.1,0,2.1,0.2c0,0.2-0.3,0.4-0.8,0.5l-0.3,0.3l-0.5-0.1
		c-1.5,1.2-2.5,1.7-3.1,1.7c-2.2,0.5-3.3,0.9-3.3,1.2c-0.7,1.9-1.2,3.9-1.5,6.1c-1,3.1-1.7,4.6-2.2,4.6c-0.9,1-1.8,1.5-2.9,1.5
		c0,0.1-0.8,0.2-2.3,0.3c-0.6,0-1.4-0.1-2.4-0.4c-1-0.9-1.5-1.5-1.5-1.9c-0.1,0-0.2-0.3-0.2-0.3h0.2c0.8,0,1.4,0.3,1.9,0.3
		c0.2-0.2,0.5-0.3,1.1-0.3c2.4-0.9,4-2,4.9-3.4c1-2,1.5-3.2,1.5-3.6l0.1-1.4v-0.5v-0.5h-0.3l-7.3,3.1c-1.4,0.4-2.5,0.9-3.1,0.9h-0.1
		c-0.6,0-1-0.6-1.9-1.7c-0.1,0-0.7-0.4-0.7-1.1v-0.1C135,72.5,134.9,72.4,135.1,72.4z M179.5,130c0,0.2-0.1,0.3-0.2,0.4
		c-0.1,0-0.2,0.1-0.3,0.2c0,0.1-0.1,0.2,0,0.2c0,0,0,0.1-0.2,0.2l-0.1,0.2c-0.2,0.3-0.3,0.5-0.3,0.6c-0.1,0.2-0.2,0.4-0.3,0.5
		c-0.1,0.1-0.3,0.2-0.5,0.5c-0.1,0.1-0.1,0.2-0.2,0.3c0,0.1-0.1,0.2-0.2,0.3c-0.1,0.1-0.2,0.1-0.2,0.2c-0.1,0-0.2,0.1-0.3,0.2
		c-0.2,0.2-0.5,0.7-0.7,1.3c-0.2,0.7-0.4,1.3-0.7,2.1c-0.2,0.7-0.5,1.5-0.7,2.2c-0.3,0.7-0.5,1.2-0.8,1.6c-0.1,0.2-0.1,0.4-0.2,0.4
		c0,0-0.1,0.1-0.2,0.3c-0.1,0.2-0.1,0.3-0.2,0.3c0,0-0.1,0.1-0.1,0.1c-0.1,0.1-0.1,0.1-0.2,0.2c0,0.1-0.1,0.3-0.1,0.6
		c0,0.2-0.1,0.3-0.1,0.4c0,0,0,0.1-0.1,0.2c-0.1,0.2-0.2,0.4-0.2,0.6c-0.1,0.1-0.2,0.3-0.4,0.5c-0.3,0.2-0.6,0.6-0.8,1
		c-0.2,0.4-0.5,0.7-0.8,0.9c-0.1,0.1-0.2,0.1-0.3,0.2c-0.1,0-0.2,0.1-0.3,0.3l-0.1,0.1c-0.1,0.1-0.1,0.1-0.1,0.1c0,0,0,0.1-0.1,0.2
		c-0.2,0-0.4,0-0.4-0.1s-0.1,0-0.4,0.1c-0.2,0.1-0.4,0.2-0.5,0.2c-0.1,0.1-0.3,0.1-0.5,0.1c-0.2,0-0.4,0.1-0.6,0c-0.1,0-0.4,0-0.7,0
		c-0.1-0.2-0.2-0.5-0.5-1c-0.2-0.4-0.4-0.7-0.5-0.9c0-0.3-0.1-0.4,0-0.5c0,0-0.1-0.1-0.3-0.1c0.1,1.1,0.1,1.9,0.2,2.4
		c0.1,0.5,0.1,1.3,0.1,2.4v0.3v0.2v0.4c0,0.1,0.2,0.2,0.2,0.3c0.1,0.1,0.2,0.2,0.3,0.5l0.1,0.8c0.1,1.3,0,2.3-0.3,3.2
		c-0.3,0.9-0.8,1.4-1.3,1.6c-0.5,0.2-1.1-0.1-1.7-0.7c-0.6-0.6-1-1.8-1.2-3.4c0-0.2,0-0.5,0-0.9c0-0.3,0-0.6,0.1-0.8
		c0-0.1,0.1-0.1,0.1-0.1c0,0,0.1,0,0.2-0.1c0.1-0.1,0.2-0.2,0.3-0.3c0.1-0.1,0.3-0.1,0.3-0.2c0,0,0.4-0.1,0.4-0.2c0-0.1,0-0.3,0-0.6
		c0-0.5,0-0.9,0-1.3c0-0.4,0-0.7,0-1c0-0.3-0.3-0.7-0.3-1c0-0.3-0.2-0.8-0.2-1.3c0-0.2,0-0.3,0-0.4c0-0.1,0-0.2,0-0.4
		c0-0.2,0.1-0.4,0.1-0.5c0-0.1,0.2-0.3,0.2-0.5c0-0.2,0.2-0.2,0.2-0.2c0,0,0-0.1,0-0.3c0-0.2-0.3-0.3-0.2-0.5c0-0.2-0.3-0.3-0.4-0.6
		c0-0.1-0.1-0.2-0.2-0.3c-0.2-0.1-0.3-0.2-0.5-0.4c-0.1-0.2-0.3-0.3-0.4-0.5l-1.6-1.3c0,0,0,0-0.1-0.1l-0.6-0.5c0,0-0.1,0-0.1-0.1
		l-0.4-0.4c-0.3-0.2-0.4-0.4-0.4-0.4c0,0-0.1-0.2-0.3-0.4c-0.2-0.1-0.4-0.4-0.8-0.8c-0.4-0.4-0.6-0.6-0.8-0.6l-0.5,1.3
		c-0.1,0.2-0.2,0.5-0.1,0.6c0.1,0.2,0,0.4-0.1,0.5c0,0.1-0.1,0.2-0.1,0.2c0,0.1,0,0.2,0,0.3c0,0.2-0.1,0.4-0.1,0.6
		c0,0.1,0,0.3,0,0.5c0,0.3-0.1,0.7-0.3,1c-0.1,0.4-0.2,0.7-0.2,0.9c0,0.4,0,0.8,0,1.3c0,0.5-0.1,0.8-0.2,1.1c-0.2,0.4-0.4,0.7-0.6,1
		c-0.2,0.2-0.3,0.4-0.4,0.6c-0.1,0.1-0.1,0.2-0.2,0.2c0,0.1-0.1,0.2-0.3,0.2l-1.3-0.1c-0.1-0.1-0.1-0.2-0.1-0.2c0,0,0-0.1-0.1-0.2
		c-0.1-0.1-0.1-0.3-0.1-0.4c0-0.2,0-0.3-0.1-0.4c0-0.1-0.1-0.1,0-0.1c0,0,0,0-0.1-0.2c0-0.1-0.1-0.2-0.1-0.2c0-0.1,0-0.1-0.1-0.2
		c0-0.1-0.1-0.2-0.1-0.2l0.1-1.5l0.2-0.4c0,0,0-0.1,0-0.1c0,0.1,0,0,0-0.2c0,0,0.1-0.1,0.1-0.1c0,0,0.1-0.1,0.1-0.1
		c0-0.1,0.1-0.2,0.1-0.2c0-0.1,0.1-0.2,0.2-0.3c0-0.2,0.1-0.3,0-0.3c0-0.1,0-0.2,0.1-0.3c0.1-0.1,0.1-0.2,0.1-0.2
		c0,0,0.2-0.1,0.2-0.3v-0.2l0-0.1c0,0,0-0.1,0-0.1c0,0.1,0,0,0-0.2c0-0.2,0-0.4,0.1-0.6c0.1-0.3,0.1-0.5,0.1-0.6
		c0-0.1,0-0.2,0.1-0.5c0,0,0.1-0.2,0.2-0.5c0.1-0.3,0.2-0.5,0.2-0.8c0.1-0.2,0.1-0.4,0.1-0.6c0-0.2-0.1-0.1-0.3,0.1
		c-0.3,0.3-0.6,0.5-0.7,0.5c-0.2,0.1-0.4,0.2-0.7,0.4c-0.2,0.1-0.3,0.2-0.4,0.3c-0.1,0.1-0.2,0.2-0.5,0.4c-0.2,0.1-0.5,0.2-0.8,0.2
		c-0.3,0.1-0.6,0-0.9-0.2c-0.4-0.2-0.6-0.5-0.7-0.8c-0.1-0.3-0.2-0.7-0.3-1.1c0.1-0.1,0.2-0.2,0.2-0.1c0,0,0.1,0,0.2-0.1
		c0-0.3,0-0.5,0.1-0.6c0-0.1,0.1-0.2,0.2-0.5c0.1-0.4,0.1-0.7,0-0.9c-0.1-0.2-0.2-0.5-0.3-0.8c-0.2-0.8-0.4-1.4-0.5-1.8
		c-0.1-0.4-0.1-0.8-0.1-1.1c0-0.3,0.1-0.6,0.1-0.8c0-0.2,0.1-0.5,0.1-0.8c0-0.4-0.1-0.6-0.1-0.7c0,0,0-0.3-0.1-0.8
		c0-0.2-0.1-0.4-0.1-0.4c0,0,0-0.2,0-0.4c0-0.1-0.1-0.3-0.1-0.5c0-0.2-0.1-0.4-0.1-0.5c-0.2-0.5-0.3-0.9-0.3-1.1
		c0-0.2,0.2-0.5,0.5-1c0-0.1,0.1-0.1,0.1-0.2c0,0,0.1,0,0.2-0.1c0.3-0.1,0.6-0.2,0.7-0.2c0.2,0,0.3-0.1,0.5-0.2
		c0.1-0.1,0.1-0.1,0.1-0.1c0,0,0.1,0,0.2-0.2c0.1-0.1,0.2-0.1,0.2-0.2c0.1,0,0.1-0.1,0.2-0.1c0.5,0,0.8,0,1,0.1
		c0.2,0.1,0.5,0.2,0.9,0.4c0.4,0.1,0.8,0.1,1.2,0c0.6-0.1,1-0.2,1.3-0.2c0.2,0,0.5-0.4,0.7-1l0.2-2.1v-0.7c0-0.1-0.1-0.2-0.1-0.3
		c0-0.1-0.1-0.2-0.1-0.4c0-0.3-0.1-0.5-0.2-0.5c-0.1,0-0.2-0.2-0.2-0.6c-0.2,0-0.4,0-0.5,0c-0.1,0-0.3,0-0.5,0
		c-0.1,0-0.1-0.1-0.2-0.1c0,0-0.1-0.1-0.2-0.1c-0.1,0-0.4,0.1-0.9,0.2c-0.5,0.1-0.8,0.2-0.9,0.3l-0.4,0.3l-0.8,0.8l-2,2.7
		c-0.3,0.6-0.6,1.1-0.7,1.5c-0.1,0.4-0.2,0.7-0.3,0.7l-0.1,0.3c-0.1,0.1-0.1,0.3-0.2,0.5c0,0.2-0.1,0.4-0.1,0.6l-0.9,2.5
		c-0.1,0.3-0.2,0.6-0.3,0.8c-0.1,0.3-0.2,0.6-0.3,0.9c0,0.3-0.1,0.6-0.1,0.7c0,0.1-0.1,0.3-0.1,0.3c0,0.1-0.1,0.2-0.1,0.3
		c0,0.1-0.1,0.2-0.2,0.4c-0.1,0.4-0.2,0.8-0.2,1.3c-0.1,0.4-0.1,0.8-0.2,1.3l-0.1,0.1c0,0.1,0,0.1,0,0.1c0,0,0,0,0,0l-0.1,0.2
		c-0.1,0.6-0.1,1.1-0.1,1.7c0,0.5,0,1.1-0.1,1.7c0,0.3-0.1,0.6-0.2,1c-0.1,0.4-0.1,0.7-0.1,1c0,0.2,0,0.6,0,1.1c0,0.5,0,0.9-0.1,1
		c0,0.2-0.1,0.4-0.1,0.5c0,0.1-0.1,0.3-0.1,0.6c0,0.4,0,0.6,0,0.6c0,0-0.1,0.2-0.1,0.4l-0.1,0.9c0,0.3,0,0.6,0.1,0.8
		c0.1,0.3,0.1,0.5,0.1,0.8c-0.1,0.3-0.2,0.5-0.2,0.5c0,0-0.1,0.2-0.1,0.5l-0.1,1.6c-0.2,0.2-0.4,0.3-0.6,0.3s-0.3,0.1-0.6,0.2
		c-0.1,0-0.1,0.1-0.2,0.1c0,0-0.1,0-0.2,0c-0.3,0-0.4,0-0.5-0.1c0-0.1-0.1-0.1-0.3-0.2c-0.1,0-0.3,0-0.6,0.1c-0.3,0-0.5,0.1-0.6,0
		c-0.1,0-0.3,0-0.6,0c0-0.2-0.1-0.3,0-0.3c0,0,0,0-0.1-0.1c-0.1-0.1-0.2-0.2-0.4-0.2c-0.2-0.1-0.3-0.2-0.4-0.3
		c-0.1-0.1-0.2-0.2-0.2-0.3c0-0.1-0.1-0.2-0.1-0.3c-0.2-0.4-0.4-0.7-0.4-0.9c0-0.2-0.1-0.6-0.2-1.2c0-0.2-0.1-0.5-0.2-0.8
		c-0.2-0.3-0.2-0.6-0.1-0.9c0.1-0.2,0.1-0.6,0-1.1c-0.1-0.2-0.1-0.5-0.2-0.8c0-0.3-0.1-0.5-0.1-0.8c0-0.4-0.1-0.9-0.1-1.3
		c0-0.4-0.1-0.8-0.1-1.3l0-0.1v-0.2c0-0.2-0.1-0.3-0.1-0.2c0-0.1-0.2-0.3-0.3-0.5c0-0.2,0-0.5,0-0.6c0.1-0.2,0.1-0.3,0-0.4
		c0,0,0-0.1-0.1-0.3c0-0.2-0.1-0.3-0.1-0.4c-0.1-0.3-0.1-0.4,0-0.4c0.1,0,0.1,0,0.1-0.2c0-0.2,0-0.3,0-0.2c0,0,0,0,0-0.1
		c-0.1-0.2-0.1-0.4-0.2-0.5c0-0.1-0.2-0.2-0.6-0.3c-0.3-0.1-0.5-0.2-0.5-0.3c-0.1-0.1-0.2-0.2-0.5-0.4c-0.2-0.1-0.3-0.2-0.4-0.2
		c-0.1-0.1-0.2-0.2-0.3-0.3c-0.1,0-0.1-0.1-0.1,0c0,0-0.1,0-0.3,0c-0.7-0.1-1.1-0.3-1.2-0.8c-0.1-0.4-0.2-0.8-0.4-1.3
		c0,0,0-0.1,0-0.1c0,0,0-0.1,0-0.1c-0.3-0.5-0.3-1.1-0.1-1.8c0-0.3,0.1-0.6,0.1-0.8c0-0.2,0-0.5,0-0.7c0-0.3,0-0.4-0.1-0.4
		c0,0,0,0,0.1-0.2c0.1-0.1,0.1-0.2,0.1-0.2c0,0,0-0.1,0-0.2c0.1-0.4,0.1-0.6,0.2-0.6c0,0.1,0.1,0,0.2-0.2c0.1-0.2,0.1-0.3,0.1-0.4
		c0-0.1,0-0.2,0.1-0.4c0.2-0.2,0.3-0.3,0.4-0.3c0.1,0,0.2-0.2,0.4-0.6c0.1-0.1,0.1-0.2,0.2-0.3c0-0.1,0.1-0.2,0.2-0.3
		c0.1-0.2,0.2-0.3,0.1-0.3c0,0,0-0.1,0.2-0.2c0.1-0.2,0.2-0.3,0.3-0.5c0.1-0.2,0.2-0.3,0.3-0.4c0-0.1,0.1-0.2,0.1-0.2
		c0-0.1,0.1-0.2,0.2-0.3l1-1.2c0.1-0.2,0.2-0.4,0.4-0.6c0.2-0.1,0.4-0.3,0.5-0.6c0.1-0.2,0.2-0.4,0.3-0.6c0.2,0,0.3,0.1,0.2,0.1
		c0,0,0,0.1,0.2,0.1c0-0.2,0.1-0.3,0.1-0.6c-0.2,0-0.3,0.1-0.4,0.1c0-0.2,0.2-0.5,0.4-0.9c0.2-0.3,0.5-0.6,0.7-0.6
		c-0.1-0.2-0.1-0.5,0.1-0.7c0.1-0.2,0.2-0.4,0.4-0.6l0.1-0.1c0.2-0.2,0.3-0.5,0.4-0.7c0.1-0.2,0.2-0.4,0.3-0.6
		c0.1-0.1,0.1-0.1,0.2-0.2c0,0,0.1-0.1,0.2-0.2l0.6-1c0.2-0.3,0.4-0.6,0.6-0.9c0.2-0.3,0.4-0.6,0.6-0.9l0.2-0.4
		c0.3-0.3,0.4-0.5,0.5-0.6c0-0.1,0.1-0.3,0.3-0.6c0.2-0.2,0.4-0.5,0.6-0.8c0.2-0.3,0.4-0.5,0.5-0.8c0.1-0.1,0.1-0.1,0.1-0.2
		c0,0,0-0.1,0.2-0.2c0.1-0.1,0.2-0.2,0.2-0.4c0.1-0.2,0.1-0.4,0.2-0.5c0-0.1,0.1-0.2,0.1-0.2c0-0.1,0-0.1,0.1-0.2
		c0.1-0.1,0.2-0.2,0.4-0.5c0-0.1,0.1-0.1,0.1-0.2c0,0,0.1-0.1,0.2-0.2l0.1-0.3c0-0.3,0.2-0.6,0.4-0.7c0.1-0.1,0.1-0.2,0.2-0.3
		c0-0.1,0.1-0.2,0.3-0.2c0.4,0,0.6,0.1,0.8,0.3c0.2,0.2,0.4,0.5,0.6,0.8l0.4,0.3c0.2,0.2,0.3,0.4,0.3,0.5c-0.1,0.1,0,0.2,0.3,0.5
		c0.2,0.4,0.4,0.6,0.3,0.8c0,0.1,0,0.4,0.1,0.7c0.1,0.1,0.1,0.3,0.2,0.7c0.2,0.2,0.3,0.2,0.3,0.2c-0.1,0,0,0.1,0.1,0.4
		c0,0.1,0.1,0.2,0.1,0.3c0,0.1,0.1,0.2,0.2,0.3c0.1,0.1,0.1,0.3,0.1,0.6c0,0.2,0,0.4,0,0.6c0,0.2,0,0.3,0,0.2c0,0,0,0.1,0,0.2
		c0,0.1,0.1,0.2,0,0.3c0,0.1,0,0.2,0,0.4c0,0.2,0,0.2,0,0.2c0-0.1,0.1,0,0.1,0.3c-0.1,0.2-0.3,0.3-0.6,0.3c0,0.3,0.1,0.5,0.1,0.7
		c0,0.2,0,0.3-0.1,0.6c-0.4,0.3-0.6,0.6-0.7,0.9c-0.1,0.2-0.5,0.4-1.1,0.4c-0.2,0-0.3,0.1-0.3,0.1c0,0-0.1,0-0.3-0.1
		c-0.4-0.1-0.6-0.1-0.8-0.1c-0.2,0-0.5,0.3-0.9,0.7c-0.2,0.2-0.4,0.4-0.5,0.6c-0.1,0.2-0.3,0.4-0.5,0.6l-0.4,0.5v0.1
		c0,0.2-0.3,0.5-0.5,0.8c-0.2,0.3-0.3,0.6-0.5,0.9c-0.1,0.2-0.2,0.4-0.2,0.6c-0.1,0.2-0.2,0.4-0.2,0.6c-0.2,0.1-0.3,0.3-0.4,0.5
		c-0.1,0.2-0.2,0.4-0.3,0.6c-0.2,0.2-0.3,0.4-0.4,0.6c-0.4,0.7-0.5,1.2-0.4,1.4c0.1,0.3,0.3,0.5,0.3,0.8c0,0.2,0.1,0.4,0.1,0.5
		c0,0.1,0.1,0.2,0.1,0.4c0,0.3,0,0.7,0,1.1c0,0.4,0,0.8-0.2,1.2l-0.1,1.8c0,0.2,0,0.5-0.2,0.7c-0.2,0.2-0.3,0.4-0.2,0.4
		c0.1,0,0.1,0.1,0.2,0.2l-0.2,2.4c0,0.1,0,0.3,0,0.4c0,0.2,0,0.3,0,0.5c0,0.2,0.1,0.4,0.2,0.5c0.1,0.1,0.3,0.2,0.3,0.3v0.4
		c0,0.5,0,1,0.1,1.5c0.1,0.5,0,1-0.1,1.6c0,0.3,0.1,0.6,0.2,0.8c0.1,0.2,0.2,0.5,0.2,0.8c0.2-0.2,0.4-0.6,0.5-1.1
		c0.1-0.5,0.2-0.9,0.4-1.1c0.2-0.4,0.3-0.8,0.3-1.2c0-0.4,0.1-0.8,0.2-1.2c0.1-0.5,0.2-1,0.4-1.5c0.2-0.5,0.3-1,0.4-1.5
		c0.1-0.4,0.2-0.9,0.2-1.3c0.1-0.4,0.2-0.8,0.4-1.1c0.1-0.2,0.1-0.5,0.2-0.7c0-0.2,0.1-0.5,0.2-0.7c0-0.1,0.1-0.2,0.2-0.3
		c0.1-0.1,0.1-0.3,0.2-0.4c0-0.1,0.1-0.2,0.1-0.3c0-0.1,0.1-0.2,0.2-0.4c0-0.2,0.2-0.7,0.5-1.4c0.3-0.7,0.5-1.2,0.6-1.4
		c0.2-0.4,0.4-0.8,0.7-1.2l1.2-2.8c0,0,0-0.1,0.1-0.1c0.1-0.2,0.2-0.3,0.3-0.5c0.1-0.1,0.2-0.3,0.3-0.5c0.1-0.2,0.2-0.5,0.5-0.7
		c0.2-0.2,0.4-0.5,0.6-0.7c0.1-0.2,0-0.4-0.1-0.6c-0.2-0.2-0.3-0.3-0.3-0.5c0-0.1-0.1-0.3-0.1-0.6c0-0.2,0-0.4,0.2-0.6
		c0.3-0.3,0.4-0.5,0.4-0.6c-0.1,0,0.1-0.1,0.4-0.3c0.2-0.1,0.3-0.2,0.3-0.2c0-0.1,0.1-0.2,0.2-0.3c0.2-0.2,0.3-0.4,0.5-0.6
		c0.2-0.1,0.4-0.3,0.6-0.6c0.1-0.1,0.2-0.2,0.2-0.2c0.1-0.1,0.2-0.2,0.3-0.2c0.3-0.2,0.6-0.2,0.9-0.2c0.3,0.1,0.6,0,0.8-0.2
		c0.1,0,0.2-0.3,0.2-0.7c0-0.4,0.1-0.7,0.1-0.8c0,0,0.1,0,0.1-0.1v-0.2c0-0.1-0.2-0.2-0.1-0.3c0-0.1-0.1-0.2-0.1-0.2
		c0-0.1,0-0.1-0.1-0.2c0-0.1-0.1-0.3-0.3-0.5c-0.1-0.2-0.2-0.3-0.2-0.3c0-0.1-0.1-0.2-0.2-0.3c-0.1-0.2-0.3-0.4-0.5-0.6
		c-0.2-0.2-0.5-0.4-0.5-0.6c0-0.5,0-0.7,0-0.7c0,0,0.2,0,0.3-0.1c0.2-0.4,0.6-0.7,0.8-0.9c0.2-0.2,0.5-0.2,0.9-0.1
		c0.1,0,0.2,0.1,0.3,0.1c0.1,0,0.2,0,0.2,0.1c0.6,0.1,0.9,0.2,1,0.3c0.1,0.1,0.2,0.3,0.4,0.5c0.2,0.3,0.3,0.4,0.4,0.2
		c0-0.1,0.1,0,0.2,0.2c0.1,0.2,0.1,0.2,0.1,0.2c0,0,0,0,0.1,0.2c0,0.1,0.1,0.1,0.1,0.2c0,0,0.1,0.1,0.2,0.2c0.2,0.1,0.3,0.2,0.3,0.3
		c0,0.1,0,0.2,0.1,0.3c0.1,0.2,0.2,0.3,0.3,0.4c0.1,0.1,0.1,0.3,0.1,0.5c0,0.2,0,0.4,0,0.5c0,0.2,0.1,0.4,0.2,0.4
		c0.1,0,0,0.3-0.1,0.7c0.2,0,0.3,0,0.4-0.1c0.1-0.1,0.3-0.1,0.6-0.2c0.1,0,0.1-0.1,0.2,0c0,0,0.1,0,0.2-0.1c0.2,0,0.3,0,0.4-0.1
		c0.2-0.1,0.4-0.1,0.6-0.2c0.2,0,0.3-0.1,0.6-0.2l0.9-0.1c0.2,0,0.5-0.1,0.7-0.1c0.2,0,0.3-0.1,0.4-0.2c0.1-0.1,0.1-0.2,0.2-0.4
		c0-0.2,0.1-0.4,0.1-0.6c0-0.2,0-0.5,0-0.7c0-0.2,0-0.4,0-0.6c-0.1-0.5,0-1,0.1-1.4l0.2-1.3l0.1-0.3c0-0.5,0-1,0-1.5
		c0-0.5,0-1-0.2-1.4c0-0.2-0.1-0.4-0.3-0.5c-0.1-0.1-0.3-0.2-0.4-0.5c-0.1-0.2-0.1-0.4-0.2-0.5c0-0.1-0.1-0.3-0.1-0.6
		c0-0.1,0.1-0.2,0.2-0.5c0.1-0.2,0.3-0.4,0.3-0.5c0.1-0.2,0.2-0.2,0.3-0.2c0.1,0,0.2-0.1,0.5-0.2c0.2,0,0.5,0,0.9,0.1
		c0.4,0.1,0.6,0.2,0.8,0.4c0.2,0.2,0.4,0.3,0.6,0.4c0.2,0,0.3,0.1,0.4,0.2c0.1,0.1,0.2,0.1,0.3,0.2c0.1,0.1,0.2,0.2,0.3,0.4
		c0.1,0.2,0.1,0.3,0.2,0.3c0,0,0.1,0,0.2,0.2l0.6,1.3c0,0.9-0.1,1.8-0.4,2.8c0,0.1-0.1,0.3-0.2,0.4c-0.1,0.1-0.1,0.3-0.2,0.5
		c-0.1,0.4-0.2,0.7-0.5,1.1c-0.2,0.4-0.4,1-0.4,1.9c0,0.2-0.1,0.5-0.1,0.8c0,0.3,0.1,0.6,0.2,0.8c0.8,0,1.3,0.1,1.6,0.2
		c0.3,0.1,0.6,0.2,1,0.3c0.2,0,0.4,0.1,0.5,0.2c0.1,0.1,0.3,0.1,0.4,0.1c0.2,0,0.2,0,0.2,0c0,0,0,0,0.2,0c0.1,0,0.1,0,0.1,0.1
		c0,0.1,0.1,0.1,0.4,0c0.1,0,0.1-0.1,0.1-0.1c0,0,0.1,0,0.3,0l0.9,0.4l0.2,0.1l0.1,0.1c0.2,0.1,0.4,0.2,0.6,0.3
		c0.2,0.1,0.4,0.2,0.6,0.3c0.1,0.1,0.1,0.2,0.2,0.3c0,0.1,0.3,0.2,0.3,0.3v0.7c0,0.2,0,0.4,0,0.5c0,0.1,0,0.3-0.1,0.7
		c-0.1,0.2-0.2,0.4-0.2,0.5c-0.1,0.1-0.2,0.2-0.4,0.4c-0.2,0.1-0.4,0.2-0.5,0.3c-0.2,0.1-0.4,0.2-0.6,0.2c-0.2,0-0.4,0.1-0.7,0.2
		c-0.1,0.1-0.2,0.2-0.2,0.2c0,0.1-0.2,0.2-0.4,0.2c-0.4,0.1-0.6,0.2-0.6,0.2c0,0.1-0.1,0.2-0.4,0.3l-0.8,0.7
		c-0.2,0.2-0.4,0.4-0.5,0.6l-0.1,0.2c0.2,0.1,0.4,0.2,0.6,0.4c0.1,0.2,0.3,0.4,0.6,0.6l0.3,0.4c0.1,0.1,0.1,0.2,0.2,0.2
		c0,0.1,0.1,0.2,0.1,0.3c0,0.2,0.1,0.3,0,0.4c0,0-0.1,0.2-0.2,0.4c-0.2,0.4-0.4,0.6-0.6,0.8c-0.2,0.1-0.4,0.3-0.9,0.4
		c-0.2,0.1-0.4,0.1-0.6,0.1c-0.2,0-0.5,0-0.7,0.1c-0.1,0-0.3,0-0.5,0.1c-0.2,0.1-0.4,0.1-0.6,0.2c0,0.2-0.1,0.5-0.2,0.7
		c-0.1,0.2-0.2,0.4-0.1,0.5c0,0.2,0,0.2,0.1,0.2c0,0,0,0.1-0.1,0.3c0,0.1-0.1,0.2-0.1,0.2c0,0.1-0.1,0.2-0.2,0.2l0.2,0.4
		c-0.1,0.1-0.1,0.1-0.2,0.1c0,0,0,0.1-0.5,0.2v0.2c0.2,0,0.3,0,0.4,0c0,0,0.3,0,0.4,0.2c0,0.1,0,0.2-0.1,0.4c0,0.2,0,0.4,0.1,0.5
		c0,0.2,0,0.4-0.1,0.7c0,0.3,0,0.5,0.2,0.5c0.6,0,1.2-0.1,1.9-0.2c0.8-0.1,1.3-0.2,1.6-0.3c0.3-0.1,0.6-0.1,0.8-0.1
		c0.2,0,0.6,0,0.9,0.1c0.4,0.1,0.9,0.1,1.7,0.2c0.3,0,0.7,0.1,1.3,0.2c0.6,0.1,1,0.2,1.3,0.4c0.2,0.2,0.5,0.3,0.7,0.3
		c0.2,0,0.5,0.1,0.7,0.2c0.3,0.1,0.5,0.2,0.6,0.4l0.9,0.9c0.2,0.1,0.3,0.2,0.3,0.2c0,0.1,0.2,0.2,0.3,0.5c0,0.1,0.2,0.3,0.2,0.6V130
		z M180.1,86.5c0,2.3-1.3,3.8-3.5,4.5l-1,0.2c-2.2-0.3-3.6-0.8-3.6-1.6v-0.6c4-2.1,4.6-3.7,4.6-4.9l0.5-1.8l-1.1-12.5V69l-0.6-1.3
		c0.2-1,0.8-1.4,1.4-1.4c1.1,0,2,0.6,2.7,1.8l-0.1,7l0.6,10.6V86.5z M235.8,73.1L235.8,73.1c0.1-0.1,0.1-0.2,0.1-0.1c0,0,0,0,0,0
		c0-0.1,0-0.3,0.1-0.4c0-0.1,0.1-0.2,0.3-0.2c0.2-0.1,0.5-0.1,0.7,0c0.2,0.1,0.4,0.2,0.5,0.2c0.1,0.1,0.2,0.1,0.3,0.2
		c0,0,0.1,0.1,0.2,0.2c0,0,0.1,0.1,0.2,0.1c0.1,0,0.2,0.1,0.3,0.2c0.2,0.1,0.3,0.2,0.3,0.2c0,0-0.1,0.1,0,0.2c0,0,0,0.1,0,0.1
		c0,0-0.2,0.1-0.1,0.1c0,0-0.4,0.1-0.4,0.1c0,0,0,0,0,0c0,0,0.5,0.1,0.5,0.2c0.1,0.1,0.6,0.3,0.5,0.4c0,0.1,0,0.2-0.1,0.3
		c0,0,0,0.1,0,0.1c0,0,0,0.1,0,0.1c0,0.2,0,0.3-0.1,0.5c-0.1,0.1-0.1,0.2-0.2,0.2c0,0.1-0.1,0.1-0.3,0.1c-0.1,0-0.2,0-0.3-0.1
		c-0.1-0.1-0.2-0.1-0.3-0.2c-0.1-0.1-0.2-0.2-0.3-0.3c-0.1-0.1-0.2-0.2-0.2-0.2c-0.1,0-0.2,0-0.3,0.1c-0.1,0.1-0.3,0.3-0.5,0.6
		c-0.1,0.1-0.1,0.2-0.2,0.3c0,0-0.1,0.1-0.2,0.3c0,0.1-0.1,0.1-0.1,0.1s0,0-0.1,0.1c0,0-0.1,0.1-0.1,0.1c0,0,0,0.1-0.1,0.1
		c0-0.3,0.1-0.5,0.3-0.8c0.2-0.3,0.3-0.6,0.3-0.8c0-0.1,0.1-0.1,0.1-0.1c0,0,0,0,0.1-0.1c0-0.1,0-0.2,0.1-0.2c0,0,0.1-0.1,0.1-0.2
		c0.1-0.1,0.1-0.2,0.1-0.2c0-0.1-0.1-0.2-0.1-0.2c-0.1,0-0.1-0.1-0.2-0.1c-0.1,0-0.1-0.1-0.2-0.2c-0.1-0.1-0.1-0.1-0.2-0.1
		c-0.1,0-0.1-0.1-0.2-0.1c-0.1,0-0.1-0.1-0.2-0.2c0-0.1,0.1-0.2,0.1-0.2s0,0,0.1-0.1c0,0-0.1,0-0.1-0.1
		C235.8,73.2,235.8,73.1,235.8,73.1L235.8,73.1z M207.7,78.9c0.1-0.1,0.2-0.2,0.3-0.2c0.1,0,0.2,0,0.4,0c0.1,0,0.3-0.1,0.4-0.2
		c0.1-0.1,0.3-0.2,0.4-0.3c0,0,0.1-0.1,0.1-0.1c0.1,0,0.1-0.1,0.2-0.1c0.1-0.1,0.2-0.1,0.2-0.2c0.1-0.1,0.1-0.1,0.2-0.2
		c0,0,0.1-0.1,0.1-0.1c0.1,0,0.1-0.1,0.1-0.1c0.1,0,0.1,0,0.2,0c0,0,0.1,0,0.2-0.1c0.4-0.4,0.7-0.6,1.1-0.6c0.4-0.1,0.8-0.1,1.1-0.2
		c0.5-0.2,0.8-0.3,1-0.4c0.2-0.1,0.4-0.1,0.4-0.2c0.1-0.1,0.1-0.2,0.1-0.4c0-0.2,0-0.5,0.1-0.8l0.3-1.6c0-0.3,0.1-0.5,0.1-0.7
		c0-0.2,0-0.4,0-0.5c0-0.2,0-0.3,0-0.5c0-0.2-0.1-0.4-0.1-0.7c0-0.2-0.1-0.3-0.1-0.4c0-0.1-0.1-0.1-0.1-0.1c0,0,0,0-0.1,0
		c0,0,0,0-0.1-0.1c-0.1-0.2,0-0.3,0.2-0.4c0.2-0.1,0.4-0.2,0.6-0.2l0.2,0c0.1,0,0.1,0,0.2,0c0.3,0.1,0.5,0.3,0.7,0.6
		c0.2,0.3,0.3,0.6,0.3,0.9c0,0.2,0.1,0.3,0.1,0.4c0.1,0.1,0,0.2-0.2,0.2c-0.2,0.1-0.4,0.2-0.5,0.4c-0.1,0.2-0.1,0.2-0.2,0.3
		c0,0-0.1,0.1-0.1,0.3c0,0.1,0,0.2,0,0.1c0,0,0,0-0.1,0.1c0,0,0,0.1-0.1,0.3c0,0.2-0.1,0.3-0.1,0.5c0,0.2-0.1,0.4-0.2,0.5
		c-0.1,0.2-0.1,0.3-0.1,0.3c0,0.1,0,0.2,0,0.2c0,0,0,0.1-0.1,0.2c-0.1,0.5-0.1,0.7-0.1,0.7c0.1,0,0.2,0,0.5-0.1
		c0.1,0,0.1-0.1,0.2-0.2c0-0.1,0-0.2,0-0.3c0.1,0,0.1,0,0.1,0c0,0,0.1,0,0.2-0.1c0,0,0.1-0.1,0.1-0.1c0.1,0,0.1,0,0.2-0.1l0.3,0
		c0.1,0,0.2,0,0.3,0.1c0.1,0.1,0.2,0.1,0.3,0.2c0.1,0,0.1,0,0.2,0c0,0,0.1,0,0.2,0c0.2,0.1,0.4,0.2,0.5,0.3c0,0,0-0.1,0-0.1
		c0,0,0,0,0-0.1c0-0.1,0.1-0.1,0.2-0.2c0.1-0.1,0.2-0.1,0.4-0.2c0.1-0.1,0.3-0.1,0.4-0.2c0.1-0.1,0.2-0.2,0.3-0.3
		c0.1-0.2,0.2-0.4,0.4-0.6c0.2-0.2,0.4-0.3,0.6-0.4c0.1,0,0.2-0.1,0.2-0.1c0,0,0-0.1,0.1-0.1c0.1,0,0.1,0,0.2-0.1
		c0.1,0,0.1,0,0.2-0.1c0.2,0,0.3-0.1,0.4-0.1c0.1-0.1,0.3-0.1,0.4,0c0.1,0,0.2,0,0.3,0c0.2,0,0.3,0,0.5,0c0.2,0,0.3,0,0.5,0.1
		c0.1,0,0.3,0,0.3,0.1l0.2,0l0.2,0.1c0.1,0,0.1,0.1,0.2,0.1c0.1,0,0.1,0.1,0.2,0.1c0.1,0,0.1,0.1,0.2,0.2c0.1,0.1,0.2,0.3,0.2,0.5
		c0.1,0.1,0.1,0.3,0.1,0.5c0,0.2,0,0.3,0.1,0.5c0.1,0.3,0.1,0.7,0,1c0,0.1,0,0.2-0.1,0.4c0,0.2-0.1,0.4-0.1,0.6c0,0.2,0,0.4-0.1,0.6
		c0,0.2,0,0.3,0,0.5c0,0.2,0,0.4,0,0.7c0,0.3,0,0.6,0,0.9c0,0.3,0,0.6,0,0.8c0,0.3,0,0.5,0.1,0.6c0,0.2,0,0.2,0,0.3c0,0,0,0.1,0,0.2
		c0,0.1,0,0.2,0,0.2c0,0.1,0,0.2,0,0.3c0,0.3,0,0.6,0,0.9c0,0.3,0.1,0.6,0.1,1c0,0.1,0,0.2,0,0.2c0,0.1,0,0.1,0,0.2
		c0,0.2,0,0.3,0.1,0.5c0,0.1,0.1,0.3,0.2,0.5c0,0.1,0,0.2,0,0.2c0,0,0,0.1,0,0.2c0,0.1,0,0.2,0,0.2c0,0,0,0.1,0,0.2
		c0,0.1,0,0.1,0,0.2c0,0,0,0.1,0,0.2l0,0.2c0,0.1,0,0.1,0,0.1c0,0,0,0,0,0.1c0,0.2,0.1,0.4,0.2,0.6c0.1,0.3,0.1,0.5,0.2,0.8
		c0,0.3,0,0.6,0,0.8c0,0.3-0.2,0.5-0.4,0.8c-0.1,0.1-0.2,0.2-0.3,0.2c0,0-0.1,0-0.1,0c0,0-0.1,0-0.1,0c0,0-0.1,0.1-0.2,0.2
		c0,0,0,0,0,0c0,0,0,0-0.1,0c-0.1,0-0.1,0-0.1,0.1c0,0,0,0-0.1,0c0,0-0.1-0.1-0.2-0.1c-0.1-0.1-0.2-0.1-0.2-0.1
		c-0.1-0.1-0.3-0.3-0.4-0.4c-0.1-0.2-0.2-0.3-0.2-0.4c0,0,0-0.1,0-0.3c0-0.2,0.1-0.3,0.1-0.5c-0.1-0.1-0.2-0.1-0.3-0.2
		c-0.1,0-0.2-0.1-0.3-0.2c-0.1-0.1-0.3-0.2-0.4-0.3c-0.1-0.1-0.3-0.2-0.4-0.2c-0.1-0.1-0.2-0.1-0.3-0.1c0,0-0.1,0-0.1,0.1
		c0,0-0.1,0.1-0.2,0.1c-0.1,0-0.2,0-0.2,0c0,0-0.1,0-0.2,0.1c-0.1,0-0.1,0-0.3,0c-0.1,0-0.3,0-0.5,0c-0.1,0-0.2,0-0.2,0
		c-0.1,0-0.1,0-0.2,0c-0.1,0-0.1,0-0.2,0c-0.1,0-0.1,0-0.2,0c-0.1,0-0.1,0.1-0.1,0.1c0,0-0.1,0.1-0.2,0.1c-0.2,0.1-0.4,0.1-0.5,0.2
		c-0.2,0.1-0.3,0-0.5-0.3c-0.1-0.1-0.1-0.1-0.2-0.2c0,0-0.1-0.1-0.2-0.1c0,0-0.1-0.1-0.1-0.2c0-0.1,0-0.1-0.1-0.2
		c-0.1-0.2-0.1-0.3-0.2-0.4c0-0.1-0.1-0.2-0.1-0.4c0-0.1-0.1-0.2-0.1-0.2c0,0-0.1-0.1-0.1-0.1c0,0,0-0.1,0-0.2c0-0.1,0-0.2,0.1-0.3
		c0.1-0.3,0.1-0.6,0.1-0.9c0-0.4,0-0.7,0-1c0-0.3,0-0.6,0-0.9c0-0.3,0-0.6,0.1-0.9c0-0.4,0.1-0.7,0.1-1c0-0.3,0-0.6,0-1
		c0-0.4,0-0.6,0-0.7c0.1-0.1,0.1-0.3,0.2-0.5c0-0.1,0.1-0.3,0.1-0.6c0-0.3,0.1-0.5,0.1-0.7c0.1-0.1,0.1-0.2,0.1-0.4
		c0-0.2,0-0.4,0.1-0.5c0-0.1,0-0.2,0-0.2c0-0.1,0-0.1,0-0.2c0-0.1,0-0.1,0-0.2c0-0.1,0-0.1,0-0.2l-0.1,0.1c-0.1,0.1-0.2,0.2-0.3,0.2
		c-0.1,0-0.1,0-0.1,0c0,0-0.1,0-0.1-0.1c0,0-0.1,0-0.2,0c-0.1,0-0.3,0-0.4,0c-0.1,0-0.3,0-0.4,0c-0.1,0-0.2,0-0.4-0.1
		c-0.2,0-0.3,0-0.3,0.1c0.1,0,0.2,0.1,0.2,0.1c0.1,0,0.2,0.1,0.3,0.2c0,0.1,0.1,0.2,0.2,0.3c0.1,0.1,0.2,0.2,0.2,0.3
		c0.1,0.1,0.1,0.2,0,0.3c0,0.1-0.1,0.2-0.1,0.4c0,0.1-0.1,0.2-0.2,0.3c-0.1,0.1-0.1,0.2,0,0.4c0,0,0.1-0.1,0.2-0.1
		c0.1-0.1,0.1-0.1,0.2-0.1c0.1,0,0.1-0.1,0.2-0.1c0.1,0,0.1-0.1,0.2-0.1c0.1-0.1,0.2-0.2,0.4-0.3c0.1-0.1,0.3-0.2,0.4-0.3
		c0,0.1,0,0.3-0.1,0.5c0,0.2-0.1,0.4-0.1,0.4c0,0-0.1,0.1-0.2,0.2c-0.2,0.1-0.3,0.2-0.3,0.3c-0.2,0.2-0.4,0.4-0.5,0.6
		c-0.2,0.2-0.3,0.4-0.5,0.6c0,0.1-0.1,0.2-0.2,0.3c-0.1,0.1-0.2,0.2-0.3,0.3c-0.1,0.1-0.2,0.2-0.3,0.3c-0.1,0.1-0.2,0.2-0.2,0.2
		c0,0.1-0.1,0.1-0.1,0.2c0,0-0.1,0-0.1,0.1c0,0,0,0.1-0.1,0.1c0,0.1-0.1,0.1-0.2,0.3c-0.1,0.2-0.1,0.3-0.2,0.4c0,0.1,0,0.2-0.1,0.4
		c0,0.2,0,0.5,0,0.7c0,0.3,0,0.5,0,0.8c0,0.3,0,0.5,0,0.8c0,0.3,0,0.5,0,0.7c0,0.1,0,0.2,0,0.2c0,0,0,0.1,0,0.2c0,0.2,0,0.3,0,0.3
		c0,0,0,0.1,0.1,0.2c0,0.2,0,0.3,0.1,0.5c0,0.2,0,0.3,0.1,0.4c0,0.1,0.1,0.3,0.1,0.4c0,0.2,0,0.3,0,0.4c0,0.1-0.1,0.2,0,0.2
		c0,0,0,0.1,0,0.2c0,0.2,0,0.4,0,0.5c0.1,0.2,0,0.4-0.1,0.8c0,0-0.1,0-0.2,0.1c-0.1,0-0.2,0.1-0.3,0.1c0,0.2-0.1,0.3-0.3,0.3
		c-0.1-0.1-0.1-0.2-0.2-0.3c0-0.1-0.1-0.2-0.1-0.3c-0.1-0.2-0.2-0.4-0.2-0.5c0-0.1,0-0.2,0-0.2c0,0,0-0.1,0-0.1c0,0,0-0.1,0-0.2
		c0-0.1,0-0.1,0-0.1c0,0,0,0-0.1-0.1c0,0,0-0.1,0-0.1c0,0,0,0,0,0c0,0,0,0,0,0c0,0,0,0,0-0.1c0-0.1,0-0.2,0-0.2c0-0.1,0-0.2,0-0.3
		c0-0.1,0-0.1,0-0.2c0,0,0-0.1,0.1-0.2c0-0.1,0-0.2,0-0.2c0-0.1,0-0.1,0-0.2c0-0.1,0-0.2,0-0.2c0,0,0-0.1,0-0.2c0-0.2,0-0.4,0-0.4
		c0.1-0.1,0.1-0.2,0.1-0.3c0-0.3-0.1-0.6-0.1-1c0-0.4-0.1-0.7-0.1-1l0-0.3c0-0.2,0-0.3-0.1-0.3c-0.1,0-0.1,0-0.2,0.1
		c-0.1,0.1-0.1,0.2-0.2,0.3c0,0.1-0.1,0.2-0.1,0.3c0,0.1-0.1,0.2-0.1,0.2c0,0-0.1,0-0.1,0.1c0,0,0,0.1-0.1,0.1c0,0.1,0,0.1,0,0.1
		s0,0,0,0c0,0.1-0.1,0.1-0.2,0.3c-0.1,0.1-0.1,0.2-0.2,0.3c0,0.1-0.1,0.1-0.1,0.1c0,0-0.1,0.1-0.1,0.1c0,0-0.1,0.1-0.1,0.1
		c0,0-0.1,0.1-0.1,0.2c-0.1,0.1-0.1,0.2-0.1,0.2c0,0.1,0,0.1-0.1,0.2c0,0.1-0.1,0.1-0.1,0.2c0,0.1-0.1,0.1-0.2,0.2
		c-0.1,0.1-0.3,0.1-0.3,0c-0.1-0.1-0.2-0.1-0.2-0.1c-0.1,0-0.1,0-0.2,0.1c-0.1,0.1-0.1,0.1-0.2,0.2l0,0.1c-0.1,0-0.2-0.1-0.2-0.2
		c-0.1-0.1-0.2-0.2-0.3-0.3c-0.2-0.1-0.3-0.2-0.3-0.3c0-0.1,0-0.2,0-0.4c0-0.1,0-0.2-0.1-0.4c-0.1-0.2-0.1-0.3-0.1-0.4
		c0-0.3,0-0.5,0-0.7c0-0.2,0-0.4,0.2-0.6c0-0.1,0-0.2,0-0.2c0-0.1,0-0.1,0-0.2c0-0.2,0.1-0.2,0.2-0.3c0.1,0,0.2-0.1,0.3-0.3
		c0.1-0.3,0.2-0.4,0.3-0.5c0.1-0.1,0.1-0.2,0.2-0.2c0.1,0,0.1-0.1,0.2-0.1c0.1,0,0.2-0.1,0.2-0.3c0.1-0.1,0.1-0.2,0.2-0.3
		c0.1-0.1,0.2-0.2,0.2-0.3c0.1,0,0.1-0.1,0.1-0.1c0,0,0-0.1,0.1-0.2c0-0.1,0.1-0.1,0.1-0.1c0,0,0.1,0,0.1-0.1c0.1,0,0.2-0.1,0.2-0.3
		c0.1-0.1,0.2-0.2,0.2-0.3c0.2-0.2,0.3-0.3,0.3-0.3c0,0,0.1-0.1,0.2-0.2c0.1-0.2,0.3-0.4,0.4-0.6c0.1-0.2,0.3-0.4,0.4-0.6
		c0,0,0.1-0.1,0.2-0.3c0.1-0.1,0.1-0.3,0.2-0.4c0.1-0.1,0.1-0.3,0.1-0.4c0-0.1,0-0.2,0-0.3c-0.1,0-0.2,0-0.4,0
		c-0.2,0-0.3,0.1-0.4,0.1c-0.4,0.1-0.7,0.2-0.9,0.3c-0.2,0.1-0.5,0.2-0.6,0.3c-0.2,0.1-0.4,0.3-0.6,0.4c-0.2,0.2-0.5,0.4-0.8,0.7
		c-0.1,0.1-0.2,0.2-0.3,0.3c-0.1,0.1-0.2,0.2-0.2,0.3c0,0.1,0,0.2,0,0.2c0,0,0,0.1,0,0.2c0,0.2,0,0.2,0,0.3s0,0.1,0,0.2
		c-0.1,0-0.2,0-0.3-0.1c-0.2-0.1-0.3-0.1-0.5-0.2c-0.2-0.1-0.3-0.2-0.5-0.3c-0.1-0.1-0.3-0.2-0.3-0.3c0-0.1-0.1-0.1-0.1-0.1
		c0,0,0,0,0,0c0-0.1,0.1-0.1,0-0.2C207.7,79,207.8,79,207.7,78.9z M189.4,91.7c-0.4,4.6-0.9,7-1.4,7h-0.3l-0.7-9.7l0.3-7.8h-0.3
		c-1.4,1.3-2.2,3.8-2.2,5.9l-0.2,0.2H184c-0.6,0-1.1-1.1-1.8-3l1.9-7.1c0.5-1.5,0.8-2.6,0.8-3.4v-0.4l-1.4-0.2h-0.2
		c-0.6,0-1.2-0.8-1.7-2.5c0-1,1-1.2,3.1-1.2c3.3-2.5,5-3.8,5.3-3.8c2.4,0.9,3.6,1.7,3.6,2.4v0.7c0,0.8-1.1,1.7-3.7,2.7
		c-0.6,0.6-0.3,1.2-0.3,1.7v0.7c0,0.3,0,0.5,0.5,0.5c1.2-0.6,1.8-0.9,2.5-0.9c1.5,0,3.1,1.7,3.1,5v0.2c0,5.8-1.1,8.7-3.3,8.7
		C190.4,88,189.4,89.5,189.4,91.7z M239.6,154.3c-0.5,0.5-0.8,1.1-1.1,1.6c-0.1,0.2-0.2,0.3-0.5,0.3c-0.4,0-0.7,0.2-1.1,0.4
		c-0.3,0.2-0.7,0.3-1,0.4c-0.3,0-0.6,0.1-0.6,0c-0.1,0-0.3,0.1-0.7,0.2c-0.1,0-0.2,0.1-0.3,0.1c-0.1,0-0.2,0-0.3,0.1
		c-0.3,0.1-0.4,0.1-0.5,0.2c-0.1,0-0.2,0.1-0.2,0.1c-0.1,0-0.2,0.1-0.3,0.1c-0.1,0-0.4,0.1-0.7,0.1l-1.9,0.3c-0.1,0-0.2,0-0.3,0
		c-0.1,0-0.2,0-0.3,0l-1.4,0.2c-0.1,0-0.2,0.1-0.3,0.1c-0.1,0-0.2,0.2-0.4,0.2h-0.4c-0.5,0-1.1-0.1-1.7-0.1c-0.6,0-1.1-0.2-1.6-0.2
		c-0.3,0-0.5-0.1-0.7-0.1c-0.2,0-0.5-0.1-0.7-0.1l-1.4-0.1c-0.3-0.1-0.7-0.2-0.9-0.2c-0.3-0.1-0.6-0.2-0.9-0.4l-0.5-0.2
		c-0.5-0.2-0.9-0.4-1.1-0.6c-0.2-0.1-0.4-0.2-0.6-0.2c-0.2-0.1-0.3-0.2-0.5-0.4c-0.7-0.5-1.3-1-1.8-1.5c-0.5-0.5-0.9-1.2-1.4-2
		c-0.1-0.2-0.2-0.4-0.3-0.7c-0.1-0.3-0.2-0.5-0.3-0.6c-0.1-0.2-0.3-0.4-0.3-0.5c-0.1-0.1-0.3-0.2-0.3-0.2c0,0,0-0.1,0-0.2
		c0-0.1,0.3-0.2,0.3-0.3c-0.4-0.9-0.3-1.7-0.3-2.5c0-0.8,0-1.7,0-2.9c0-0.2-0.1-0.7,0.1-1.5c0.2-0.7,0.1-1.3,0.2-1.7
		c0.2-1.1,0.3-2.1,0.5-3.1c0.2-1,0.4-2,0.6-3.1c0-0.2,0.1-0.5,0.1-0.6c0-0.2,0.1-0.3,0.1-0.5c-0.1,0.1-0.2,0.1-0.2,0.2
		c0,0-0.1,0.1-0.2,0.2l-2.3,2.8c-0.3,0.3-0.5,0.6-0.7,1c-0.2,0.4-0.4,0.7-0.6,1.1c-0.3,0.6-0.6,1-0.8,1.3c-0.3,0.3-0.5,0.7-0.8,1.2
		c0,0.1-0.1,0.2-0.2,0.3c-0.1,0.1-0.1,0.2-0.2,0.3c-0.4,0.6-0.8,1.3-1.4,2.1c-0.5,0.8-0.9,1.4-1.2,1.9l-2.3,4.5
		c-0.3,0.4-0.5,0.8-0.8,1.1c-0.3,0.3-0.6,0.7-0.8,1.1c-0.1,0.1-0.2,0.3-0.3,0.5c-0.1,0.2-0.2,0.4-0.3,0.5c-0.1,0.3-0.1,0.5-0.1,0.8
		c0,0.2,0,0.5-0.1,0.7c0,0.3-0.2,0.5-0.5,0.7c-0.3,0.2-0.6,0.5-1,0.9c-0.3,0.2-0.4,0.4-0.4,0.4c0-0.1-0.2,0.3-0.5,0.3h-0.2
		c-0.1,0-0.2-0.1-0.4-0.1c-0.3,0-0.6-0.3-0.8-0.4c-0.3,0-0.5-0.2-0.6-0.5c0-0.3-0.1-0.6-0.2-0.9c0-0.1-0.1-0.2-0.2-0.2
		c-0.1-0.1-0.1-0.2-0.1-0.2c0-0.3,0-0.5,0.1-0.5c0.1-0.1,0.1-0.2,0-0.5c-0.1-0.4-0.2-0.7-0.2-1c0-0.2,0-0.4,0-0.6
		c0.1-0.2,0.1-0.3,0.2-0.5c0.1-0.1,0.2-0.3,0.3-0.5c0.1-0.3,0.1-0.5,0.2-0.7c0-0.2,0.2-0.3,0.6-0.3c0.2-0.7,0.4-1,0.6-1.1
		c0.2-0.1,0.5-0.3,0.8-0.7l0.5-0.6c0.4-0.5,0.9-1.1,1.3-1.6c0.4-0.5,0.8-1,1.1-1.6c0.2-0.3,0.4-0.7,0.6-1c0.2-0.3,0.4-0.7,0.7-1
		c0.1-0.1,0.2-0.2,0.2-0.3l0.7-0.9c0.2-0.2,0.4-0.4,0.5-0.6c0.1-0.1,0.2-0.2,0.2-0.2c0.1-0.1,0.1-0.2,0.2-0.4c0.3-0.4,0.6-0.8,1-1.2
		c0.3-0.4,0.7-0.7,1.1-1.1c0.3-0.2,0.5-0.5,0.6-0.8c0.1-0.3,0.3-0.5,0.6-0.7l0.8-0.7c0.3-0.2,0.5-0.3,0.6-0.6
		c0.1-0.1,0.2-0.2,0.2-0.3c0.1-0.1,0.1-0.2,0.2-0.4c0.1-0.1,0.4-0.4,0.9-0.9c0.5-0.4,1-0.8,1.3-1.1l0.1-0.2c-0.5,0-1.1,0.2-1.9,0.5
		c-0.2,0.1-0.4,0.2-0.6,0.3c-0.2,0.1-0.3,0.2-0.6,0.3c-0.3,0.1-0.6,0.2-0.9,0.3c-0.3,0.1-0.6,0.3-0.8,0.4c-0.1,0-0.1,0-0.2,0
		c0,0-0.1,0.1-0.2,0.2c-0.3,0-0.5,0.1-0.6,0.2c-0.1,0.1-0.3,0.2-0.5,0.3c0,0-0.1,0-0.1,0c0,0-0.1,0-0.2,0c-0.5,0.2-1.1,0.4-1.8,0.7
		c-0.7,0.3-1.3,0.5-1.7,0.8l-2.2,1.3c-0.5,0.3-1.1,0.7-1.6,1c-0.5,0.3-1,0.7-1.5,1.1l-0.9,0.7c-0.1,0.1-0.2,0.1-0.2,0.2
		c0,0-0.2,0.1-0.4,0.1c-0.4,0-0.7,0-0.8-0.1c0-0.2-0.2-0.6-0.4-0.9c-0.2-0.4-0.4-0.8-0.5-1.1l-0.5-1.8c0-0.2,0-0.5,0-0.8
		c0.1-0.3,0.2-0.6,0.3-0.8c0.1-0.2,0.2-0.5,0.2-0.8c0.1-0.3,0.1-0.6,0.2-0.9c0-0.1,0.1-0.3,0.1-0.7c0.1-0.2,0.2-0.3,0.3-0.4
		c0.1-0.1,0.2-0.2,0.3-0.4c0.2,0,0.4,0,0.6,0.1c0.2,0,0.3,0.1,0.4,0.1c0,0,0.1-0.1,0.1-0.2c0.6,0.1,1.1,0.2,1.3,0.3
		c0.2,0.1,0.5,0.3,0.9,0.6c0.2,0.1,0.4,0.3,0.8,0.5c0.4,0.2,0.7,0.2,0.9,0.1l0.1-0.1c0.5-0.2,1-0.5,1.4-0.7c0.5-0.2,1-0.4,1.5-0.6
		c0.2,0,0.3-0.1,0.5-0.1c0.1,0,0.3-0.1,0.5-0.2c0.1-0.1,0.3-0.2,0.4-0.2c0.2-0.1,0.3-0.1,0.5-0.2l2.7-1.2c0.3-0.1,0.7-0.2,1.1-0.3
		c0.4-0.1,0.7-0.2,0.8-0.4l0.9-0.4c0.1-0.1,0.2-0.1,0.3-0.1c0.1,0,0.2,0,0.3-0.1l0.6-0.2c-0.1-0.4-0.3-1-0.6-1.7
		c-0.3-0.7-0.5-1.1-0.6-1.3c-0.1-0.3-0.2-0.5-0.3-0.7c0-0.1,0-0.2-0.1-0.2c0-0.1-0.1-0.1-0.1-0.2l-0.3-0.2c-0.1-0.1-0.1-0.1-0.1-0.1
		c0,0,0-0.1-0.1-0.2c-0.1-0.2-0.3-0.5-0.6-0.9c-0.3-0.3-0.4-0.6-0.5-0.9c-0.1,0-0.3,0.1-0.6,0.3c-0.2,0.1-0.4,0.3-0.5,0.3
		c-0.2,0.2-0.3,0.3-0.4,0.4c0,0.1-0.1,0.2-0.1,0.2c0,0.1-0.1,0.1-0.2,0.2c-0.1,0-0.3,0.1-0.7,0.3c-0.2,0.1-0.4,0.2-0.6,0.2
		c-0.1,0-0.2,0.1-0.4,0.2c-0.2,0.1-0.5,0.3-0.8,0.6c-0.3,0.3-0.6,0.5-0.9,0.8c-0.3,0.2-0.7,0.4-1,0.5c-0.4,0.1-0.7,0.1-1-0.1
		c-0.2-0.1-0.4-0.2-0.5-0.4c-0.1-0.2-0.2-0.2-0.5-0.2c0-0.2-0.1-0.5-0.2-0.6c-0.1-0.2-0.2-0.4-0.3-0.6c-0.1-0.1-0.2-0.3-0.2-0.5
		c-0.1-0.2-0.2-0.4-0.4-0.5c-0.1-0.3-0.1-0.4-0.1-0.3c0,0.1-0.1,0.1-0.2,0c-0.2-0.1-0.3-0.2-0.4-0.5c-0.1-0.2-0.1-0.4-0.2-0.6
		c-0.1-0.1,0-0.2,0-0.4c0-0.2,0-0.4,0-0.6c0-0.2-0.1-0.4,0-0.5c0.3-0.2,0.5-0.5,1.1-0.7c0.2,0,0.4-0.1,0.5-0.2
		c0.1-0.1,0.2-0.1,0.2-0.2c0.1,0,0.2,0,0.4-0.1c0.2,0,0.6,0,1.1,0c0.2,0,0.4,0.1,0.6,0.2c0.2,0.1,0.3,0.2,0.5,0.2
		c0.2,0.1,0.4,0.1,0.6,0.1c0.2,0,0.5-0.1,0.9-0.2c0.2,0,0.4-0.1,0.7-0.3c0.3-0.1,0.6-0.3,1-0.4c0.3-0.1,0.6-0.3,0.9-0.4
		c0.3-0.1,0.4-0.2,0.5-0.3c0.3-0.2,0.6-0.4,1-0.6c0.3-0.1,0.7-0.3,1-0.5c0.3-0.1,0.6-0.3,1-0.5c0.4-0.3,0.8-0.4,1-0.4
		c-0.1-0.2-0.1-0.4,0-0.6c0.1-0.1,0.2-0.3,0.1-0.6c0-0.4,0-0.7,0-0.9c0-0.2,0-0.4,0-0.6c0-0.2,0-0.4,0-0.7c0-0.2,0.1-0.6,0.1-1.1
		c0-0.4,0-0.9,0-1.3c0-0.4-0.1-0.9-0.1-1.4c0-0.2,0-0.4,0-0.6c0-0.2,0-0.3,0-0.6c0-0.4,0.1-0.8,0.1-1.2c0-0.4,0.1-0.7,0.1-1.1
		c0.1-0.8,0.1-1.3,0.1-1.6c0-0.3,0-0.6-0.1-0.7c0-0.2-0.1-0.3-0.2-0.5c-0.1-0.1-0.1-0.4-0.1-0.9c0-0.2,0.1-0.5,0.3-0.7
		c0.1-0.1,0.2-0.2,0.3-0.2c0.1,0,0.2-0.1,0.3-0.2c0.2-0.2,0.4-0.4,0.6-0.7c0.1-0.1,0.2-0.2,0.3-0.3c0-0.1,0.1-0.2,0.2-0.3
		c0.1,0,0.2,0.1,0.4,0.3c0.2,0.2,0.3,0.3,0.4,0.4l0.9,0.9c0.2,0.2,0.4,0.4,0.4,0.5c0.1,0.1,0.1,0.3,0.2,0.7c0.1,0.2,0.2,0.3,0.3,0.2
		c0.1-0.1,0.3,0.1,0.7,0.4c0.3,0.2,0.4,0.5,0.5,0.7c0.1,0.2,0.3,0.5,0.6,0.9c0.3,0.3,0.6,0.7,0.8,1.4c0.2,0.6,0.4,1.2,0.4,1.7
		c0,0.4-0.1,0.6-0.3,0.8c-0.1,0.1-0.2,0.2-0.2,0.2c0,0-0.1,0.1-0.3,0.2c-0.2,0.1-0.3,0.2-0.5,0.2c-0.2,0.1-0.4,0.1-0.6,0.2
		c0,0.1-0.1,0.2-0.1,0.4c0,0.2-0.1,0.3-0.1,0.5l-0.3,0.9c-0.1,0.9-0.3,1.6-0.4,2.2c-0.1,0.6-0.2,1.4-0.2,2.3c0,0.4,0,0.9-0.1,1.4
		c-0.1,0.5-0.1,0.9-0.1,1.3c0,0.2,0,0.5,0.1,0.7c0,0.2,0,0.5-0.1,0.8c0,0.2,0,0.4,0,0.7c0,0.3,0,0.5,0,0.7c0,0.2,0,0.4,0.1,0.6
		c0.1,0.2,0.1,0.4,0,0.7c0,0.2,0,0.4,0,0.7c0,0.2,0,0.5,0,0.7c0,0,0.2,0,0.4-0.1c0.2,0,0.3-0.1,0.4-0.2l0.1-0.1
		c0.1-0.2,0.2-0.3,0.2-0.3c0,0,0.1,0,0.1-0.1c0-0.1,0-0.2,0.1-0.5c0.1-0.2,0.2-0.4,0.3-0.6c0.1-0.1,0.2-0.3,0.4-0.6
		c0.3-0.4,0.5-0.6,0.7-0.6c0.2,0,0.3-0.2,0.6-0.7c0.1-0.4,0.3-0.7,0.6-1c0.3-0.3,0.6-0.6,0.8-0.9c0.4-0.5,0.8-1,1.1-1.5
		c0.3-0.5,0.7-1.1,1-1.7c0.1-0.1,0.1-0.2,0.1-0.3s0-0.3,0.1-0.4c0-0.2,0.1-0.4,0.1-0.3c0,0,0.1,0,0.2-0.2c0-0.1,0.1-0.2,0.1-0.3
		c0-0.1,0.1-0.2,0.2-0.3c0.3-0.4,0.6-0.8,0.9-1.3c0.3-0.5,0.7-0.9,1-1.2c0-0.1,0.1-0.2,0.2-0.2c0.1-0.1,0.1-0.2,0.2-0.2
		c0-0.1,0.1-0.1,0.1-0.2c0,0,0-0.1,0.1-0.2c0.1-0.5,0.1-0.8,0.1-0.9c0-0.1,0.2-0.2,0.7-0.3c0.2,0,0.3-0.1,0.4-0.1
		c0.1,0,0.2-0.1,0.3-0.1c0.4-0.1,0.6-0.2,0.6-0.2c0.2,0,0.5,0.1,0.7,0.3c0.3,0.2,0.5,0.4,0.6,0.6c0.3,0.4,0.6,0.7,0.8,0.9
		c0.2,0.2,0.4,0.6,0.6,1.2c0,0.2,0.1,0.3,0.2,0.4c0.1,0.1,0.1,0.2,0.1,0.4c0.1,0.8,0.2,1.4,0.1,2c0,0.2-0.1,0.4-0.1,0.5
		c0,0.1,0,0.3-0.1,0.5c0,0.1-0.1,0.1-0.1,0.2c0,0-0.1,0.1-0.1,0.2c-0.3,0.6-0.6,1.1-1,1.5c-0.4,0.4-0.8,0.8-1.3,1.2
		c-0.2,0.2-0.4,0.3-0.6,0.5c-0.2,0.1-0.4,0.3-0.7,0.5c-0.1,0.1-0.2,0.1-0.3,0.2c-0.1,0-0.2,0.1-0.3,0.2c-0.3,0.1-0.6,0.2-0.8,0.3
		c-0.4,0.2-0.7,0.4-0.7,0.5c-0.1,0.1-0.2,0.3-0.6,0.6c-0.2,0.2-0.4,0.4-0.6,0.4H222c-0.3,0-0.4,0-0.3,0c0,0-0.1,0.2-0.5,0.5
		c-0.3,0.2-0.7,0.4-1.2,0.6c-0.5,0.1-0.7,0.3-0.9,0.6c-0.3,0.4-0.5,0.5-0.5,0.5c0,0-0.2,0-0.6,0.1c-0.1,0-0.3,0.1-0.4,0.1
		c-0.2,0-0.3,0.1-0.4,0.2c-0.1,0.1-0.2,0.2-0.4,0.4c-0.1,0.2-0.2,0.3-0.3,0.5c-0.3,0.3-0.5,0.5-0.6,0.7c-0.1,0.1-0.2,0.3-0.3,0.8
		c-0.1,0.4-0.2,0.9-0.3,1.2l0.5-0.1c0.3,0,0.5,0,0.8-0.1c0.3-0.1,0.6-0.1,0.9-0.2c0.4,0,0.8-0.1,1.2-0.2c0.4-0.1,0.7-0.3,1.1-0.4
		c0.3-0.1,0.5-0.2,0.6-0.2c0.1,0,0.2,0,0.3-0.1c0.1,0,0.3-0.1,0.6-0.2c0.3-0.1,0.6-0.3,1.1-0.6c0.3-0.3,0.6-0.5,0.7-0.6
		c0.1-0.1,0.2-0.2,0.4-0.4c0,0,0.1-0.1,0.3-0.1c0.2,0,0.3-0.1,0.4-0.1c0.2-0.1,0.4-0.1,0.5-0.1c0.1,0,0.3,0,0.6,0
		c0.1,0,0.2-0.1,0.3-0.1c0.2,0,0.3,0,0.4,0c0.1,0,0.2,0,0.4,0c0.4,0,0.8,0.2,1.2,0.3c0.4,0.2,0.7,0.4,1,0.8l0.1,0.1
		c0.2,0.2,0.3,0.4,0.4,0.5c0,0.1,0,0.2,0,0.5c0,0.2-0.1,0.4-0.1,0.5c0,0.1-0.1,0.1-0.1,0.1c0,0,0,0.1,0,0.1c0,0.1-0.1,0.2-0.1,0.3
		c-0.2,0.4-0.6,0.8-1.2,1.2c-0.6,0.3-1.1,0.6-1.5,0.8c-0.4,0.1-1,0.3-1.8,0.5c-0.8,0.2-1.5,0.3-1.9,0.3c-0.6,0-1.2,0.1-1.9,0.4
		l-5.1,1.5l-0.1,0.2l-0.1,0.1c0.2,0,0.4,0.2,0.6,0.4c0.2,0.2,0.3,0.4,0.4,0.5c0.1,0.1,0.2,0.2,0.2,0.3c0,0.1,0.1,0.1,0.3,0.2
		c0,0.1,0.1,0.2,0.1,0.3c0,0.1,0,0.2,0.1,0.3c0.1,0.2,0.3,0.7,0.6,1.3c0.3,0.6,0.4,1.1,0.4,1.4l-0.1,1.2c0,0.1,0,0.2,0,0.1
		c0,0,0,0.1-0.1,0.2c-0.1,0.2-0.2,0.5-0.3,0.7c-0.1,0.2-0.3,0.5-0.4,0.8c-0.1,0.7-0.2,1.4-0.3,2.4c-0.1,0.9-0.1,1.8-0.1,2.8
		c0,0.9,0.2,1.8,0.3,2.6c0.2,0.8,0.4,1.5,0.8,1.9c0.5,0.7,1.1,1.3,1.7,1.8c0.2,0.1,0.3,0.1,0.4,0.1c0.1,0.1,0.3,0.2,0.6,0.2
		c0.3,0.1,0.5,0.1,0.7,0.2c0.3,0,0.6,0.1,0.9,0.1c0.3,0,0.6,0.1,0.9,0.2c0.2,0,0.6,0.1,1,0.1c0.5,0,0.9,0.1,1.4,0.2
		c1,0.2,2,0.2,3.2,0c1.1-0.2,2.2-0.5,3.2-0.9c0.3-0.1,0.4-0.1,0.5-0.2c0.1,0,0.3-0.1,0.8-0.1c0-0.1,0.1-0.2,0.1-0.2
		c0-0.1,0.1-0.2,0.1-0.4c0-0.6,0-1.1-0.1-1.5c-0.1-0.4-0.2-0.8-0.3-1.4c-0.1-0.4-0.2-0.9-0.4-1.3c-0.2-0.4-0.3-0.8-0.4-1.2
		c-0.1-0.2-0.2-0.6-0.4-1c-0.2-0.4-0.1-0.7,0-0.8c0.2-0.1,0.4-0.1,0.6,0.1c0.2,0.2,0.4,0.3,0.5,0.4l0.3,0.2c0.1,0.1,0.2,0.2,0.2,0.3
		c0.1,0.1,0.1,0.3,0.2,0.4l0.2,0.1c0.1,0.2,0.2,0.6,0.5,1c0.2,0.4,0.4,0.7,0.6,1c0.3,0.3,0.5,0.6,0.7,0.8c0.2,0.4,0.4,0.7,0.6,0.9
		c0.1,0.1,0.2,0.2,0.2,0.2c0,0,0.1,0,0.4,0c0.2,0,0.3,0,0.3,0c0,0,0,0.1,0.1,0.2c0.1,0.1,0.4,0.2,1.1,0.3c0.6,0.1,1,0.2,1.2,0.2
		c0.5,0.2,0.8,0.4,0.8,0.7c0,0.4,0,0.7-0.1,0.7c-0.1,0-0.1,0.1,0,0.4C240.1,153,240,153.8,239.6,154.3z M243.7,90
		c-0.1,0-0.2-0.1-0.2-0.1c-0.1,0-0.1,0-0.2-0.1c-0.3-0.1-0.6-0.2-1-0.3c-0.4-0.1-0.7-0.2-0.9-0.3c-0.2-0.1-0.3-0.1-0.3-0.2
		c-0.1,0-0.1,0-0.1,0c0,0-0.1,0-0.1,0c-0.1,0-0.2,0-0.4-0.1c-0.3-0.1-0.5-0.1-0.7-0.2c-0.2,0-0.4-0.1-0.7-0.3
		c-0.2-0.1-0.5-0.2-0.8-0.2c-0.3,0-0.6-0.1-0.8-0.1c-0.1,0-0.2,0-0.2-0.1c-0.1,0-0.2-0.1-0.2-0.1c-0.1,0-0.2,0-0.3,0
		c-0.1,0-0.2,0-0.2,0c-0.1,0-0.2-0.1-0.5-0.1c-0.2,0-0.4,0-0.6,0c-0.2,0-0.4,0-0.6-0.1c-0.2,0-0.3-0.1-0.4-0.2
		c-0.1-0.1-0.1-0.2-0.2-0.2c0,0-0.1-0.1-0.1-0.1c-0.1-0.1-0.1-0.2-0.1-0.2c0-0.1,0.1-0.1,0.1-0.3c0.1,0,0.2,0,0.2,0c0,0,0,0,0.1,0.1
		c0-0.1,0-0.1,0-0.1c0,0,0-0.1,0.1-0.2c0.1-0.1,0.2-0.2,0.2-0.4c0,0,0.1,0,0.1-0.1c0,0,0.1,0,0.1,0c0,0,0.1,0,0.1,0c0,0,0.1,0,0.1,0
		c0.1,0,0.2,0,0.3,0c0.1,0,0.2,0,0.3,0c0.2,0,0.4,0,0.5,0.1c0.1,0,0.3,0.1,0.5,0.1c0.1,0,0.2,0,0.2,0.1c0,0,0.1,0,0.3,0
		c0.2,0,0.3,0,0.3,0c0,0,0.1,0,0.1,0c0,0,0,0,0.1,0c0,0,0.1-0.1,0.3-0.1L238,86c0.2-0.1,0.3-0.2,0.2-0.3c-0.1,0-0.1-0.2-0.2-0.3
		c-0.1-0.1-0.1-0.1-0.2-0.2c-0.1,0-0.1-0.1-0.2-0.1c-0.1-0.1-0.1-0.1-0.2-0.2c-0.1-0.1-0.2-0.2-0.2-0.4c-0.1-0.2-0.1-0.3-0.2-0.4
		c-0.1-0.1-0.1-0.3-0.1-0.4c0-0.1,0-0.2,0-0.3c0-0.1,0-0.2-0.1-0.3c0-0.2-0.1-0.4-0.1-0.5c0-0.2,0-0.3,0-0.5c0,0,0-0.1,0-0.1
		c0,0,0-0.1,0-0.1c0.1-0.1,0.1-0.1,0.1-0.1c0,0-0.1,0,0-0.1c0-0.1,0.1-0.1,0.1-0.1c0,0,0,0,0-0.1c0,0,0-0.1,0-0.1c0-0.1,0-0.1,0-0.1
		c0,0,0-0.1,0-0.1c0,0,0,0,0-0.1c0-0.1,0-0.1,0-0.1c0,0,0-0.1,0-0.1c0,0,0-0.1,0-0.2c0,0,0,0,0,0c0,0,0,0,0-0.1c0,0,0-0.1,0.1-0.2
		l0.2-0.9c0-0.1,0.1-0.2,0.1-0.2c0-0.1,0-0.1-0.1-0.2c0,0-0.1,0.1-0.1,0.1c0,0,0,0-0.1,0.1c0,0,0,0-0.1,0c-0.2,0.1-0.3,0.2-0.4,0.3
		c-0.1,0.1-0.2,0.2-0.2,0.3c-0.1,0.1-0.2,0.3-0.3,0.4c-0.1,0.2-0.2,0.4-0.3,0.5c-0.1,0.1-0.1,0.2-0.2,0.3c0,0.1-0.1,0-0.3,0
		c-0.1,0-0.1-0.1-0.2-0.2c-0.1-0.1-0.1-0.1-0.2-0.1c-0.2-0.2-0.4-0.3-0.4-0.3c0,0-0.1-0.1-0.1-0.3c0-0.1,0-0.1,0-0.1
		c0,0,0,0,0.1-0.1c0-0.1,0-0.2,0-0.3c0-0.1,0-0.2,0.1-0.3c0-0.1,0.1-0.1,0.2-0.2c0.1,0,0.2,0,0.3-0.1c0,0,0.1,0,0.1-0.1
		c0.1-0.1,0.2-0.1,0.3-0.2s0.2-0.1,0.3-0.2c0.1-0.1,0.1-0.1,0.2-0.1c0.2-0.1,0.4-0.3,0.5-0.3c0.1-0.1,0.3-0.1,0.5-0.2
		c0.2,0,0.3-0.1,0.5,0c0.2,0,0.3,0.1,0.4,0.3c0.2,0.4,0.2,0.7,0.1,1c-0.1,0.3-0.1,0.6-0.1,0.7c0,0.1,0,0.2,0,0.3c0,0.1,0,0.2,0,0.4
		c0,0.2-0.1,0.4-0.1,0.7c0,0.2-0.1,0.5-0.1,0.7c0,0.2,0,0.2,0,0.3c0,0,0,0,0,0.1c0,0,0,0,0,0.1c0,0,0,0.1,0.1,0.2c0,0,0,0.1,0,0.1
		c0,0.1,0,0.1,0,0.2c0,0.4,0.1,0.6,0.2,0.7c0.1,0.1,0.2,0.3,0.4,0.5c0,0,0.1,0.1,0.1,0.1c0,0,0,0.1,0.1,0.1c0.1,0.1,0.2,0.2,0.3,0.3
		c0.1,0.1,0.2,0.2,0.3,0.3c0.1,0.2,0.3,0.3,0.3,0.4c0.1,0.1,0.1,0.3,0.1,0.6c0,0.1,0,0.2,0,0.3c0,0.1,0,0.2,0,0.3
		c0,0.1-0.1,0.2-0.1,0.3c0,0.1,0,0.2-0.1,0.3c0.2,0.1,0.3,0.1,0.4,0.1c0.1,0,0.2,0,0.3,0.1c0.3,0.1,0.5,0.1,0.8,0.2
		c0.2,0.1,0.5,0.2,0.8,0.2c0.1,0,0.2,0.1,0.4,0.1c0.1,0,0.3,0.1,0.4,0.1c0.1,0,0.2,0.1,0.4,0.1c0.2,0,0.3,0.1,0.4,0.1
		c0.1,0,0.2,0,0.2,0c0,0,0.1,0.1,0.2,0.1c0.1,0,0.1,0,0.2,0c0.1,0,0.1,0,0.2,0.1c0.1,0,0.1,0,0.2,0c0,0,0.1,0,0.2,0
		c0.1,0,0.1,0,0.2,0c0.1,0,0.1,0,0.2,0.1c0.1,0,0.2,0,0.4,0c0.2,0,0.3,0,0.5,0c0.2,0,0.3,0,0.5,0c0.2,0,0.3,0,0.4,0
		c0.1,0,0.2,0,0.4,0c0.1,0,0.3,0,0.4,0c0,0,0,0,0-0.1c0,0,0,0,0-0.1c0,0,0-0.1,0.1-0.1c0,0,0,0,0-0.1c0-0.1-0.1-0.1-0.1-0.2
		c-0.1,0-0.1-0.1-0.1-0.1c0,0-0.1,0-0.1,0c0,0,0,0,0.1-0.1c0-0.1,0-0.2-0.1-0.3c-0.1-0.1-0.1-0.1-0.2-0.2c-0.1-0.1-0.1-0.2-0.2-0.2
		c0-0.1-0.1-0.1-0.1-0.2c-0.1-0.2-0.3-0.4-0.5-0.6c-0.2-0.3-0.4-0.5-0.5-0.6c-0.1,0-0.1-0.1-0.1-0.2c0-0.1-0.1-0.2-0.2-0.2
		c0-0.1-0.1-0.1-0.2,0c0,0-0.1,0-0.1,0c0,0-0.1,0-0.1,0.1c0,0-0.1,0.1-0.1,0.1c0,0-0.1,0-0.1,0.1c-0.1,0-0.1,0.1-0.1,0.1
		c0,0,0,0-0.1,0.1c-0.1,0-0.2,0-0.2,0c0,0-0.1,0-0.2,0.1c-0.1,0-0.1,0.1-0.2,0.1c0,0-0.1,0-0.2,0.1c-0.1,0.1-0.2,0.2-0.3,0.2
		c-0.1,0.1-0.2,0.1-0.3,0.3c0,0.1,0,0.1,0,0.2c0,0.1,0,0.1-0.1,0.2c-0.1,0.1-0.1,0.1-0.1,0.2c0,0-0.1,0-0.1,0.1
		c-0.1,0.1-0.2,0.2-0.2,0.3c0,0.2-0.1,0.3-0.2,0.5c-0.1,0-0.2,0-0.2-0.1c0-0.1-0.1-0.2-0.1-0.3c0-0.1-0.1-0.1-0.1-0.1
		c0,0,0-0.1,0-0.1c0-0.1,0-0.1,0-0.1c0,0,0,0-0.1-0.1c0-0.1,0-0.1,0-0.2c0,0,0-0.1-0.1-0.1c0-0.1-0.1-0.2-0.1-0.2
		c-0.1-0.1-0.1-0.1-0.1-0.2c0-0.1-0.1-0.3-0.2-0.4c-0.1-0.1-0.1-0.2-0.2-0.4c-0.1-0.1-0.1-0.2-0.2-0.3c0-0.1,0-0.1,0-0.2
		c0,0,0-0.1,0-0.1c0,0,0-0.1-0.1-0.1c0,0,0-0.1-0.1-0.2c0-0.1,0-0.1,0-0.1c0,0,0,0-0.1-0.1c0-0.1-0.1-0.1-0.2-0.2
		c-0.1-0.1-0.1-0.1-0.1-0.2c0.2,0,0.3,0,0.3,0c0,0,0.1,0.1,0.2,0.1c0,0,0.1,0.1,0.1,0.1c0,0,0,0,0.1,0.1c0,0.1,0,0.1,0.1,0.1
		c0,0,0,0,0.1,0c0-0.1,0-0.1,0-0.1c0,0,0-0.1,0-0.1c0-0.1,0-0.1,0-0.1c0,0,0,0,0-0.1c0-0.1-0.1-0.2-0.1-0.3c0,0,0-0.1,0-0.1
		c0,0,0-0.1,0-0.1c0,0-0.1,0-0.2,0c0,0-0.1,0.1-0.1,0.1c0,0-0.1,0.1-0.3,0.1c0,0,0,0,0,0l0,0v0c0,0-0.1,0.1-0.1,0.1
		c0,0-0.1,0-0.2,0.1c-0.1,0-0.1,0-0.2,0c-0.2-0.1-0.2-0.2-0.2-0.4c0-0.2,0-0.3,0.2-0.4c0.1-0.1,0.2-0.1,0.1-0.2s0-0.1,0.1-0.1
		c0.1-0.1,0.1-0.1,0.2-0.2c0-0.1,0.1-0.1,0.1-0.2c0,0,0.1-0.1,0.1-0.1c0.1-0.1,0.1-0.1,0-0.2c0-0.1-0.1-0.2-0.1-0.1c0,0,0,0,0-0.1
		c0-0.1,0-0.2,0-0.3c0-0.1,0-0.3,0.1-0.4c0.1-0.1,0.1-0.2,0.1-0.2c0,0,0-0.1,0-0.1c0,0,0,0,0,0c0,0,0,0,0.1-0.1
		c0.1,0,0.1-0.1,0.1-0.1c0-0.1,0-0.1,0.1-0.2c0.1-0.1,0.2-0.2,0.4-0.1c0.1,0,0.1,0,0.1,0c0,0,0.1,0,0.1,0c0,0,0.1,0.1,0.2,0.2
		c0.1,0,0.2,0,0.4-0.1c0.2-0.1,0.3-0.2,0.4-0.3c0-0.1,0-0.2-0.1-0.2c-0.1-0.1-0.2-0.1-0.3-0.1c-0.1,0-0.2-0.1-0.2-0.2
		c-0.1-0.1-0.1-0.2-0.1-0.3c0,0,0-0.1,0-0.1c0-0.1,0.1-0.2,0.1-0.3c0.1-0.1,0.1-0.2,0.1-0.2c0,0,0-0.1-0.1-0.3
		c0-0.1-0.1-0.2-0.1-0.2c0-0.1-0.1-0.2-0.1-0.2c0,0,0-0.1-0.1-0.1c0,0,0-0.1-0.1-0.1c0-0.1-0.1-0.2-0.1-0.4
		c-0.1-0.1-0.1-0.2-0.2-0.4c0,0,0-0.1-0.1-0.2c0-0.1-0.1-0.3-0.2-0.5c-0.1-0.2-0.1-0.3-0.2-0.5c-0.1-0.1-0.1-0.2-0.1-0.3
		c0-0.1-0.1-0.2-0.1-0.3c0-0.1-0.1-0.2-0.1-0.2c0,0,0-0.1,0-0.2c0-0.1,0-0.1,0-0.1c-0.1-0.2-0.2-0.4-0.2-0.7c0-0.2-0.1-0.5-0.1-0.7
		c0-0.1,0-0.2,0-0.3c0-0.1,0-0.2,0-0.2c0-0.1,0-0.1,0-0.1c0,0,0,0,0-0.1c0-0.1,0-0.1,0-0.1c0,0,0-0.1,0-0.2c0-0.2,0-0.3,0-0.3
		c0,0,0-0.1-0.1-0.3c0,0,0,0,0-0.1c0,0,0-0.1,0-0.1c0-0.1-0.1-0.2,0-0.2c0,0,0,0,0.1-0.1c0-0.1,0-0.2,0-0.2c0-0.1,0-0.2,0.2-0.2
		l0.1,0.1c0,0,0.1,0,0.1,0c0,0,0,0,0,0c0.1,0,0.2,0.1,0.3,0.3c0.1,0.2,0.2,0.2,0.3,0.3c0,0,0.1,0.1,0.1,0.1c0.1,0,0.1,0.1,0.1,0.1
		c0.1,0.2,0.1,0.2,0.1,0.3c0,0,0,0.1-0.1,0.1l0,0c0,0.1-0.1,0.2-0.2,0.3c0,0.1,0,0.1,0.1,0.1c0,0,0,0,0,0.1c0,0,0,0.1,0,0.1
		c0,0,0,0,0,0.1c0,0.2,0,0.4,0,0.5c0,0.2,0,0.4,0.1,0.5c0,0.2,0.1,0.4,0.1,0.6c0.1,0.2,0.1,0.4,0.2,0.6c0.1,0,0.2-0.1,0.3-0.2
		c0.1-0.1,0.1-0.2,0.2-0.3c0-0.1,0-0.2,0-0.4c0-0.2,0-0.3,0-0.4c0-0.1,0-0.2,0-0.3c0-0.1,0-0.1,0-0.1c0,0,0-0.1-0.1-0.1
		c0,0-0.1-0.1-0.1-0.2c0-0.1-0.1-0.2-0.1-0.3c0-0.2,0-0.3,0-0.4c0-0.1,0-0.2,0.1-0.3c0.1-0.1,0.1-0.2,0.2-0.3
		c0.1-0.2,0.1-0.3,0.2-0.3c0.1,0,0.2,0,0.3-0.1c0.1,0,0.1-0.1,0.1-0.1c0,0,0.1-0.1,0.1-0.1c0.1,0,0.1,0,0.2,0c0,0,0.1,0,0.1-0.1
		c0.1,0,0.2-0.1,0.3-0.1c0.1-0.1,0.2-0.1,0.3-0.1c0.4-0.1,0.7-0.2,1-0.3c0.3-0.1,0.7-0.2,1-0.3l0.5,0c0,0,0.1,0,0.1,0
		c0.1,0,0.1,0,0.1,0c0.1,0,0.2,0.1,0.4,0.1c0.1,0,0.2,0,0.4,0.1l1.1,0.3c0.1,0,0.1,0,0.1,0.1c0,0,0.1,0.1,0.1,0.1
		c0.1,0.1,0.2,0.1,0.3,0.1c0.1,0,0.2,0.1,0.3,0.2c0.1,0.1,0.3,0.3,0.4,0.5c0.1,0.2,0.2,0.5,0.2,0.7c0,0.1,0,0.2-0.1,0.4
		c-0.1,0.2-0.1,0.3-0.1,0.3c-0.1,0.1-0.2,0.1-0.3,0.2c-0.1,0.1-0.2,0-0.3,0c-0.1,0-0.2-0.1-0.2-0.2c-0.1-0.1-0.2,0-0.3,0.1
		c0,0.1-0.1,0.3-0.2,0.5c-0.1,0.2-0.2,0.5-0.3,0.7c-0.1,0.3-0.2,0.5-0.3,0.8c-0.1,0.3-0.2,0.5-0.2,0.6c-0.1,0.2-0.2,0.4-0.3,0.7
		c-0.1,0.2-0.1,0.5,0,0.7c0,0.1,0,0.2,0,0.4c0,0.2,0,0.3,0,0.4c-0.1,0.2-0.2,0.3-0.4,0.5c-0.2,0.2-0.4,0.3-0.5,0.4l-0.6,0.4
		c-0.1,0.1-0.2,0.2-0.2,0.2c0,0.1-0.1,0.2-0.1,0.4c0.2,0,0.4-0.1,0.6-0.2c0.2-0.1,0.4-0.2,0.6-0.2c0.1,0,0.2,0,0.3,0
		c0.1,0,0.2,0,0.2-0.1c0.1,0,0.2-0.1,0.2-0.1c0.1,0,0.3-0.1,0.6-0.1c0.3,0,0.5,0,0.6,0c0.2,0,0.3,0,0.5,0.1c0.2,0.1,0.3,0.1,0.5,0.2
		c0.3,0.1,0.4,0.2,0.5,0.2c0.1,0.1,0.2,0.1,0.3,0.2c0.2,0,0.2,0.1,0.2,0.1c0,0,0,0.1,0.1,0.1c0,0,0.1,0.1,0.1,0.1c0,0,0,0,0.1,0
		c0,0,0,0,0,0.1c0,0,0.1,0.1,0.1,0.2c0.1,0.2,0.2,0.3,0.3,0.4c0.1,0.1,0.2,0.3,0.2,0.4c0,0.1,0,0.1,0.1,0.1c0,0,0,0,0,0.1
		c0,0,0,0.1,0,0.1c0,0,0,0.1,0,0.2c0,0.1,0,0.2-0.1,0.3c-0.1,0.1-0.1,0.2-0.2,0.3c-0.1,0.1-0.2,0.2-0.3,0.2
		c-0.1,0.1-0.2,0.2-0.2,0.3c0,0,0,0.1-0.1,0.2c0,0.1-0.1,0.2-0.1,0.2c0,0.1,0,0.1,0,0.2c0,0,0,0.1,0,0.2c0,0,0,0.1,0,0.1
		c0,0,0,0.1,0,0.1c0,0.1,0,0.2,0,0.3c0,0.1,0,0.2-0.1,0.3c-0.1,0.1-0.1,0.2-0.1,0.2c0,0,0,0.1-0.1,0.2c0,0.1-0.1,0.3-0.2,0.4
		c-0.1,0.2-0.2,0.3-0.3,0.4c-0.1,0.1-0.1,0.3-0.2,0.5c-0.1,0.2-0.1,0.3-0.2,0.5c0,0-0.1,0.1-0.1,0.1c0,0,0,0.1-0.1,0.1l-0.1,0.2
		c0,0-0.1,0.1-0.1,0.2c-0.1,0.1-0.1,0.1-0.1,0.2c0,0.1-0.1,0.2-0.1,0.3c0,0.1-0.1,0.2-0.1,0.2c-0.1,0.1-0.1,0.1-0.2,0.2
		c-0.1,0.1-0.1,0.1-0.2,0.1c-0.1,0-0.2,0.1-0.2,0.1c0,0-0.1,0.1-0.2,0.1c0.1,0,0.2,0,0.3,0c0.2,0,0.3,0,0.5,0c0,0,0.1,0,0.2,0
		c0.1,0,0.1,0,0.2,0c0.1,0,0.1,0,0.1,0c0,0,0,0,0.1,0c0.1,0,0.2,0,0.3,0c0.1,0,0.2,0,0.3,0c0.3,0,0.4,0,0.5,0c0.1,0,0.2,0,0.3,0
		c0.1,0,0.2,0,0.4,0c0.1,0,0.3,0,0.4,0.1c0.1,0,0.2,0,0.2,0c0,0,0.1,0,0.2,0c0.1,0,0.2,0.1,0.1,0.1c0,0.1,0,0.1,0,0.2l0.1,0.1
		c0,0.1,0,0.1,0,0.2c0,0,0,0.1,0,0.2c0,0.1,0,0.2,0,0.2c0,0,0,0-0.1,0.1c0,0,0,0.1,0,0.1c0,0,0,0.1,0,0.1c0,0,0,0-0.1,0
		c-0.1,0-0.1,0-0.1,0.1c-0.1,0-0.1,0-0.2,0c0,0-0.1,0-0.3,0c-0.1,0-0.1,0-0.1,0c0,0,0,0-0.1,0l-0.2,0.1c-0.2,0-0.3,0-0.4,0.1
		c-0.1,0.1-0.3,0.1-0.4,0.2c-0.2,0.1-0.3,0.1-0.5,0.2c-0.2,0.1-0.4,0.1-0.7,0c-0.2,0-0.3,0-0.5,0.1c-0.1,0-0.2,0.1-0.2,0.1
		c0,0-0.1,0-0.1,0c0,0,0,0,0,0c0,0-0.1,0-0.1,0c-0.1,0-0.2,0.1-0.3,0.1c-0.1,0-0.2,0-0.2,0c-0.2,0-0.3,0-0.5,0c-0.2,0-0.3,0-0.5,0
		c0,0-0.1,0-0.1,0c0,0-0.1,0-0.1,0c-0.1,0-0.2,0-0.4-0.1c-0.2,0-0.3-0.1-0.3-0.1c-0.1-0.1-0.3-0.1-0.5-0.1c-0.2,0-0.3-0.1-0.5-0.1
		C244,90.1,243.8,90,243.7,90z M283,114.8c0,0.1-0.1,0.2-0.1,0.2c-0.2,0.2-0.4,0.4-0.7,0.6c-0.3,0.1-0.5,0.3-0.7,0.6
		c-0.1,0-0.1,0.1-0.2,0.1c0,0-0.1,0.1-0.2,0.2c-0.2,0.1-0.5,0.2-0.9,0.3c-0.3,0.1-0.6,0.2-0.9,0.4l-0.4,0.4
		c-0.2,0.1-0.4,0.2-0.6,0.2c-0.2,0.1-0.4,0.2-0.5,0.3c-0.2,0.1-0.2,0.1-0.2,0.2c0,0-0.1,0.1-0.3,0.2c-0.5,0.3-1,0.6-1.5,1
		c-0.1,0.1-0.3,0.2-0.6,0.2c-0.2,0.1-0.4,0.2-0.5,0.2c-0.2,0.1-0.3,0.1-0.4,0.2c-0.1,0-0.2,0.1-0.2,0.2c0,0-0.1,0.1-0.2,0.2
		c-0.1,0.1-0.3,0.2-0.3,0.3v0.1c0,0,0,0,0,0.1v0.1l0,0.1c-0.1,0.2-0.1,0.3-0.1,0.3c-0.1,0-0.1,0.1-0.3,0.4c-0.1,0.4-0.2,0.7-0.3,0.8
		c-0.1,0.1-0.1,0.3-0.1,0.4c-0.1,0.4,0,0.6,0,0.7c0,0.1,0.1,0.2,0.1,0.4v0.1c0,0.2,0,0.3,0.2,0.3c0.2-0.1,0.3-0.1,0.6-0.1
		c0.3,0,0.5,0.1,0.5,0c0,0,0.2-0.1,0.6-0.1c0.2,0,0.3-0.1,0.3-0.1c0,0,0-0.1,0.2-0.2c0.4-0.2,0.8-0.3,1.3-0.3c0.5,0,1-0.1,1.4-0.1
		c0.4,0,0.7,0,0.7,0c0.1,0.1,0.2,0.2,0.6,0.5c0,0.5,0.8,0.9-0.6,1.2v0.1v0.1c0,0.4-0.4,0.6-0.7,0.8c-0.3,0.2-0.7,0.3-1.1,0.3
		c-0.4,0.1-0.8,0.1-1.2,0.2c-0.4,0-0.8,0.2-1.2,0.4c-0.1,0-0.2,0.1-0.4,0.1c0,0-0.1,0.1-0.2,0.1l-0.4,0.2c-0.1,0.1-0.1,0.1-0.1,0.1
		c0,0,0,0-0.1,0l-0.4,0.2c-0.1,0.1-0.2,0.1-0.2,0.1c0,0,0,0-0.2,0.2c-0.2,0.4-0.3,0.7-0.4,1.1c-0.1,0.4-0.1,0.8,0,1.2
		c0.1,0.7,0.1,1.1,0.1,1.3c0,0.2-0.1,0.6-0.1,1c0,0.2,0,0.3-0.1,0.2c0,0-0.1,0-0.1,0.2c0,0.2,0,0.4,0.1,0.5c0,0.1,0.1,0.2,0.1,0.4
		c-0.1,0.4-0.1,0.7-0.2,0.9c0,0.2,0,0.5,0,0.9c0,0.2,0,0.4,0.1,0.5c0.1,0.1,0,0.3,0,0.5c0,0.2-0.1,0.4-0.1,0.4c0,0,0,0.2,0,0.6v0.9
		c0,0.4,0.1,0.7,0.2,0.8c0.1,0.1,0.2,0.5,0,1.1c0,0.2,0,0.4,0.1,0.4c0.1,0,0.1,0.2,0.1,0.4c0,0.4,0,0.8,0,1c0,0.2,0.1,0.5,0.1,0.9
		c0,0.4,0.2,0.7,0.2,0.8c0,0.1,0,0.2,0,0.2c0,0,0,0.1,0,0.2c0,0.1,0,0.4,0,0.8c0,0.4-0.1,0.7-0.1,0.7c0,0.1-0.1,0.3-0.1,0.7
		c0,0.1,0.1,0.2,0,0.2c0,0.1,0.1,0.1,0.1,0.2v0.8c0,0.5,0,0.8,0,0.9c0,0.1,0,0.3-0.7,0.7v0.1c0,0.2-0.3,0.4-0.3,0.7
		c-0.1,0.2-0.2,0.5-0.4,0.7c-0.2,0.3-0.4,0.4-0.5,0.4c-0.1,0-0.3,0-0.6-0.1c-0.4,0-0.6,0-0.7,0.1c-0.1,0.1-0.4,0-0.9-0.3
		c-0.1,0-0.2-0.1-0.2,0c0,0,0,0-0.2-0.2l-0.6-0.2c0,0,0-0.1-0.1-0.1c-0.3-0.2-0.5-0.3-0.4-0.3c0,0-0.2-0.1-0.7-0.3l-0.8-0.4
		c-0.2-0.1-0.4-0.2-0.6-0.3c-0.2-0.1-0.4-0.2-0.6-0.3c-0.2-0.2-0.5-0.4-0.7-0.5c-0.2-0.1-0.4-0.5-0.7-0.5h-0.2
		c-0.1,0-0.2-0.1-0.4-0.2c-0.1-0.1-0.3-0.1-0.4-0.1c-0.2,0-0.2-0.1-0.2,0c0,0,0,0-0.1,0c-0.1-0.1-0.2-0.2-0.4-0.2
		c-0.2-0.2-0.4-0.3-0.6-0.3c-0.1,0-0.3-0.2-0.7-0.5l-1-0.9c-0.2-0.2-0.4-0.4-0.5-0.5c-0.1-0.1-0.1-0.2-0.1-0.3c0-0.1,0-0.2-0.1-0.2
		c0-0.1-0.1-0.2-0.3-0.3c-0.1-0.1-0.1-0.2-0.2-0.3c0-0.1-0.1-0.3-0.2-0.4c-0.1-0.2-0.1-0.3-0.2-0.2c0,0-0.1,0-0.2-0.1l-0.1-0.1
		c0-0.1-0.1-0.2-0.1-0.2c0-0.1-0.1-0.3-0.2-0.6l-0.6-0.9l-0.1-0.2c-0.1-0.2-0.2-0.6-0.2-1.1c-0.1-0.6-0.1-0.9-0.2-1.1
		c0-0.1-0.1-0.3-0.1-0.6c0-0.3,0-0.6,0.1-0.8c0-0.2,0.1-0.3,0-0.3c0,0,0,0,0.1-0.1c0.2-0.3,0.3-0.5,0.3-0.6c0.1-0.1,0.1-0.2,0.1-0.2
		c0,0,0.1-0.1,0.2-0.2c0.1-0.1,0.3-0.3,0.4-0.6c0,0,0.1-0.1,0.1-0.1c0,0,0-0.1,0.1-0.1c0.1-0.2,0.2-0.2,0.3-0.1
		c0.1,0.1,0.3,0.1,0.5-0.2c0.1-0.1,0.2-0.2,0.2-0.3c0-0.1,0.1-0.1,0.3,0c0,0,0.1,0.1,0.2,0.1c0.1,0,0.1,0.1,0.2,0.1
		c0.3,0,0.5-0.1,0.7-0.2c0.2,0,0.6-0.1,1.1-0.1c0.5,0,1-0.1,1.3-0.1c0.4-0.1,0.6-0.1,0.6-0.1c0,0,0.1-0.1,0.3-0.2l0.9,0.2h0.1
		c0.6,0,1.1,0.3,1.3,0.4c0.3,0.1,0.5,0.3,0.6,0.4c0.1,0.1,0.3,0.3,0.4,0.4c0.1,0.1,0.4,0.3,0.7,0.6c0.3,0.3,0.4,0.5,0.4,0.6
		c0,0.1-0.2,0.3-0.5,0.5c-0.2,0.2-0.4,0.5-0.5,0.9c-0.1,0.4-0.3,0.8-0.6,1.3c-0.2,0.2-0.4,0.3-0.4,0.3c0,0-0.2,0-0.4,0.1
		c-0.1,0-0.1,0-0.2,0c0,0,0,0,0,0c-0.3,0.1-0.5,0.2-0.6,0.2c-0.1,0-0.2,0-0.2,0c0,0-0.1-0.1-0.2-0.2c-0.1,0-0.2-0.1-0.4,0
		c-0.3,0.1-0.4,0-0.3,0c0.1,0,0-0.3-0.2-0.3H263l-0.7,0c-0.2,0-0.5,0.1-0.8,0c-0.3-0.1-0.6-0.2-1-0.4c-0.3-0.1-0.6-0.2-0.9-0.3
		c-0.2-0.1-0.4-0.1-0.4-0.1c-0.4,0-0.5,0-0.4,0c0.1,0,0-0.1-0.4-0.2c-0.2,0.4-0.3,0.8-0.2,1.3c0.1,0.4,0.2,0.8,0.3,1.2
		c0.2,0.4,0.4,0.8,0.6,1.1c0.3,0.4,0.5,0.7,0.8,1c0.1,0.1,0.1,0.2,0.2,0.3l2.4,1.7c0.3,0.2,0.7,0.5,1.1,0.7c0.4,0.2,0.8,0.3,1.3,0.4
		l1.4,0.3c0.1,0,0.2,0.1,0.2,0.1c0.1,0,0.2,0.2,0.3,0.2h0.2h0.2c0.2,0,0.4-0.1,0.4-0.1c0,0.1,0.1-0.1,0.4-0.2
		c0.2-0.1,0.2-0.2,0.3-0.2c0-0.1,0.1-0.2,0.2-0.2l0.1-0.2c0-0.2-0.1-0.4,0-0.7c0-0.3-0.2-0.5-0.2-0.7v-1.3c0-0.3,0-0.7,0.1-1.1
		c-0.1-0.2-0.1-0.3-0.1-0.2c0,0,0,0,0-0.1v-0.3l0.2-2.8c0-0.1,0.2-0.2,0.2-0.3c0-0.1,0-0.2,0-0.3c-0.1-0.2-0.1-0.4,0-0.7
		c0-0.2,0-0.4,0-0.4c0,0,0-0.3,0-0.7c0-0.1,0-0.4,0.1-0.7c0-0.4,0.1-0.7,0.1-1c0-0.2,0-0.4,0-0.6c0-0.2,0-0.3-0.1-0.5
		c0-0.2-0.1-0.4-0.1-0.7c0.2,0,0.3-0.1,0.3-0.1h-0.3c0.1,0,0.4-0.5,0.5-0.5c0.1,0,0.4-0.4,0.4-0.7v-0.2c-1.3-0.1-0.4-0.1-0.4-0.1
		c0,0-0.2,0,0-0.1c0-0.4,0-0.6-0.1-0.6c0,0,0-0.2,0.1-0.6c0-0.4,0-0.8,0-1.2c-0.4,0-0.9,0.1-1.4,0.3c-0.5,0.2-0.9,0.3-1.4,0.4
		l-1.8,0.5c-0.3,0.1-0.6,0.2-1,0.2c-0.4,0-0.7,0-0.7,0.1l-4,1.1c0,0-0.2,0.1-0.4,0.2c-0.2,0.1-0.4,0.1-0.4,0.2c0,0-0.1,0.2-0.2,0.4
		c-0.1,0.1-0.2,0.1-0.2,0.2c-0.1,0-0.2,0.1-0.3,0.2l-0.1,0.1c-0.3,0.2-0.6,0.4-0.9,0.4c-0.3,0-0.6,0.1-1,0.1c0,0.1,0,0.1,0,0.2
		c0-0.1-0.1,0-0.2,0.1c-0.2,0.2-0.4,0.3-0.5,0.2c-0.1-0.1-0.3,0-0.3,0.2c-0.2,0-0.4,0-0.5-0.1l-0.6-0.3c-0.1-0.1-0.2-0.2-0.2-0.4
		c-0.1-0.1-0.1-0.1-0.1-0.2c0,0,0-0.1,0-0.2l-0.2-0.2c-0.1-0.2-0.1-0.3-0.1-0.3c0,0,0-0.1,0-0.3c0-0.2,0-0.4,0.1-0.5
		c0.1-0.1,0.1-0.2,0.2-0.4c0.1-0.2,0.1-0.3,0.1-0.3c0,0,0-0.2,0.1-0.5c0.1-0.4,0.2-0.6,0.3-0.6c0.1,0,0.2-0.2,0.2-0.6
		c0.2,0,0.2-0.1,0.2,0c0,0,0.1,0,0.2-0.1c0.1,0,0.2,0,0.3-0.1c0.2-0.1,0.3-0.1,0.2-0.1c-0.1,0-0.1,0,0.1-0.1
		c0.1-0.1,0.1-0.2,0.1-0.1c0,0,0,0.1,0.1,0.1c0.2-0.1,0.4-0.1,0.3-0.1c0-0.1,0.1-0.2,0.3-0.2h0.1l0.9-0.7c0.2,0,0.2-0.2,0.2-0.3
		c0,0,0.1-0.1,0.4-0.2c0.1-0.1,0.2-0.1,0.3-0.1c0.1,0,0.2-0.1,0.3-0.2l1.2-0.9c0.2-0.1,0.3-0.1,0.3-0.2c0,0,0.1-0.1,0.2-0.2
		c0.2-0.1,0.3-0.1,0.3-0.1s0.2-0.1,0.3-0.2c0.1-0.1,0.1-0.2,0.2-0.2c0-0.1,0.1-0.2,0.2-0.3c0.1-0.1,0.2-0.1,0.3-0.1
		c0.1,0,0.2-0.1,0.3-0.2c0.2-0.1,0.3-0.2,0.3-0.2c0-0.1,0.1-0.1,0.2-0.2c0.1-0.1,0.3-0.2,0.6-0.3c0.2-0.1,0.4-0.3,0.6-0.4
		c0.2-0.1,0.4-0.2,0.4-0.2c0-0.1,0.1-0.1,0.2-0.2c0.2-0.1,0.3-0.1,0.3-0.1c0,0,0.2-0.1,0.4-0.2c0.1-0.1,0.1-0.1,0.2-0.1
		c0,0,0.2-0.1,0.4-0.2c0,0,0.1-0.1,0.3-0.2c0.1-0.1,0.3-0.2,0.4-0.2c0.1-0.1,0.3-0.2,0.5-0.3c0.5-0.1,0.8-0.2,1.1-0.5
		c0.2-0.2,0.4-0.4,0.6-0.6c0.1,0,0.1-0.1,0.2,0c0,0,0.1,0,0.3-0.2c0,0,0.1,0,0.2-0.1c0,0,0.1,0,0.1,0c0,0,0,0,0.1,0
		c0.4-0.2,0.7-0.4,0.9-0.5c0.1-0.1,0.2-0.2,0.4-0.3c0.2-0.1,0.3-0.3,0.4-0.4c0-0.4,0-0.7,0-0.9c0-0.2,0.1-0.3,0.2-0.4
		c0.1,0,0.3,0,0.7,0.3c0.1,0.1,0.2,0.1,0.2,0.1c0.1,0,0.1,0.2,0.2,0.2h0.3c0,0,0.1,0,0.1,0c0,0,0.1,0.1,0.2,0.1l0.8-0.4
		c0.1,0,0.1-0.1,0.2-0.1c0,0,0.1-0.1,0.2-0.1c0.2-0.1,0.3-0.1,0.3-0.2c0.1,0,0.2-0.1,0.4-0.2l0.6-0.4c0.3-0.1,0.5-0.2,0.7-0.3
		c0.2-0.1,0.4-0.2,0.7-0.4c0.3-0.1,0.5-0.2,0.7-0.4c0.2-0.2,0.4-0.3,0.7-0.4c0-0.1-0.1-0.2-0.1-0.4c-0.4,0.1-0.9,0.2-1.3,0.3
		c-0.4,0.1-0.8,0.2-1.3,0.3c-0.2,0-0.4,0.1-0.5,0.1c-0.1,0-0.2,0.1-0.4,0.2l-0.9,0.3c-0.2,0.1-0.4,0.2-0.6,0.3
		c-0.3,0-0.5,0.4-0.6,0.4h-0.1c-0.3,0-0.6-0.1-0.8-0.1l-0.5-0.2c-0.3,0-0.5,0.1-0.7,0.2c-0.2,0.1-0.3,0.1-0.6,0.2
		c-0.1,0-0.3,0.1-0.6,0.2l-0.7,0.2c-0.2,0-0.4,0-0.5,0.1c-0.1,0.1-0.3,0.1-0.5,0.2c-0.3,0.1-0.4,0.2-0.4,0.2c0,0.1-0.1,0.1-0.2,0.2
		c-0.2,0.1-0.4,0.1-0.4,0.1c0,0-0.2,0-0.5,0.2c-0.1,0.1-0.2,0.2-0.3,0.2c-0.1,0-0.3,0.1-0.5,0.1l-0.3,0.1c-0.2,0.1-0.3,0.1-0.3,0.1
		c0,0-0.1-0.1-0.3-0.1c-0.2,0-0.3,0.1-0.3,0.1c0,0-0.1,0.1-0.2,0.2c-0.1,0.1-0.2,0.1-0.3,0.1c-0.1,0-0.2,0-0.3,0.1
		c-0.2,0.1-0.4,0.2-0.5,0.3c-0.1,0.1-0.3,0.2-0.5,0.3c-0.2,0-0.4,0.1-0.6,0.1c-0.2,0-0.4,0.1-0.6,0.2c-0.2,0.1-0.4,0.1-0.5,0.1
		c-0.1,0-0.3,0-0.5,0.1l-0.6,0h-0.2l-0.2,0.3c-0.5,0.2-0.8,0.7-1.1,0.8c-0.2,0.1-0.6,0.2-1.3,0.1c-0.2,0-0.4-0.1-0.4,0
		c0,0-0.1,0.1-0.2,0.1l-0.2,0.1l-0.3,0.2c-0.2,0.1-0.5,0.2-0.7,0.2c-0.2,0.1-0.5,0.2-0.8,0.3l-0.7,0.3c-0.3,0.1-0.5,0.2-0.6,0.2
		c-0.1,0.1-0.3,0.2-0.5,0.3c-0.1,0.1-0.3,0.1-0.5,0.2c-0.1,0.1-0.2,0.1-0.1,0.1c0.1,0,0,0-0.2,0.1c0,0,0,0-0.1,0.1c0,0,0,0-0.2,0.1
		c-0.2,0.1-0.4,0.2-0.5,0.3c-0.1,0.1-0.3,0.1-0.5,0.2l-0.3,0.1l-1.5,0.6c-0.5,0.2-0.7,0.3-0.7,0.4c0,0-0.2,0.1-0.5,0.3
		c-0.8,0.1-1.3-0.1-1.5-0.7c-0.1-0.6-0.1-1.1,0.1-1.7c0.1-0.2,0.1-0.3,0.2-0.4c0-0.1,0.1-0.1,0.2-0.2c0-0.1,0-0.1,0-0.1c0,0,0,0,0,0
		c0,0,0,0,0,0c0,0,0-0.1,0-0.1c0-0.1,0-0.1,0-0.1c0,0,0,0,0,0h1.5c0.3,0,0.5-0.1,0.6-0.2c0.1-0.1,0.3-0.2,0.6-0.2c0,0.2,0,0.3,0,0.3
		c0,0-0.1,0.1-0.2,0.3c0.5,0,1.1-0.2,1.7-0.6c0.1-0.1,0.2-0.1,0.4-0.2c0.1,0,0.2-0.1,0.4-0.2c0.1-0.1,0.3-0.2,0.6-0.2
		c0.3-0.1,0.5-0.2,0.7-0.2l1.7-0.7c0.1,0,0.2-0.1,0.2-0.1c0.1,0,0.2,0,0.2-0.1l1.7-0.7c0.3-0.1,0.5-0.2,0.6-0.3
		c0.1-0.1,0.2-0.2,0.3-0.3c0.2,0,0.3,0,0.3,0.1c0,0,0,0,0.1-0.2c0.2,0,0.4,0,0.7-0.1c0.3-0.1,0.5-0.1,0.6-0.2l0.7-0.3l0.3-0.2
		c0.2-0.1,0.4-0.1,0.4-0.2c0,0,0.2-0.1,0.6-0.2l1.9-0.7c0.2,0,0.3-0.2,0.4-0.4c0.4-0.7,0.5-1.2,0.4-1.6c-0.1-0.4-0.1-0.8-0.1-1.2
		c0-0.1,0.1-0.2,0.1-0.2c0-0.1,0-0.2,0-0.4c0-0.2,0-0.3,0.1-0.3c0,0,0.1-0.1,0.1-0.3c-0.2,0-0.4,0-0.5-0.1c-0.1,0-0.3-0.1-0.5-0.1
		c0,0,0,0.1-0.1,0.3c-0.1,0.2-0.1,0.3-0.2,0.4c-0.1,0.1-0.2,0.1-0.3,0.1c-0.1,0-0.3-0.2-0.5-0.4c-0.2,0.1-0.4,0.1-0.6,0.2
		c-0.1,0.1-0.3-0.1-0.7-0.3c-0.2-0.1-0.3-0.4-0.2-0.4c0,0-0.1,0-0.3,0c-0.1,0-0.2,0.3-0.2,0.3c-0.1,0.1-0.2,0.3-0.4,0.3
		c-0.2-0.1-0.4-0.2-0.6-0.2c-0.2-0.1-0.3-0.2-0.5-0.3l-0.8-0.3l-0.4-0.3c-0.2-0.1-0.3-0.1-0.5-0.1c-0.2,0-0.3-0.1-0.5-0.2
		c-0.3-0.1-0.4-0.4-0.5-0.6c0-0.2-0.2,0.7-0.5-0.7H254c0,0-0.1,0.2-0.2,0.2c-0.2-0.1-0.3,0.1-0.3,0c0-0.1-0.1-0.2-0.2-0.3
		c-0.1-0.2-0.2-0.2-0.2-0.2c0,0,0,0,0.1-0.1c-0.2,0-0.4,0-0.5,0c-0.1,0-0.2-0.1-0.3-0.4l-0.4-0.6c-0.1-0.1-0.2-0.3-0.2-0.6
		c-0.1-0.3-0.1-0.5,0-0.7c0.1-0.1,0.1-0.1,0.2-0.1c0,0,0.1-0.1,0.2-0.2c0.3-0.4,0.7-0.6,1-0.6c0.3,0,0.8-0.1,1.4-0.2
		c0.3-0.1,0.5-0.1,0.5-0.2c0,0,0.2-0.1,0.5-0.2c0.3-0.2,0.4-0.2,0.5-0.1c0,0.1,0.2,0.1,0.5,0.2c0.1-0.3,0.2-0.5,0.2-0.5
		c0.1,0,0.3,0,0.6,0c0.2,0,0.2-0.1,0.2-0.1c0,0,0.1-0.1,0.4-0.1c0.4,0,0.7,0,0.8,0c0.1,0,0.4-0.2,0.7-0.4c0.1-0.1,0.3-0.2,0.4-0.2
		c0.1,0,0.3-0.2,0.5-0.3c0.2,0,0.3-0.3,0.3-0.3c0,0,0,0,0.1,0c0,0,0.1,0.2,0.2,0.2c0.1,0,0.2,0.1,0.5,0c0.3-0.1,0.6-0.1,0.7-0.2
		c0.1,0,0.2-0.1,0.3-0.1c0.1,0,0.2,0,0.3-0.1c0.1-0.1,0.3-0.2,0.6-0.4c0.1-0.1,0.2-0.1,0.2-0.1c0,0,0.1-0.1,0.1-0.3V103l0.1-0.2
		c0.1-0.2,0.1-0.5,0.1-0.7c0-0.2,0-0.5,0.1-0.8c0-0.2,0.1-0.3,0.1-0.3c0,0,0,0,0.1-0.2c0.2-0.7,0.3-1.2,0.3-1.4
		c0-0.2,0.2-0.7,0.5-1.4c0.1-0.2,0.2-0.6,0.3-1.2c0.1-0.7,0.2-1,0.2-1.2c-0.1-0.4-0.3-0.5-0.5-0.5c-0.2,0.1-0.5-0.1-0.8-0.3
		c-0.2-0.2-0.3-0.4-0.2-0.5c0.1-0.1,0.2-0.3,0.3-0.5c0-0.2,0.1-0.4,0.1-0.5c0-0.1,0.1-0.2,0.2-0.3c0.2-0.3,0.4-0.5,0.6-0.4
		c0.2,0,0.5,0.1,0.9,0c0.2,0,0.2,0,0.3,0c0,0,0-0.1,0,0c0,0,0,0,0,0c0,0,0,0,0,0c0,0,0,0,0,0c0,0,0.2,0,0.4,0l0.8,0.1
		c0.2,0.1,0.3,0.2,0.4,0.6c0.1,0.3,0.1,0.7,0.1,1.2c0,0.5,0,0.9-0.1,1.1c0,0.2-0.1,0.4,0,0.6c0,0.2,0,0.4,0,0.7
		c0,0.2-0.1,0.4-0.2,0.5c-0.1,0.1-0.1,0.2-0.1,0.2c0,0-0.1,0.1-0.1,0.2c0,0.1-0.1,0.2-0.2,0.3c0,0.2-0.1,0.4-0.1,0.6
		c0,0.2-0.1,0.3-0.2,0.4l-0.1,0.2c-0.1,0.3-0.2,0.6-0.2,1l1.2,0.7c0.1,0.1,0.1,0.2,0.2,0.3c0,0.1,0.1,0.2,0.3,0.2
		c0.2,0,0.4,0,0.5-0.1c0.1-0.1,0.3-0.1,0.5-0.1h0.4c0.2,0,0.6-0.1,1-0.1c0.3-0.1,0.6-0.2,1-0.2c0.2,0,0.3-0.1,0.3-0.1
		c0,0,0.1,0,0.2-0.1c0.2,0,0.3-0.1,0.4-0.1c0.1,0,0.3-0.1,0.4-0.2c0.3-0.1,0.6-0.1,0.9-0.1c0.3,0,0.7,0.1,1,0.1h0.2
		c0.1,0,0.1-0.1,0.1-0.1c0,0,0.2-0.1,0.6,0c0.3,0.1,0.4,0.1,0.4,0.2c0,0,0.1,0.2,0.2,0.4c0.2,0.2,0.2,0.5,0.1,0.7
		c-0.1,0.2-0.2,0.6-0.1,1c0,0.4,0,0.7-0.1,0.6c0,0-0.1,0-0.2,0.2c-0.1,0.2-0.1,0.3-0.2,0.4c0,0.1-0.1,0.2-0.2,0.3
		c0,0.1,0.1,0.2,0.1,0.2c0.1,0,0.1,0,0.3,0.1c0,0.2,0,0.3-0.1,0.3c-0.1,0.1-0.1,0.2-0.2,0.3c-0.2,0.3-0.4,0.5-0.5,0.6
		c-0.1,0.1-0.1,0.2-0.1,0.2c0,0-0.1,0-0.1,0s-0.2,0.1-0.4,0.2c-0.4,0.3-0.7,0.5-0.8,0.7c-0.1,0.2-0.2,0.3-0.3,0.4
		c-0.1,0.1-0.3,0-0.6,0c-0.3,0-0.9,0-1.8,0c-0.2,0-0.5,0.1-0.7,0.1c-0.2,0-0.4,0.1-0.7,0.2l-0.1,0.1c-0.2,0.1-0.3,0.2-0.3,0.2
		c-0.1,0-0.2,0.1-0.5,0.1l-0.8,0.2c-0.1,0-0.1,0.1-0.2,0.1c0,0-0.1,0.2-0.2,0.2h-0.1h-0.1l-0.2-0.1c-0.1,0.1-0.3,0-0.4,0.1
		c-0.2,0.1-0.3,0.3-0.4,0.5c-0.2,0.7-0.3,1.3-0.2,2c0,0.3,0.1,0.4,0.1,0.5c0,0,0.1,0.2,0.1,0.4v1.5v0.1v0.5c0,0.2-0.2,0.6-0.1,1.2
		c0.3,0.2,0.3,0.3,0.4,0.3c0.1,0,0.3-0.1,0.7-0.2l0.6-0.1c0.1,0,0.2-0.1,0.2-0.1c0.1,0,0.2-0.1,0.3-0.1c0.4,0,0.6,0,0.7-0.1l2.7-0.6
		c0.2-0.1,0.5-0.2,0.6-0.2c0.2,0,0.4-0.1,0.6-0.1c0.2,0,0.3,0,0.3-0.1c0.1,0,0.1-0.1,0.2-0.1c0.1-0.1,0.3-0.1,0.6-0.1
		c0.3,0,0.6,0,0.7-0.1c0.2,0,0.4-0.1,0.3-0.1c0,0,0.1-0.1,0.3-0.1l2.2-0.3c0.7-0.1,1.4-0.1,2.1-0.2c0.7,0,1.4,0,2.1,0.2
		c0.6,0.1,0.9,0.4,1,1l0.1,0.4C283.1,114.6,283.1,114.7,283,114.8z"/>
</g>
</svg>
