<?xml version="1.0" encoding="utf-8"?>
<!-- Generator: Adobe Illustrator 19.0.0, SVG Export Plug-In . SVG Version: 6.00 Build 0)  -->
<svg version="1.1" id="Layer_1" xmlns="http://www.w3.org/2000/svg" xmlns:xlink="http://www.w3.org/1999/xlink" x="0px" y="0px"
	 viewBox="0 0 200 50" style="enable-background:new 0 0 200 50;" xml:space="preserve">
<style type="text/css">
	.st0{fill:#7A1A11;stroke:#D69F50;stroke-miterlimit:10;}
	.st1{fill:#D69F50;}
</style>
<path id="XMLID_5_" class="st0" d="M186.3,44.5c0,0,4.9-0.3,4.9-5.6s-2.7-10.3,0-15.6c-2.7-5.2,0-9.2,0-14.4s-4.6-4.4-4.6-4.4H12.6
	c0,0-4.6-1.1-4.6,4.1s2.7,9.5,0,14.7c2.7,5.3-0.1,10.7-0.1,16s4.5,5.2,4.5,5.2H186.3z"/>
<g id="XMLID_438_">
	<path id="XMLID_79_" class="st1" d="M197.7,24.1c-3.2-6-0.5-12-0.5-18.1c0-5-3.6-5.5-5-5.5c-1.3-0.6-2.6-0.5-2.6-0.5H9.7
		C9.7,0,8.2-0.1,6.8,0.6C5.2,0.9,2.9,2,2.9,6c0,6.1,2.6,12.1-0.5,18.1c3.2,6.2,0.5,11.2,0.5,17.4c0,4.4,2.7,5.7,4.2,6.1
		c1.3,0.6,2.5,0.7,2.8,0.7c0,0,0.1,0,0.1,0h179.1h0c0,0,1-0.1,2.1-0.5h0.3h0.2c0,0,5.4,0,5.4-6.2C197.2,35.3,194.5,30.3,197.7,24.1z
		 M189.1,47.3H10c0,0-2.4,0.1-4-1.6c-0.8-0.9-1.3-2.2-1.3-3.9c0-2.1,0.4-4.1,0.7-6c0.4-2.4,0.9-4.9,0.6-7.4c-0.1-1.5-0.5-3-1.2-4.5
		C6,21.5,6.2,19.2,6.1,17c0,0,0-0.1,0-0.1c0-0.2,0-0.3,0-0.5c-0.2-2.7-0.9-5.3-1.2-8c0,0,0-0.1,0-0.1c0-0.2,0-0.5-0.1-0.7
		c0-0.4-0.1-0.8-0.1-1.2c0-1.6,0.4-2.9,1.2-3.8c1.4-1.5,3.7-1.4,3.7-1.4h179.8c0,0,2.2-0.1,3.7,1.4c0.8,0.9,1.2,2.2,1.2,3.8
		c0,2-0.4,4-0.7,5.9c-0.7,3.7-1.4,7.5,0.6,11.6c-2,4.1-1.3,7.9-0.7,11.6c0.3,1.9,0.7,3.9,0.7,5.9C194.4,46.9,189.4,47.3,189.1,47.3z
		"/>
</g>
</svg>
