<?xml version="1.0" encoding="utf-8"?>
<!-- Generator: Adobe Illustrator 19.0.0, SVG Export Plug-In . SVG Version: 6.00 Build 0)  -->
<svg version="1.1" id="Layer_1" xmlns="http://www.w3.org/2000/svg" xmlns:xlink="http://www.w3.org/1999/xlink" x="0px" y="0px"
	 viewBox="-26.5 13.5 55 55" style="enable-background:new -26.5 13.5 55 55;" xml:space="preserve">
<style type="text/css">
	.st0{fill:#182228;stroke:#BC904A;stroke-width:1.4;stroke-miterlimit:10;}
	.st1{fill:#7A1A11;}
	.st2{fill:#BC904A;}
	.st3{fill:none;stroke:#BC904A;stroke-miterlimit:10;}
</style>
<g id="XMLID_842_">
</g>
<circle id="XMLID_1191_" class="st0" cx="1" cy="41.2" r="25.5"/>
<path id="XMLID_493_" class="st1" d="M17.3,41.2c0-8.1-6-14.9-13.8-16.1C3,24.9,2.6,24.5,2.6,24v-0.2c0-0.6-0.5-1.1-1.1-1.1H0.9
	c-0.1,0-0.2,0-0.3,0L-0.3,23c-0.5,0.1-0.8,0.6-0.8,1v0c0,0.5-0.4,1-0.9,1.1c-7.6,1.4-13.4,8-13.4,16.1c0,7,4.4,12.9,10.5,15.3
	c0.4,0.2,0.7,0.6,0.7,1v0.1c0,0.4,0.2,0.7,0.5,0.9l1.5,1c0.2,0.1,0.4,0.2,0.6,0.2l4.3,0c0.2,0,0.3,0,0.4-0.1l2-0.9
	c0.4-0.2,0.6-0.6,0.6-1v-0.8l0,0C12.4,54.7,17.3,48.5,17.3,41.2z"/>
<path id="XMLID_492_" class="st2" d="M-2.4,50.7l-0.3,1.8c-0.1,0.4,0.1,0.8,0.4,1.1l1.2,0.8c0.2,0.1,0.3,0.2,0.5,0.2l2.3,0.2
	c0.2,0,0.5,0,0.7-0.2l1.8-1.2c0.4-0.3,0.6-0.8,0.4-1.3L4,50.6c-0.2-0.5-0.7-0.7-1.2-0.7l-2.1,0.4c-0.2,0-0.3,0-0.5,0l-1.2-0.4
	C-1.7,49.7-2.3,50.1-2.4,50.7z"/>
<g id="XMLID_1396_">
	<polygon id="XMLID_1403_" class="st3" points="-2.6,27.7 -0.9,27.1 2.2,27.1 4.1,27.7 4.4,30.9 2.2,30.4 -1,30.5 -2.8,30.9 	"/>
	<polyline id="XMLID_1402_" class="st3" points="-0.9,27.1 -0.9,23.1 -0.2,22.7 1.4,22.7 2.4,23.1 2.6,27.2 	"/>
	<path id="XMLID_1401_" class="st3" d="M-2.8,30.9l1.1,0.7v15.8c0,0,0.6,0.7,2.9,0.7s2.6-0.6,2.6-0.6l-0.4-16l1.1-0.6"/>
	<path id="XMLID_1400_" class="st3" d="M-1.7,47.4c0,0-0.9-0.3-1.1,0.7c-0.3,1,1,2.2,3.6,2.2s4.1-1,4.1-1.9s-0.6-0.9-1.2-0.9"/>
	<polyline id="XMLID_1399_" class="st3" points="-2.1,49.6 -2.4,51.9 -2.9,52.2 -2.8,53.7 -0.6,54.7 2.5,54.7 4.9,53.4 4.4,51.8 
		4.4,50.3 4.2,49.5 	"/>
	<polyline id="XMLID_1398_" class="st3" points="-2.9,52.6 -3.6,53.2 -4.1,58.2 -1.4,59.6 3.1,59.6 6,58 5.4,53.4 4.7,52.6 	"/>
</g>
</svg>
