<?xml version="1.0" encoding="utf-8"?>
<!-- Generator: Adobe Illustrator 19.0.0, SVG Export Plug-In . SVG Version: 6.00 Build 0)  -->
<svg version="1.1" id="Layer_1" xmlns="http://www.w3.org/2000/svg" xmlns:xlink="http://www.w3.org/1999/xlink" x="0px" y="0px"
	 viewBox="-29 11 60 60" style="enable-background:new -29 11 60 60;" xml:space="preserve">
<style type="text/css">
	.st0{fill:#707D95;}
	.st1{fill:#7F8BA3;}
	.st2{fill:#EEE2CF;}
	.st3{fill:#B55C39;}
	.st4{fill:#7A1A11;}
	.st5{fill:#AEC3A4;}
	.st6{fill:#CDD8C1;}
	.st7{fill:none;stroke:#D69F50;stroke-miterlimit:10;}
	.st8{fill:none;stroke:#7A1A11;stroke-miterlimit:10;}
	.st9{fill:none;stroke:#EEE2CF;stroke-miterlimit:10;}
</style>
<g id="XMLID_842_">
	<g id="XMLID_1251_">
		<g id="XMLID_1253_">
			<g>
				<path class="st0" d="M26.6,40.7c3.8,0.5,3.5,4.7,3.5,4.7c-0.6,5.6-6.9,5.5-7.1,5.5c0-0.4,0-0.8-0.1-1.2c0,0,4.6-0.6,4.8-3.6
					c0.2-3-3-4.1-3.5-4c0,0,1.4-6.3-3-6.6c-4.4-0.3-7.8,4.3-8.2,6.2c-0.1-0.4-0.3-0.7-0.5-1.1v0c0.5-3.9,6.1-6.8,6.1-6.8
					c0.8-0.2,1.5-0.2,2.1-0.2C27.6,33.2,26.6,40.7,26.6,40.7z"/>
				<path class="st1" d="M24.3,42c0.4-0.1,3.7,1,3.5,4c-0.2,3-4.8,3.6-4.8,3.6c0-0.3-0.1-0.6-0.2-0.9c0,0-1.2-6.3-10-3.5
					c0.2-0.4,0.4-0.8,0.5-1.2h0c0.6-1.2,2.8-1.9,2.8-1.9c-1.6-0.3-2.7,0.3-2.7,0.3l0,0c0-0.3-0.1-0.6-0.2-0.9
					c0.4-1.8,3.8-6.5,8.2-6.2C25.8,35.8,24.3,42,24.3,42z"/>
				<path class="st0" d="M23.1,50.8c-0.2,5.1-6.6,5.1-6.6,5.1c-3,4.9-7.4,1.9-7.4,1.9c0.4-0.5,0.7-1.1,0.8-1.8h0
					c0,0,4.3,2.4,5.6-2.7c0,0,3.6,1.1,5.1-1.7c1.5-2.8-1-5.5-3.9-5.6c-2.8-0.1-4.5,0.1-4.5,0.1c0.3-0.3,0.5-0.6,0.7-1
					c8.8-2.7,10,3.5,10,3.5c0.1,0.3,0.1,0.6,0.2,0.9C23.1,50,23.1,50.4,23.1,50.8z"/>
				<path class="st0" d="M20.8,33.4L20.8,33.4c-0.6,0-1.3,0.1-2.1,0.2c0,0-0.4-4.2-3-4.1c-2.6,0.1-4.7,1.4-4.7,1.4s-2.4-4.1-5.8-2.8
					c-3.3,1.2-3.5,4.1-3.7,5.3c-0.2,1.1,0.5,2.5,0.5,2.5c-0.2,0-0.5,0-0.8,0c-0.3,0-0.5,0-0.8,0v0c-1.3-2.3-1-4.4-0.6-5.7
					C0.3,29.4,0.6,29,0.6,29c0.3-0.3,0.5-0.6,0.8-0.8c6.1-6,10,0.2,10,0.2C20.2,24.3,20.8,33.4,20.8,33.4z"/>
				<path class="st1" d="M16.7,46c2.8,0,5.4,2.7,3.9,5.6c-1.5,2.8-5.1,1.7-5.1,1.7C14.1,58.5,9.8,56,9.8,56h0
					c0.3-2.2-1.2-4.7-5.1-6.2v0c2-0.3,3.7-1,5.1-1.8v0c0,0,1.5,0.5,2.7,2.4c0,0,0-1.7-1.4-3.4c0.3-0.3,0.6-0.6,0.9-0.9
					C12.1,46.2,13.9,46,16.7,46z"/>
				<path class="st1" d="M9,34.4c-1.7,0.5-2.6,2.1-2.6,2.1c-1.3-0.4-2.7-0.6-4.2-0.6c0,0-0.7-1.5-0.5-2.5c0.2-1.3,0.3-4.1,3.7-5.3
					c3.3-1.2,5.8,2.8,5.8,2.8s2.1-1.3,4.7-1.4c2.6-0.1,3,4.1,3,4.1s-5.6,2.9-6.1,6.8C11.7,39,9.9,37.8,7.7,37
					C8.1,35,8.8,34.5,9,34.4z"/>
				<path class="st2" d="M13.4,42.4c0,0,1-0.6,2.7-0.3c0,0-2.2,0.7-2.8,1.9h0c0.1-0.3,0.1-0.7,0.1-1C13.4,42.8,13.4,42.6,13.4,42.4
					L13.4,42.4z"/>
				<path class="st3" d="M-10.3,41.4c0.1-0.2,0.2-0.4,0.3-0.6c0.2-0.4,0.5-0.7,0.8-1.1c1-1.1,2.5-2.1,4.3-2.7c0.5-0.2,1-0.3,1.6-0.5
					c0.3-0.1,0.5-0.1,0.8-0.2c1-0.2,2.1-0.3,3.2-0.4c0.3,0,0.5,0,0.8,0c0.3,0,0.5,0,0.8,0c1.5,0.1,2.9,0.3,4.2,0.6
					c0.5,0.1,0.9,0.3,1.4,0.4c2.2,0.8,4,2,4.9,3.5v0c0.2,0.3,0.4,0.7,0.5,1.1c0.1,0.3,0.2,0.6,0.2,0.9c0,0.2,0,0.4,0,0.6
					c0,0.3,0,0.7-0.1,1c-0.1,0.4-0.3,0.8-0.5,1.2c-0.2,0.3-0.4,0.7-0.7,1c-0.3,0.3-0.6,0.6-0.9,0.9c-0.4,0.4-0.9,0.7-1.4,1
					c-1.4,0.8-3.2,1.5-5.1,1.8c-0.2,0-0.4,0.1-0.7,0.1c-0.7,0.1-1.4,0.2-2,0.2c-0.2,0-0.4,0-0.7,0c-0.2,0-0.4,0-0.7,0
					c-0.4,0-0.7,0-1.1-0.1c-0.3,0-0.6-0.1-0.9-0.1c-1.8-0.2-3.5-0.7-5-1.4c-0.6-0.3-1.1-0.6-1.6-0.9c-0.7-0.5-1.3-1-1.8-1.6
					c-0.2-0.3-0.4-0.6-0.6-0.9c-0.4-0.7-0.6-1.4-0.6-2.1C-10.6,42.4-10.5,41.9-10.3,41.4z M11.9,43.4c0-3.6-4.4-6-10.5-6
					c-6.1,0-10.7,2.6-10.7,6.2c0,2.3,1.9,4.3,4.9,5.4c1.7,0.6,3.6,1,5.8,1c1.9,0,3.6-0.3,5.1-0.8C9.8,48.1,11.9,45.9,11.9,43.4z"/>
				<path class="st2" d="M11.3,47.1c1.4,1.7,1.4,3.4,1.4,3.4c-1.3-2-2.7-2.4-2.7-2.4v0C10.4,47.7,10.8,47.4,11.3,47.1z"/>
				<path class="st0" d="M4.8,49.8c3.8,1.5,5.4,4.1,5.1,6.2c-0.1,0.6-0.3,1.3-0.8,1.8c-0.3,0.4-0.7,0.8-1.2,1
					c-3.3,2-5.7-1.3-5.7-1.3c-3.9,4.3-6.6,1-6.6,1c-0.2-0.3-0.3-0.5-0.5-0.8c-0.4-0.7-0.6-1.3-0.7-1.9c-1-4.4,4.5-5.8,4.5-5.8l0-0.2
					c0.3,0,0.6,0.1,0.9,0.1v0c0,0-4.3,2.2-3.3,5.4c0.9,3.1,2.5,2.6,3.9,1.6c1.4-1,1.9-2,1.9-2s2.8,3.7,4.9,2.2
					c2.1-1.4,0.8-5.4-3-7.3v0C4.3,49.9,4.5,49.9,4.8,49.8L4.8,49.8z"/>
				<path class="st4" d="M0.7,40.8c0.1,0,1.4,0.8-1.9,1.6c-1.6,0.4-2.1,1.2-2.1,2c-0.4,0-3.5-0.1-2.9,2.6c0,0,0.2,0.6,0.7,1.2
					c0.3,0.3,0.6,0.6,1,0.8L-4.4,49c-3-1.1-4.9-3.1-4.9-5.4c0-3.6,4.6-6.2,10.7-6.2c6.1,0,10.5,2.4,10.5,6c0,2.5-2.1,4.7-5.4,5.8
					l0-0.1c1.5-0.8,1.8-1.5,2-2.1c0.1-0.3,0-0.5,0-0.5c-0.5-2.9-2.8-1.9-2.8-1.9c0,0,0,0,0,0c0-0.3,0-0.7-0.1-1.2
					C5.1,41.8,0.9,40.8,0.7,40.8z"/>
				<path class="st2" d="M9,34.4C8.8,34.5,8.1,35,7.7,37c-0.4-0.2-0.9-0.3-1.4-0.4C6.4,36.6,7.3,34.9,9,34.4z"/>
				<path class="st5" d="M-3,45.4C-3,45.4-3,45.4-3,45.4c0.1-0.3,0.4-1.7,3.2-2c0,0,1.7-0.1,1.9-0.7c0,0,2.6,0.6,3.5,1.8
					c0,0,0,0,0,0c0,0,2.3-1,2.8,1.9c0,0,0,0.2,0,0.5c-0.1,0.6-0.5,1.3-2,2.1l0,0.1C5,49.7,3.3,50,1.4,50c-2.2,0-4.2-0.3-5.8-1
					l0.1-0.1c-0.4-0.2-0.8-0.5-1-0.8C-5.7,47.5-6.1,45.7-3,45.4C-3,45.4-3,45.4-3,45.4z"/>
				<path class="st1" d="M2,53.7c0-0.1-0.4-1.5,0-3.6c0.7,0,1.4-0.1,2-0.2v0c3.8,1.9,5.1,5.9,3,7.3C5,58.7,2.1,55,2.1,55
					s-0.6,0.9-1.9,2c-1.4,1-2.9,1.6-3.9-1.6C-4.6,52.3-0.3,50-0.3,50v0c0.3,0,0.7,0.1,1.1,0.1C0.7,50.1,0.7,52.3,2,53.7z"/>
				<path class="st6" d="M-3.2,44.4c0-0.8,0.5-1.5,2.1-2c3.3-0.8,1.9-1.6,1.9-1.6c0.2,0,4.4,1,4.8,2.5c0.1,0.4,0.2,0.8,0.1,1.2
					c-0.9-1.2-3.5-1.8-3.5-1.8c-0.3,0.6-1.9,0.7-1.9,0.7c-2.8,0.3-3.2,1.7-3.2,2C-3.1,45.1-3.2,44.7-3.2,44.4z"/>
				<path class="st2" d="M1.4,50.1c0.2,0,0.4,0,0.7,0c-0.4,2.1,0,3.4,0,3.6c-1.3-1.4-1.3-3.5-1.3-3.6C0.9,50.1,1.2,50.1,1.4,50.1z"
					/>
				<path class="st0" d="M1.4,28.1c-0.3,0.3-0.5,0.5-0.8,0.8c0,0-0.3,0.5-0.6,1.3c0,0-4.6-5.9-8.5,1.9c0,0-6.3-3.8-8,2.5v0
					c-0.9-0.2-1.8-0.3-2.7-0.2v0v-1c4.2-8.4,9.5-4,9.5-4c0.5-1.8,2.1-3.3,2.1-3.3C-1.5,23,1.4,28.1,1.4,28.1z"/>
				<path class="st1" d="M0.6,35.9L0.6,35.9c-1.1,0.1-2.2,0.2-3.2,0.4c-0.3,0.1-0.5,0.1-0.8,0.2c-1.2-2.4-3.5-2.1-3.5-2.1
					C-5.3,35.2-5,37-5,37c-1.8,0.7-3.3,1.6-4.3,2.7c0,0-2.8-4.2-7.2-5.1v0c1.7-6.3,8-2.5,8-2.5c3.9-7.8,8.5-1.9,8.5-1.9
					C-0.4,31.5-0.7,33.6,0.6,35.9z"/>
				<path class="st1" d="M-11.6,54.2c-0.1,0-0.3,0-1.2,0c-1.5,0-3.9-0.4-4-3.7c-0.1-3.3,7.2-4.4,7.2-4.4c0.5,0.6,1.1,1.1,1.8,1.6
					c-1.6,2.6-1.2,3.6-1.2,3.6c0.7-1.8,2.7-2.7,2.7-2.7c1.4,0.7,3.1,1.2,5,1.4l0,0.2c0,0-5.4,1.4-4.5,5.8c0,0-0.2,0.9-2.4,1.2
					C-10.3,57.4-11.6,54.2-11.6,54.2z"/>
				<path class="st6" d="M-3,45.4C-3,45.4-3,45.4-3,45.4C-3,45.4-3,45.4-3,45.4c-3.1,0.3-2.7,2.1-2.4,2.7c-0.5-0.6-0.7-1.2-0.7-1.2
					c-0.6-2.7,2.5-2.6,2.9-2.6C-3.2,44.7-3.1,45.1-3,45.4z"/>
				<path class="st2" d="M-3.4,36.5C-3.9,36.6-4.5,36.8-5,37c0,0-0.4-1.8-1.9-2.6C-6.9,34.4-4.6,34.1-3.4,36.5z"/>
				<path class="st0" d="M-5.7,55.9c0.1,0.6,0.4,1.2,0.7,1.9c-5,4.1-7.6-1.3-7.6-1.3c-4,0-5.7-2.5-5.7-2.5c-0.2-0.6-0.3-1.1-0.4-1.6
					c-0.2-0.8-0.2-1.4-0.2-2c0.4-5.8,8.8-5.3,8.8-5.3c0.2,0.3,0.4,0.6,0.6,0.9c0,0-7.3,1.1-7.2,4.4c0.1,3.3,2.4,3.7,4,3.7
					c0.9,0,1.1,0,1.2,0c0,0,1.3,3.2,3.5,2.9C-5.9,56.8-5.7,55.9-5.7,55.9z"/>
				<path class="st2" d="M-7.7,47.6c0.5,0.3,1,0.6,1.6,0.9c0,0-2,0.9-2.7,2.7C-8.9,51.2-9.3,50.2-7.7,47.6z"/>
				<path class="st0" d="M-9.3,39.7c-0.3,0.3-0.6,0.7-0.8,1.1c-0.2-0.2-6.1-6.4-10.6-3.9c-3.7,2-2.3,5.6-2.3,5.6s-2.1,2.3-1.4,4.6
					c0.7,2.2,2.4,3.2,5.5,3.4h0c0,0.6,0,1.3,0.2,2c-2.5-0.1-4.9-0.9-4.9-0.9c-6.8-4.1-1.8-9.5-1.8-9.5c-0.8-4.2,2.1-6.2,2.1-6.2
					c1.5-0.9,2.9-1.4,4.2-1.5c1-0.1,1.9,0,2.7,0.2C-12,35.6-9.3,39.7-9.3,39.7z"/>
				<path class="st1" d="M-14.4,43.4c1.1-0.8,3.7-0.4,3.7-0.4c0,0.7,0.2,1.5,0.6,2.1c0,0-8.4-0.5-8.8,5.3h0
					c-3.1-0.2-4.9-1.1-5.5-3.4c-0.7-2.2,1.4-4.6,1.4-4.6s-1.4-3.5,2.3-5.6c4.5-2.5,10.4,3.7,10.6,3.9c-0.1,0.2-0.2,0.4-0.3,0.6
					C-13.4,41.6-14.3,43.3-14.4,43.4z"/>
				<path class="st2" d="M-10.3,41.4c-0.2,0.5-0.3,1.1-0.3,1.6c0,0-2.7-0.3-3.7,0.4C-14.3,43.3-13.4,41.6-10.3,41.4z"/>
			</g>
			<g>
				<path class="st7" d="M4.8,49.8c3.8,1.5,5.4,4.1,5.1,6.2c-0.1,0.6-0.3,1.3-0.8,1.8c-0.3,0.4-0.7,0.8-1.2,1
					c-3.3,2-5.7-1.3-5.7-1.3c-3.9,4.3-6.6,1-6.6,1c-0.2-0.3-0.3-0.5-0.5-0.8c-0.4-0.7-0.6-1.3-0.7-1.9c-1-4.4,4.5-5.8,4.5-5.8"/>
				<path class="st7" d="M9.1,57.8c0,0,4.4,3,7.4-1.9c0,0,6.4,0,6.6-5.1c0-0.4,0-0.8-0.1-1.2c0-0.3-0.1-0.6-0.2-0.9
					c0,0-1.2-6.3-10-3.5"/>
				<path class="st7" d="M23.1,50.8C23.1,50.8,23.1,50.8,23.1,50.8c0.2,0,6.4,0.2,7.1-5.5c0,0,0.2-4.2-3.5-4.7c0,0,1-7.4-5.8-7.3
					c-0.6,0-1.3,0.1-2.1,0.2c0,0-5.6,2.9-6.1,6.8"/>
				<path class="st7" d="M20.8,33.4c0,0-0.5-9.1-9.4-5.1c0,0-3.9-6.2-10-0.2c-0.3,0.3-0.5,0.5-0.8,0.8c0,0-0.3,0.5-0.6,1.3
					c-0.4,1.3-0.7,3.3,0.6,5.7"/>
				<path class="st7" d="M1.4,28.1c0,0-2.9-5.1-9-2c0,0-1.6,1.4-2.1,3.3c0,0-5.3-4.4-9.5,4v1"/>
				<path class="st7" d="M-18.7,52.5c-2.5-0.1-4.9-0.9-4.9-0.9c-6.8-4.1-1.8-9.5-1.8-9.5c-0.8-4.2,2.1-6.2,2.1-6.2
					c1.5-0.9,2.9-1.4,4.2-1.5c1-0.1,1.9,0,2.7,0.2c4.4,1,7.2,5.1,7.2,5.1"/>
				<path class="st7" d="M-10.1,45.2c0,0-8.4-0.5-8.8,5.3c0,0.6,0,1.3,0.2,2c0.1,0.5,0.2,1,0.4,1.6c0,0,1.6,2.5,5.7,2.5
					c0,0,2.5,5.4,7.6,1.3"/>
				<path class="st8" d="M0.7,40.8C0.7,40.8,0.7,40.8,0.7,40.8c0.2,0,4.4,1,4.8,2.5c0.1,0.4,0.2,0.8,0.1,1.2
					c-0.1,0.9-0.5,1.5-1.2,1.9"/>
				<path class="st8" d="M-3,45.4c-0.1-0.3-0.2-0.7-0.2-1c0-0.8,0.5-1.5,2.1-2c3.3-0.8,1.9-1.6,1.9-1.6"/>
				<path class="st8" d="M-2.3,46.5c0,0-0.4-0.5-0.7-1.1"/>
				<line class="st8" x1="-3" y1="45.4" x2="-3" y2="45.4"/>
				<path class="st8" d="M-3.2,44.4C-3.2,44.4-3.2,44.4-3.2,44.4c-0.5,0-3.6-0.1-3,2.6c0,0,0.2,0.6,0.7,1.2c0.3,0.3,0.6,0.6,1,0.8
					c0.1,0,0.2,0.1,0.2,0.1"/>
				<path class="st9" d="M-2.6,36.3c1-0.2,2.1-0.3,3.2-0.4c0.3,0,0.5,0,0.8,0c0.3,0,0.5,0,0.8,0c1.5,0.1,2.9,0.3,4.2,0.6
					c0.5,0.1,0.9,0.3,1.4,0.4c2.2,0.8,4,2,4.9,3.5v0c0.2,0.3,0.4,0.7,0.5,1.1c0.1,0.3,0.2,0.6,0.2,0.9c0,0.2,0,0.4,0,0.6
					c0,0.3,0,0.7-0.1,1c-0.1,0.4-0.3,0.8-0.5,1.2c-0.2,0.3-0.4,0.7-0.7,1c-0.3,0.3-0.6,0.6-0.9,0.9c-0.4,0.4-0.9,0.7-1.4,1
					c-1.4,0.8-3.2,1.5-5.1,1.8c-0.2,0-0.4,0.1-0.7,0.1c-0.7,0.1-1.4,0.2-2,0.2c-0.2,0-0.4,0-0.7,0c-0.2,0-0.4,0-0.7,0
					c-0.4,0-0.7,0-1.1-0.1c-0.3,0-0.6-0.1-0.9-0.1c-1.8-0.2-3.5-0.7-5-1.4c-0.6-0.3-1.1-0.6-1.6-0.9c-0.7-0.5-1.3-1-1.8-1.6
					c-0.2-0.3-0.4-0.6-0.6-0.9c-0.4-0.7-0.6-1.4-0.6-2.1c0-0.6,0.1-1.1,0.3-1.6c0.1-0.2,0.2-0.4,0.3-0.6c0.2-0.4,0.5-0.7,0.8-1.1
					c1-1.1,2.5-2.1,4.3-2.7c0.5-0.2,1-0.3,1.6-0.5C-3.1,36.4-2.9,36.4-2.6,36.3"/>
			</g>
		</g>
		<path id="XMLID_1252_" class="st6" d="M8.4,47c0,0-0.7-2-2.8-1.4c0,0,0.2-0.3,0.3-1.1c0,0,1.7-0.6,2.3,1.2
			C8.2,45.6,8.6,46.4,8.4,47z"/>
	</g>
	<path id="XMLID_843_" class="st4" d="M1.4,46c0,0-1.3,1.4,0,2.7C1.4,48.7,2.8,47.6,1.4,46z"/>
</g>
</svg>
