<?xml version="1.0" encoding="utf-8"?>
<!-- Generator: Adobe Illustrator 19.0.0, SVG Export Plug-In . SVG Version: 6.00 Build 0)  -->
<svg version="1.1" xmlns="http://www.w3.org/2000/svg" xmlns:xlink="http://www.w3.org/1999/xlink" x="0px" y="0px"
	 viewBox="0 0 100 40" style="enable-background:new 0 0 100 40;" xml:space="preserve">
<style type="text/css">
	.st0{display:none;}
	.st1{display:inline;fill:none;stroke:#BC904A;stroke-miterlimit:10;}
	.st2{display:inline;fill:none;stroke:#BC904A;stroke-width:4;stroke-miterlimit:10;}
	.st3{display:inline;}
	.st4{fill:#BC904A;}
	.st5{fill:#424B50;}
	.st6{display:inline;fill:none;stroke:#424B50;stroke-width:0.75;stroke-miterlimit:10;}
	.st7{display:inline;fill:#BC904A;}
	.st8{display:inline;fill:#424B50;}
	.st9{fill:#707D95;}
	.st10{fill:#EEE2CF;}
	.st11{fill:#7A1A11;}
	.st12{fill:#AEC3A4;}
	.st13{fill:#B55C39;}
	.st14{fill:#D5E7DE;}
	.st15{fill:none;stroke:#D69F50;stroke-miterlimit:10;}
	.st16{fill:none;stroke:#7A1A11;stroke-miterlimit:10;}
	.st17{fill:none;stroke:#BC904A;stroke-miterlimit:10;}
	.st18{fill:none;stroke:#BC904A;stroke-width:4;stroke-miterlimit:10;}
</style>
<g id="Layer_1" class="st0">
	<rect id="XMLID_330_" x="10.5" y="12.1" class="st1" width="86.1" height="331.1"/>
	<rect id="XMLID_329_" x="13.6" y="15.5" class="st1" width="80" height="324.6"/>
	<rect id="XMLID_328_" x="17.6" y="19.4" class="st2" width="71.6" height="316.6"/>
	<g id="XMLID_853_" class="st3">
		<g id="XMLID_861_">
			<path id="XMLID_862_" class="st4" d="M12.2,29.8c0,0,1.9-0.9,2.4,1.3c0.7,2.8-2.8,4.6-3.9,5.4c-1.3,0.9-2.4,0.7-2.4,0.7
				s-5-0.4-5.5-3.6c0,0-0.6-1.3,1.3-1.8"/>
		</g>
		<g id="XMLID_859_">
			<path id="XMLID_860_" class="st5" d="M8.9,36.9c0,0-2-1-1.2-3.1c0,0,0.9-1.3,1.8-0.3c0.8,0.9,0.9,2.2,0.2,3.3
				C9.7,36.7,9.4,37.2,8.9,36.9z"/>
		</g>
		<g id="XMLID_857_">
			<path id="XMLID_858_" class="st4" d="M8.5,34.3c0,0-0.6,0.8,0.5,1.9c0,0,0.2,0,0.1-1C9.1,34.3,8.5,34.3,8.5,34.3z"/>
		</g>
		<g id="XMLID_854_">
			<path id="XMLID_856_" class="st4" d="M6,33.6c0,0-3.2-2.2-1.7-4.2s2.2-0.7,3-2.4c0,0,1,0.6,2.6,0.5c1.1-0.1,2.1,1,2.3,2.3
				c0.1,0.7,0,1.3-0.5,1.9l-0.3,0.6"/>
			<path id="XMLID_855_" class="st5" d="M6,33.9c-0.1,0-0.1,0-0.2,0c-0.1-0.1-1.9-1.3-2.2-2.9c-0.1-0.6,0-1.2,0.4-1.7
				C4.9,28.1,5.5,28,6,27.8c0.4-0.1,0.7-0.2,1-0.9c0-0.1,0.1-0.1,0.2-0.1c0.1,0,0.2,0,0.2,0c0,0,0.9,0.6,2.4,0.5
				c1.3-0.1,2.4,1.2,2.6,2.5c0.1,0.8-0.1,1.5-0.5,2.1l-0.3,0.5c-0.1,0.1-0.2,0.2-0.4,0.1c-0.1-0.1-0.2-0.2-0.1-0.4l0.3-0.6
				c0.5-0.6,0.5-1.3,0.4-1.7c-0.2-1.2-1.1-2.2-2-2.1c-1.2,0.1-2.1-0.2-2.5-0.4c-0.4,0.7-0.8,0.8-1.2,1c-0.4,0.1-0.9,0.3-1.6,1.2
				c-0.3,0.4-0.4,0.8-0.3,1.3c0.2,1.4,1.9,2.5,1.9,2.6c0.1,0.1,0.1,0.2,0.1,0.4C6.2,33.8,6.1,33.8,6,33.9z"/>
		</g>
	</g>
	<path id="XMLID_783_" class="st6" d="M12.2,29.8c0,0,2.4-1.2,2.5,2.1c0,0-0.1,2.4-3.4,4.3"/>
	<path id="XMLID_904_" class="st7" d="M61.6,24.3l-2.7,0.5c0.5,3.1,1.1,10.7-1.4,14.3c-1-6-7.8-12.8-8.1-13.1
		c-0.5-0.5-1.4-0.5-1.9,0c-0.5,0.5-0.5,1.4,0,1.9c2.1,2,7.5,8.3,7.4,12.6c0,1.1-0.4,2-1.2,2.7c-5.2,4.9-15.1,1.2-24.7-2.4
		c-8.8-3.3-17.2-6.4-22.6-3.2c-2.7,1.6-4.3,4.4-4.9,8.7l0,0.1l0,0.1c0,0.4,0.7,9.5,8.1,16.2c0.2,0.2,0.4,0.2,0.6,0.3v-3.6
		c-5-5.3-5.8-12-5.9-13C4.8,43.2,6,41.1,7.8,40c4.3-2.5,12.4,0.5,20.3,3.4c10.3,3.9,21,7.8,27.5,1.8c0.7-0.7,1.2-1.4,1.6-2.3
		c3-1.5,4.6-5.2,4.9-10.8C62.2,28.1,61.6,24.5,61.6,24.3z"/>
	<path id="XMLID_898_" class="st8" d="M9.5,63c-7.5-6.7-8.2-16-8.2-16.4l0-0.1l0-0.2c0.7-4.4,2.3-7.3,5-8.9
		c5.5-3.2,13.9-0.1,22.8,3.2c9.5,3.5,19.3,7.2,24.4,2.5c0.7-0.7,1.1-1.5,1.1-2.5c0.1-4.2-5.3-10.4-7.3-12.4c-0.6-0.6-0.6-1.7,0-2.3
		c0.6-0.6,1.7-0.6,2.3,0c0.3,0.3,6.7,6.6,8,12.5c2.1-3.8,1.5-11,1-13.5l0-0.3l3.2-0.5l0,0.3c0,0.2,0.6,3.8,0.4,7.8
		c-0.3,5.7-1.9,9.4-4.9,11c-0.4,0.9-0.9,1.6-1.6,2.3c-6.6,6.1-17.3,2.1-27.7-1.8c-7.8-2.9-15.8-5.9-20-3.4c-1.8,1.1-2.9,3.1-3.5,6.4
		c0.1,0.9,0.9,7.4,5.7,12.6 M10.2,59.9C4.9,54.4,4.1,47.4,4,46.6l0,0l0,0c0.5-3.4,1.8-5.6,3.7-6.8c4.4-2.6,12.6,0.5,20.5,3.4
		C38.5,47,49.1,51,55.4,45.1c0.7-0.6,1.2-1.4,1.5-2.2l0-0.1l0.1,0c2.9-1.5,4.5-5.1,4.7-10.6c0.2-3.4-0.3-6.6-0.4-7.5L59.2,25
		c0.6,3.5,0.9,10.7-1.5,14.2l-0.4,0.5l-0.1-0.6c-1-5.9-7.7-12.6-8-12.9c-0.4-0.4-1.1-0.4-1.6,0c-0.4,0.4-0.4,1.1,0,1.6
		c2.1,2.1,7.5,8.4,7.5,12.8c0,1.2-0.4,2.1-1.2,2.9c-5.3,5-15.3,1.2-24.9-2.3c-6.2-2.3-12.2-4.5-17-4.5c-2,0-3.8,0.4-5.4,1.3
		c-2.6,1.5-4.2,4.3-4.8,8.5l0,0.1l0,0.1c0,0.4,0.6,9.4,8,16"/>
	<g id="XMLID_444_" class="st3">
		<g id="XMLID_447_">
			<g id="XMLID_511_">
				<path id="XMLID_37_" class="st9" d="M89.6,4.7c0.7-0.1,5.8,1.6,5.4,6.3c-0.3,4.7-7.5,5.6-7.5,5.6c-0.1-0.4-0.1-0.9-0.3-1.4
					c0,0-1.9-9.8-15.8-5.5c0.3-0.6,0.6-1.2,0.7-1.9h0c0.9-1.9,4.4-3,4.4-3c-2.6-0.4-4.2,0.5-4.2,0.5l-0.1,0
					c-0.1-0.5-0.2-0.9-0.3-1.3C72.7,1,78-6.3,85-5.8C91.9-5.2,89.6,4.7,89.6,4.7z"/>
				<path id="XMLID_34_" class="st9" d="M65.5-7.3C62.8-6.5,61.4-4,61.4-4c-2.1-0.6-4.3-0.9-6.7-1c0,0-1.1-2.3-0.8-4
					c0.3-2,0.5-6.4,5.8-8.4s9.1,4.5,9.1,4.5s3.3-2,7.4-2.1c4.1-0.1,4.7,6.4,4.7,6.4S71.9-4,71.2,2.2C69.7-0.1,67-2,63.5-3.3
					C64.1-6.4,65.1-7.1,65.5-7.3z M65.5-7.3c0,0,0.1,0,0.1,0C65.6-7.3,65.6-7.3,65.5-7.3z"/>
				<path id="XMLID_33_" class="st10" d="M76.6,4.8c0,0-3.4,1.1-4.4,3h0c0.1-0.5,0.2-1,0.2-1.6c0-0.3,0-0.6-0.1-0.9l0.1,0
					C72.4,5.2,74.1,4.4,76.6,4.8z"/>
				<path id="XMLID_32_" class="st5" d="M72,3.9c-0.2-0.6-0.5-1.1-0.8-1.7v0C71.9-4,80.7-8.6,80.7-8.6C81.9-8.8,83-8.9,84-8.9
					c10.7-0.3,9.2,11.4,9.2,11.4c5.9,0.8,5.5,7.4,5.5,7.4c-1,8.9-10.8,8.6-11.1,8.6c0-0.6,0-1.2-0.1-1.9c0,0,7.2-0.9,7.5-5.6
					c0.3-4.7-4.8-6.4-5.4-6.3c0,0,2.3-9.9-4.7-10.4C78-6.3,72.7,1,72,3.9z"/>
				<path id="XMLID_31_" class="st5" d="M71.5,9.7c13.9-4.3,15.8,5.5,15.8,5.5c0.1,0.5,0.2,0.9,0.3,1.4c0.1,0.7,0.1,1.3,0.1,1.9
					c-0.3,8-10.4,8-10.4,8c-4.7,7.8-11.6,3.1-11.6,3.1c0.7-0.8,1.1-1.8,1.2-2.8h0c0,0,6.8,3.8,8.8-4.2c0,0,5.6,1.8,8-2.7
					C86,15.3,82,11,77.6,11c-4.5-0.1-7.1,0.2-7.1,0.2C70.9,10.7,71.2,10.2,71.5,9.7z"/>
				<path id="XMLID_30_" class="st10" d="M66.9,14.1c0.8-0.5,1.5-1,2.2-1.5c2.1,2.7,2.2,5.3,2.2,5.3C69.2,14.8,66.9,14.1,66.9,14.1
					L66.9,14.1z"/>
				<path id="XMLID_29_" class="st9" d="M66.8,26.7c0.5-3.4-1.9-7.5-8-9.8v0c3.1-0.5,5.8-1.5,8-2.8v0c0,0,2.3,0.7,4.3,3.8
					c0,0,0-2.7-2.2-5.3c0.5-0.4,1-0.9,1.4-1.4c0,0,2.7-0.3,7.1-0.2c4.5,0.1,8.4,4.3,6.1,8.8c-2.4,4.5-8,2.7-8,2.7
					C73.6,30.5,66.8,26.7,66.8,26.7L66.8,26.7z"/>
				<path id="XMLID_28_" class="st9" d="M65.6-7.3c0,0-0.1,0-0.1,0C65.6-7.3,65.6-7.3,65.6-7.3z"/>
				<path id="XMLID_27_" class="st11" d="M44.4,15.6c-4.7-1.7-7.7-4.8-7.7-8.5c0-5.7,7.2-9.8,16.8-9.8C63.1-2.6,70,1.2,70,6.9
					c0,3.9-3.3,7.3-8.5,9.1l-0.1-0.2c2.4-1.3,2.9-2.4,3.1-3.3c0.1-0.5,0.1-0.8,0.1-0.8c-0.8-4.6-4.4-3-4.4-3c0,0,0,0,0,0
					c0-0.5,0-1.2-0.2-1.9c-0.6-2.4-7.2-3.9-7.5-4c0.1,0.1,2.2,1.2-2.9,2.5c-2.6,0.6-3.3,1.9-3.3,3.1c-0.7,0-5.6-0.2-4.6,4
					c0,0,0.4,0.9,1.1,1.8c0.4,0.5,1,1,1.7,1.2L44.4,15.6z"/>
				<path id="XMLID_26_" class="st10" d="M65.5-7.3c-0.4,0.2-1.4,0.9-2,4c-0.7-0.3-1.4-0.5-2.1-0.7C61.4-4,62.8-6.5,65.5-7.3z"/>
				<path id="XMLID_25_" class="st12" d="M46.6,9.9C46.6,9.9,46.6,9.9,46.6,9.9c0.1-0.4,0.7-2.6,5-3.1c0,0,2.6-0.2,3-1.1
					c0,0,4.2,1,5.5,2.9c0,0,0,0,0,0c0,0,3.6-1.6,4.4,3c0,0,0.1,0.3-0.1,0.8c-0.2,0.9-0.7,2-3.1,3.3l0.1,0.2c-1.7,0.6-3.6,1-5.7,1.1
					c1.3-1.4,1.5-3.5-0.1-4.5c-1.7-1-3.2,1.6-3.2,1.6c-0.8-1.7-1.7-1.2-1.7-1.2c-2.6,0.7-2.1,2.8-1.7,3.8c-1.7-0.3-3.3-0.7-4.8-1.2
					l0.1-0.2c-0.7-0.3-1.2-0.7-1.7-1.2C42.4,13.2,41.8,10.4,46.6,9.9C46.6,10,46.6,9.9,46.6,9.9z"/>
				<path id="XMLID_24_" class="st5" d="M50.8,17.2c0,0-6.7,3.5-5.2,8.4c1.5,4.9,3.9,4.1,6.1,2.5c2.1-1.6,3-3.1,3-3.1
					s4.5,5.8,7.8,3.5c3.3-2.2,1.2-8.5-4.7-11.5v0c0.4,0,0.7-0.1,1.1-0.2v0c6,2.3,8.5,6.4,8,9.8c-0.1,1-0.5,2-1.2,2.8
					c-0.5,0.6-1.1,1.2-1.9,1.6c-5.1,3.1-9-2.1-9-2.1c-6.1,6.8-10.4,1.6-10.4,1.6c-0.3-0.4-0.5-0.9-0.8-1.3c-0.6-1.1-0.9-2.1-1.1-3
					c-1.5-6.9,7-9.2,7-9.2s-0.1-0.1-0.1-0.3C49.8,17.1,50.3,17.2,50.8,17.2L50.8,17.2z"/>
				<path id="XMLID_23_" class="st11" d="M55.3,15.5c-0.8,1.2-1.4,0.8-1.4,0.8c0-0.8,1-1.8,1-1.8S56,14.3,55.3,15.5z"/>
				<path id="XMLID_20_" class="st13" d="M49.3,17.1c-2.8-0.4-5.4-1.1-7.6-2.2c-0.9-0.4-1.7-0.9-2.5-1.4c-1.1-0.8-2.1-1.6-2.8-2.5
					c-0.4-0.4-0.7-0.9-0.9-1.4c-0.6-1.1-0.9-2.2-0.9-3.4c0-0.9,0.2-1.8,0.5-2.6c0.1-0.3,0.3-0.6,0.4-0.9c0.3-0.6,0.7-1.1,1.2-1.7
					c1.6-1.8,3.9-3.3,6.8-4.3c0.8-0.3,1.6-0.5,2.5-0.8C48-4.6,50.1-4.9,52.3-5c0.4,0,0.8,0,1.2,0c0.4,0,0.8,0,1.2,0
					c2.4,0.1,4.6,0.4,6.7,1c0.7,0.2,1.4,0.4,2.1,0.7C67-2,69.7-0.1,71.2,2.2v0c0.4,0.5,0.6,1.1,0.8,1.7c0.2,0.4,0.3,0.9,0.3,1.3
					c0,0.3,0.1,0.6,0.1,0.9c0,0.5-0.1,1.1-0.2,1.6c-0.2,0.7-0.4,1.3-0.7,1.9c-0.3,0.5-0.7,1-1.1,1.5c-0.4,0.5-0.9,0.9-1.4,1.4
					c-0.6,0.6-1.4,1.1-2.2,1.5c-2.2,1.3-5,2.3-8,2.8c-0.3,0.1-0.7,0.1-1.1,0.2c-1,0.1-2.1,0.2-3.2,0.3c-0.3,0-0.7,0-1,0
					c-0.3,0-0.7,0-1,0c-0.6,0-1.1-0.1-1.7-0.1C50.3,17.2,49.8,17.1,49.3,17.1z M36.7,7.1c0,3.7,3,6.7,7.7,8.5
					c1.4,0.5,3.1,0.9,4.8,1.2c1.4,0.2,2.8,0.3,4.4,0.3c0.8,0,1.6,0,2.3-0.1c2.1-0.2,4-0.6,5.7-1.1c5.2-1.7,8.5-5.1,8.5-9.1
					c0-5.7-6.9-9.5-16.5-9.5C43.9-2.6,36.7,1.5,36.7,7.1z"/>
				<path id="XMLID_19_" class="st10" d="M52.5,17.3c0.3,0,0.7,0,1,0c0.3,0,0.7,0,1,0c-0.7,3.3-0.1,5.4,0,5.6
					C52.5,20.8,52.5,17.4,52.5,17.3z"/>
				<path id="XMLID_18_" class="st9" d="M52.3-5L52.3-5C50.1-4.9,48-4.6,46-4.1c-1.9-3.8-5.5-3.3-5.5-3.3c2.5,1.3,3,4.1,3,4.1
					c-2.9,1-5.2,2.5-6.8,4.3c0,0-4.4-6.6-11.3-8.1v0C28.2-17,38-11,38-11c6.1-12.3,13.3-3,13.3-3C50.7-11.9,50.3-8.7,52.3-5z"/>
				<path id="XMLID_17_" class="st5" d="M52.3-5c-2-3.7-1.6-7-0.9-8.9c0.4-1.3,0.9-2,0.9-2c0.4-0.5,0.8-0.9,1.2-1.3
					c9.5-9.5,15.7,0.3,15.7,0.3c13.9-6.3,14.7,8,14.7,8v0c-1,0-2.1,0.1-3.3,0.4c0,0-0.6-6.6-4.7-6.4c-4.1,0.2-7.4,2.1-7.4,2.1
					s-3.8-6.4-9.1-4.5s-5.4,6.4-5.8,8.4c-0.3,1.7,0.8,4,0.8,4c-0.4,0-0.8,0-1.2,0C53.1-5,52.7-5,52.3-5L52.3-5z"/>
				<path id="XMLID_16_" class="st9" d="M45.6,25.7c-1.5-4.9,5.2-8.4,5.2-8.4v0c0.5,0,1.1,0.1,1.7,0.1c0,0,0,3.5,2.1,5.6
					c0-0.2-0.7-2.3,0-5.6c1.1,0,2.2-0.1,3.2-0.3v0c5.9,3,8,9.3,4.7,11.5c-3.3,2.2-7.8-3.5-7.8-3.5s-0.9,1.5-3,3.1
					C49.5,29.8,47,30.6,45.6,25.7z"/>
				<path id="XMLID_15_" class="st11" d="M52.1,16.4c-1.7-0.7-1.4-1.9-1.4-1.9C51.7,14.4,53.7,17.1,52.1,16.4z"/>
				<path id="XMLID_11_" class="st10" d="M55.3,15.5c0.8-1.2-0.4-1-0.4-1s-1,1.1-1,1.8C53.9,16.4,54.5,16.8,55.3,15.5z M49.2,16.8
					c-0.4-1-1-3.1,1.7-3.8c0,0,0.9-0.5,1.7,1.2c0,0,1.6-2.7,3.2-1.6c1.6,1,1.4,3.1,0.1,4.5c-0.7,0.1-1.5,0.1-2.3,0.1
					C52,17.1,50.5,17,49.2,16.8z M52.1,16.4c1.7,0.7-0.3-2.1-1.4-1.9C50.6,14.5,50.4,15.7,52.1,16.4z"/>
				<path id="XMLID_10_" class="st14" d="M51.7,6.8c-4.4,0.5-5,2.7-5,3.1c-0.2-0.5-0.4-1-0.4-1.6c0-1.2,0.8-2.4,3.3-3.1
					c5.1-1.3,3.1-2.5,2.9-2.5c0.3,0.1,6.9,1.6,7.5,4c0.2,0.7,0.2,1.3,0.2,1.9c-1.3-1.9-5.5-2.9-5.5-2.9C54.3,6.6,51.7,6.8,51.7,6.8z
					"/>
				<path id="XMLID_9_" class="st10" d="M46-4.1c-0.9,0.2-1.7,0.5-2.5,0.8c0,0-0.6-2.8-3-4.1C40.5-7.4,44.1-7.9,46-4.1z"/>
				<path id="XMLID_8_" class="st14" d="M41.7,12.3c-1-4.2,4-4.1,4.6-4c0,0.6,0.2,1.1,0.4,1.6c0,0,0,0,0,0c0,0,0,0.1,0,0.1
					c-4.8,0.5-4.2,3.2-3.8,4.2C42,13.3,41.7,12.3,41.7,12.3z"/>
				<path id="XMLID_7_" class="st5" d="M38.6,28.4c3.5-0.5,3.8-1.9,3.8-1.9c0.2,0.9,0.6,1.9,1.1,3c-7.9,6.5-11.9-2-11.9-2
					c-6.3,0-8.9-3.9-8.9-3.9c-0.3-0.9-0.5-1.7-0.7-2.5c-0.3-1.2-0.3-2.3-0.3-3.2c0.6-9.1,13.8-8.3,13.8-8.3c0.3,0.5,0.6,0.9,0.9,1.4
					c0,0-11.5,1.8-11.4,6.9c0.2,5.2,3.8,5.9,6.2,5.9c1.4,0,1.8,0,1.9,0C33.2,23.8,35.2,28.8,38.6,28.4z"/>
				<path id="XMLID_6_" class="st9" d="M41.7,14.9L41.7,14.9c2.2,1,4.8,1.8,7.6,2.2c0.1,0.2,0.1,0.3,0.1,0.3s-8.5,2.3-7,9.2
					c0,0-0.3,1.4-3.8,1.9s-5.4-4.6-5.4-4.6c-0.1,0-0.5,0-1.9,0c-2.4,0-6.1-0.7-6.2-5.9c-0.1-5.2,11.4-6.9,11.4-6.9
					c0.7,0.9,1.7,1.8,2.8,2.5c-2.5,4.1-1.8,5.6-1.8,5.6C38.5,16.4,41.7,14.9,41.7,14.9z"/>
				<path id="XMLID_5_" class="st10" d="M39.2,13.5c0.7,0.5,1.6,1,2.5,1.4v0c0,0-3.2,1.5-4.3,4.2C37.4,19.1,36.7,17.6,39.2,13.5z"/>
				<path id="XMLID_4_" class="st9" d="M35.6,2.7c-0.2,0.3-0.3,0.6-0.4,0.9c-4.8,0.4-6.3,3.1-6.4,3.2c1.7-1.2,5.9-0.7,5.9-0.7
					c0,1.2,0.3,2.3,0.9,3.4c0,0-13.2-0.7-13.8,8.3h0c-4.9-0.3-7.6-1.8-8.7-5.3c-1.1-3.5,2.2-7.2,2.2-7.2s-2.1-5.6,3.7-8.8
					C26.1-7.4,35.6,2.7,35.6,2.7z"/>
				<path id="XMLID_3_" class="st10" d="M35.1,3.6c-0.3,0.8-0.5,1.7-0.5,2.6c0,0-4.2-0.5-5.9,0.7C28.8,6.7,30.3,4,35.1,3.6z"/>
				<path id="XMLID_2_" class="st5" d="M25.5-7.1c-1.3-0.3-2.8-0.4-4.3-0.3v0v-1.6c6.5-13.3,14.9-6.4,14.9-6.4
					c0.8-2.9,3.3-5.1,3.3-5.1c9.6-4.9,14.1,3.2,14.1,3.2c-0.4,0.4-0.8,0.8-1.2,1.3c0,0-0.5,0.7-0.9,2c0,0-7.2-9.3-13.3,3
					C38-11,28.2-17,25.5-7.1L25.5-7.1z"/>
				<path id="XMLID_1_" class="st5" d="M21.7,17.9L21.7,17.9c0,1,0,2,0.3,3.2c-3.9-0.2-7.8-1.4-7.8-1.4c-10.6-6.5-2.9-15-2.9-15
					C10.1-1.8,14.6-5,14.6-5c2.3-1.4,4.5-2.1,6.5-2.3c1.5-0.2,3,0,4.3,0.3C32.4-5.5,36.8,1,36.8,1c-0.5,0.5-0.9,1.1-1.2,1.7
					c0,0-9.5-10.1-16.7-6.1c-5.8,3.2-3.7,8.8-3.7,8.8S11.9,9,13,12.6C14.1,16.1,16.8,17.6,21.7,17.9z"/>
			</g>
			<g id="XMLID_481_">
				<path id="XMLID_116_" class="st15" d="M71.2,2.2c0.4,0.5,0.6,1.1,0.8,1.7c0.2,0.4,0.3,0.9,0.3,1.3c0,0.3,0.1,0.6,0.1,0.9
					c0,0.5-0.1,1.1-0.2,1.6c-0.2,0.7-0.4,1.3-0.7,1.9c-0.3,0.5-0.7,1-1.1,1.5c-0.4,0.5-0.9,0.9-1.4,1.4c-0.6,0.6-1.4,1.1-2.2,1.5
					c-2.2,1.3-5,2.3-8,2.8c-0.3,0.1-0.7,0.1-1.1,0.2c-1,0.1-2.1,0.2-3.2,0.3c-0.3,0-0.7,0-1,0c-0.3,0-0.7,0-1,0
					c-0.6,0-1.1-0.1-1.7-0.1c-0.5,0-1-0.1-1.6-0.2c-2.8-0.4-5.4-1.1-7.6-2.2c-0.9-0.4-1.7-0.9-2.5-1.4c-1.1-0.8-2.1-1.6-2.8-2.5
					c-0.4-0.4-0.7-0.9-0.9-1.4c-0.6-1.1-0.9-2.2-0.9-3.4c0-0.9,0.2-1.8,0.5-2.6c0.1-0.3,0.3-0.6,0.4-0.9c0.3-0.6,0.7-1.1,1.2-1.7
					c1.6-1.8,3.9-3.3,6.8-4.3c0.8-0.3,1.6-0.5,2.5-0.8C48-4.6,50.1-4.9,52.3-5c0.4,0,0.8,0,1.2,0c0.4,0,0.8,0,1.2,0
					c2.4,0.1,4.6,0.4,6.7,1c0.7,0.2,1.4,0.4,2.1,0.7C67-2,69.7-0.1,71.2,2.2"/>
				<path id="XMLID_49_" class="st15" d="M58.9,16.9c6,2.3,8.5,6.4,8,9.8c-0.1,1-0.5,2-1.2,2.8c-0.5,0.6-1.1,1.2-1.9,1.6
					c-5.1,3.1-9-2.1-9-2.1c-6.1,6.8-10.4,1.6-10.4,1.6c-0.3-0.4-0.5-0.9-0.8-1.3c-0.6-1.1-0.9-2.1-1.1-3c-1.5-6.9,7-9.2,7-9.2
					s-0.1-0.1-0.1-0.3c0-0.1-0.1-0.2-0.1-0.2c-0.4-1-1-3.1,1.7-3.8c0,0,0.9-0.5,1.7,1.2c0,0,1.6-2.7,3.2-1.6c1.6,1,1.4,3.1,0.1,4.5"
					/>
				<path id="XMLID_48_" class="st15" d="M65.6,29.5c0,0,6.9,4.7,11.6-3.1c0,0,10.1,0,10.4-8c0-0.6,0-1.2-0.1-1.9
					c-0.1-0.4-0.1-0.9-0.3-1.4c0,0-1.9-9.8-15.8-5.5"/>
				<path id="XMLID_47_" class="st15" d="M87.6,18.5C87.6,18.5,87.6,18.5,87.6,18.5c0.3,0,10.1,0.3,11.1-8.6c0,0,0.4-6.5-5.5-7.4
					c0,0,1.6-11.7-9.2-11.4c-1,0-2.1,0.1-3.3,0.4c0,0-8.8,4.6-9.5,10.8v0"/>
				<path id="XMLID_46_" class="st15" d="M84-8.9c0,0-0.8-14.3-14.7-8c0,0-6.2-9.8-15.7-0.3c-0.4,0.4-0.8,0.8-1.2,1.3
					c0,0-0.5,0.7-0.9,2c-0.7,2-1.1,5.3,0.9,8.9"/>
				<path id="XMLID_45_" class="st15" d="M53.5-17.2c0,0-4.5-8.1-14.1-3.2c0,0-2.5,2.2-3.3,5.1c0,0-8.4-6.9-14.9,6.4v1.6"/>
				<path id="XMLID_44_" class="st15" d="M22,21.1c-3.9-0.2-7.8-1.4-7.8-1.4c-10.6-6.5-2.9-15-2.9-15C10.1-1.8,14.6-5,14.6-5
					c2.3-1.4,4.5-2.1,6.5-2.3c1.5-0.2,3,0,4.3,0.3C32.4-5.5,36.8,1,36.8,1"/>
				<path id="XMLID_43_" class="st15" d="M35.5,9.6c0,0-13.2-0.7-13.8,8.3c-0.1,1,0,2,0.3,3.2c0.2,0.8,0.4,1.6,0.7,2.5
					c0,0,2.6,3.9,8.9,3.9c0,0,4,8.5,11.9,2"/>
				<path id="XMLID_42_" class="st16" d="M52.5,2.7C52.5,2.7,52.5,2.7,52.5,2.7c0.3,0.1,6.9,1.6,7.5,4c0.2,0.7,0.2,1.3,0.2,1.9
					c-0.1,1.4-0.8,2.3-1.9,3.1"/>
				<path id="XMLID_41_" class="st16" d="M46.6,9.9c-0.2-0.5-0.4-1-0.4-1.6c0-1.2,0.8-2.4,3.3-3.1c5.1-1.3,3.1-2.5,2.9-2.5"/>
				<path id="XMLID_40_" class="st16" d="M47.7,11.6c0,0-0.6-0.7-1-1.7"/>
				<path id="XMLID_39_" class="st16" d="M46.6,9.9C46.6,9.9,46.6,9.9,46.6,9.9"/>
				<path id="XMLID_38_" class="st16" d="M46.3,8.3C46.3,8.3,46.3,8.3,46.3,8.3c-0.7,0-5.6-0.2-4.7,4c0,0,0.4,0.9,1.1,1.8
					c0.4,0.5,1,1,1.7,1.2c0.1,0,0.3,0.1,0.4,0.1"/>
			</g>
		</g>
		<path id="XMLID_446_" class="st14" d="M64.6,12.4c0,0-1.1-3.2-4.5-2.3c0,0,0.4-0.5,0.5-1.7c0,0,2.6-1,3.7,1.8
			C64.2,10.3,64.9,11.6,64.6,12.4z"/>
	</g>
</g>
<g id="Layer_2">
	<rect id="XMLID_1027_" x="10.4" y="-260" class="st17" width="86.5" height="332.5"/>
	<rect id="XMLID_1026_" x="13.4" y="-256.6" class="st17" width="80.3" height="325.9"/>
	<rect id="XMLID_1025_" x="17.5" y="-252.6" class="st18" width="71.9" height="317.9"/>
	<path id="XMLID_923_" class="st18" d="M77.3,65.3c0,0,0.5-12.7,12.1-14.1"/>
	<g id="XMLID_913_">
		<g id="XMLID_921_">
			<path id="XMLID_922_" class="st4" d="M77,48.3c0,0,0.7-2,2.6-0.7c2.4,1.6,1.1,5.3,0.9,6.6c-0.3,1.6-1.3,2.2-1.3,2.2
				s-3.9,3.2-6.5,1.2c0,0-1.3-0.5-0.3-2.2"/>
		</g>
		<g id="XMLID_919_">
			<path id="XMLID_920_" class="st5" d="M79.6,55.7c0,0-2.2,0.7-3.1-1.4c0,0-0.2-1.6,1.1-1.5c1.2,0.1,2.1,1,2.5,2.2
				C80,55,80.2,55.6,79.6,55.7z"/>
		</g>
		<g id="XMLID_917_">
			<path id="XMLID_918_" class="st4" d="M77.5,54.1c0,0,0.1,1,1.7,1c0,0,0.1-0.2-0.6-0.8C77.9,53.6,77.5,54.1,77.5,54.1z"/>
		</g>
		<g id="XMLID_914_">
			<path id="XMLID_916_" class="st4" d="M75.2,55.3c0,0-3.8,0.6-4.1-1.9s1.1-2,0.5-3.8c0,0,1.1-0.2,2.2-1.4c0.7-0.8,2.2-0.7,3.3,0.1
				c0.5,0.4,0.9,1,1,1.7l0.1,0.6"/>
			<path id="XMLID_915_" class="st5" d="M73.6,48c0.8-1,2.6-0.8,3.6,0c0.6,0.5,1,1.2,1.1,1.9l0.1,0.6c0,0.1-0.1,0.3-0.2,0.3
				c-0.1,0-0.3-0.1-0.3-0.2L77.7,50c-0.1-0.8-0.5-1.3-0.9-1.5c-1-0.7-2.3-0.8-2.9-0.1c-0.8,0.9-1.7,1.3-2.1,1.4
				c0.2,0.8,0,1.2-0.2,1.6c-0.2,0.4-0.5,0.8-0.3,2c0.1,0.5,0.3,0.9,0.7,1.2c1.1,0.8,3.2,0.5,3.2,0.5c0.1,0,0.3,0.1,0.3,0.2
				c0,0.1,0,0.1,0,0.2c0,0.1-0.1,0.1-0.2,0.1c-0.1,0-2.3,0.4-3.6-0.6c-0.5-0.4-0.8-0.9-0.9-1.5c-0.2-1.4,0.2-1.9,0.4-2.4
				c0.2-0.4,0.4-0.6,0.1-1.4c0-0.1,0-0.2,0-0.2"/>
		</g>
	</g>
	<path id="XMLID_912_" class="st18" d="M29.6,65.3c0,0-0.5-12.7-12.1-14.1"/>
	<g id="XMLID_901_">
		<g id="XMLID_910_">
			<path id="XMLID_911_" class="st4" d="M29.9,48.3c0,0-0.7-2-2.6-0.7c-2.4,1.6-1.1,5.3-0.9,6.6c0.3,1.6,1.3,2.2,1.3,2.2
				s3.9,3.2,6.5,1.2c0,0,1.3-0.5,0.3-2.2"/>
		</g>
		<g id="XMLID_908_">
			<path id="XMLID_909_" class="st5" d="M27.3,55.7c0,0,2.2,0.7,3.1-1.4c0,0,0.2-1.6-1.1-1.5c-1.2,0.1-2.1,1-2.5,2.2
				C26.9,55,26.7,55.6,27.3,55.7z"/>
		</g>
		<g id="XMLID_906_">
			<path id="XMLID_907_" class="st4" d="M29.4,54.1c0,0-0.1,1-1.7,1c0,0-0.1-0.2,0.6-0.8C28.9,53.6,29.4,54.1,29.4,54.1z"/>
		</g>
		<g id="XMLID_902_">
			<path id="XMLID_905_" class="st4" d="M31.7,55.3c0,0,3.8,0.6,4.1-1.9s-1.1-2-0.5-3.8c0,0-1.1-0.2-2.2-1.4
				c-0.7-0.8-2.2-0.7-3.3,0.1c-0.5,0.4-0.9,1-1,1.7l-0.1,0.6"/>
			<path id="XMLID_903_" class="st5" d="M33.3,48c-0.8-1-2.6-0.8-3.6,0c-0.6,0.5-1,1.2-1.1,1.9l-0.1,0.6c0,0.1,0.1,0.3,0.2,0.3
				c0.1,0,0.3-0.1,0.3-0.2l0.1-0.6c0.1-0.8,0.5-1.3,0.9-1.5c1-0.7,2.3-0.8,2.9-0.1c0.8,0.9,1.7,1.3,2.1,1.4c-0.2,0.8,0,1.2,0.2,1.6
				c0.2,0.4,0.5,0.8,0.3,2c-0.1,0.5-0.3,0.9-0.7,1.2c-1.1,0.8-3.2,0.5-3.2,0.5c-0.1,0-0.3,0.1-0.3,0.2c0,0.1,0,0.1,0,0.2
				c0,0.1,0.1,0.1,0.2,0.1c0.1,0,2.3,0.4,3.6-0.6c0.5-0.4,0.8-0.9,0.9-1.5c0.2-1.4-0.2-1.9-0.4-2.4c-0.2-0.4-0.4-0.6-0.1-1.4
				c0-0.1,0-0.2,0-0.2"/>
		</g>
	</g>
</g>
</svg>
