<?xml version="1.0" encoding="utf-8"?>
<!-- Generator: Adobe Illustrator 19.0.0, SVG Export Plug-In . SVG Version: 6.00 Build 0)  -->
<svg version="1.1" id="Layer_1" xmlns="http://www.w3.org/2000/svg" xmlns:xlink="http://www.w3.org/1999/xlink" x="0px" y="0px"
	 viewBox="-249 241 500 120" style="enable-background:new -249 241 500 120;" xml:space="preserve">
<style type="text/css">
	.st0{enable-background:new    ;}
	.st1{fill:#F37626;}
	.st2{fill:#FFFFFF;}
</style>
<g id="XMLID_1_" class="st0">
	<path class="st1" d="M-193.4,311.1c0,4.2-1.7,7.8-5,10.8s-7.4,4.5-12.1,4.5h-17.1v-64.1h17.1c4.8,0,8.8,1.5,12.1,4.5s5,6.6,5,10.8
		V311.1z M-216.7,316.9h6.6c1.7,0,3.2-0.6,4.4-1.7c1.2-1.1,1.8-2.4,1.8-3.9v-33.6c0-1.5-0.6-2.8-1.8-3.9c-1.2-1.1-2.7-1.6-4.3-1.6
		h-6.6L-216.7,316.9L-216.7,316.9z"/>
	<path class="st1" d="M-173,326.5h-10.9v-64.1h15.6l10.1,46.1l9.7-46.1h15v64.1h-10.8v-40.3l-9.4,40.3h-8.7l-10.5-40.2v40.2H-173z"
		/>
	<path class="st1" d="M-123.7,326.5v-64.1h31v9.7h-20.1v17.5h14.7v9.7h-14.7v17.4h20.1v9.7L-123.7,326.5L-123.7,326.5z"/>
</g>
<g id="XMLID_2_" class="st0">
	<path class="st2" d="M-57.9,288.4c-0.2-0.6-0.4-1-0.4-3v-3.8c0-2.3-0.8-3.1-2.5-3.1h-1.3v10h-3.8V264h5.8c4,0,5.7,1.9,5.7,5.6v1.9
		c0,2.5-0.8,4.2-2.5,5c1.9,0.8,2.6,2.7,2.6,5.2v3.8c0,1.2,0,2.1,0.4,3h-4V288.4z M-62.1,267.4v7.5h1.5c1.4,0,2.3-0.6,2.3-2.6v-2.4
		c0-1.7-0.6-2.5-2-2.5H-62.1z"/>
	<path class="st2" d="M-48.6,280.3l-4.9-16.4h4l2.9,11.2l2.9-11.2h3.7l-4.9,16.4v8.1h-3.8L-48.6,280.3L-48.6,280.3z"/>
	<path class="st2" d="M-34.5,274.2h5.3v3.5h-5.3v7.2h6.6v3.5h-10.4v-24.5h10.5v3.5h-6.6v6.8H-34.5z"/>
	<path class="st2" d="M-17.4,288.4c-0.2-0.6-0.4-1-0.4-3v-3.8c0-2.3-0.8-3.1-2.5-3.1h-1.3v10h-3.8V264h5.8c4,0,5.7,1.9,5.7,5.6v1.9
		c0,2.5-0.8,4.2-2.5,5c1.9,0.8,2.6,2.7,2.6,5.2v3.8c0,1.2,0,2.1,0.4,3h-4V288.4z M-21.6,267.4v7.5h1.5c1.4,0,2.3-0.6,2.3-2.6v-2.4
		c0-1.7-0.6-2.5-2-2.5H-21.6z"/>
	<path class="st2" d="M-6.2,263.6c3.7,0,5.7,2.2,5.7,6.2v0.8h-3.6v-1c0-1.7-0.7-2.4-1.9-2.4s-1.9,0.7-1.9,2.4c0,5,7.5,6,7.5,13
		c0,3.9-2,6.2-5.7,6.2c-3.8,0-5.7-2.2-5.7-6.2v-1.5h3.6v1.7c0,1.7,0.8,2.4,2,2.4s2-0.6,2-2.4c0-5-7.5-6-7.5-13
		C-11.9,265.9-10,263.6-6.2,263.6z"/>
	<path class="st2" d="M1.3,269.8c0-3.9,2.1-6.2,5.8-6.2c3.8,0,5.8,2.2,5.8,6.2v12.7c0,3.9-2.1,6.2-5.8,6.2c-3.8,0-5.8-2.2-5.8-6.2
		C1.3,282.5,1.3,269.8,1.3,269.8z M5.2,282.7c0,1.7,0.8,2.4,2,2.4s2-0.7,2-2.4v-13.2c0-1.7-0.8-2.4-2-2.4s-2,0.7-2,2.4V282.7z"/>
	<path class="st2" d="M18.9,270.6v17.7h-3.5v-24.5h4.8l4,14.7v-14.7h3.5v24.5h-4L18.9,270.6z"/>
	<path class="st2" d="M35.9,263.9h3.8v21H46v3.5H35.9V263.9z"/>
	<path class="st2" d="M47.7,263.9h3.8v24.5h-3.8V263.9z"/>
	<path class="st2" d="M65.9,269.5v0.9c0,2.5-0.8,4.1-2.5,4.9c2.1,0.8,2.9,2.7,2.9,5.2v2c0,3.8-2,5.8-5.8,5.8h-6.1v-24.5h5.8
		C64.2,263.9,65.9,265.7,65.9,269.5z M58.2,267.4v6.5h1.5c1.4,0,2.3-0.6,2.3-2.6v-1.4c0-1.7-0.6-2.5-2-2.5H58.2z M58.2,277.4v7.5
		h2.2c1.3,0,2-0.6,2-2.4v-2.1c0-2.3-0.7-3-2.5-3H58.2z"/>
	<path class="st2" d="M76.6,288.4c-0.2-0.6-0.3-1-0.3-3v-3.8c0-2.3-0.8-3.1-2.5-3.1h-1.3v10h-3.8V264h5.8c4,0,5.7,1.9,5.7,5.6v1.9
		c0,2.5-0.8,4.2-2.5,5c1.9,0.8,2.6,2.7,2.6,5.2v3.8c0,1.2,0,2.1,0.4,3h-4.1V288.4z M72.4,267.4v7.5h1.5c1.4,0,2.3-0.6,2.3-2.6v-2.4
		c0-1.7-0.6-2.5-2-2.5H72.4z"/>
	<path class="st2" d="M95.1,288.4h-3.9l-0.7-4.4h-4.7l-0.7,4.4h-3.5l3.9-24.5h5.6L95.1,288.4z M86.3,280.6H90l-1.9-12.4L86.3,280.6z
		"/>
	<path class="st2" d="M104.9,288.4c-0.2-0.6-0.4-1-0.4-3v-3.8c0-2.3-0.8-3.1-2.5-3.1h-1.3v10h-3.8V264h5.8c4,0,5.7,1.9,5.7,5.6v1.9
		c0,2.5-0.8,4.2-2.5,5c1.9,0.8,2.6,2.7,2.6,5.2v3.8c0,1.2,0,2.1,0.4,3h-4V288.4z M100.7,267.4v7.5h1.5c1.4,0,2.3-0.6,2.3-2.6v-2.4
		c0-1.7-0.6-2.5-2-2.5H100.7z"/>
	<path class="st2" d="M114.2,280.3l-4.9-16.4h4l2.9,11.2l2.9-11.2h3.7l-4.9,16.4v8.1h-3.8v-8.1H114.2z"/>
</g>
<g id="XMLID_4_" class="st0">
	<path class="st2" d="M-66.8,301.5h6.3c4,0,5.9,2.2,5.9,6.3v12.8c0,4.1-2,6.3-5.9,6.3h-6.3V301.5z M-62.9,305.1v18.1h2.2
		c1.3,0,2-0.7,2-2.5v-13.2c0-1.8-0.8-2.5-2-2.5h-2.2V305.1z"/>
	<path class="st2" d="M-52.1,301.5h4v25.4h-4V301.5z"/>
	<path class="st2" d="M-39.2,312.7h5.6v8.1c0,4.1-2,6.4-5.9,6.4s-5.9-2.3-5.9-6.4v-13.2c0-4.1,2-6.4,5.9-6.4s5.9,2.3,5.9,6.4v2.5
		h-3.8v-2.7c0-1.8-0.8-2.5-2.1-2.5s-2.1,0.7-2.1,2.5v13.7c0,1.8,0.8,2.5,2.1,2.5s2.1-0.7,2.1-2.5v-4.7h-1.8V312.7z"/>
	<path class="st2" d="M-31,301.5h4v25.4h-4V301.5z"/>
	<path class="st2" d="M-25.3,301.5H-13v3.6h-4.2v21.8h-4v-21.8h-4.1V301.5z"/>
	<path class="st2" d="M0.3,326.9h-4l-0.7-4.6h-4.9l-0.7,4.6h-3.7l4.1-25.4h5.8L0.3,326.9z M-8.8,318.8H-5L-6.9,306L-8.8,318.8z"/>
	<path class="st2" d="M2.2,301.5h4v21.8h6.5v3.6H2.2V301.5z"/>
	<path class="st2" d="M28.5,319.5l2.7-18h5.5v25.4h-3.8v-18.2l-2.8,18.2h-3.8l-3-18v18h-3.5v-25.4h5.5L28.5,319.5z"/>
	<path class="st2" d="M43.7,312.2h5.5v3.6h-5.5v7.4h6.9v3.6H39.7v-25.4h10.9v3.6h-6.9V312.2z"/>
	<path class="st2" d="M53,301.5h6.3c4,0,5.9,2.2,5.9,6.3v12.8c0,4.1-2,6.3-5.9,6.3H53V301.5z M57,305.1v18.1h2.2c1.3,0,2-0.7,2-2.5
		v-13.2c0-1.8-0.8-2.5-2-2.5H57V305.1z"/>
	<path class="st2" d="M67.8,301.5h4v25.4h-4V301.5z"/>
	<path class="st2" d="M87.6,326.9h-4l-0.7-4.6H78l-0.7,4.6h-3.6l4.1-25.4h5.8L87.6,326.9z M78.5,318.8h3.8L80.4,306L78.5,318.8z"/>
	<path class="st2" d="M99.1,312.2h5.5v3.6h-5.5v7.4h6.9v3.6H95.1v-25.4H106v3.6h-6.9V312.2z"/>
	<path class="st2" d="M121.8,301.5l-4.2,12.3l4.5,13.1h-4.2l-3.3-10l-3.3,10h-3.7l4.5-13.1l-4.2-12.3h4.1l3,9.4l3.1-9.4H121.8z"/>
	<path class="st2" d="M135.9,307.8v3.3c0,4.1-2,6.3-5.9,6.3h-1.9v9.5h-4v-25.4h5.9C133.9,301.5,135.9,303.7,135.9,307.8z M128,305.1
		v8.6h1.9c1.3,0,2-0.6,2-2.4v-3.8c0-1.8-0.7-2.4-2-2.4H128L128,305.1z"/>
	<path class="st2" d="M141.7,312.2h5.5v3.6h-5.5v7.4h6.9v3.6h-10.9v-25.4h10.9v3.6h-6.9V312.2z"/>
	<path class="st2" d="M159.4,326.9c-0.2-0.7-0.4-1.1-0.4-3.1v-4c0-2.4-0.8-3.2-2.6-3.2H155v10.3h-4v-25.4h6c4.1,0,5.9,1.9,5.9,5.8v2
		c0,2.6-0.8,4.3-2.6,5.2c2,0.8,2.6,2.8,2.6,5.4v3.9c0,1.2,0,2.1,0.4,3.1H159.4L159.4,326.9z M155,305.1v7.8h1.6
		c1.5,0,2.4-0.7,2.4-2.7v-2.5c0-1.8-0.6-2.6-2-2.6H155z"/>
	<path class="st2" d="M165.6,301.5h4v25.4h-4V301.5z"/>
	<path class="st2" d="M176.5,312.2h5.5v3.6h-5.5v7.4h6.9v3.6h-10.9v-25.4h10.9v3.6h-6.9V312.2z"/>
	<path class="st2" d="M189.4,308.5v18.4h-3.6v-25.4h5l4.1,15.2v-15.2h3.6v25.4h-4.1L189.4,308.5z"/>
	<path class="st2" d="M212.9,317.4v3.4c0,4.1-2,6.4-5.9,6.4s-5.9-2.3-5.9-6.4v-13.2c0-4.1,2-6.4,5.9-6.4s5.9,2.3,5.9,6.4v2.5h-3.8
		v-2.7c0-1.8-0.8-2.5-2.1-2.5s-2.1,0.7-2.1,2.5v13.7c0,1.8,0.8,2.5,2.1,2.5s2.1-0.7,2.1-2.5v-3.6L212.9,317.4L212.9,317.4z"/>
	<path class="st2" d="M219.3,312.2h5.5v3.6h-5.5v7.4h6.9v3.6h-10.9v-25.4h10.9v3.6h-6.9V312.2z"/>
</g>
</svg>
