<?xml version="1.0" encoding="utf-8"?>
<!-- Generator: Adobe Illustrator 19.0.0, SVG Export Plug-In . SVG Version: 6.00 Build 0)  -->
<svg version="1.1" id="Layer_1" xmlns="http://www.w3.org/2000/svg" xmlns:xlink="http://www.w3.org/1999/xlink" x="0px" y="0px"
	 viewBox="-249 241 500 120" style="enable-background:new -249 241 500 120;" xml:space="preserve">
<style type="text/css">
	.st0{enable-background:new    ;}
	.st1{fill:#F37626;}
	.st2{fill:#FFFFFF;}
</style>
<g id="XMLID_1_" class="st0">
	<path class="st1" d="M-191.7,313.2c0,4.2-1.7,7.8-5,10.8s-7.4,4.5-12.1,4.5h-17.1v-64.1h17.1c4.8,0,8.8,1.5,12.1,4.5s5,6.6,5,10.8
		V313.2z M-215,319h6.6c1.7,0,3.2-0.6,4.4-1.7s1.8-2.4,1.8-3.9v-33.6c0-1.5-0.6-2.8-1.8-3.9s-2.7-1.6-4.3-1.6h-6.6L-215,319
		L-215,319z"/>
	<path class="st1" d="M-171.3,328.6h-10.9v-64.1h15.6l10.1,46.1l9.7-46.1h15v64.1h-10.8v-40.3l-9.4,40.3h-8.7l-10.5-40.2v40.2
		H-171.3z"/>
	<path class="st1" d="M-122,328.6v-64.1h31v9.7h-20.1v17.5h14.7v9.7h-14.7v17.4H-91v9.7L-122,328.6L-122,328.6z"/>
</g>
<g id="XMLID_2_" class="st0">
	<path class="st2" d="M-56.2,290.5c-0.2-0.6-0.4-1-0.4-3v-3.8c0-2.3-0.8-3.1-2.5-3.1h-1.3v10h-3.8v-24.5h5.8c4,0,5.7,1.9,5.7,5.6
		v1.9c0,2.5-0.8,4.2-2.5,5c1.9,0.8,2.6,2.7,2.6,5.2v3.8c0,1.2,0,2.1,0.4,3h-4V290.5z M-60.4,269.5v7.5h1.5c1.4,0,2.3-0.6,2.3-2.6
		V272c0-1.7-0.6-2.5-2-2.5H-60.4z"/>
	<path class="st2" d="M-46.9,282.4l-4.9-16.4h4l2.9,11.2L-42,266h3.7l-4.9,16.4v8.1H-47L-46.9,282.4L-46.9,282.4z"/>
	<path class="st2" d="M-32.8,276.3h5.3v3.5h-5.3v7.2h6.6v3.5h-10.4V266h10.5v3.5h-6.6v6.8H-32.8z"/>
	<path class="st2" d="M-15.7,290.5c-0.2-0.6-0.4-1-0.4-3v-3.8c0-2.3-0.8-3.1-2.5-3.1h-1.3v10h-3.8v-24.5h5.8c4,0,5.7,1.9,5.7,5.6
		v1.9c0,2.5-0.8,4.2-2.5,5c1.9,0.8,2.6,2.7,2.6,5.2v3.8c0,1.2,0,2.1,0.4,3h-4V290.5z M-19.9,269.5v7.5h1.5c1.4,0,2.3-0.6,2.3-2.6
		V272c0-1.7-0.6-2.5-2-2.5H-19.9z"/>
	<path class="st2" d="M-4.5,265.7c3.7,0,5.7,2.2,5.7,6.2v0.8h-3.6v-1c0-1.7-0.7-2.4-1.9-2.4s-1.9,0.7-1.9,2.4c0,5,7.5,6,7.5,13
		c0,3.9-2,6.2-5.7,6.2c-3.8,0-5.7-2.2-5.7-6.2v-1.5h3.6v1.7c0,1.7,0.8,2.4,2,2.4s2-0.6,2-2.4c0-5-7.5-6-7.5-13
		C-10.2,268-8.3,265.7-4.5,265.7z"/>
	<path class="st2" d="M3,271.9c0-3.9,2.1-6.2,5.8-6.2c3.8,0,5.8,2.2,5.8,6.2v12.7c0,3.9-2.1,6.2-5.8,6.2c-3.8,0-5.8-2.2-5.8-6.2
		C3,284.6,3,271.9,3,271.9z M6.9,284.8c0,1.7,0.8,2.4,2,2.4s2-0.7,2-2.4v-13.2c0-1.7-0.8-2.4-2-2.4s-2,0.7-2,2.4V284.8z"/>
	<path class="st2" d="M20.6,272.7v17.7h-3.5v-24.5h4.8l4,14.7v-14.7h3.5v24.5h-4L20.6,272.7z"/>
	<path class="st2" d="M37.6,266h3.8v21h6.3v3.5H37.6V266z"/>
	<path class="st2" d="M49.4,266h3.8v24.5h-3.8V266z"/>
	<path class="st2" d="M67.6,271.6v0.9c0,2.5-0.8,4.1-2.5,4.9c2.1,0.8,2.9,2.7,2.9,5.2v2c0,3.8-2,5.8-5.8,5.8h-6.1v-24.5h5.8
		C65.9,266,67.6,267.8,67.6,271.6z M59.9,269.5v6.5h1.5c1.4,0,2.3-0.6,2.3-2.6V272c0-1.7-0.6-2.5-2-2.5H59.9z M59.9,279.5v7.5h2.2
		c1.3,0,2-0.6,2-2.4v-2.1c0-2.3-0.7-3-2.5-3H59.9z"/>
	<path class="st2" d="M78.3,290.5c-0.2-0.6-0.3-1-0.3-3v-3.8c0-2.3-0.8-3.1-2.5-3.1h-1.3v10h-3.8v-24.5h5.8c4,0,5.7,1.9,5.7,5.6v1.9
		c0,2.5-0.8,4.2-2.5,5c1.9,0.8,2.6,2.7,2.6,5.2v3.8c0,1.2,0,2.1,0.4,3h-4.1V290.5z M74.1,269.5v7.5h1.5c1.4,0,2.3-0.6,2.3-2.6V272
		c0-1.7-0.6-2.5-2-2.5H74.1z"/>
	<path class="st2" d="M96.8,290.5h-3.9l-0.7-4.4h-4.7l-0.7,4.4h-3.5l3.9-24.5h5.6L96.8,290.5z M88,282.7h3.7l-1.9-12.4L88,282.7z"/>
	<path class="st2" d="M106.6,290.5c-0.2-0.6-0.4-1-0.4-3v-3.8c0-2.3-0.8-3.1-2.5-3.1h-1.3v10h-3.8v-24.5h5.8c4,0,5.7,1.9,5.7,5.6
		v1.9c0,2.5-0.8,4.2-2.5,5c1.9,0.8,2.6,2.7,2.6,5.2v3.8c0,1.2,0,2.1,0.4,3h-4V290.5z M102.4,269.5v7.5h1.5c1.4,0,2.3-0.6,2.3-2.6
		V272c0-1.7-0.6-2.5-2-2.5H102.4z"/>
	<path class="st2" d="M115.9,282.4L111,266h4l2.9,11.2l2.9-11.2h3.7l-4.9,16.4v8.1h-3.8v-8.1H115.9z"/>
</g>
<g id="XMLID_4_" class="st0">
	<path class="st2" d="M-65.1,303.6h6.3c4,0,5.9,2.2,5.9,6.3v12.8c0,4.1-2,6.3-5.9,6.3h-6.3V303.6z M-61.2,307.2v18.1h2.2
		c1.3,0,2-0.7,2-2.5v-13.2c0-1.8-0.8-2.5-2-2.5h-2.2V307.2z"/>
	<path class="st2" d="M-50.4,303.6h4V329h-4V303.6z"/>
	<path class="st2" d="M-37.5,314.8h5.6v8.1c0,4.1-2,6.4-5.9,6.4s-5.9-2.3-5.9-6.4v-13.2c0-4.1,2-6.4,5.9-6.4s5.9,2.3,5.9,6.4v2.5
		h-3.8v-2.7c0-1.8-0.8-2.5-2.1-2.5s-2.1,0.7-2.1,2.5v13.7c0,1.8,0.8,2.5,2.1,2.5s2.1-0.7,2.1-2.5v-4.7h-1.8V314.8z"/>
	<path class="st2" d="M-29.3,303.6h4V329h-4V303.6z"/>
	<path class="st2" d="M-23.6,303.6h12.3v3.6h-4.2V329h-4v-21.8h-4.1V303.6z"/>
	<path class="st2" d="M2,329h-4l-0.7-4.6h-4.9l-0.7,4.6H-12l4.1-25.4h5.8L2,329z M-7.1,320.9h3.8l-1.9-12.8L-7.1,320.9z"/>
	<path class="st2" d="M3.9,303.6h4v21.8h6.5v3.6H3.9V303.6z"/>
	<path class="st2" d="M30.2,321.6l2.7-18h5.5V329h-3.8v-18.2L31.8,329H28l-3-18v18h-3.5v-25.4H27L30.2,321.6z"/>
	<path class="st2" d="M45.4,314.3h5.5v3.6h-5.5v7.4h6.9v3.6H41.4v-25.4h10.9v3.6h-6.9V314.3z"/>
	<path class="st2" d="M54.7,303.6H61c4,0,5.9,2.2,5.9,6.3v12.8c0,4.1-2,6.3-5.9,6.3h-6.3V303.6z M58.7,307.2v18.1h2.2
		c1.3,0,2-0.7,2-2.5v-13.2c0-1.8-0.8-2.5-2-2.5h-2.2V307.2z"/>
	<path class="st2" d="M69.5,303.6h4V329h-4V303.6z"/>
	<path class="st2" d="M89.3,329h-4l-0.7-4.6h-4.9L79,329h-3.6l4.1-25.4h5.8L89.3,329z M80.2,320.9H84l-1.9-12.8L80.2,320.9z"/>
	<path class="st2" d="M100.8,314.3h5.5v3.6h-5.5v7.4h6.9v3.6H96.8v-25.4h10.9v3.6h-6.9V314.3z"/>
	<path class="st2" d="M123.5,303.6l-4.2,12.3l4.5,13.1h-4.2l-3.3-10l-3.3,10h-3.7l4.5-13.1l-4.2-12.3h4.1l3,9.4l3.1-9.4H123.5z"/>
	<path class="st2" d="M137.6,309.9v3.3c0,4.1-2,6.3-5.9,6.3h-1.9v9.5h-4v-25.4h5.9C135.6,303.6,137.6,305.8,137.6,309.9z
		 M129.7,307.2v8.6h1.9c1.3,0,2-0.6,2-2.4v-3.8c0-1.8-0.7-2.4-2-2.4L129.7,307.2L129.7,307.2z"/>
	<path class="st2" d="M143.4,314.3h5.5v3.6h-5.5v7.4h6.9v3.6h-10.9v-25.4h10.9v3.6h-6.9V314.3z"/>
	<path class="st2" d="M161.1,329c-0.2-0.7-0.4-1.1-0.4-3.1v-4c0-2.4-0.8-3.2-2.6-3.2h-1.4V329h-4v-25.4h6c4.1,0,5.9,1.9,5.9,5.8v2
		c0,2.6-0.8,4.3-2.6,5.2c2,0.8,2.6,2.8,2.6,5.4v3.9c0,1.2,0,2.1,0.4,3.1L161.1,329L161.1,329z M156.7,307.2v7.8h1.6
		c1.5,0,2.4-0.7,2.4-2.7v-2.5c0-1.8-0.6-2.6-2-2.6H156.7z"/>
	<path class="st2" d="M167.3,303.6h4V329h-4V303.6z"/>
	<path class="st2" d="M178.2,314.3h5.5v3.6h-5.5v7.4h6.9v3.6h-10.9v-25.4h10.9v3.6h-6.9V314.3z"/>
	<path class="st2" d="M191.1,310.6V329h-3.6v-25.4h5l4.1,15.2v-15.2h3.6V329h-4.1L191.1,310.6z"/>
	<path class="st2" d="M214.6,319.5v3.4c0,4.1-2,6.4-5.9,6.4s-5.9-2.3-5.9-6.4v-13.2c0-4.1,2-6.4,5.9-6.4s5.9,2.3,5.9,6.4v2.5h-3.8
		v-2.7c0-1.8-0.8-2.5-2.1-2.5s-2.1,0.7-2.1,2.5v13.7c0,1.8,0.8,2.5,2.1,2.5s2.1-0.7,2.1-2.5v-3.6L214.6,319.5L214.6,319.5z"/>
	<path class="st2" d="M221,314.3h5.5v3.6H221v7.4h6.9v3.6H217v-25.4h10.9v3.6H221V314.3z"/>
</g>
</svg>
