<?xml version="1.0" encoding="utf-8"?>
<!-- Generator: Adobe Illustrator 19.0.0, SVG Export Plug-In . SVG Version: 6.00 Build 0)  -->
<svg version="1.1" id="Layer_1" xmlns="http://www.w3.org/2000/svg" xmlns:xlink="http://www.w3.org/1999/xlink" x="0px" y="0px"
	 viewBox="-2 -3 11 36" style="enable-background:new -2 -3 11 36;" xml:space="preserve">
<style type="text/css">
	.st0{fill:none;stroke:#050505;stroke-miterlimit:10;}
	.st1{fill:none;stroke:#000000;stroke-miterlimit:10;}
	.st2{fill:#050505;stroke:#050505;stroke-miterlimit:10;}
</style>
<line id="XMLID_3_" class="st0" x1="8.5" y1="4" x2="8.5" y2="26"/>
<line id="XMLID_36_" class="st0" x1="0.5" y1="4" x2="0.5" y2="26"/>
<line id="XMLID_33_" class="st1" x1="51.5" y1="3" x2="51.5" y2="27"/>
<path id="XMLID_5_" class="st0" d="M7.3,1.5H5.2H0c-0.4,0-0.7,0.5-0.7,1s0.3,1,0.7,1h5.1h2.2h1.2v-2H7.3z"/>
<path id="XMLID_2_" class="st0" d="M7.3,26.5H5.1h-5.2c-0.4,0-0.7,0.5-0.7,1s0.3,1,0.7,1h5.2h2.2h1.2v-2H7.3z"/>
<polyline id="XMLID_34_" class="st2" points="1.5,2 1.5,-0.5 8.5,-0.5 8.5,2 "/>
<polyline id="XMLID_35_" class="st2" points="8.5,29 8.5,30.5 1.5,30.5 1.5,28 "/>
</svg>
