<?xml version="1.0" encoding="utf-8"?>
<!-- Generator: Adobe Illustrator 19.0.0, SVG Export Plug-In . SVG Version: 6.00 Build 0)  -->
<svg version="1.1" id="Layer_1" xmlns="http://www.w3.org/2000/svg" xmlns:xlink="http://www.w3.org/1999/xlink" x="0px" y="0px"
	 viewBox="-2 -3 11 36" style="enable-background:new -2 -3 11 36;" xml:space="preserve">
<style type="text/css">
	.st0{fill:none;stroke:#D69F50;stroke-miterlimit:10;}
	.st1{fill:none;stroke:#000000;stroke-miterlimit:10;}
	.st2{fill:#D69F50;stroke:#D69F50;stroke-miterlimit:10;}
</style>
<line id="XMLID_3_" class="st0" x1="-1.5" y1="3.6" x2="-1.5" y2="26.4"/>
<line id="XMLID_36_" class="st0" x1="6.1" y1="3.6" x2="6.1" y2="26.4"/>
<line id="XMLID_33_" class="st1" x1="51.5" y1="3" x2="51.5" y2="27"/>
<path id="XMLID_5_" class="st0" d="M-0.2,1.2H2h5.1c0.4,0,0.8,0.5,0.8,0.9s-0.3,1-0.8,1H2h-2.2h-1.3V1.2H-0.2z"/>
<path id="XMLID_2_" class="st0" d="M-0.2,26.9H2h5.2c0.4,0,0.8,0.5,0.8,1c0,0.5-0.3,0.9-0.8,0.9H2h-2.2h-1.3v-1.9H-0.2z"/>
<polyline id="XMLID_34_" class="st2" points="5.1,1.7 5.1,-0.7 -1.5,-0.7 -1.5,1.7 "/>
<polyline id="XMLID_35_" class="st2" points="-1.5,29.2 -1.5,30.7 5.1,30.7 5.1,28.3 "/>
</svg>
