<?xml version="1.0" encoding="utf-8"?>
<!-- Generator: Adobe Illustrator 19.0.0, SVG Export Plug-In . SVG Version: 6.00 Build 0)  -->
<svg version="1.1" id="Layer_1" xmlns="http://www.w3.org/2000/svg" xmlns:xlink="http://www.w3.org/1999/xlink" x="0px" y="0px"
	 viewBox="0 0 50 50" style="enable-background:new 0 0 50 50;" xml:space="preserve">
<style type="text/css">
	.st0{fill:#707D95;stroke:#D69F50;stroke-miterlimit:10;}
	.st1{fill:#182228;}
	.st2{fill:#7A1A11;stroke:#EEE2CF;stroke-miterlimit:10;}
	.st3{fill:#AEC3A4;stroke:#D69F50;stroke-miterlimit:10;}
	.st4{fill:#E5DBCB;}
	.st5{fill:#7A1A11;}
</style>
<g id="XMLID_140_">
	<g id="XMLID_136_">
		<path id="XMLID_137_" class="st0" d="M20,14l-3.7-8.3c0,0,0.5-1.6,1.7-1.6c0,0,4.9,0,5.9-2.7c0,0,1.3,2.4,4.4,2.2s3.6,2.3,3.6,2.3
			l-2.8,7.6"/>
		<path id="XMLID_139_" class="st1" d="M26.3,13.2l1-4.3c0,0,0.3-1.3-1-1.8c-1.3-0.5-2-0.9-2-0.9s-0.7,0.4-2,0.9
			c-1.3,0.5-1,1.8-1,1.8l1,4.3"/>
		<path id="XMLID_138_" class="st2" d="M23.7,12.8l-0.4-3.1c0,0-0.1-1,0.9-1s1,1,1,1l-0.3,3.2"/>
	</g>
	<g id="XMLID_141_">
		<path id="XMLID_146_" class="st3" d="M28.7,14.3l3.2-8.5c0,0,1.5-0.7,2.4,0c0,0,4,2.8,6.6,2.3c0,0-1.2,2.5,1.2,4.6
			c2.4,2.1,0.9,4.1,0.9,4.1l-7.3,3.5"/>
		<path id="XMLID_145_" class="st1" d="M33.8,18.2l3.7-2.4c0,0,1.1-0.7,0.5-2s-0.9-2-0.9-2s-0.8-0.3-2.1-0.8c-1.3-0.6-2,0.6-2,0.6
			l-2.3,3.8"/>
		<path id="XMLID_144_" class="st2" d="M32.3,16l1.8-2.5c0,0,0.7-0.8,1.4-0.1s0,1.4,0,1.4L33,17"/>
	</g>
	<g id="XMLID_155_">
		<path id="XMLID_158_" class="st0" d="M34.8,20.7l8.2-3.9c0,0,1.6,0.5,1.7,1.6c0,0,0.4,4.8,2.9,5.5c0,0-2.3,1.7-2.1,4.8
			c0.3,3.1-2.2,3.6-2.2,3.6l-7.7-2.6"/>
		<path id="XMLID_157_" class="st1" d="M35.7,27l4.4,0.9c0,0,1.3,0.3,1.7-1.1c0.5-1.3,0.8-2.1,0.8-2.1s-0.4-0.7-0.9-2
			c-0.5-1.3-1.8-1-1.8-1l-4.3,1.1"/>
		<path id="XMLID_156_" class="st2" d="M36.1,24.4l3-0.5c0,0,1-0.1,1,0.9s-1,1-1,1L36,25.6"/>
	</g>
	<g id="XMLID_167_">
		<path id="XMLID_170_" class="st3" d="M34.7,29.3l8.6,3c0,0,0.8,1.5,0,2.4c0,0-2.5,3.7-1.5,6.3c0,0-3.1-0.8-5.2,1.6
			c-2,2.4-4.1,1-4.1,1l-3.6-7.2"/>
		<path id="XMLID_169_" class="st1" d="M31,34.5l2.5,3.7c0,0,0.7,1.1,2,0.5c1.2-0.6,2-0.9,2-0.9s0.2-0.8,0.8-2.1
			c0.5-1.3-0.6-1.9-0.6-1.9l-3.9-2.2"/>
		<path id="XMLID_168_" class="st2" d="M33,32.9l2.5,1.8c0,0,0.8,0.6,0.1,1.4c-0.7,0.7-1.4,0-1.4,0l-2.2-2.4"/>
	</g>
	<g id="XMLID_163_">
		<path id="XMLID_166_" class="st0" d="M28.9,35.5l3.9,8.2c0,0-0.5,1.6-1.6,1.7c0,0-5.4,0.6-5.7,2.7c0,0-1.3-2.1-4.4-1.8
			c-3.1,0.3-3.6-2.2-3.6-2.2l3.2-8.9"/>
		<path id="XMLID_165_" class="st1" d="M22.7,36.5l-0.8,4.4c0,0-0.2,1.3,1,1.7c1.3,0.4,2,0.8,2,0.8s0.7-0.4,2-0.9
			c1.3-0.5,0.9-1.8,0.9-1.8l-1.1-4.3"/>
		<path id="XMLID_164_" class="st2" d="M25.3,36.9l0.5,3c0,0,0.1,1-0.9,1c-1,0-1-1-1-1l0.2-3.2"/>
	</g>
	<g id="XMLID_159_">
		<path id="XMLID_162_" class="st3" d="M20.8,35.7l-3.4,8.4c0,0-1.5,0.7-2.4-0.1c0,0-4.5-3.4-6.7-2.4c0,0,1.4-2.5-0.9-4.6
			s-0.8-4.2-0.8-4.2l7.4-3.3"/>
		<path id="XMLID_161_" class="st1" d="M15.8,31.7L11.9,34c0,0-1.1,0.7-0.6,2c0.6,1.3,0.8,2.1,0.8,2.1s0.8,0.3,2,0.9
			c1.3,0.6,2-0.5,2-0.5l2.4-3.7"/>
		<path id="XMLID_160_" class="st2" d="M17.3,33.9l-1.9,2.4c0,0-0.7,0.7-1.4,0c-0.7-0.7,0-1.4,0-1.4l2.5-2"/>
	</g>
	<g id="XMLID_147_">
		<path id="XMLID_150_" class="st3" d="M20,14l-3.7-8.3c0,0-1.5-0.7-2.4,0.1c0,0-3.7,3.2-6.2,2.5c0,0,1.1,2.6-1.1,4.8
			s-0.7,4.2-0.7,4.2l7.5,3"/>
		<path id="XMLID_149_" class="st1" d="M15.1,18.1L11.2,16c0,0-1.1-0.6-0.6-1.9c0.5-1.3,0.7-2.1,0.7-2.1s0.8-0.3,2-0.9s2,0.4,2,0.4
			l2.5,3.7"/>
		<path id="XMLID_148_" class="st2" d="M16.5,15.9l-2-2.4c0,0-0.7-0.7-1.4,0c-0.7,0.7,0.1,1.4,0.1,1.4l2.6,2"/>
	</g>
	<g id="XMLID_151_">
		<path id="XMLID_154_" class="st0" d="M14.3,20.7l-8.4-3.4c0,0-1.5,0.6-1.6,1.7c0,0-0.6,4.8-3,5.8c0,0,2.8,1.4,2.8,4.6
			c-0.1,3.1,2.4,3.5,2.4,3.5l7.5-3"/>
		<path id="XMLID_153_" class="st1" d="M13.7,27l-4.3,1.2c0,0-1.3,0.3-1.8-0.9c-0.5-1.3-0.9-2-0.9-2s0.3-0.8,0.8-2.1
			c0.4-1.3,1.7-1.1,1.7-1.1l4.4,0.9"/>
		<path id="XMLID_152_" class="st2" d="M13.2,24.5l-3.1-0.3c0,0-1,0-1,1c0,1,1,1,1,1l3.2-0.4"/>
	</g>
	<circle id="XMLID_143_" class="st4" cx="25.5" cy="24.3" r="12.8"/>
	<circle id="XMLID_142_" class="st5" cx="25.5" cy="24.3" r="11.5"/>
</g>
</svg>
