<?xml version="1.0" encoding="utf-8"?>
<!-- Generator: Adobe Illustrator 19.0.0, SVG Export Plug-In . SVG Version: 6.00 Build 0)  -->
<svg version="1.1" id="Layer_1" xmlns="http://www.w3.org/2000/svg" xmlns:xlink="http://www.w3.org/1999/xlink" x="0px" y="0px"
	 viewBox="-26.5 13.5 55 55" style="enable-background:new -26.5 13.5 55 55;" xml:space="preserve">
<style type="text/css">
	.st0{fill:#182228;stroke:#BC904A;stroke-width:1.4;stroke-miterlimit:10;}
	.st1{fill:#7A1A11;}
	.st2{fill:none;stroke:#BC904A;stroke-width:1.4;stroke-miterlimit:10;}
	.st3{fill:#BC904A;stroke:#BC904A;stroke-width:1.4;stroke-miterlimit:10;}
	.st4{fill:none;stroke:#BC904A;stroke-miterlimit:10;}
	.st5{fill:none;stroke:#BC904A;stroke-width:0.5;stroke-miterlimit:10;}
</style>
<g id="XMLID_842_">
</g>
<circle id="XMLID_488_" class="st0" cx="1" cy="41.5" r="25.5"/>
<path id="XMLID_494_" class="st1" d="M17.3,41.5c0-9-7.3-16.3-16.3-16.3s-16.3,7.3-16.3,16.3c0,6.4,3.7,12,9.1,14.6l-3.5,7.7
	c0,0,8.7,5.4,20.4,0.5l0.3-0.1l-3.5-7.7C13.3,54,17.3,48.2,17.3,41.5z"/>
<g id="XMLID_1379_">
	<path id="XMLID_1395_" class="st2" d="M-16.4,38.5c0,0,13.7,1.1,22.7,0.6s12.1-0.6,12.1-0.6l-6.6,3.3v8.1h-22.8l0.3-7.4l0.3-0.3
		v-0.4L-16.4,38.5z"/>
	<path id="XMLID_1394_" class="st3" d="M18.3,38.5v-1.1h-0.8v-0.6c0,0,0,0-1,0.2c-1,0.2-8.7-1.2-8.7-1.2L7,35.4v-0.5
		c-0.2-1.2-1.1-1.2-1.1-1.2V34L5,34.4c0,0,0.6-0.2,0.9,0.2c0.2,0.3-0.5,0.6-0.5,0.6s-3.2,0.1-4.6,0.2c-1.4,0.1-5.3-0.1-5.3-0.4
		c-0.1-0.3,0.8-0.7,0.8-0.7L-4.6,34l-0.3-0.2c-1.2,0.2-1,1.7-1,1.7c-2.6,0.9-10.5,1.3-10.5,1.3l0.3,0.7h-1.1l0.8,1.1
		C-16.4,38.5,9.2,39.4,18.3,38.5z"/>
	<polyline id="XMLID_1393_" class="st4" points="-3.7,49.9 -3.7,42 -5.3,39 	"/>
	<polyline id="XMLID_1392_" class="st4" points="-4.6,49.9 -4.6,42 -7.6,39 	"/>
	<polyline id="XMLID_1391_" class="st4" points="5.1,49.9 5.1,42 8.2,39 	"/>
	<polyline id="XMLID_1390_" class="st4" points="4.3,49.9 4.3,42 5.1,39.1 	"/>
	<line id="XMLID_1389_" class="st2" x1="-10.8" y1="42.4" x2="-4.6" y2="42.4"/>
	<line id="XMLID_1387_" class="st2" x1="-3.7" y1="42.4" x2="4.3" y2="42.4"/>
	<line id="XMLID_1386_" class="st2" x1="5.1" y1="42.4" x2="11.7" y2="42.4"/>
	<line id="XMLID_1385_" class="st5" x1="-10" y1="64.6" x2="-3.3" y2="49.9"/>
	<line id="XMLID_1384_" class="st5" x1="11.2" y1="64.6" x2="4.4" y2="49.9"/>
	<line id="XMLID_1383_" class="st5" x1="-4.8" y1="53.2" x2="6.1" y2="53.2"/>
	<path id="XMLID_1382_" class="st5" d="M-5.6,56.1c0,0,3.4,0.4,6.3,0.4S7,56.1,7,56.1"/>
	<path id="XMLID_1381_" class="st5" d="M-7.6,58.8c0,0,3.5,1,8.3,1c4.4,0,8.1-1,8.1-1"/>
	<path id="XMLID_1380_" class="st5" d="M-8.3,61.7c0,0,4.2,1.8,8.9,1.8c4.9,0,9.2-1.4,9.2-1.4"/>
</g>
</svg>
