<?xml version="1.0" encoding="utf-8"?>
<!-- Generator: Adobe Illustrator 19.0.0, SVG Export Plug-In . SVG Version: 6.00 Build 0)  -->
<svg version="1.1" id="Layer_1" xmlns="http://www.w3.org/2000/svg" xmlns:xlink="http://www.w3.org/1999/xlink" x="0px" y="0px"
	 viewBox="-26.5 13.5 55 55" style="enable-background:new -26.5 13.5 55 55;" xml:space="preserve">
<style type="text/css">
	.st0{fill:#182228;stroke:#BC904A;stroke-width:1.4;stroke-miterlimit:10;}
	.st1{fill:#7A1A11;}
	.st2{fill:none;stroke:#BC904A;stroke-miterlimit:10;}
	.st3{fill:#BC904A;}
</style>
<g id="XMLID_842_">
</g>
<circle id="XMLID_1029_" class="st0" cx="0.9" cy="40.8" r="25.5"/>
<path id="XMLID_1031_" class="st1" d="M17.2,40.8c0-9-7.3-16.3-16.3-16.3c-9,0-16.3,7.3-16.3,16.3c0,5.8,3,10.9,7.6,13.8v2.7H2.5
	h7.9l-0.8-2.7C14.2,51.6,17.2,46.5,17.2,40.8z"/>
<g id="XMLID_1366_">
	<polyline id="XMLID_1378_" class="st2" points="9.3,47.3 10.5,56.3 2.8,57.2 	"/>
	<polyline id="XMLID_1377_" class="st2" points="-10.3,42.3 -4.7,40.5 1.7,39.7 3.3,40.9 2,46.1 2.8,57.2 -8.2,56.7 -7.5,46.8 
		2,46.1 9.3,47.3 12.1,42.8 3.3,40.9 -10.3,42.3 -10.3,43.9 -7.6,48 	"/>
	<polyline id="XMLID_1376_" class="st2" points="6.1,40.8 5.9,39.4 7.3,37.6 1.5,36 -5.5,37.1 -6.2,39.5 -4.7,40.5 -4.3,39.2 
		1.5,38.3 1.7,39.7 6.6,40.9 12.1,42.8 	"/>
	<line id="XMLID_1375_" class="st2" x1="5.9" y1="39.4" x2="1.5" y2="38.3"/>
	<polyline id="XMLID_1374_" class="st2" points="-4.2,36.9 -4,32.9 -5,30.5 0.9,29.3 5.9,31.2 4.7,33.5 5,36.9 	"/>
	<polyline id="XMLID_1373_" class="st2" points="-5,30.5 -5.4,33.7 -4.1,34.7 	"/>
	<polyline id="XMLID_1372_" class="st2" points="-4,32.9 1.1,32.2 1.5,36 	"/>
	<polyline id="XMLID_1371_" class="st2" points="0.9,29.3 1.1,32.2 4.9,33.1 	"/>
	<polyline id="XMLID_1370_" class="st2" points="-2.5,30 -3,29.3 -0.3,27.5 2.9,28.8 2.4,29.9 	"/>
	<polyline id="XMLID_1369_" class="st2" points="-2.6,28.8 -3,27.5 0.9,26.8 2.5,28.1 2.4,28.5 	"/>
	<polyline id="XMLID_1368_" class="st2" points="-1.5,27.2 -1.2,24.9 -0.3,23.6 0.2,23.6 1.2,25 1.5,27.3 	"/>
	<path id="XMLID_1367_" class="st3" d="M4.9,57l-0.4-5.5c0,0-0.3-2.2,1.3-2.5s2.2,2.1,2.2,3.3c0.1,1.1,0.3,4.3,0.3,4.3"/>
</g>
</svg>
