<?xml version="1.0" encoding="utf-8"?>
<!-- Generator: Adobe Illustrator 19.0.0, SVG Export Plug-In . SVG Version: 6.00 Build 0)  -->
<svg version="1.1" id="Layer_1" xmlns="http://www.w3.org/2000/svg" xmlns:xlink="http://www.w3.org/1999/xlink" x="0px" y="0px"
	 viewBox="0 0 60 70" style="enable-background:new 0 0 60 70;" xml:space="preserve">
<style type="text/css">
	.st0{fill:#BC904A;}
	.st1{fill:#424B50;}
</style>
<g id="XMLID_288_">
	<g id="XMLID_295_">
		<path id="XMLID_284_" class="st0" d="M51.9,47.6c0,0,2.9-0.8,3.1,2.5c0.2,4.2-5.3,5.8-7.1,6.6c-2.2,1-3.7,0.3-3.7,0.3
			s-7.1-1.9-6.9-6.7c0,0-0.5-2,2.4-2.3"/>
	</g>
	<g id="XMLID_294_">
		<path id="XMLID_307_" class="st1" d="M45.3,56.9c0,0-2.6-2-0.9-4.8c0,0,1.7-1.5,2.7,0c1,1.5,0.6,3.3-0.6,4.8
			C46.4,56.9,45.9,57.5,45.3,56.9z"/>
	</g>
	<g id="XMLID_292_">
		<path id="XMLID_305_" class="st0" d="M45.4,53.1c0,0-1,1,0.2,2.9c0,0,0.3,0,0.5-1.4C46.3,53.2,45.4,53.1,45.4,53.1z"/>
	</g>
	<g id="XMLID_296_">
		<path id="XMLID_282_" class="st0" d="M41.9,51.4c0,0-4-4-1.2-6.5c2.7-2.5,3.3-0.4,5-2.6c0,0,1.2,1.2,3.6,1.4
			c1.6,0.2,2.7,2.1,2.7,3.9c0,1-0.4,1.9-1.2,2.6l-0.6,0.7"/>
		<path id="XMLID_283_" class="st1" d="M41.9,51.7c-0.1,0-0.2,0-0.3-0.1c-0.1-0.1-2.4-2.4-2.3-4.8c0-0.9,0.4-1.7,1.1-2.3
			c1.5-1.4,2.4-1.4,3.2-1.5c0.6-0.1,1.1-0.1,1.8-1.1c0.1-0.1,0.2-0.1,0.3-0.2c0.1,0,0.2,0,0.3,0.1c0,0,1.2,1.1,3.3,1.3
			c1.9,0.2,3.1,2.4,3,4.3c0,1.2-0.5,2.2-1.3,2.9l-0.6,0.7c-0.1,0.2-0.4,0.2-0.5,0c-0.2-0.1-0.2-0.4,0-0.5l0.6-0.7
			c0.9-0.7,1.1-1.7,1.1-2.4c0-1.8-1-3.4-2.3-3.5c-1.8-0.2-2.9-0.9-3.5-1.3c-0.8,0.9-1.4,1-2.1,1.1c-0.7,0.1-1.4,0.1-2.7,1.3
			c-0.5,0.5-0.8,1.1-0.8,1.8c-0.1,2,2.1,4.2,2.1,4.2c0.1,0.2,0.1,0.4,0,0.5C42.1,51.7,42,51.7,41.9,51.7z"/>
	</g>
</g>
<polygon id="XMLID_291_" class="st0" points="307.5,842.5 308.3,843.7 311.9,843.7 310.7,841.8 "/>
<path id="XMLID_74_" class="st0" d="M49.5,55.5c-0.7-0.2-1.5-0.3-2.3-0.3c-2.4,0-4.8,0.9-7.3,2.7c-5.6,4-10.1,5.9-13.9,5.9
	c-0.7,0-1.3-0.1-2-0.2c-3.2-0.6-6-3-8.7-7.3c-1.9-3.1-1.7-10.8,0.6-22.1c1.9-9.2,4.8-19.1,6.7-24.7l0-0.1l-3.8-1.2l0,0
	c-0.1,0.4-3.4,10-5.9,20.8c-0.9,3.7-1.5,7.1-2,10.2C10.2,29,12,14.7,13.4,6.4L9.5,5.2C8.2,12.7,3.8,41.6,10.1,51
	c0.2,3.2,0.8,5.7,1.8,7.4c3.2,5.3,6.9,8.2,11.3,9.1c0.9,0.2,1.8,0.3,2.7,0.3c4.7,0,10-2.2,16.2-6.6c1.8-1.3,3.5-2,5-2
	c0.4,0,0.8,0.1,1.2,0.2c1.1,0.3,2.1,1,2.8,1.7l4.3-1.1C54.4,58.4,52.4,56.2,49.5,55.5z"/>
<g id="XMLID_69_">
	<path id="XMLID_70_" class="st1" d="M48.6,58.8c-0.4-0.1-0.9-0.2-1.3-0.2c-1.6,0-3.4,0.7-5.3,2.1c-6.2,4.4-11.4,6.5-15.9,6.5
		c-0.9,0-1.8-0.1-2.6-0.3c-4.2-0.8-7.8-3.8-10.9-8.9c-1-1.7-1.6-4.1-1.7-7.3C4.4,41.8,8.7,13.2,10,5.4c0,0,0-0.1,0-0.1L9.1,5
		C8.5,8.3,7.3,15.7,6.7,23.8c-1,13.6-0.1,22.8,2.9,27.4c0.2,3.2,0.8,5.7,1.9,7.5c3.3,5.4,7.1,8.4,11.6,9.3c0.9,0.2,1.9,0.3,2.8,0.3
		c4.8,0,10.2-2.2,16.5-6.7c1.7-1.2,3.3-1.9,4.8-1.9c0.4,0,0.7,0,1.1,0.1c0.9,0.2,1.7,0.8,2.3,1.4l1.2-0.2
		C51.4,60.3,50.5,59.3,48.6,58.8z"/>
	<path id="XMLID_71_" class="st1" d="M51.9,61L51.9,61c0.3,0.4,0.4,0.7,0.4,0.7l3.6,0c0,0-0.1-0.3-0.3-0.6L51.9,61z"/>
	<path id="XMLID_72_" class="st1" d="M55.2,58.8c-1.2-1.4-3-3.1-5.7-3.8c-0.8-0.2-1.6-0.3-2.4-0.3c-2.5,0-5,0.9-7.6,2.8
		c-5.5,3.9-9.9,5.8-13.6,5.8c-0.6,0-1.3-0.1-1.9-0.2c-3.1-0.6-5.8-2.9-8.3-7.1c-3.9-6.4,2.5-31.9,7.4-46.4l0-0.1L18.5,8
		c-0.1,0.4-3.4,10-5.9,20.8c-0.5,2-0.9,3.9-1.2,5.7c-0.1-9.5,1.4-20.9,2.6-28l-1-0.3c0,0,0,0.1,0,0.1c-1.6,9.2-3.7,26.5-1.9,36.7
		c0.5-4,1.3-8.7,2.5-14C16,18.2,19.4,8.4,19.4,8.3l2.8,1c-3.6,10.6-12,39.7-7.3,47.3c2.7,4.4,5.6,6.8,9,7.5c0.7,0.1,1.4,0.2,2.1,0.2
		c3.9,0,8.5-2,14.2-6c2.4-1.7,4.8-2.6,7.1-2.6c0.7,0,1.4,0.1,2.1,0.3c3.4,0.9,5.5,3.8,6.2,5.1l1.2,0C56.7,61,56.2,60,55.2,58.8z"/>
</g>
<polygon id="XMLID_40_" class="st0" points="51.6,60.6 52.3,61.7 56,61.7 54.8,59.9 "/>
</svg>
