<?xml version="1.0" encoding="utf-8"?>
<!-- Generator: Adobe Illustrator 19.0.0, SVG Export Plug-In . SVG Version: 6.00 Build 0)  -->
<svg version="1.1" id="Layer_1" xmlns="http://www.w3.org/2000/svg" xmlns:xlink="http://www.w3.org/1999/xlink" x="0px" y="0px"
	 viewBox="0 0 100 87" style="enable-background:new 0 0 100 87;" xml:space="preserve">
<style type="text/css">
	.st0{fill:none;stroke:#BC904A;stroke-miterlimit:10;}
	.st1{fill:none;stroke:#BC904A;stroke-width:4;stroke-miterlimit:10;}
	.st2{fill:#BC904A;}
	.st3{fill:#424B50;}
	.st4{fill:none;stroke:#424B50;stroke-width:0.75;stroke-miterlimit:10;}
	.st5{fill:#707D95;}
	.st6{fill:#EEE2CF;}
	.st7{fill:#7A1A11;}
	.st8{fill:#AEC3A4;}
	.st9{fill:#B55C39;}
	.st10{fill:#D5E7DE;}
	.st11{fill:none;stroke:#D69F50;stroke-miterlimit:10;}
	.st12{fill:none;stroke:#7A1A11;stroke-miterlimit:10;}
</style>
<rect id="XMLID_330_" x="10.5" y="35.6" class="st0" width="86.1" height="331.1"/>
<rect id="XMLID_329_" x="13.6" y="39" class="st0" width="80" height="324.6"/>
<rect id="XMLID_328_" x="17.6" y="42.9" class="st1" width="71.6" height="316.6"/>
<g id="XMLID_853_">
	<g id="XMLID_861_">
		<path id="XMLID_862_" class="st2" d="M12.2,53.3c0,0,1.9-0.9,2.4,1.3c0.7,2.8-2.8,4.6-3.9,5.4c-1.3,0.9-2.4,0.7-2.4,0.7
			s-5-0.4-5.5-3.6c0,0-0.6-1.3,1.3-1.8"/>
	</g>
	<g id="XMLID_859_">
		<path id="XMLID_860_" class="st3" d="M8.9,60.4c0,0-2-1-1.2-3.1c0,0,0.9-1.3,1.8-0.3c0.8,0.9,0.9,2.2,0.2,3.3
			C9.7,60.2,9.4,60.7,8.9,60.4z"/>
	</g>
	<g id="XMLID_857_">
		<path id="XMLID_858_" class="st2" d="M8.5,57.8c0,0-0.6,0.8,0.5,1.9c0,0,0.2,0,0.1-1C9.1,57.8,8.5,57.8,8.5,57.8z"/>
	</g>
	<g id="XMLID_854_">
		<path id="XMLID_856_" class="st2" d="M6,57.1c0,0-3.2-2.2-1.7-4.2s2.2-0.7,3-2.4c0,0,1,0.6,2.6,0.5c1.1-0.1,2.1,1,2.3,2.3
			c0.1,0.7,0,1.3-0.5,1.9l-0.3,0.6"/>
		<path id="XMLID_855_" class="st3" d="M6,57.4c-0.1,0-0.1,0-0.2,0c-0.1-0.1-1.9-1.3-2.2-2.9c-0.1-0.6,0-1.2,0.4-1.7
			c0.8-1.1,1.4-1.3,1.9-1.4c0.4-0.1,0.7-0.2,1-0.9c0-0.1,0.1-0.1,0.2-0.1c0.1,0,0.2,0,0.2,0c0,0,0.9,0.6,2.4,0.5
			c1.3-0.1,2.4,1.2,2.6,2.5c0.1,0.8-0.1,1.5-0.5,2.1l-0.3,0.5c-0.1,0.1-0.2,0.2-0.4,0.1c-0.1-0.1-0.2-0.2-0.1-0.4l0.3-0.6
			c0.5-0.6,0.5-1.3,0.4-1.7c-0.2-1.2-1.1-2.2-2-2.1c-1.2,0.1-2.1-0.2-2.5-0.4c-0.4,0.7-0.8,0.8-1.2,1c-0.4,0.1-0.9,0.3-1.6,1.2
			c-0.3,0.4-0.4,0.8-0.3,1.3c0.2,1.4,1.9,2.5,1.9,2.6c0.1,0.1,0.1,0.2,0.1,0.4C6.2,57.3,6.1,57.3,6,57.4z"/>
	</g>
</g>
<path id="XMLID_783_" class="st4" d="M12.2,53.3c0,0,2.4-1.2,2.5,2.1c0,0-0.1,2.4-3.4,4.3"/>
<path id="XMLID_904_" class="st2" d="M61.6,47.8l-2.7,0.5c0.5,3.1,1.1,10.7-1.4,14.3c-1-6-7.8-12.8-8.1-13.1c-0.5-0.5-1.4-0.5-1.9,0
	c-0.5,0.5-0.5,1.4,0,1.9c2.1,2,7.5,8.3,7.4,12.6c0,1.1-0.4,2-1.2,2.7c-5.2,4.9-15.1,1.2-24.7-2.4c-8.8-3.3-17.2-6.4-22.6-3.2
	c-2.7,1.6-4.3,4.4-4.9,8.7l0,0.1l0,0.1c0,0.4,0.7,9.5,8.1,16.2c0.2,0.2,0.4,0.2,0.6,0.3V83c-5-5.3-5.8-12-5.9-13
	c0.5-3.3,1.7-5.5,3.6-6.6c4.3-2.5,12.4,0.5,20.3,3.4c10.3,3.9,21,7.8,27.5,1.8c0.7-0.7,1.2-1.4,1.6-2.3c3-1.5,4.6-5.2,4.9-10.8
	C62.2,51.6,61.6,48,61.6,47.8z"/>
<path id="XMLID_898_" class="st3" d="M9.5,86.5c-7.5-6.7-8.2-16-8.2-16.4l0-0.1l0-0.2c0.7-4.4,2.3-7.3,5-8.9
	c5.5-3.2,13.9-0.1,22.8,3.2c9.5,3.5,19.3,7.2,24.4,2.5c0.7-0.7,1.1-1.5,1.1-2.5c0.1-4.2-5.3-10.4-7.3-12.4c-0.6-0.6-0.6-1.7,0-2.3
	c0.6-0.6,1.7-0.6,2.3,0c0.3,0.3,6.7,6.6,8,12.5c2.1-3.8,1.5-11,1-13.5l0-0.3l3.2-0.5l0,0.3c0,0.2,0.6,3.8,0.4,7.8
	c-0.3,5.7-1.9,9.4-4.9,11c-0.4,0.9-0.9,1.6-1.6,2.3C49.2,75,38.4,71,28,67.1c-7.8-2.9-15.8-5.9-20-3.4c-1.8,1.1-2.9,3.1-3.5,6.4
	c0.1,0.9,0.9,7.4,5.7,12.6 M10.2,83.4C4.9,77.9,4.1,70.9,4,70.1l0,0l0,0c0.5-3.4,1.8-5.6,3.7-6.8c4.4-2.6,12.6,0.5,20.5,3.4
	c10.3,3.8,20.9,7.8,27.2,1.9c0.7-0.6,1.2-1.4,1.5-2.2l0-0.1l0.1,0c2.9-1.5,4.5-5.1,4.7-10.6c0.2-3.4-0.3-6.6-0.4-7.5l-2.2,0.4
	c0.6,3.5,0.9,10.7-1.5,14.2l-0.4,0.5l-0.1-0.6c-1-5.9-7.7-12.6-8-12.9c-0.4-0.4-1.1-0.4-1.6,0c-0.4,0.4-0.4,1.1,0,1.6
	c2.1,2.1,7.5,8.4,7.5,12.8c0,1.2-0.4,2.1-1.2,2.9c-5.3,5-15.3,1.2-24.9-2.3C22.8,62.3,16.8,60,12,60c-2,0-3.8,0.4-5.4,1.3
	c-2.6,1.5-4.2,4.3-4.8,8.5l0,0.1l0,0.1c0,0.4,0.6,9.4,8,16"/>
<g id="XMLID_444_">
	<g id="XMLID_447_">
		<g id="XMLID_511_">
			<path id="XMLID_37_" class="st5" d="M89.6,28.2c0.7-0.1,5.8,1.6,5.4,6.3c-0.3,4.7-7.5,5.6-7.5,5.6c-0.1-0.4-0.1-0.9-0.3-1.4
				c0,0-1.9-9.8-15.8-5.5c0.3-0.6,0.6-1.2,0.7-1.9h0c0.9-1.9,4.4-3,4.4-3c-2.6-0.4-4.2,0.5-4.2,0.5l-0.1,0c-0.1-0.5-0.2-0.9-0.3-1.3
				c0.7-2.9,6-10.2,12.9-9.7C91.9,18.3,89.6,28.2,89.6,28.2z"/>
			<path id="XMLID_34_" class="st5" d="M65.5,16.2c-2.7,0.8-4.1,3.3-4.1,3.3c-2.1-0.6-4.3-0.9-6.7-1c0,0-1.1-2.3-0.8-4
				c0.3-2,0.5-6.4,5.8-8.4s9.1,4.5,9.1,4.5s3.3-2,7.4-2.1c4.1-0.1,4.7,6.4,4.7,6.4s-8.8,4.6-9.5,10.8c-1.5-2.3-4.2-4.2-7.7-5.5
				C64.1,17.1,65.1,16.4,65.5,16.2z M65.5,16.2c0,0,0.1,0,0.1,0C65.6,16.2,65.6,16.2,65.5,16.2z"/>
			<path id="XMLID_33_" class="st6" d="M76.6,28.3c0,0-3.4,1.1-4.4,3h0c0.1-0.5,0.2-1,0.2-1.6c0-0.3,0-0.6-0.1-0.9l0.1,0
				C72.4,28.7,74.1,27.9,76.6,28.3z"/>
			<path id="XMLID_32_" class="st3" d="M72,27.4c-0.2-0.6-0.5-1.1-0.8-1.7v0c0.7-6.2,9.5-10.8,9.5-10.8c1.2-0.2,2.3-0.4,3.3-0.4
				C94.7,14.3,93.2,26,93.2,26c5.9,0.8,5.5,7.4,5.5,7.4c-1,8.9-10.8,8.6-11.1,8.6c0-0.6,0-1.2-0.1-1.9c0,0,7.2-0.9,7.5-5.6
				c0.3-4.7-4.8-6.4-5.4-6.3c0,0,2.3-9.9-4.7-10.4C78,17.2,72.7,24.5,72,27.4z"/>
			<path id="XMLID_31_" class="st3" d="M71.5,33.2c13.9-4.3,15.8,5.5,15.8,5.5c0.1,0.5,0.2,0.9,0.3,1.4c0.1,0.7,0.1,1.3,0.1,1.9
				c-0.3,8-10.4,8-10.4,8C72.5,57.7,65.6,53,65.6,53c0.7-0.8,1.1-1.8,1.2-2.8h0c0,0,6.8,3.8,8.8-4.2c0,0,5.6,1.8,8-2.7
				c2.4-4.5-1.6-8.7-6.1-8.8c-4.5-0.1-7.1,0.2-7.1,0.2C70.9,34.2,71.2,33.7,71.5,33.2z"/>
			<path id="XMLID_30_" class="st6" d="M66.9,37.6c0.8-0.5,1.5-1,2.2-1.5c2.1,2.7,2.2,5.3,2.2,5.3C69.2,38.3,66.9,37.6,66.9,37.6
				L66.9,37.6z"/>
			<path id="XMLID_29_" class="st5" d="M66.8,50.2c0.5-3.4-1.9-7.5-8-9.8v0c3.1-0.5,5.8-1.5,8-2.8v0c0,0,2.3,0.7,4.3,3.8
				c0,0,0-2.7-2.2-5.3c0.5-0.4,1-0.9,1.4-1.4c0,0,2.7-0.3,7.1-0.2c4.5,0.1,8.4,4.3,6.1,8.8c-2.4,4.5-8,2.7-8,2.7
				C73.6,54,66.8,50.2,66.8,50.2L66.8,50.2z"/>
			<path id="XMLID_28_" class="st5" d="M65.6,16.2c0,0-0.1,0-0.1,0C65.6,16.2,65.6,16.2,65.6,16.2z"/>
			<path id="XMLID_27_" class="st7" d="M44.4,39.1c-4.7-1.7-7.7-4.8-7.7-8.5c0-5.7,7.2-9.8,16.8-9.8c9.6,0,16.5,3.8,16.5,9.5
				c0,3.9-3.3,7.3-8.5,9.1l-0.1-0.2c2.4-1.3,2.9-2.4,3.1-3.3c0.1-0.5,0.1-0.8,0.1-0.8c-0.8-4.6-4.4-3-4.4-3c0,0,0,0,0,0
				c0-0.5,0-1.2-0.2-1.9c-0.6-2.4-7.2-3.9-7.5-4c0.1,0.1,2.2,1.2-2.9,2.5c-2.6,0.6-3.3,1.9-3.3,3.1c-0.7,0-5.6-0.2-4.6,4
				c0,0,0.4,0.9,1.1,1.8c0.4,0.5,1,1,1.7,1.2L44.4,39.1z"/>
			<path id="XMLID_26_" class="st6" d="M65.5,16.2c-0.4,0.2-1.4,0.9-2,4c-0.7-0.3-1.4-0.5-2.1-0.7C61.4,19.5,62.8,17,65.5,16.2z"/>
			<path id="XMLID_25_" class="st8" d="M46.6,33.4C46.6,33.4,46.6,33.4,46.6,33.4c0.1-0.4,0.7-2.6,5-3.1c0,0,2.6-0.2,3-1.1
				c0,0,4.2,1,5.5,2.9c0,0,0,0,0,0c0,0,3.6-1.6,4.4,3c0,0,0.1,0.3-0.1,0.8c-0.2,0.9-0.7,2-3.1,3.3l0.1,0.2c-1.7,0.6-3.6,1-5.7,1.1
				c1.3-1.4,1.5-3.5-0.1-4.5c-1.7-1-3.2,1.6-3.2,1.6c-0.8-1.7-1.7-1.2-1.7-1.2c-2.6,0.7-2.1,2.8-1.7,3.8c-1.7-0.3-3.3-0.7-4.8-1.2
				l0.1-0.2c-0.7-0.3-1.2-0.7-1.7-1.2C42.4,36.7,41.8,33.9,46.6,33.4C46.6,33.5,46.6,33.4,46.6,33.4z"/>
			<path id="XMLID_24_" class="st3" d="M50.8,40.7c0,0-6.7,3.5-5.2,8.4c1.5,4.9,3.9,4.1,6.1,2.5c2.1-1.6,3-3.1,3-3.1
				s4.5,5.8,7.8,3.5c3.3-2.2,1.2-8.5-4.7-11.5v0c0.4,0,0.7-0.1,1.1-0.2v0c6,2.3,8.5,6.4,8,9.8c-0.1,1-0.5,2-1.2,2.8
				c-0.5,0.6-1.1,1.2-1.9,1.6c-5.1,3.1-9-2.1-9-2.1c-6.1,6.8-10.4,1.6-10.4,1.6c-0.3-0.4-0.5-0.9-0.8-1.3c-0.6-1.1-0.9-2.1-1.1-3
				c-1.5-6.9,7-9.2,7-9.2s-0.1-0.1-0.1-0.3C49.8,40.6,50.3,40.7,50.8,40.7L50.8,40.7z"/>
			<path id="XMLID_23_" class="st7" d="M55.3,39c-0.8,1.2-1.4,0.8-1.4,0.8c0-0.8,1-1.8,1-1.8S56,37.8,55.3,39z"/>
			<path id="XMLID_20_" class="st9" d="M49.3,40.6c-2.8-0.4-5.4-1.1-7.6-2.2c-0.9-0.4-1.7-0.9-2.5-1.4c-1.1-0.8-2.1-1.6-2.8-2.5
				c-0.4-0.4-0.7-0.9-0.9-1.4c-0.6-1.1-0.9-2.2-0.9-3.4c0-0.9,0.2-1.8,0.5-2.6c0.1-0.3,0.3-0.6,0.4-0.9c0.3-0.6,0.7-1.1,1.2-1.7
				c1.6-1.8,3.9-3.3,6.8-4.3c0.8-0.3,1.6-0.5,2.5-0.8c1.9-0.5,4.1-0.8,6.3-0.9c0.4,0,0.8,0,1.2,0c0.4,0,0.8,0,1.2,0
				c2.4,0.1,4.6,0.4,6.7,1c0.7,0.2,1.4,0.4,2.1,0.7c3.5,1.3,6.2,3.2,7.7,5.5v0c0.4,0.5,0.6,1.1,0.8,1.7c0.2,0.4,0.3,0.9,0.3,1.3
				c0,0.3,0.1,0.6,0.1,0.9c0,0.5-0.1,1.1-0.2,1.6c-0.2,0.7-0.4,1.3-0.7,1.9c-0.3,0.5-0.7,1-1.1,1.5c-0.4,0.5-0.9,0.9-1.4,1.4
				c-0.6,0.6-1.4,1.1-2.2,1.5c-2.2,1.3-5,2.3-8,2.8c-0.3,0.1-0.7,0.1-1.1,0.2c-1,0.1-2.1,0.2-3.2,0.3c-0.3,0-0.7,0-1,0
				c-0.3,0-0.7,0-1,0c-0.6,0-1.1-0.1-1.7-0.1C50.3,40.7,49.8,40.6,49.3,40.6z M36.7,30.6c0,3.7,3,6.7,7.7,8.5
				c1.4,0.5,3.1,0.9,4.8,1.2c1.4,0.2,2.8,0.3,4.4,0.3c0.8,0,1.6,0,2.3-0.1c2.1-0.2,4-0.6,5.7-1.1c5.2-1.7,8.5-5.1,8.5-9.1
				c0-5.7-6.9-9.5-16.5-9.5C43.9,20.9,36.7,25,36.7,30.6z"/>
			<path id="XMLID_19_" class="st6" d="M52.5,40.8c0.3,0,0.7,0,1,0c0.3,0,0.7,0,1,0c-0.7,3.3-0.1,5.4,0,5.6
				C52.5,44.3,52.5,40.9,52.5,40.8z"/>
			<path id="XMLID_18_" class="st5" d="M52.3,18.5L52.3,18.5c-2.2,0.1-4.3,0.4-6.3,0.9c-1.9-3.8-5.5-3.3-5.5-3.3
				c2.5,1.3,3,4.1,3,4.1c-2.9,1-5.2,2.5-6.8,4.3c0,0-4.4-6.6-11.3-8.1v0C28.2,6.5,38,12.5,38,12.5c6.1-12.3,13.3-3,13.3-3
				C50.7,11.6,50.3,14.8,52.3,18.5z"/>
			<path id="XMLID_17_" class="st3" d="M52.3,18.5c-2-3.7-1.6-7-0.9-8.9c0.4-1.3,0.9-2,0.9-2c0.4-0.5,0.8-0.9,1.2-1.3
				c9.5-9.5,15.7,0.3,15.7,0.3c13.9-6.3,14.7,8,14.7,8v0c-1,0-2.1,0.1-3.3,0.4c0,0-0.6-6.6-4.7-6.4c-4.1,0.2-7.4,2.1-7.4,2.1
				s-3.8-6.4-9.1-4.5s-5.4,6.4-5.8,8.4c-0.3,1.7,0.8,4,0.8,4c-0.4,0-0.8,0-1.2,0C53.1,18.5,52.7,18.5,52.3,18.5L52.3,18.5z"/>
			<path id="XMLID_16_" class="st5" d="M45.6,49.2c-1.5-4.9,5.2-8.4,5.2-8.4v0c0.5,0,1.1,0.1,1.7,0.1c0,0,0,3.5,2.1,5.6
				c0-0.2-0.7-2.3,0-5.6c1.1,0,2.2-0.1,3.2-0.3v0c5.9,3,8,9.3,4.7,11.5c-3.3,2.2-7.8-3.5-7.8-3.5s-0.9,1.5-3,3.1
				C49.5,53.3,47,54.1,45.6,49.2z"/>
			<path id="XMLID_15_" class="st7" d="M52.1,39.9c-1.7-0.7-1.4-1.9-1.4-1.9C51.7,37.9,53.7,40.6,52.1,39.9z"/>
			<path id="XMLID_11_" class="st6" d="M55.3,39c0.8-1.2-0.4-1-0.4-1s-1,1.1-1,1.8C53.9,39.9,54.5,40.3,55.3,39z M49.2,40.3
				c-0.4-1-1-3.1,1.7-3.8c0,0,0.9-0.5,1.7,1.2c0,0,1.6-2.7,3.2-1.6c1.6,1,1.4,3.1,0.1,4.5c-0.7,0.1-1.5,0.1-2.3,0.1
				C52,40.6,50.5,40.5,49.2,40.3z M52.1,39.9c1.7,0.7-0.3-2.1-1.4-1.9C50.6,38,50.4,39.2,52.1,39.9z"/>
			<path id="XMLID_10_" class="st10" d="M51.7,30.3c-4.4,0.5-5,2.7-5,3.1c-0.2-0.5-0.4-1-0.4-1.6c0-1.2,0.8-2.4,3.3-3.1
				c5.1-1.3,3.1-2.5,2.9-2.5c0.3,0.1,6.9,1.6,7.5,4c0.2,0.7,0.2,1.3,0.2,1.9c-1.3-1.9-5.5-2.9-5.5-2.9
				C54.3,30.1,51.7,30.3,51.7,30.3z"/>
			<path id="XMLID_9_" class="st6" d="M46,19.4c-0.9,0.2-1.7,0.5-2.5,0.8c0,0-0.6-2.8-3-4.1C40.5,16.1,44.1,15.6,46,19.4z"/>
			<path id="XMLID_8_" class="st10" d="M41.7,35.8c-1-4.2,4-4.1,4.6-4c0,0.6,0.2,1.1,0.4,1.6c0,0,0,0,0,0c0,0,0,0.1,0,0.1
				c-4.8,0.5-4.2,3.2-3.8,4.2C42,36.8,41.7,35.8,41.7,35.8z"/>
			<path id="XMLID_7_" class="st3" d="M38.6,51.9c3.5-0.5,3.8-1.9,3.8-1.9c0.2,0.9,0.6,1.9,1.1,3c-7.9,6.5-11.9-2-11.9-2
				c-6.3,0-8.9-3.9-8.9-3.9c-0.3-0.9-0.5-1.7-0.7-2.5c-0.3-1.2-0.3-2.3-0.3-3.2c0.6-9.1,13.8-8.3,13.8-8.3c0.3,0.5,0.6,0.9,0.9,1.4
				c0,0-11.5,1.8-11.4,6.9c0.2,5.2,3.8,5.9,6.2,5.9c1.4,0,1.8,0,1.9,0C33.2,47.3,35.2,52.3,38.6,51.9z"/>
			<path id="XMLID_6_" class="st5" d="M41.7,38.4L41.7,38.4c2.2,1,4.8,1.8,7.6,2.2c0.1,0.2,0.1,0.3,0.1,0.3s-8.5,2.3-7,9.2
				c0,0-0.3,1.4-3.8,1.9s-5.4-4.6-5.4-4.6c-0.1,0-0.5,0-1.9,0c-2.4,0-6.1-0.7-6.2-5.9c-0.1-5.2,11.4-6.9,11.4-6.9
				c0.7,0.9,1.7,1.8,2.8,2.5c-2.5,4.1-1.8,5.6-1.8,5.6C38.5,39.9,41.7,38.4,41.7,38.4z"/>
			<path id="XMLID_5_" class="st6" d="M39.2,37c0.7,0.5,1.6,1,2.5,1.4v0c0,0-3.2,1.5-4.3,4.2C37.4,42.6,36.7,41.1,39.2,37z"/>
			<path id="XMLID_4_" class="st5" d="M35.6,26.2c-0.2,0.3-0.3,0.6-0.4,0.9c-4.8,0.4-6.3,3.1-6.4,3.2c1.7-1.2,5.9-0.7,5.9-0.7
				c0,1.2,0.3,2.3,0.9,3.4c0,0-13.2-0.7-13.8,8.3h0c-4.9-0.3-7.6-1.8-8.7-5.3c-1.1-3.5,2.2-7.2,2.2-7.2s-2.1-5.6,3.7-8.8
				C26.1,16.1,35.6,26.2,35.6,26.2z"/>
			<path id="XMLID_3_" class="st6" d="M35.1,27.1c-0.3,0.8-0.5,1.7-0.5,2.6c0,0-4.2-0.5-5.9,0.7C28.8,30.2,30.3,27.5,35.1,27.1z"/>
			<path id="XMLID_2_" class="st3" d="M25.5,16.4c-1.3-0.3-2.8-0.4-4.3-0.3v0v-1.6c6.5-13.3,14.9-6.4,14.9-6.4
				c0.8-2.9,3.3-5.1,3.3-5.1C49-1.8,53.5,6.3,53.5,6.3c-0.4,0.4-0.8,0.8-1.2,1.3c0,0-0.5,0.7-0.9,2c0,0-7.2-9.3-13.3,3
				C38,12.5,28.2,6.5,25.5,16.4L25.5,16.4z"/>
			<path id="XMLID_1_" class="st3" d="M21.7,41.4L21.7,41.4c0,1,0,2,0.3,3.2c-3.9-0.2-7.8-1.4-7.8-1.4c-10.6-6.5-2.9-15-2.9-15
				c-1.2-6.5,3.3-9.7,3.3-9.7c2.3-1.4,4.5-2.1,6.5-2.3c1.5-0.2,3,0,4.3,0.3c6.9,1.5,11.3,8.1,11.3,8.1c-0.5,0.5-0.9,1.1-1.2,1.7
				c0,0-9.5-10.1-16.7-6.1c-5.8,3.2-3.7,8.8-3.7,8.8s-3.3,3.7-2.2,7.2C14.1,39.6,16.8,41.1,21.7,41.4z"/>
		</g>
		<g id="XMLID_481_">
			<path id="XMLID_116_" class="st11" d="M71.2,25.7c0.4,0.5,0.6,1.1,0.8,1.7c0.2,0.4,0.3,0.9,0.3,1.3c0,0.3,0.1,0.6,0.1,0.9
				c0,0.5-0.1,1.1-0.2,1.6c-0.2,0.7-0.4,1.3-0.7,1.9c-0.3,0.5-0.7,1-1.1,1.5c-0.4,0.5-0.9,0.9-1.4,1.4c-0.6,0.6-1.4,1.1-2.2,1.5
				c-2.2,1.3-5,2.3-8,2.8c-0.3,0.1-0.7,0.1-1.1,0.2c-1,0.1-2.1,0.2-3.2,0.3c-0.3,0-0.7,0-1,0c-0.3,0-0.7,0-1,0
				c-0.6,0-1.1-0.1-1.7-0.1c-0.5,0-1-0.1-1.6-0.2c-2.8-0.4-5.4-1.1-7.6-2.2c-0.9-0.4-1.7-0.9-2.5-1.4c-1.1-0.8-2.1-1.6-2.8-2.5
				c-0.4-0.4-0.7-0.9-0.9-1.4c-0.6-1.1-0.9-2.2-0.9-3.4c0-0.9,0.2-1.8,0.5-2.6c0.1-0.3,0.3-0.6,0.4-0.9c0.3-0.6,0.7-1.1,1.2-1.7
				c1.6-1.8,3.9-3.3,6.8-4.3c0.8-0.3,1.6-0.5,2.5-0.8c1.9-0.5,4.1-0.8,6.3-0.9c0.4,0,0.8,0,1.2,0c0.4,0,0.8,0,1.2,0
				c2.4,0.1,4.6,0.4,6.7,1c0.7,0.2,1.4,0.4,2.1,0.7C67,21.5,69.7,23.4,71.2,25.7"/>
			<path id="XMLID_49_" class="st11" d="M58.9,40.4c6,2.3,8.5,6.4,8,9.8c-0.1,1-0.5,2-1.2,2.8c-0.5,0.6-1.1,1.2-1.9,1.6
				c-5.1,3.1-9-2.1-9-2.1c-6.1,6.8-10.4,1.6-10.4,1.6c-0.3-0.4-0.5-0.9-0.8-1.3c-0.6-1.1-0.9-2.1-1.1-3c-1.5-6.9,7-9.2,7-9.2
				s-0.1-0.1-0.1-0.3c0-0.1-0.1-0.2-0.1-0.2c-0.4-1-1-3.1,1.7-3.8c0,0,0.9-0.5,1.7,1.2c0,0,1.6-2.7,3.2-1.6c1.6,1,1.4,3.1,0.1,4.5"
				/>
			<path id="XMLID_48_" class="st11" d="M65.6,53c0,0,6.9,4.7,11.6-3.1c0,0,10.1,0,10.4-8c0-0.6,0-1.2-0.1-1.9
				c-0.1-0.4-0.1-0.9-0.3-1.4c0,0-1.9-9.8-15.8-5.5"/>
			<path id="XMLID_47_" class="st11" d="M87.6,42C87.6,42,87.6,42,87.6,42c0.3,0,10.1,0.3,11.1-8.6c0,0,0.4-6.5-5.5-7.4
				c0,0,1.6-11.7-9.2-11.4c-1,0-2.1,0.1-3.3,0.4c0,0-8.8,4.6-9.5,10.8v0"/>
			<path id="XMLID_46_" class="st11" d="M84,14.6c0,0-0.8-14.3-14.7-8c0,0-6.2-9.8-15.7-0.3c-0.4,0.4-0.8,0.8-1.2,1.3
				c0,0-0.5,0.7-0.9,2c-0.7,2-1.1,5.3,0.9,8.9"/>
			<path id="XMLID_45_" class="st11" d="M53.5,6.3c0,0-4.5-8.1-14.1-3.2c0,0-2.5,2.2-3.3,5.1c0,0-8.4-6.9-14.9,6.4v1.6"/>
			<path id="XMLID_44_" class="st11" d="M22,44.6c-3.9-0.2-7.8-1.4-7.8-1.4c-10.6-6.5-2.9-15-2.9-15c-1.2-6.5,3.3-9.7,3.3-9.7
				c2.3-1.4,4.5-2.1,6.5-2.3c1.5-0.2,3,0,4.3,0.3c6.9,1.5,11.3,8.1,11.3,8.1"/>
			<path id="XMLID_43_" class="st11" d="M35.5,33.1c0,0-13.2-0.7-13.8,8.3c-0.1,1,0,2,0.3,3.2c0.2,0.8,0.4,1.6,0.7,2.5
				c0,0,2.6,3.9,8.9,3.9c0,0,4,8.5,11.9,2"/>
			<path id="XMLID_42_" class="st12" d="M52.5,26.2C52.5,26.2,52.5,26.2,52.5,26.2c0.3,0.1,6.9,1.6,7.5,4c0.2,0.7,0.2,1.3,0.2,1.9
				c-0.1,1.4-0.8,2.3-1.9,3.1"/>
			<path id="XMLID_41_" class="st12" d="M46.6,33.4c-0.2-0.5-0.4-1-0.4-1.6c0-1.2,0.8-2.4,3.3-3.1c5.1-1.3,3.1-2.5,2.9-2.5"/>
			<path id="XMLID_40_" class="st12" d="M47.7,35.1c0,0-0.6-0.7-1-1.7"/>
			<path id="XMLID_39_" class="st12" d="M46.6,33.4C46.6,33.4,46.6,33.4,46.6,33.4"/>
			<path id="XMLID_38_" class="st12" d="M46.3,31.8C46.3,31.8,46.3,31.8,46.3,31.8c-0.7,0-5.6-0.2-4.7,4c0,0,0.4,0.9,1.1,1.8
				c0.4,0.5,1,1,1.7,1.2c0.1,0,0.3,0.1,0.4,0.1"/>
		</g>
	</g>
	<path id="XMLID_446_" class="st10" d="M64.6,35.9c0,0-1.1-3.2-4.5-2.3c0,0,0.4-0.5,0.5-1.7c0,0,2.6-1,3.7,1.8
		C64.2,33.8,64.9,35.1,64.6,35.9z"/>
</g>
</svg>
