<?xml version="1.0" encoding="utf-8"?>
<!-- Generator: Adobe Illustrator 19.0.0, SVG Export Plug-In . SVG Version: 6.00 Build 0)  -->
<svg version="1.1" xmlns="http://www.w3.org/2000/svg" xmlns:xlink="http://www.w3.org/1999/xlink" x="0px" y="0px"
	 viewBox="0 -3 100 87" style="enable-background:new 0 -3 100 87;" xml:space="preserve">
<style type="text/css">
	.st0{fill:none;stroke:#BC904A;stroke-miterlimit:10;}
	.st1{fill:none;stroke:#BC904A;stroke-width:4;stroke-miterlimit:10;}
	.st2{fill:#BC904A;}
	.st3{fill:#424B50;}
	.st4{clip-path:url(#XMLID_2_);}
	.st5{fill:#A1B799;}
	.st6{fill:#C2CFBB;}
	.st7{fill:#EEE2CF;}
	.st8{fill:#8397B7;}
	.st9{fill:#707D95;}
	.st10{fill:none;stroke:#D69F50;stroke-miterlimit:10;}
	.st11{fill:none;}
	.st12{clip-path:url(#XMLID_3_);fill:#707D95;stroke:#BC904A;stroke-width:1.3;stroke-miterlimit:10;}
	.st13{clip-path:url(#XMLID_3_);fill:none;stroke:#BC904A;stroke-width:0.8;stroke-miterlimit:10;}
	.st14{clip-path:url(#XMLID_3_);fill:#EEE2CF;}
	.st15{clip-path:url(#XMLID_3_);}
	.st16{fill:none;stroke:#BC904A;stroke-width:0.8;stroke-miterlimit:10;}
	.st17{fill:#B55C39;}
	.st18{fill:#7A1A11;}
	.st19{clip-path:url(#XMLID_4_);}
	.st20{fill:none;stroke:#424B50;stroke-width:0.75;stroke-miterlimit:10;}
</style>
<g id="Layer_1">
	<rect id="XMLID_330_" x="10.5" y="28.6" class="st0" width="86.1" height="331.1"/>
	<rect id="XMLID_329_" x="13.6" y="32" class="st0" width="80" height="324.6"/>
	<rect id="XMLID_328_" x="17.6" y="35.9" class="st1" width="71.6" height="316.6"/>
</g>
<g id="Layer_2">
	<g id="XMLID_1621_">
		<path id="XMLID_56_" class="st2" d="M57.2,44.2l-2.4,0.4c0.5,2.8,1,9.7-1.3,12.9c-0.9-5.4-7-11.5-7.3-11.8c-0.5-0.5-1.3-0.5-1.7,0
			c-0.5,0.5-0.5,1.3,0,1.7c1.9,1.8,6.7,7.5,6.7,11.4c0,1-0.4,1.8-1.1,2.4c-4.7,4.4-13.7,1.1-22.3-2.2c-8-3-15.5-5.8-20.4-2.9
			c-2.4,1.4-3.9,4-4.5,7.9l0,0.1l0,0.1C3,64.7,3.5,73,10.3,79c0.2,0.1,0.3,0.2,0.5,0.3v-3.2c-4.5-4.8-5.3-10.8-5.4-11.7
			c0.5-3,1.5-5,3.2-6c3.9-2.3,11.2,0.5,18.3,3.1c9.3,3.5,19,7.1,24.8,1.7c0.6-0.6,1.1-1.3,1.4-2.1c2.7-1.4,4.2-4.7,4.4-9.8
			C57.8,47.6,57.3,44.4,57.2,44.2z"/>
		<path id="XMLID_55_" class="st3" d="M10.1,79.2c-6.8-6.1-7.4-14.5-7.4-14.8l0-0.1l0-0.2c0.6-3.9,2.1-6.6,4.6-8
			c5-2.9,12.6-0.1,20.6,2.9c8.6,3.2,17.4,6.5,22.1,2.2c0.6-0.6,1-1.3,1-2.3c0.1-3.8-4.8-9.4-6.6-11.2c-0.6-0.6-0.6-1.5,0-2.1
			c0.6-0.6,1.5-0.6,2.1,0c0.3,0.2,6,6,7.3,11.3c1.9-3.4,1.3-9.9,0.9-12.2l0-0.2l2.9-0.5l0,0.2c0,0.1,0.6,3.4,0.4,7.1
			c-0.2,5.1-1.7,8.5-4.4,10c-0.3,0.8-0.8,1.5-1.4,2.1c-5.9,5.5-15.7,1.9-25.1-1.6c-7-2.6-14.3-5.3-18.1-3.1c-1.6,1-2.7,2.8-3.1,5.8
			c0.1,0.8,0.8,6.7,5.1,11.4 M10.8,76.4c-4.7-5-5.5-11.3-5.6-12l0,0l0,0c0.5-3.1,1.6-5.1,3.4-6.1c4-2.3,11.4,0.4,18.5,3.1
			c9.3,3.5,18.9,7.1,24.6,1.7c0.6-0.6,1.1-1.2,1.4-2l0-0.1l0.1,0c2.6-1.4,4-4.6,4.3-9.6c0.1-3.1-0.2-5.9-0.4-6.8l-2,0.3
			c0.5,3.2,0.8,9.7-1.3,12.8l-0.3,0.5l-0.1-0.6c-0.9-5.4-7-11.4-7.3-11.7c-0.4-0.4-1-0.4-1.4,0c-0.4,0.4-0.4,1,0,1.4
			c1.9,1.9,6.8,7.6,6.8,11.5c0,1.1-0.4,1.9-1.1,2.6c-4.8,4.5-13.8,1.1-22.5-2.1c-5.6-2.1-11-4.1-15.4-4.1c-1.8,0-3.5,0.3-4.9,1.2
			c-2.3,1.4-3.8,3.9-4.3,7.7l0,0.1l0,0.1c0,0.3,0.6,8.5,7.2,14.5"/>
		<polygon id="XMLID_54_" class="st2" points="10.1,74.9 10.8,75.7 10.7,79.2 10.1,79.2 10.1,76 		"/>
	</g>
	<g id="XMLID_1708_">
		<defs>
			<rect id="XMLID_1706_" x="29" y="37.9" width="42" height="37"/>
		</defs>
		<clipPath id="XMLID_2_">
			<use xlink:href="#XMLID_1706_"  style="overflow:visible;"/>
		</clipPath>
		<g id="XMLID_1622_" class="st4">
			<g id="XMLID_1624_">
				<g id="XMLID_1670_">
					<path class="st5" d="M41.6,35.1c-0.3-0.2-1.6-2.2,0-4c1.7-1.8,4.7-0.1,4.7-0.1c-0.1,0.2-0.2,0.4-0.4,0.6c0,0-2.5,4.4,4.1,6.6
						c-0.3,0.1-0.6,0.3-0.9,0.6l0,0c-1,0.5-2.6,0-2.6,0c0.8,0.9,1.7,1,1.7,1l0,0c-0.1,0.2-0.2,0.4-0.3,0.6c-1.2,1-5.6,2.4-8,0.3
						C37.5,38.4,41.6,35.1,41.6,35.1z"/>
					<path class="st5" d="M45.6,52.1c-2.6-0.7-1.9-4.3-1.9-4.3s-1.9-0.1-3.5-1.2c-1.6-1.1,0.4-3.9,0.4-3.9s4.8,0.6,7.1-1.7
						c-0.2,1.3,0.2,2.9,1.1,4.3c-1.3,1.1-1.9,1.1-2.1,1c1.3,0.5,2.6-0.2,2.6-0.2c0.6,0.8,1.3,1.5,2.2,2.2c0,0-0.3,1.2-1,1.8
						C49.7,51.1,48.2,52.8,45.6,52.1z"/>
					<path class="st6" d="M48.8,30.7c-2.4,1.1-2.3,3.9-0.6,5.2c1.6,1.3,2.8,1.9,2.8,1.9c-0.3,0.1-0.6,0.2-0.9,0.3
						c-6.6-2.1-4.1-6.6-4.1-6.6c0.1-0.2,0.2-0.4,0.4-0.6c0.2-0.3,0.4-0.6,0.6-0.8c2.7-3.1,6.5-0.3,6.5-0.3c4.3-1.8,5.4,2,5.4,2
						c-0.5,0.2-1,0.4-1.4,0.8l0,0c0,0-1.3-3.4-4.7-0.7C52.7,31.8,51.2,29.6,48.8,30.7z"/>
					<path class="st6" d="M39.9,30.5c3.3-3.3,6.9-0.5,7-0.4c-0.2,0.2-0.4,0.5-0.6,0.8c0,0-3-1.6-4.7,0.1c-1.7,1.8-0.3,3.9,0,4
						c0,0-4.1,3.3-1.7,5.5c2.4,2.1,6.8,0.7,8-0.3c-0.1,0.3-0.2,0.6-0.2,0.9l0,0c-2.3,2.3-7.1,1.7-7.1,1.7c-0.5-0.2-1-0.5-1.4-0.8
						c-4.1-2.9,0.3-7.1,0.3-7.1C37.6,33,39.9,30.5,39.9,30.5z"/>
					<path class="st7" d="M52.8,34.9c-0.3,1.8,0.4,2.7,0.4,2.7l0,0c-0.5,0-0.9,0-1.3,0C52,36,52.8,34.9,52.8,34.9z"/>
					<path class="st5" d="M53.2,37.6c0,0-0.6-0.9-0.4-2.7c0,0-0.9,1.1-0.9,2.7c-0.3,0-0.7,0.1-1,0.2c0,0-1.1-0.6-2.8-1.9
						c-1.6-1.3-1.7-4,0.6-5.2c2.4-1.1,3.9,1.1,3.9,1.1c3.4-2.6,4.7,0.7,4.7,0.7l0,0c-1.3,1.2-1.7,3.5-0.2,6.1l0,0
						C55.8,38,54.5,37.7,53.2,37.6L53.2,37.6z"/>
					<path class="st2" d="M62.1,43.2c1.2,2,1.3,4,0.1,5.5c-1.9,2.3-5.9,1.9-9.5-0.7c-3.6-2.7-4.9-6.1-3.1-8.3c1.3-1.6,3.6-2,6.2-1.3
						l0,0.1c-1.3-0.1-1.9,0.1-2.2,0.4c-0.2,0.2-0.3,0.3-0.3,0.3c-1.2,2.1,0.6,2.4,0.6,2.4c0,0,0,0,0,0c-0.2,0.2-0.4,0.5-0.5,0.8
						c-0.6,1.1,1.4,3.6,1.5,3.7c0-0.1-0.4-1.1,1.9-0.2c1.2,0.4,1.9,0.2,2.3-0.3c0.2,0.2,2,1.6,3.1-0.3c0,0,0.2-0.5,0.2-1
						c0-0.3,0-0.7-0.2-1L62.1,43.2z"/>
					<path class="st6" d="M39.2,42.1c0.4,0.3,0.8,0.5,1.4,0.8c0,0-1.9,2.8-0.4,3.9c1.6,1.1,3.5,1.2,3.5,1.2s-0.7,3.6,1.9,4.3
						c2.6,0.7,4.1-1.1,4.9-1.8c0.7-0.6,1-1.8,1-1.8c0.1,0.1,0.3,0.2,0.4,0.3c0.2,0.1,0.3,0.2,0.5,0.3l0,0c-0.5,2-1.7,3.2-2.6,3.8
						c-0.6,0.4-1,0.5-1,0.5c-0.3,0.1-0.6,0.1-0.9,0.2c-6.7,1.2-5.8-4.5-5.8-4.5C34.8,48,39.2,42.1,39.2,42.1L39.2,42.1z"/>
					<path class="st5" d="M57.6,38.9c-1.2-2.8,0.1-5.9,2.1-5.9c2,0,1.7,3.6,1.7,3.6s0.8-0.3,2.1-0.4c1.3-0.1,2.5,0.3,1.5,2.7
						c-1.1,2.4-4.8,1.9-4.8,1.9l0,0c-0.2-0.2-0.4-0.3-0.6-0.5c0,0,1.1-1.4,1.1-2.8c0,0.1-0.5,1.1-1.8,2.2
						C58.5,39.4,58,39.1,57.6,38.9L57.6,38.9z"/>
					<path class="st7" d="M56.9,41.3c-0.3-0.9,0.5-1.6,1.4-1.8c0.3,0.2,0.6,0.4,0.9,0.6c0.6,0.4,1.1,0.9,1.5,1.3
						c-0.2,0.5-0.7,1.5-1.9,1.1c0,0-0.5-0.1-0.2-0.9C58.6,41.5,57.2,42.1,56.9,41.3z M58,40.2c-0.7,0.3-0.2,0.5-0.2,0.5
						s0.7-0.2,1-0.5C58.8,40.3,58.7,39.9,58,40.2z M59.5,40.8c-0.4-0.7-0.6,0.9-0.1,1.2C59.4,41.9,59.9,41.5,59.5,40.8z"/>
					<path class="st6" d="M59.6,33c-2,0-3.3,3-2.1,5.9l0,0c-0.1-0.1-0.3-0.2-0.5-0.2l0,0c-1.5-2.6-1.1-4.9,0.2-6.1
						c0.4-0.4,0.9-0.6,1.4-0.8c0.4-0.1,0.8-0.2,1.2-0.1c2.9,0.2,2.7,3.3,2.7,3.3c4.5-1,4.4,2.2,4.4,2.2c0,0.2-0.1,0.5-0.1,0.7
						c-0.1,0.6-0.3,1.1-0.5,1.5c-1.7,3.2-5.6,1.7-5.6,1.7s0,0.1,0,0.2c-0.2-0.2-0.3-0.3-0.5-0.5l0,0c0,0,3.7,0.4,4.8-1.9
						c1.1-2.4-0.1-2.7-1.5-2.7c-1.3,0.1-2.1,0.4-2.1,0.4S61.6,33,59.6,33z"/>
					<path class="st8" d="M59.4,44.9c-0.1,0.3-0.2,0.5-0.4,0.7c-0.4,0.5-1.1,0.8-2.3,0.3c-2.4-0.9-2,0.1-1.9,0.2
						c-0.1-0.1-2.1-2.5-1.5-3.7c0.2-0.3,0.3-0.6,0.5-0.8c-0.1,1.1,1.1,2.7,1.1,2.7c0.5-0.3,1.5,0.4,1.5,0.4
						C58.3,45.7,59.2,45,59.4,44.9z"/>
					<path class="st5" d="M60.2,51.1c0,0-0.5,3.8,1.6,6.3l0,0c-4.3,3.2-6-1.9-6-1.9c-6.4,3.2-6-2.5-6-2.5c0.9-0.6,2.1-1.8,2.6-3.8
						l0,0c0.9,0.6,1.8,1,2.7,1.4c-0.6,2.1,1,2.8,1,2.8c-0.5-1.2,0.2-2.5,0.2-2.5C57.6,51.3,59,51.4,60.2,51.1z"/>
					<path class="st9" d="M53.9,41.6C53.9,41.6,53.9,41.6,53.9,41.6c0,0-1.9-0.4-0.6-2.4c0,0,0.1-0.1,0.3-0.3
						c0.4-0.3,0.9-0.6,2.2-0.4l0-0.1c0.8,0.2,1.7,0.6,2.5,1.1c-1,0.2-1.7,1-1.4,1.8c0.3,0.9,1.8,0.2,1.8,0.2
						c-0.3,0.9,0.2,0.9,0.2,0.9c1.2,0.5,1.7-0.6,1.9-1.1c0.6,0.6,1,1.2,1.4,1.8L62,43.3c0.2,0.3,0.2,0.6,0.2,1
						c-0.2,0.5-0.9,1.8-2.8,0.6c0,0,0,0,0,0c0,0,0,0,0,0c-0.2,0.1-1.1,0.9-2.9-0.1c0,0-1.1-0.7-1.5-0.4C55,44.3,53.8,42.8,53.9,41.6
						z"/>
					<path class="st8" d="M59.4,44.8c2,1.1,2.6-0.1,2.8-0.6c0,0.6-0.2,1-0.2,1c-1,1.9-2.8,0.5-3.1,0.3
						C59.2,45.4,59.3,45.1,59.4,44.8C59.4,44.9,59.4,44.9,59.4,44.8C59.4,44.8,59.4,44.8,59.4,44.8z"/>
					<path class="st3" d="M56,53.4c0,0-1.5-0.8-1-2.8c0.4,0.1,0.8,0.3,1.2,0.4C56.2,51,55.5,52.3,56,53.4z"/>
					<path class="st2" d="M63.4,45.5c-0.1-0.4-0.3-0.8-0.5-1.2c0,0,1.7,0.3,3-0.5C65.9,43.7,65.7,44.5,63.4,45.5z"/>
					<path class="st2" d="M69,43c0,0,0.2,0.2,0.7,0.5c0.9,0.7,2,1.9,0.4,4.1c-1.7,2.1-6.6-0.4-6.6-0.4c0-0.6,0-1.2-0.2-1.8
						c2.3-0.9,2.5-1.7,2.5-1.7c-1.3,0.8-3,0.5-3,0.5c-0.5-1-1.2-2-2.1-3c0-0.1,0-0.2,0-0.2s3.9,1.5,5.6-1.7l0,0c0,0,0.6-0.5,2,0.3
						C70,40.5,69,43,69,43z"/>
					<path class="st6" d="M68.5,39.7c-1.4-0.8-2-0.3-2-0.3l0,0c0.2-0.4,0.4-0.9,0.5-1.5c5.1-0.4,3.8,4.1,3.8,4.1
						c2.4,1.8,2.1,4,2.1,4c-0.2,0.4-0.4,0.8-0.5,1.2c-0.3,0.5-0.6,1-1,1.4c-3.2,3.5-7.9-0.5-7.9-0.5c0.1-0.3,0.1-0.5,0.1-0.8
						c0,0,4.9,2.5,6.6,0.4c1.7-2.1,0.5-3.4-0.4-4.1c-0.5-0.4-0.7-0.5-0.7-0.5C69,43,70,40.5,68.5,39.7z"/>
					<path class="st3" d="M58.3,39.5c-0.8-0.5-1.7-0.9-2.5-1.1c-2.5-0.7-4.9-0.3-6.2,1.3c-1.9,2.3-0.5,5.7,3.1,8.3
						c3.6,2.7,7.6,3,9.5,0.7c1.2-1.5,1.1-3.5-0.1-5.5c-0.4-0.6-0.8-1.2-1.4-1.8c-0.5-0.5-1-0.9-1.5-1.3
						C58.9,39.8,58.6,39.6,58.3,39.5z M47.7,41.1c0-0.3,0.1-0.6,0.2-0.9c0.1-0.2,0.2-0.4,0.3-0.6c0.1-0.1,0.2-0.3,0.3-0.4
						c0.2-0.2,0.4-0.4,0.6-0.6c0.3-0.2,0.6-0.4,0.9-0.6c0.3-0.1,0.6-0.2,0.9-0.3c0.3-0.1,0.6-0.1,1-0.2c0.4,0,0.9,0,1.3,0
						c1.3,0.1,2.6,0.5,3.9,1.1c0.2,0.1,0.3,0.1,0.5,0.2c0.4,0.2,0.9,0.5,1.3,0.8c0.1,0.1,0.3,0.2,0.4,0.3c0.1,0.1,0.3,0.2,0.4,0.3
						c0.2,0.2,0.4,0.3,0.6,0.5c0.2,0.2,0.4,0.3,0.5,0.5c0.9,0.9,1.7,2,2.1,3c0.2,0.4,0.4,0.8,0.5,1.2c0.2,0.6,0.2,1.2,0.2,1.8
						c0,0.3-0.1,0.5-0.1,0.8c-0.1,0.6-0.4,1.1-0.8,1.6c-0.3,0.4-0.6,0.7-1,0.9c-0.1,0.1-0.3,0.2-0.5,0.2c-0.3,0.1-0.6,0.3-1,0.3
						c-1.2,0.3-2.5,0.2-4-0.2c-0.4-0.1-0.8-0.2-1.2-0.4c-0.9-0.3-1.8-0.8-2.7-1.4c-0.2-0.1-0.3-0.2-0.5-0.3
						c-0.1-0.1-0.3-0.2-0.4-0.3c-0.9-0.7-1.6-1.4-2.2-2.2c-0.2-0.3-0.4-0.6-0.6-0.9C47.8,44,47.5,42.5,47.7,41.1L47.7,41.1z"/>
					<path class="st7" d="M62.7,49.7c0,0,1.4,1.4,2.4,1.4c-0.1,0-1.5,0.7-3.5-0.5C62,50.3,62.4,50,62.7,49.7z"/>
					<path class="st5" d="M71.4,48.5c1.7,1.5,2.3,2.8,1.5,4.5c-0.8,1.7-3.2,2.3-3.2,2.3s-1,2.8-4.3,2.5c-4-0.4-4.2-7-4.2-7
						c0.2-0.1,0.3-0.2,0.5-0.2c1.9,1.1,3.4,0.5,3.5,0.5c-1,0-2.4-1.4-2.4-1.4c0.4-0.5,0.6-1,0.8-1.6C63.5,48.1,68.2,52,71.4,48.5
						L71.4,48.5z"/>
					<path class="st6" d="M74.8,49.9c1.8,5.5-3.9,6.8-3.9,6.8c-1.7,2.9-4.4,3-4.4,3c-1.3-0.1-2.4-0.4-3.2-0.9
						c-0.6-0.4-1.1-0.8-1.5-1.3c-2.1-2.5-1.6-6.3-1.6-6.3c0.4-0.1,0.7-0.2,1-0.3c0,0,0.2,6.6,4.2,7c3.2,0.3,4.3-2.5,4.3-2.5
						s2.4-0.6,3.2-2.3c0.8-1.7,0.2-3.1-1.5-4.5l0,0c0.3-0.4,0.7-0.8,1-1.4C73.7,48.3,74.8,49.9,74.8,49.9z"/>
					<path class="st6" d="M63.3,58.8l-0.5,0.6c-6.8,3.5-7.7-1.6-7.7-1.6c-1.3,0.9-2.9,1.1-2.9,1.1c-5.2-0.7-4.2-5.2-4.2-5.2
						c0.3,0,0.6-0.1,0.9-0.2c0,0,0.4-0.2,1-0.5c0,0-0.4,5.7,6,2.5c0,0,1.7,5.1,6,1.9l0,0C62.1,58,62.6,58.4,63.3,58.8L63.3,58.8z"/>
				</g>
				<g id="XMLID_1655_">
					<path class="st0" d="M47.7,41.1c0-0.3,0.1-0.6,0.2-0.9c0.1-0.2,0.2-0.4,0.3-0.6c0.1-0.1,0.2-0.3,0.3-0.4
						c0.2-0.2,0.4-0.4,0.6-0.6c0.3-0.2,0.6-0.4,0.9-0.6c0.3-0.1,0.6-0.2,0.9-0.3c0.3-0.1,0.6-0.1,1-0.2c0.4,0,0.9,0,1.3,0
						c1.3,0.1,2.6,0.5,3.9,1.1c0.2,0.1,0.3,0.1,0.5,0.2c0.4,0.2,0.9,0.5,1.3,0.8c0.1,0.1,0.3,0.2,0.4,0.3c0.1,0.1,0.3,0.2,0.4,0.3
						c0.2,0.2,0.4,0.3,0.6,0.5c0.2,0.2,0.4,0.3,0.5,0.5c0.9,0.9,1.7,2,2.1,3c0.2,0.4,0.4,0.8,0.5,1.2c0.2,0.6,0.2,1.2,0.2,1.8
						c0,0.3-0.1,0.5-0.1,0.8c-0.1,0.6-0.4,1.1-0.8,1.6c-0.3,0.4-0.6,0.7-1,0.9c-0.1,0.1-0.3,0.2-0.5,0.2c-0.3,0.1-0.6,0.3-1,0.3
						c-1.2,0.3-2.5,0.2-4-0.2c-0.4-0.1-0.8-0.2-1.2-0.4c-0.9-0.3-1.8-0.8-2.7-1.4c-0.2-0.1-0.3-0.2-0.5-0.3
						c-0.1-0.1-0.3-0.2-0.4-0.3c-0.9-0.7-1.6-1.4-2.2-2.2c-0.2-0.3-0.4-0.6-0.6-0.9C47.8,44,47.5,42.5,47.7,41.1"/>
					<path class="st0" d="M57.1,38.7c-1.5-2.6-1.1-4.9,0.2-6.1c0.4-0.4,0.9-0.6,1.4-0.8c0.4-0.1,0.8-0.2,1.2-0.1
						c2.9,0.2,2.7,3.3,2.7,3.3c4.5-1,4.4,2.2,4.4,2.2c0,0.2-0.1,0.5-0.1,0.7c-0.1,0.6-0.3,1.1-0.5,1.5c-1.7,3.2-5.6,1.7-5.6,1.7
						s0,0.1,0,0.2c0,0,0,0.1,0,0.1c-0.2,0.5-0.7,1.5-1.9,1.1c0,0-0.5-0.1-0.2-0.9c0,0-1.5,0.6-1.8-0.2c-0.3-0.9,0.5-1.6,1.4-1.8"/>
					<path class="st10" d="M58.8,31.8c0,0-1-3.8-5.4-2c0,0-3.8-2.8-6.5,0.3c-0.2,0.2-0.4,0.5-0.6,0.8c-0.1,0.2-0.2,0.4-0.4,0.6
						c0,0-2.5,4.4,4.1,6.6"/>
					<path class="st0" d="M46.9,30.1C46.9,30.1,46.9,30.1,46.9,30.1c-0.1-0.1-3.7-2.9-7,0.4c0,0-2.3,2.5-0.4,4.5
						c0,0-4.4,4.2-0.3,7.1c0.4,0.3,0.8,0.5,1.4,0.8c0,0,4.8,0.6,7.1-1.7l0,0"/>
					<path class="st0" d="M39.2,42.1c0,0-4.4,6,2.9,7.3c0,0-0.9,5.6,5.8,4.5c0.3,0,0.6-0.1,0.9-0.2c0,0,0.4-0.2,1-0.5
						c0.9-0.6,2.1-1.8,2.6-3.8"/>
					<path class="st0" d="M47.9,53.8c0,0-1,4.5,4.2,5.2c0,0,1.7-0.2,2.9-1.1c0,0,0.9,5.1,7.7,1.6l0.5-0.6"/>
					<path class="st10" d="M72.3,47.2c1.4,1.2,2.5,2.7,2.5,2.7c1.8,5.5-3.9,6.8-3.9,6.8c-1.7,2.9-4.4,3-4.4,3
						c-1.3-0.1-2.4-0.4-3.2-0.9c-0.6-0.4-1.1-0.8-1.5-1.3c-2.1-2.5-1.6-6.3-1.6-6.3"/>
					<path class="st10" d="M63.5,48.1c0,0,4.7,3.9,7.9,0.5c0.3-0.4,0.7-0.8,1-1.4c0.2-0.4,0.4-0.7,0.5-1.2c0,0,0.3-2.3-2.1-4
						c0,0,1.3-4.5-3.8-4.1"/>
					<path class="st0" d="M54.8,46.1C54.8,46.1,54.8,46.1,54.8,46.1c-0.1-0.1-2.1-2.5-1.5-3.7c0.2-0.3,0.3-0.6,0.5-0.8
						c0.5-0.5,1.1-0.7,1.7-0.7"/>
					<path class="st0" d="M59.4,44.9c-0.1,0.3-0.2,0.5-0.4,0.7c-0.4,0.5-1.1,0.8-2.3,0.3c-2.4-0.9-2,0.1-1.9,0.2"/>
					<path class="st0" d="M59.6,43.9c0,0,0,0.5-0.2,1"/>
					<line class="st0" x1="59.4" y1="44.9" x2="59.4" y2="44.9"/>
					<path class="st0" d="M59,45.6C59,45.6,59,45.6,59,45.6c0.3,0.2,2.1,1.6,3.1-0.3c0,0,0.2-0.5,0.2-1c0-0.3,0-0.7-0.2-1
						c0-0.1-0.1-0.1-0.1-0.2"/>
				</g>
			</g>
			<path id="XMLID_1623_" class="st8" d="M53.5,38.9c0,0-0.6,1.6,0.9,2.1c0,0-0.3,0.1-0.8,0.6c0,0-1.3-0.3-0.8-1.7
				C52.9,39.8,53.1,39.2,53.5,38.9z"/>
		</g>
	</g>
	<rect id="XMLID_1694_" x="29" y="37.9" class="st11" width="42" height="37"/>
	<g id="XMLID_1619_">
		<defs>
			<rect id="XMLID_1618_" x="47.2" y="37.9" width="40.3" height="58"/>
		</defs>
		<clipPath id="XMLID_3_">
			<use xlink:href="#XMLID_1618_"  style="overflow:visible;"/>
		</clipPath>
		<path id="XMLID_1456_" class="st12" d="M99.1,47.1c-1.9-1.7-3.1,2.6-3.1,2.6L95.8,51c-0.8-6.8-3.4-12.3-4.7-13.2
			c-3-2.1-11.1,0.1-11.4,0.2c-0.3-0.1-8.4-2.3-11.4-0.2c-1.4,1-4.1,7-4.7,14.2l-0.3-2.3c0,0-1.2-4.3-3.1-2.6s2.3,11,1.6,15.2
			c-0.8,4.2-2.3,9.4,0.5,9.2c2.6-0.2,2.9-5.9,2.9-6.6c1.7,4.5,4.8,8.8,10,12c0,0,2.7,1.4,5.8,0.8l-0.4,0c2.3-0.2,3.9-1.1,3.9-1.1
			c4.8-2.8,7.8-6.6,9.5-10.8c0.1,1.1,0.5,5.5,2.9,5.7c2.8,0.2,1.3-4.9,0.5-9.2C96.8,58.1,101,48.8,99.1,47.1z"/>
		<path id="XMLID_1453_" class="st13" d="M77.5,63.1c0,0-1,0-0.9,1.2c0.1,1.2,1.7,0.8,1.7,0.8c1.6-5.3-0.2-17.1-6.3-18.3
			c-6.1-1.2-8.6,5.5-8.6,5.5"/>
		<path id="XMLID_1452_" class="st14" d="M64.4,53.5c0,0,2.5-0.1,4,0.6c1.4,0.7,5,0.5,6,0s3.1-0.6,3.1-0.6s-2.3,0.8-3.3,1.6
			s-4.2,0.8-5.9,0S66.3,53.8,64.4,53.5z"/>
		<path id="XMLID_1451_" class="st13" d="M81.8,63.1c0,0,1,0,0.9,1.2c-0.1,1.2-1.7,0.8-1.7,0.8c-1.6-5.3,0.2-17.1,6.3-18.3
			c6.1-1.2,8.6,5.5,8.6,5.5"/>
		<path id="XMLID_1450_" class="st14" d="M94.9,53.5c0,0-2.5-0.1-4,0.6c-1.4,0.7-5,0.5-6,0s-3.1-0.6-3.1-0.6s2.3,0.8,3.3,1.6
			s4.2,0.8,5.9,0S93.1,53.8,94.9,53.5z"/>
		<g id="XMLID_1526_" class="st15">
			<g>
				<path class="st3" d="M95.8,51l-0.5,0c-1.1-1.9-3.6-5.1-8-4.2c-4.7,0.9-6.9,8.2-6.9,13.9l-1.5,0c0-5.7-2.1-13-6.9-13.9
					c-5-1-7.6,3.5-8.4,5c0.6-7.2,3.2-13.1,4.6-14.1c3-2.1,11-1.3,11.4-1.2c0.3-0.1,8.4-0.9,11.4,1.2C92.4,38.7,95,44.2,95.8,51z"/>
				<path class="st3" d="M80.5,60.7c0,1.7,0.2,3.2,0.5,4.4c-1.3,1.8-2.6,0-2.6,0c0.4-1.2,0.5-2.7,0.5-4.4L80.5,60.7z"/>
			</g>
			<g>
				<path class="st16" d="M63.7,51.8c0,0.1,0,0.1,0,0.1"/>
				<path class="st16" d="M95.8,51c-0.8-6.8-3.4-12.3-4.7-13.2c-3-2.1-11.1-1.3-11.4-1.2c-0.3-0.1-8.3-0.9-11.4,1.2
					c-1.4,1-4,6.9-4.6,14.1"/>
				<path class="st16" d="M78.4,65.1c0.4-1.2,0.5-2.7,0.5-4.4c0-5.7-2.1-13-6.9-13.9c-5-1-7.6,3.5-8.4,5v0c-0.2,0.3-0.2,0.5-0.2,0.5
					"/>
				<path class="st16" d="M81,65.1c-0.4-1.2-0.5-2.7-0.5-4.4c0-5.7,2.1-13,6.9-13.9c4.3-0.9,6.9,2.3,8,4.2c0.4,0.8,0.6,1.3,0.6,1.3"
					/>
				<path class="st16" d="M78.4,65.1c0,0,1.3,1.8,2.6,0"/>
			</g>
		</g>
		<g id="XMLID_1126_" class="st15">
			<path id="XMLID_807_" class="st17" d="M82.6,69.4c0,0,0.1,2.2-2.3,1.8c0,0-0.4-0.3-0.8-0.3h0c-0.4,0-0.8,0.3-0.8,0.3
				c-2.4,0.3-2.3-1.9-2.3-1.9"/>
			<path id="XMLID_808_" class="st18" d="M80.8,71.7c-0.2,0-0.3,0-0.5,0c0,0-0.1,0-0.1,0c0,0-0.3-0.2-0.6-0.2
				c-0.3,0-0.6,0.2-0.6,0.2c0,0-0.1,0-0.1,0c-0.8,0.1-1.5,0-1.9-0.5c-0.7-0.7-0.7-1.7-0.7-1.8l0-0.3l0.6,0l0,0.3c0,0,0,0.8,0.5,1.3
				c0.3,0.3,0.8,0.5,1.4,0.4c0.1-0.1,0.5-0.1,0.9-0.1c0,0,0,0,0,0c0,0,0,0,0,0c0.4,0,0.7,0.1,0.9,0.1c0.6,0.1,1.1-0.1,1.4-0.4
				c0.5-0.5,0.5-1.3,0.5-1.3l0-0.3l0.6,0l0,0.3c0,0,0,1.1-0.7,1.7C81.9,71.5,81.4,71.7,80.8,71.7z"/>
		</g>
		<g id="XMLID_1124_" class="st15">
			<path id="XMLID_425_" class="st17" d="M79.2,69.5c0,0,0.5,0.2,0.9,0c0.4-0.2,1.5-0.3,2.2-0.1c0.7,0.2,1.1-0.4,1.1-0.4
				s-1,0.6-1.5-0.1S80.3,68,79.5,69h0c-0.7-1-1.6-0.8-2.2-0.1s-1.5,0.3-1.5,0.3s0.3,0.5,1.1,0.3c0.7-0.2,1.7-0.2,2.1,0
				c0.5,0.3,0.9,0.1,0.9,0.1"/>
			<path id="XMLID_743_" class="st18" d="M79.5,69.9c-0.2,0-0.5,0-0.8-0.2c-0.3-0.2-1.1-0.2-1.8,0c-0.9,0.2-1.4-0.5-1.4-0.5
				c-0.1-0.1-0.1-0.3,0-0.4c0.1-0.1,0.2-0.1,0.3-0.1c0,0,0.8,0.3,1.2-0.3c0.3-0.4,0.7-0.6,1.1-0.6c0.4,0,0.9,0.1,1.3,0.4
				c0.4-0.3,0.9-0.4,1.3-0.4c0.4,0,0.8,0.3,1.1,0.6c0.4,0.5,1.2,0.2,1.2,0.2c0.1,0,0.3,0,0.3,0.1c0.1,0.1,0.1,0.2,0,0.4
				c-0.2,0.3-0.6,0.7-1.4,0.5c-0.7-0.2-1.7-0.1-2,0.1c0,0,0,0,0,0l0,0l-0.3,0.1C79.8,69.9,79.7,69.9,79.5,69.9z M79.3,69.2
				c0,0,0.4,0.1,0.7,0c0.3-0.2,1-0.3,1.7-0.2c0,0-0.1-0.1-0.1-0.1c-0.2-0.2-0.4-0.4-0.7-0.4c-0.3,0-0.7,0.1-1,0.3
				c-0.1,0.1-0.3,0.1-0.5,0c-0.3-0.3-0.7-0.4-1-0.4c-0.3,0-0.5,0.2-0.7,0.4c0,0-0.1,0.1-0.1,0.1c0.6-0.1,1.5,0,1.5,0.1v0L79.3,69.2z
				"/>
		</g>
	</g>
	<g id="XMLID_1752_">
		<defs>
			<rect id="XMLID_1751_" x="44.6" y="6.7" width="52.8" height="21.5"/>
		</defs>
		<clipPath id="XMLID_4_">
			<use xlink:href="#XMLID_1751_"  style="overflow:visible;"/>
		</clipPath>
		<g id="XMLID_1695_" class="st19">
			<g id="XMLID_1697_">
				<g id="XMLID_1745_">
					<path class="st5" d="M78.7,34.3c0,0,0.9,0.6,1.4,2.4c0,0,0.4-1.3-0.2-2.9c0.3-0.2,0.6-0.3,0.8-0.5c0,0,1.3,0.1,3.3,0.7
						c2,0.5,3.2,3,1.4,5c-1.7,2-4,0.5-4,0.5c-2.1,3.8-4.6,1.1-4.6,1.1l0,0c0.7-1.6,0.2-3.9-2.2-5.7l0,0
						C76.1,34.9,77.5,34.7,78.7,34.3L78.7,34.3z"/>
					<path class="st2" d="M59.6,20.4c3.9-1.2,6.6,4.8,6.6,4.8c-0.1,0.1-0.2,0.3-0.3,0.4c-2.2-0.3-3.3,0.8-3.4,0.9
						c0.9-0.4,2.8,0.3,2.8,0.3c-0.3,0.8-0.2,1.7,0.1,2.6c0,0-6-2.4-7.6,1.9l0,0c-2.2-0.7-3.2-1.7-3.1-3.6c0-1.9,2.1-3.3,2.1-3.3
						S56.4,21.3,59.6,20.4z"/>
					<path class="st5" d="M72.6,34.6c0.5,0.1,1,0.2,1.5,0.2l0,0c2.2,2.2,2.2,5.5,0.4,6.2c-1.8,0.7-3-2.6-3-2.6s-0.6,0.6-1.8,1.2
						c-1.2,0.6-2.5,0.7-2.4-1.9c0.1-2.6,3.6-3.6,3.6-3.6l0,0c0.2,0.1,0.5,0.2,0.7,0.2c0,0-0.5,1.7,0.1,3
						C71.8,37.2,71.8,36.1,72.6,34.6z"/>
					<path class="st7" d="M71.7,34.3c0.2,0,0.3,0.1,0.5,0.1c0.2,0,0.3,0.1,0.5,0.1c-0.8,1.6-0.8,2.7-0.8,2.8
						C71.2,36,71.7,34.4,71.7,34.3z"/>
					<path class="st6" d="M57.3,34.2c0-0.5,0-0.9,0-1.3c0.1-0.6,0.2-1.2,0.4-1.6c1.7-4.2,7.6-1.9,7.6-1.9s-5.5-0.4-6.2,2.2
						c-0.7,2.6,0.9,3.3,1.9,3.6c0.6,0.1,0.8,0.2,0.9,0.2c0,0,0.1,2.7,1.8,2.9s2-0.5,2-0.5c0,0.5,0,1,0.1,1.6
						c-4.6,2.4-5.1-2.3-5.1-2.3C57.9,36.4,57.3,34.2,57.3,34.2z"/>
					<path class="st2" d="M89.8,26.4c3.1,1,0.6,5.7,0.6,5.7c0.3,0,2.4,1.4,1.5,3.7c-0.8,2.3-4.2,2-4.2,2c0-0.2,0.1-0.5,0.1-0.7
						c0,0,0.6-5.1-6.3-4.5c0.2-0.3,0.4-0.6,0.6-0.9l0,0c0.7-0.8,2.4-1,2.4-1c-1.1-0.5-2-0.2-2-0.2l0,0c0-0.2,0.1-0.5,0-0.7
						C83.3,28.4,86.8,25.4,89.8,26.4z"/>
					<path class="st6" d="M87.7,37.7c-0.1,0.4-0.1,0.7-0.2,1c-1.3,3.9-5.9,2.8-5.9,2.8c-3.3,3.3-5.7,0.3-5.7,0.3
						c0.4-0.3,0.7-0.8,1-1.3l0,0c0,0,2.5,2.6,4.6-1.1c0,0,2.3,1.5,4-0.5c1.7-2,0.6-4.5-1.4-5c-2-0.5-3.3-0.7-3.3-0.7
						c0.3-0.2,0.5-0.4,0.7-0.6c6.9-0.6,6.3,4.5,6.3,4.5C87.7,37.3,87.7,37.5,87.7,37.7z"/>
					<path class="st7" d="M78.7,34.3c0.4-0.1,0.8-0.3,1.2-0.5c0.6,1.6,0.2,2.9,0.2,2.9C79.6,34.9,78.7,34.3,78.7,34.3L78.7,34.3z"/>
					<path class="st18" d="M73.2,33.2c0,0,0.6,0,0,0.5c-0.5,0.5-0.7,0.3-0.7,0.3C72.6,33.6,73.2,33.2,73.2,33.2z"/>
					<path class="st2" d="M87.1,20.8c1.9,0.4,1.2,3.7,1.2,3.7s-4.7,1.3-5.9,4.3c-0.3-1.3-1.3-2.6-2.7-3.6c0.7-1.5,1.3-1.7,1.5-1.8
						c-1.4,0.1-2.4,1.2-2.4,1.2c-0.8-0.5-1.8-0.9-2.9-1.2c0,0-0.2-1.3,0.2-2.1c0.4-0.9,1.2-3.1,3.8-3.5c2.6-0.4,3.4,3.2,3.4,3.2
						S85.3,20.5,87.1,20.8z"/>
					<path class="st2" d="M71.9,23c-0.3-2.1-2-2.3-2-2.3c0.9,0.9,0.8,2.4,0.8,2.4c-1.5,0.2-2.7,0.7-3.7,1.4c0,0-1-3.7-3.9-5.2l0,0
						c2.7-4.6,6.3-0.6,6.3-0.6c4.6-5.4,6.5,0,6.5,0c-0.6,0.9-1.3,2.5-0.9,4.5l0,0C73.9,23,72.9,23,71.9,23z"/>
					<path class="st18" d="M71.6,33.8c-0.7-0.5-0.4-1.1-0.4-1.1C71.8,32.8,72.3,34.4,71.6,33.8z"/>
					<path class="st6" d="M70.9,34.1c0,0-3.6,1-3.6,3.6c-0.1,2.6,1.2,2.4,2.4,1.9c1.2-0.6,1.8-1.2,1.8-1.2s1.2,3.3,3,2.6
						c1.8-0.7,1.8-4.1-0.4-6.2l0,0c0.2,0,0.3,0,0.5,0l0,0c2.4,1.8,2.9,4.1,2.2,5.7c-0.2,0.5-0.5,0.9-1,1.3c-0.3,0.3-0.7,0.5-1.1,0.6
						c-2.8,1-3.8-2-3.8-2c-3.8,2.7-5-0.3-5-0.3c-0.1-0.2-0.1-0.5-0.2-0.7c-0.1-0.6-0.1-1.1-0.1-1.6c0.3-3.6,4.5-3.8,4.5-3.8
						s0-0.1,0-0.2C70.5,33.9,70.7,34,70.9,34.1L70.9,34.1z"/>
					<path class="st7" d="M73.2,33.7c0.5-0.5,0-0.5,0-0.5s-0.6,0.4-0.7,0.8C72.5,34,72.7,34.3,73.2,33.7z M71.6,33.8
						c0.7,0.5,0.2-1.1-0.4-1.1C71.3,32.7,71,33.3,71.6,33.8z M70.3,33.7c0-0.5,0-1.7,1.3-1.7c0,0,0.5-0.1,0.6,0.8
						c0,0,1.1-1.1,1.7-0.5c0.6,0.7,0.2,1.7-0.6,2.2c-0.3-0.1-0.7-0.1-1.1-0.2C71.5,34.2,70.8,34,70.3,33.7z"/>
					<path class="st8" d="M76.5,30.8c-0.3-1.1-2.1-2-2.1-2c-0.3,0.4-1.5,0.2-1.5,0.2c-2-0.2-2.6,0.8-2.7,1c0-0.3,0-0.6,0.1-0.8
						c0.2-0.6,0.7-1.1,2-1.2c2.5-0.1,1.7-0.9,1.7-0.9c0.1,0.1,2.9,1.5,2.8,2.8C76.6,30.2,76.6,30.5,76.5,30.8z"/>
					<path class="st9" d="M71.6,32c-1.3,0.1-1.4,1.2-1.3,1.7c-0.7-0.3-1.4-0.7-2-1.1l0.1-0.1c-0.3-0.2-0.4-0.5-0.6-0.8
						c0-0.5,0.1-2,2.3-1.7c0,0,0,0,0,0c0,0,0,0,0,0c0.1-0.2,0.7-1.2,2.7-1c0,0,1.2,0.2,1.5-0.2c0,0,1.7,1,2.1,2c0,0,0,0,0,0
						c0,0,1.9-0.4,1.5,2c0,0,0,0.2-0.1,0.4c-0.2,0.4-0.6,0.9-1.9,1.3l0,0.1c-0.9,0.1-1.8,0.1-2.8-0.1c0.8-0.6,1.2-1.6,0.6-2.2
						c-0.6-0.7-1.7,0.5-1.7,0.5C72.1,31.9,71.6,32,71.6,32z"/>
					<path class="st8" d="M70.1,30c-2.2-0.3-2.4,1.1-2.3,1.7c-0.2-0.5-0.2-1-0.2-1c0.2-2.2,2.4-1.6,2.7-1.5
						C70.1,29.4,70.1,29.7,70.1,30C70.1,30,70.1,30,70.1,30C70.1,30,70.1,30,70.1,30z"/>
					<path class="st2" d="M75.1,24.5c4.4,1,6.9,3.7,6.1,6.5c-0.6,1.9-2.6,3.3-5.2,3.6l0-0.1c1.3-0.4,1.7-0.9,1.9-1.3
						C78,33,78,32.8,78,32.8c0.3-2.4-1.5-2-1.5-2c0,0,0,0,0,0c0.1-0.3,0.2-0.6,0.2-0.9c0.1-1.3-2.7-2.7-2.8-2.8c0,0,0.8,0.9-1.7,0.9
						c-1.3,0-1.8,0.6-2,1.2c-0.3-0.1-2.5-0.7-2.7,1.5c0,0,0,0.5,0.2,1c0.1,0.3,0.3,0.6,0.6,0.8l-0.1,0.1c-1.9-1.4-2.7-3.2-2.2-5
						C66.9,24.7,70.8,23.5,75.1,24.5z"/>
					<path class="st7" d="M66.2,31c0.3,0.3,0.6,0.7,0.9,1c0,0-1.7,0.4-2.6,1.6C64.6,33.6,64.5,32.7,66.2,31z"/>
					<path class="st5" d="M66.2,31c-1.7,1.8-1.7,2.6-1.7,2.6c0.9-1.2,2.6-1.6,2.6-1.6c0.8,0.8,1.9,1.4,3.1,1.9c0,0.1,0,0.2,0,0.2
						s-4.2,0.2-4.5,3.8c0,0-0.4,0.7-2,0.5S62,35.4,62,35.4c-0.1,0-0.2-0.1-0.9-0.2c-1.1-0.3-2.6-1-1.9-3.6c0.7-2.6,6.2-2.2,6.2-2.2
						C65.6,29.9,65.8,30.5,66.2,31z"/>
				</g>
				<g id="XMLID_1698_">
					<path class="st0" d="M82.4,28.9c0.1,0.3,0.1,0.6,0.1,0.9c0,0.2,0,0.5,0,0.7c0,0.2-0.1,0.3-0.1,0.5c-0.1,0.3-0.2,0.5-0.3,0.8
						c-0.2,0.3-0.4,0.6-0.6,0.9c-0.2,0.2-0.5,0.4-0.7,0.6c-0.3,0.2-0.5,0.4-0.8,0.5c-0.4,0.2-0.8,0.4-1.2,0.5
						c-1.2,0.4-2.6,0.6-4.1,0.5c-0.2,0-0.3,0-0.5,0c-0.5,0-1-0.1-1.5-0.2c-0.2,0-0.3-0.1-0.5-0.1c-0.2,0-0.3-0.1-0.5-0.1
						c-0.2-0.1-0.5-0.1-0.7-0.2c-0.2-0.1-0.5-0.2-0.7-0.3c-1.2-0.5-2.3-1.2-3.1-1.9c-0.3-0.3-0.6-0.6-0.9-1c-0.4-0.5-0.7-1-0.9-1.6
						c-0.3-0.8-0.4-1.7-0.1-2.6c0.1-0.4,0.3-0.9,0.6-1.2c0.1-0.1,0.2-0.3,0.3-0.4c0.2-0.3,0.5-0.5,0.8-0.7c1-0.7,2.3-1.2,3.7-1.4
						c0.4-0.1,0.8-0.1,1.2-0.1c1,0,2,0,3,0.2c0.2,0,0.4,0.1,0.6,0.1c0.2,0,0.4,0.1,0.5,0.1c1.1,0.3,2,0.7,2.9,1.2
						c0.3,0.2,0.6,0.4,0.9,0.6C81.1,26.3,82.1,27.6,82.4,28.9"/>
					<path class="st10" d="M74.6,34.8c2.4,1.8,2.9,4.1,2.2,5.7c-0.2,0.5-0.5,0.9-1,1.3c-0.3,0.3-0.7,0.5-1.1,0.6c-2.8,1-3.8-2-3.8-2
						c-3.8,2.7-5-0.3-5-0.3c-0.1-0.2-0.1-0.5-0.2-0.7c-0.1-0.6-0.1-1.1-0.1-1.6c0.3-3.6,4.5-3.8,4.5-3.8s0-0.1,0-0.2
						c0,0,0-0.1,0-0.1c0-0.5,0-1.7,1.3-1.7c0,0,0.5-0.1,0.6,0.8c0,0,1.1-1.1,1.7-0.5c0.6,0.7,0.2,1.7-0.6,2.2"/>
					<path class="st10" d="M75.8,41.8c0,0,2.4,3.1,5.7-0.3c0,0,4.6,1.1,5.9-2.8c0.1-0.3,0.2-0.6,0.2-1c0-0.2,0.1-0.5,0.1-0.7
						c0,0,0.6-5.1-6.3-4.5"/>
					<path class="st0" d="M87.4,38.7C87.4,38.7,87.4,38.7,87.4,38.7c0.1,0,4.5,1.2,6.3-3.1c0,0,1.1-3.2-1.4-4.3c0,0,2.4-5.6-2.5-6.7
						c-0.4-0.1-1-0.2-1.5-0.2c0,0-4.7,1.3-5.9,4.3l0,0"/>
					<path class="st0" d="M89.8,24.7c0,0,1.8-7.2-5.5-5.6c0,0-1.4-5.5-7.1-1.9c-0.2,0.2-0.5,0.3-0.8,0.5c0,0-0.3,0.3-0.7,0.9
						c-0.6,0.9-1.3,2.5-0.9,4.5"/>
					<path class="st0" d="M77.3,17.3c0,0-0.8-4.5-5.9-3.1c0,0-1.4,0.8-2.2,2.2c0,0-2.8-4.3-7.7,1.5l-0.2,0.8"/>
					<path class="st0" d="M57.3,32.9c-1.7-0.5-3.3-1.5-3.3-1.5c-3.9-4.4,0.9-7.7,0.9-7.7c0.4-3.4,2.9-4.5,2.9-4.5
						c1.3-0.5,2.4-0.6,3.3-0.5c0.7,0.1,1.3,0.3,1.9,0.6c2.9,1.5,3.9,5.2,3.9,5.2"/>
					<path class="st10" d="M65.4,29.4c0,0-6-2.4-7.6,1.9c-0.2,0.5-0.3,1-0.4,1.6c0,0.4-0.1,0.8,0,1.3c0,0,0.6,2.2,3.5,2.9
						c0,0,0.5,4.7,5.1,2.3"/>
					<path class="st0" d="M73.9,27.1C73.9,27.1,73.9,27.1,73.9,27.1c0.1,0.1,2.9,1.5,2.8,2.8c0,0.4-0.1,0.7-0.2,0.9
						c-0.2,0.7-0.7,1-1.3,1.3"/>
					<path class="st0" d="M70.1,30c0-0.3,0-0.6,0.1-0.8c0.2-0.6,0.7-1.1,2-1.2c2.5-0.1,1.7-0.9,1.7-0.9"/>
					<path class="st0" d="M70.4,31c0,0-0.2-0.4-0.2-1"/>
					<line class="st0" x1="70.1" y1="30" x2="70.1" y2="30"/>
					<path class="st0" d="M70.2,29.2C70.2,29.2,70.2,29.2,70.2,29.2c-0.3-0.1-2.5-0.7-2.7,1.5c0,0,0,0.5,0.2,1
						c0.1,0.3,0.3,0.6,0.6,0.8c0.1,0,0.1,0.1,0.2,0.1"/>
				</g>
			</g>
			<path id="XMLID_1696_" class="st8" d="M77.9,33.2c0,0,0-1.7-1.7-1.6c0,0,0.2-0.2,0.5-0.8c0,0,1.3-0.2,1.4,1.3
				C78.1,32.1,78.2,32.8,77.9,33.2z"/>
		</g>
	</g>
	<g id="XMLID_1674_">
		<g id="XMLID_13_">
			<g id="XMLID_52_">
				<path id="XMLID_53_" class="st2" d="M12.3,48.7c0,0,1.9-0.9,2.4,1.3c0.7,2.8-2.8,4.6-3.9,5.3C9.4,56.3,8.3,56,8.3,56
					s-5-0.4-5.5-3.6c0,0-0.6-1.3,1.3-1.8"/>
			</g>
			<g id="XMLID_50_">
				<path id="XMLID_51_" class="st3" d="M9,55.8c0,0-2-1-1.2-3.1c0,0,0.9-1.2,1.8-0.3c0.8,0.9,0.9,2.1,0.2,3.3
					C9.8,55.6,9.5,56.1,9,55.8z"/>
			</g>
			<g id="XMLID_35_">
				<path id="XMLID_36_" class="st2" d="M8.7,53.2c0,0-0.6,0.8,0.5,1.9c0,0,0.2,0,0.1-1C9.3,53.2,8.7,53.2,8.7,53.2z"/>
			</g>
			<g id="XMLID_14_">
				<path id="XMLID_22_" class="st2" d="M6.1,52.5c0,0-3.2-2.2-1.7-4.2c1.5-2,2.2-0.7,3-2.4c0,0,1,0.6,2.6,0.5
					c1.1-0.1,2.1,1,2.3,2.3c0.1,0.6,0,1.3-0.5,1.9l-0.3,0.6"/>
				<path id="XMLID_21_" class="st3" d="M6.2,52.8c-0.1,0-0.1,0-0.2,0c-0.1-0.1-1.9-1.3-2.2-2.9c-0.1-0.6,0-1.2,0.4-1.7
					c0.8-1.1,1.4-1.3,1.9-1.4c0.4-0.1,0.7-0.2,1-0.9c0-0.1,0.1-0.1,0.2-0.1c0.1,0,0.2,0,0.2,0c0,0,0.9,0.6,2.4,0.5
					c1.3-0.1,2.4,1.2,2.6,2.5c0.1,0.8-0.1,1.5-0.5,2.1l-0.3,0.5c-0.1,0.1-0.2,0.2-0.4,0.1c-0.1-0.1-0.2-0.2-0.1-0.4l0.3-0.6
					c0.5-0.6,0.5-1.3,0.4-1.7c-0.2-1.2-1.1-2.1-2-2.1c-1.2,0.1-2.1-0.2-2.5-0.4c-0.4,0.7-0.8,0.8-1.2,1c-0.4,0.1-0.9,0.3-1.6,1.2
					c-0.3,0.4-0.4,0.8-0.3,1.3c0.2,1.3,1.9,2.5,1.9,2.5c0.1,0.1,0.1,0.2,0.1,0.4C6.3,52.7,6.2,52.8,6.2,52.8z"/>
			</g>
		</g>
		<path id="XMLID_12_" class="st20" d="M12.3,48.7c0,0,2.4-1.2,2.5,2.1c0,0-0.1,2.4-3.3,4.3"/>
	</g>
</g>
</svg>
