<?xml version="1.0" encoding="utf-8"?>
<!-- Generator: Adobe Illustrator 19.0.0, SVG Export Plug-In . SVG Version: 6.00 Build 0)  -->
<svg version="1.1" id="Layer_1" xmlns="http://www.w3.org/2000/svg" xmlns:xlink="http://www.w3.org/1999/xlink" x="0px" y="0px"
	 viewBox="0 0 225 55" style="enable-background:new 0 0 225 55;" xml:space="preserve">
<style type="text/css">
	.st0{fill:#424B50;}
	.st1{fill:#7A1A11;}
	.st2{fill:#EEE2CF;}
	.st3{fill:#707D95;}
	.st4{fill:none;stroke:#BC904A;stroke-miterlimit:10;}
</style>
<g id="XMLID_805_">
	<g id="XMLID_806_">
		<g id="XMLID_852_">
			<path id="XMLID_78_" class="st0" d="M213.4,41.4c0,0,1.5,5.6-4.7,5.8c-1.9,0.1-3.6-0.5-5-1.5c5.6,1.2,5.1-6.2,5.1-6.2
				c0.7,0.8,1.6,1.3,2.6,1.6c0,0,0,0,0,0C212.1,41.3,212.7,41.4,213.4,41.4z"/>
			<path id="XMLID_77_" class="st0" d="M209.7,19.4c0.8-0.4,1.8-0.8,2.8-1c2-0.4,4.2-0.1,6,2c4.7,5.2,0.7,6.3,4.9,9.3
				c0,0-2.2,2.3-2.7,6.7c-0.3,2.9-3.9,5.1-7.4,5.1c-0.7,0-1.3-0.1-2-0.3c5.7,0.4,4.6-6.5,5.2-8.9c0.6-2.3,1.8-2.5,1.8-2.5
				c-1.5,0.1-1.6-1.2-1.6-1.2C216.4,18.5,209.7,19.4,209.7,19.4z"/>
			<path id="XMLID_76_" class="st0" d="M212.6,18.3c-1,0.2-2,0.6-2.8,1c-0.3,0.2-0.6,0.3-0.9,0.5c-2-6.2-6.2-4.2-6.4-4
				c1.6-1.3,3.6-2.1,5.9-2.1c0,0,3.8-1,4.3,4.4L212.6,18.3z"/>
			<path id="XMLID_75_" class="st1" d="M197.5,29.7c3.7-2.4,5.5-0.4,5.5-0.4s-0.3,1.6-2.9,1.3C197.5,30.2,197.5,29.7,197.5,29.7z"/>
			<path id="XMLID_72_" class="st2" d="M203,29.2c0,0-1.8-2-5.5,0.4c0,0,0,0.6,2.6,0.9C202.7,30.9,203,29.2,203,29.2z M205,32.2
				c-2.9,1.8-6.3,1.2-9.1-1.1c0,0-1.2-1.1,0-2.2c0,0,3.8-4.9,9.1-1.7C205,27.2,207.9,30.4,205,32.2z"/>
			<path id="XMLID_69_" class="st3" d="M208.8,39.5c0,0,0.4,7.5-5.1,6.2c-1-0.6-1.8-1.5-2.6-2.4c-2.6-3.2-4-7.6-4.9-9.6
				c-1.9-4.1-0.5-6.9-0.5-6.9s0.1-0.5,0.4-1.2c0.8-2.2,2.8-7.1,6.3-9.8c0,0,0,0,0,0c0.3-0.2,4.4-2.2,6.4,4c0.3-0.2,0.6-0.3,0.9-0.5
				c0,0,6.6-0.9,7.1,9.1c0,0,0.1,1.3,1.6,1.2c0,0-1.2,0.2-1.8,2.5c-0.6,2.3,0.4,9.3-5.2,8.9c0,0,0,0,0,0
				C210.5,40.8,209.6,40.3,208.8,39.5z M195.9,31.1c2.8,2.3,6.2,2.9,9.1,1.1c2.9-1.8,0-5,0-5c-5.3-3.2-9.1,1.7-9.1,1.7
				C194.7,30.1,195.9,31.1,195.9,31.1z"/>
			<path id="XMLID_68_" class="st3" d="M192.9,24.4c0,0-0.3,3.9,1.1,3.4c1.5-0.5,2-2,2-2c-0.3,0.7-0.4,1.2-0.4,1.2s-1.3,2.8,0.5,6.9
				c0.9,2,2.3,6.3,4.9,9.6c-0.3,1.3-1,3-2.8,4.8c0,0-6.1,5.6-11.8,1h6.3v-3c4.3-1.3,3.5-6.2,0-9.5c-0.5-0.4-1-0.9-1.5-1.2
				c-1.9-1.2-2.4-4.9-2.5-7.7v-3.4V13.8H42.9c1.6-1.5,3.3-2.8,5.1-3.8H84h11.9h97V24.4z"/>
			<path id="XMLID_67_" class="st3" d="M191.4,35.5c0.6,0.4,1.1,0.8,1.5,1.2v9.5v3h-6.3H34.3v-2.8v-5.5V25.7
				c1.9-3.6,4.1-6.3,4.1-6.3v26.1h150.5V27.8C189,30.6,189.6,34.2,191.4,35.5z"/>
			<path id="XMLID_66_" class="st1" d="M188.9,27.8v17.7H38.4V19.4c1.4-2.2,2.9-4,4.6-5.6h145.9v10.6
				C188.9,24.4,188.8,25.9,188.9,27.8z"/>
			<path id="XMLID_65_" class="st3" d="M34.3,10h7.5c-2.9,2.4-5.4,5.2-7.5,8.4h0V10z"/>
			<path id="XMLID_64_" class="st3" d="M31.8,32.5c-0.3,1.8-0.3,3.6,0.2,5.3l2.3,3.1v5.5c0,0-6-6-6-8.9c0-0.3-0.1-1-0.1-1.2
				c0.7-1.8,1.1-3.1,1.1-3.1s0.2-0.4,0.3-1.1L31.8,32.5z"/>
			<path id="XMLID_61_" class="st3" d="M29.1,29c-2.8-2.3-6.2-2.9-9.1-1.1c-2.9,1.8,0,5,0,5c5.3,3.2,9.1-1.7,9.1-1.7
				C30.3,30,29.1,29,29.1,29z M29.3,33.2c0,0-0.4,1.3-1.1,3.1c-0.8,2-2.2,4.5-4.1,6.6c-0.5,0.5-1,1-1.5,1.4c-3.1,1.7-5.6-3.2-6-4.3
				c-0.4,0.3-1,0.6-1.6,0.9c-0.6,0.1-4.8,0.2-6.3-8c0,0,0.3-2.1-1.5-2.5c0,0,2.1-1.6,2.5-5.7c0.4-4.1,1.6-5.5,4.3-5.6
				c0.6,0.2,1.1,0.5,1.6,0.9c-0.1-0.3-1-4.2,4.7-6.3c4.1,2.1,6.4,7.5,7.7,10.9c0.3,0.7,0.5,1.2,0.7,1.7c1.2,2.6,1.1,4.7,0.8,5.8
				C29.5,32.8,29.3,33.2,29.3,33.2z"/>
			<path id="XMLID_60_" class="st3" d="M28.2,24.5c0,0,0.9,2,2.4,0.1c0.1-0.2,0.3-0.4,0.5-0.7c1-2,2-3.8,3.2-5.6
				c2.1-3.2,4.6-6,7.5-8.4c2.8-2.3,6-4.1,9.7-5.5c10.9-4.1,22-1.4,30.5,1.6c4.5,1.6,9.2,2.8,14,3.9H84c-3.2-0.8-4.7-1.4-4.7-1.4
				c-5.6-2-19.8-5.1-31.2,1.4c-1.8,1-3.5,2.3-5.1,3.8c-1.7,1.6-3.2,3.4-4.6,5.6c0,0-2.2,2.6-4.1,6.3c-1.1,2.1-2.1,4.4-2.5,6.8
				l-2.1-0.4c0.2-1.2,0.3-3.3-0.8-5.8c-0.2-0.5-0.4-1-0.7-1.7L28.2,24.5z"/>
			<path id="XMLID_59_" class="st1" d="M27.5,30.4c-3.7,2.4-5.5,0.4-5.5,0.4s0.3-1.6,2.9-1.3S27.5,30.4,27.5,30.4z"/>
			<path id="XMLID_54_" class="st2" d="M29.1,29c0,0,1.2,1.1,0,2.2c0,0-3.8,4.9-9.1,1.7c0,0-2.9-3.2,0-5
				C22.9,26.1,26.3,26.7,29.1,29z M27.5,30.4c0,0,0-0.6-2.6-0.9S22,30.9,22,30.9S23.8,32.8,27.5,30.4z"/>
			<path id="XMLID_53_" class="st0" d="M16.6,40c0.5,1,3,6,6,4.3c-1.6,1.3-3.6,2.1-5.9,2.1c0,0-3.8,1-4.3-4.4l0-0.1
				c0.9-0.2,1.8-0.5,2.5-0.9C15.6,40.6,16.1,40.3,16.6,40z"/>
			<path id="XMLID_42_" class="st0" d="M20.3,13.7c-5.7,2.1-4.8,6-4.7,6.3c-0.5-0.4-1.1-0.7-1.6-0.9c-0.8-0.3-1.6-0.4-2.4-0.5
				c0,0-1.5-5.6,4.7-5.8C17.8,12.8,19.2,13.1,20.3,13.7z"/>
			<path id="XMLID_5_" class="st0" d="M8.6,32.9c1.5,8.2,5.8,8,6.3,8c-0.8,0.4-1.6,0.7-2.5,0.9c-2,0.4-4.2,0.1-6-2
				c-4.7-5.2-0.7-6.3-4.9-9.3c0,0,2.3-2.3,2.7-6.7c0.3-2.9,3.9-5.1,7.4-5.1c0.8,0,1.6,0.2,2.4,0.5c-2.7,0.1-3.9,1.5-4.3,5.6
				c-0.4,4.1-2.5,5.7-2.5,5.7C8.9,30.8,8.6,32.9,8.6,32.9z"/>
		</g>
		<g id="XMLID_834_">
			<polyline id="XMLID_99_" class="st4" points="48.1,10 84,10 95.9,10 192.9,10 192.9,24.4 192.9,25.3 			"/>
			<polyline id="XMLID_98_" class="st4" points="34.3,18.4 34.3,10 41.8,10 			"/>
			<polyline id="XMLID_97_" class="st4" points="192.9,36.7 192.9,36.7 192.9,46.2 192.9,49.2 186.7,49.2 34.3,49.2 34.3,46.4 
				34.3,40.9 34.3,25.7 34.3,25.5 			"/>
			<polyline id="XMLID_96_" class="st4" points="42.9,13.8 42.9,13.8 188.9,13.8 188.9,24.4 188.9,27.8 188.9,45.5 38.4,45.5 
				38.4,19.4 			"/>
			<path id="XMLID_95_" class="st4" d="M211.4,41.1c-0.9-0.3-1.8-0.8-2.6-1.6c-0.1-0.1-0.2-0.2-0.3-0.4l-1.3-1.2"/>
			<path id="XMLID_94_" class="st4" d="M207.1,21.1c0,0,0.6-0.6,1.7-1.2c0.3-0.2,0.6-0.3,0.9-0.5c0.8-0.4,1.8-0.8,2.8-1
				c2-0.4,4.2-0.1,6,2c4.7,5.2,0.7,6.3,4.9,9.3c0,0-2.2,2.3-2.7,6.7c-0.3,2.9-3.9,5.1-7.4,5.1c-0.7,0-1.3-0.1-2-0.3"/>
			<path id="XMLID_93_" class="st4" d="M202.4,15.9c1.6-1.3,3.6-2.1,5.9-2.1c0,0,3.8-1,4.3,4.4"/>
			<path id="XMLID_92_" class="st4" d="M213.4,41.4c0,0,1.5,5.6-4.7,5.8c-1.9,0.1-3.6-0.5-5-1.5c-1-0.6-1.8-1.5-2.6-2.4
				c-2.6-3.2-4-7.6-4.9-9.6c-1.9-4.1-0.5-6.9-0.5-6.9s0.1-0.5,0.4-1.2c0.8-2.2,2.8-7.1,6.3-9.8"/>
			<path id="XMLID_91_" class="st4" d="M188.9,24.4c0,0-0.1,1.5,0,3.4c0.1,2.8,0.7,6.5,2.5,7.7c0.6,0.4,1.1,0.8,1.5,1.2
				c3.5,3.3,4.3,8.3,0,9.5"/>
			<path id="XMLID_90_" class="st4" d="M201.2,43.4c-0.3,1.3-1,3-2.8,4.8c0,0-6.1,5.6-11.8,1"/>
			<path id="XMLID_89_" class="st4" d="M192.9,24.4c0,0-0.3,3.9,1.1,3.4c1.5-0.5,2-2,2-2"/>
			<path id="XMLID_88_" class="st4" d="M15.6,20.1c0.3,0.2,0.6,0.5,0.9,0.9l1.3,1.2"/>
			<path id="XMLID_87_" class="st4" d="M17.9,39c0,0-0.5,0.4-1.3,0.9c-0.4,0.3-1,0.6-1.6,0.9c-0.8,0.4-1.6,0.7-2.5,0.9
				c-2,0.4-4.2,0.1-6-2c-4.7-5.2-0.7-6.3-4.9-9.3c0,0,2.3-2.3,2.7-6.7c0.3-2.9,3.9-5.1,7.4-5.1c0.8,0,1.6,0.2,2.4,0.5
				c0.6,0.2,1.1,0.5,1.6,0.9"/>
			<path id="XMLID_86_" class="st4" d="M11.6,18.7c0,0-1.5-5.6,4.7-5.8c1.5-0.1,2.9,0.3,4,0.9c4.1,2.1,6.4,7.5,7.7,10.9
				c0.3,0.7,0.5,1.2,0.7,1.7c1.2,2.6,1.1,4.7,0.8,5.8c-0.1,0.7-0.3,1.1-0.3,1.1s-0.4,1.3-1.1,3.1c-0.8,2-2.2,4.5-4.1,6.6
				c-0.5,0.5-1,1-1.5,1.4c-1.6,1.3-3.6,2.1-5.9,2.1c0,0-3.8,1-4.3-4.4"/>
			<path id="XMLID_85_" class="st4" d="M34.3,40.9L32,37.8c-0.5-1.7-0.5-3.5-0.2-5.3c0.4-2.4,1.4-4.8,2.5-6.8
				c1.9-3.6,4.1-6.3,4.1-6.3c1.4-2.2,2.9-4,4.6-5.6c1.6-1.5,3.3-2.8,5.1-3.8c11.4-6.4,25.6-3.4,31.2-1.4c0,0,1.5,0.6,4.7,1.4"/>
			<path id="XMLID_84_" class="st4" d="M31.1,24c1-2,2-3.8,3.2-5.6c2.1-3.2,4.6-6,7.5-8.4c2.8-2.3,6-4.1,9.7-5.5
				c10.9-4.1,22-1.4,30.5,1.6c4.5,1.6,9.2,2.8,14,3.9c0.1,0,0.3,0.1,0.4,0.1"/>
			<path id="XMLID_83_" class="st4" d="M34.3,46.4c0,0-6-6-6-8.9c0-0.3-0.1-1-0.1-1.2"/>
			<path id="XMLID_82_" class="st4" d="M28.2,24.5c0,0,0.9,2,2.4,0.1c0.1-0.2,0.3-0.4,0.5-0.7"/>
			<path id="XMLID_81_" class="st4" d="M202.4,15.9C202.4,15.9,202.4,15.9,202.4,15.9"/>
			<path id="XMLID_80_" class="st4" d="M209.7,19.4c0,0,6.6-0.9,7.1,9.1c0,0,0.1,1.3,1.6,1.2c0,0-1.2,0.2-1.8,2.5
				c-0.6,2.3,0.4,9.3-5.2,8.9c0,0,0,0,0,0"/>
			<path id="XMLID_79_" class="st4" d="M15.6,20.1C15.6,20.1,15.6,20.1,15.6,20.1"/>
		</g>
	</g>
</g>
</svg>
