<?xml version="1.0" encoding="utf-8"?>
<!-- Generator: Adobe Illustrator 19.0.0, SVG Export Plug-In . SVG Version: 6.00 Build 0)  -->
<svg version="1.1" id="Layer_1" xmlns="http://www.w3.org/2000/svg" xmlns:xlink="http://www.w3.org/1999/xlink" x="0px" y="0px"
	 viewBox="-26.5 13.5 55 55" style="enable-background:new -26.5 13.5 55 55;" xml:space="preserve">
<style type="text/css">
	.st0{fill:#707D95;stroke:#BC904A;stroke-width:1.4;stroke-miterlimit:10;}
	.st1{fill:#424B50;}
	.st2{fill:#7A1A11;}
	.st3{fill:none;stroke:#BC904A;stroke-width:1.4;stroke-miterlimit:10;}
	.st4{fill:#BC904A;}
</style>
<g id="XMLID_842_">
</g>
<circle id="XMLID_1248_" class="st0" cx="0.9" cy="41.4" r="25.5"/>
<path id="XMLID_1244_" class="st1" d="M17.2,41.4c0-9-7.3-16.3-16.3-16.3c-9,0-16.3,7.3-16.3,16.3c0,5.8,3,10.9,7.6,13.8v2.7H2.5
	h7.9l-0.8-2.7C14.2,52.2,17.2,47.2,17.2,41.4z"/>
<polygon id="XMLID_1241_" class="st2" points="-1.2,24.2 -2.2,29.4 -4.7,31.8 -4,37.5 -5.8,37.5 -5.4,40.3 -5.8,42.5 -10.5,43 
	-7.5,47.9 -7.9,57.9 2.5,57.9 10.2,57 9.2,48.1 11.7,43.3 6.1,41.4 5.9,40 6.6,38.1 5.9,37.5 4.7,34.1 5.5,31.6 1.5,30.6 1.5,27.4 
	-0.2,24.2 "/>
<g id="XMLID_1125_">
	<polyline id="XMLID_1197_" class="st3" points="9.3,47.9 10.5,56.9 2.8,57.9 	"/>
	<polyline id="XMLID_1196_" class="st3" points="-10.3,42.9 -4.7,41.1 1.7,40.3 3.3,41.5 2,46.8 2.8,57.9 -8.2,57.4 -7.5,47.4 
		2,46.8 9.3,47.9 12.1,43.4 3.3,41.5 -10.3,42.9 -10.3,44.5 -7.6,48.6 	"/>
	<polyline id="XMLID_1195_" class="st3" points="6.1,41.4 5.9,40 7.3,38.2 1.5,36.6 -5.5,37.7 -6.2,40.1 -4.7,41.1 -4.3,39.8 
		1.5,39 1.7,40.3 6.6,41.5 12.1,43.4 	"/>
	<line id="XMLID_1194_" class="st3" x1="5.9" y1="40" x2="1.5" y2="39"/>
	<polyline id="XMLID_1193_" class="st3" points="-4.2,37.5 -4,33.5 -5,31.2 0.9,29.9 5.9,31.8 4.7,34.2 5,37.5 	"/>
	<polyline id="XMLID_1192_" class="st3" points="-5,31.2 -5.4,34.3 -4.1,35.3 	"/>
	<polyline id="XMLID_1190_" class="st3" points="-4,33.5 1.1,32.8 1.5,36.6 	"/>
	<polyline id="XMLID_1189_" class="st3" points="0.9,29.9 1.1,32.8 4.9,33.7 	"/>
	<polyline id="XMLID_1159_" class="st3" points="-2.5,30.6 -3,29.9 -0.3,28.2 2.9,29.4 2.4,30.5 	"/>
	<polyline id="XMLID_1153_" class="st3" points="-2.6,29.4 -3,28.2 0.9,27.4 2.5,28.7 2.4,29.2 	"/>
	<polyline id="XMLID_1127_" class="st3" points="-1.5,27.9 -1.2,25.5 -0.3,24.2 0.2,24.2 1.2,25.6 1.5,27.9 	"/>
	<path id="XMLID_1126_" class="st4" d="M4.9,57.6l-0.4-5.5c0,0-0.3-2.2,1.3-2.5s2.2,2.1,2.2,3.3c0.1,1.1,0.3,4.3,0.3,4.3"/>
</g>
</svg>
