<?xml version="1.0" encoding="utf-8"?>
<!-- Generator: Adobe Illustrator 19.0.0, SVG Export Plug-In . SVG Version: 6.00 Build 0)  -->
<svg version="1.1" id="Layer_1" xmlns="http://www.w3.org/2000/svg" xmlns:xlink="http://www.w3.org/1999/xlink" x="0px" y="0px"
	 viewBox="-29 11 60 60" style="enable-background:new -29 11 60 60;" xml:space="preserve">
<style type="text/css">
	.st0{fill:#B55C39;}
	.st1{fill:#CBDCCB;}
	.st2{fill:#A1B799;}
	.st3{fill:none;stroke:#BC904A;stroke-width:1.4;stroke-miterlimit:10;}
</style>
<g id="XMLID_842_">
</g>
<g id="XMLID_543_">
	<g id="XMLID_544_">
		<g id="XMLID_1397_">
			<path class="st0" d="M-0.2,59.9c-3.9-6.2-0.7-9.2-0.7-9.2s2.7,0.5,2.1,4.9S-0.2,59.9-0.2,59.9z"/>
			<path class="st1" d="M-0.2,59.9c0,0,0.9,0,1.5-4.4s-2.1-4.9-2.1-4.9S-4.1,53.6-0.2,59.9z M2.3,62.5c0,0-1.7,2-3.7,0
				c0,0-8.2-6.4-2.9-15.1c0,0,5.4-4.9,8.4,0C7.2,52.2,6.1,57.8,2.3,62.5z"/>
			<path class="st1" d="M-17.5,39c0.5,1,1,2,1.5,2.7c-1.9,0.9-12.1,6-5.5,12l-0.3,0.3c-3.4-3.1-5.9-7.1-5.7-12c0,0-1-8.4,8.4-7.1
				l0.2,0C-18.7,36.3-18.2,37.7-17.5,39z"/>
			<path class="st1" d="M17.1,40.1c0.7-0.8,1.2-1.8,1.5-2.7c0.5-1.3,0.7-2.6,0.8-3.9c0,0,11.7-0.5,9.4,9.6c-0.3,1.6-0.8,3-1.4,4.3
				C23.7,38.1,17.1,40.1,17.1,40.1z"/>
			<path class="st2" d="M-1.4,62.5c1.9,2,3.7,0,3.7,0c3.9-4.7,4.9-10.3,1.9-15.1c-3-4.9-8.4,0-8.4,0C-9.6,56.1-1.4,62.5-1.4,62.5z
				 M6.8,62c-6.8,3.1-11.5,0.9-11.5,0.9s-10.3-2.7-17-8.9l0.3-0.3c-6.6-6,3.6-11.1,5.5-12c-0.5-0.7-1-1.7-1.5-2.7
				c-0.1-0.9-0.3-8,13.3-10.5c0,0,3.5,0.5,4.2-2.4c0,0,2.6,3.4,9.4,4.2c6.8,0.7,9.1,2.6,9.3,7.1h0c-0.4,1-0.9,1.9-1.5,2.7
				c0,0,6.6-2,10.3,7.2C22.8,57.3,11.7,59.7,6.8,62z"/>
			<path class="st1" d="M11,21c4.9,0.5,8.6,6.5,8.4,12.3c0,1.3-0.3,2.7-0.8,3.9h0c-0.2-4.5-2.5-6.4-9.3-7.1C2.5,29.5-0.1,26-0.1,26
				c-0.7,2.9-4.2,2.4-4.2,2.4C-17.8,31-17.6,38.1-17.5,39c-0.6-1.3-1.2-2.7-1.4-4.2c-0.6-3.3-0.1-6.9,3.3-10
				c8.6-7.8,10.4-1.1,15.5-8.2C-0.2,16.6,3.6,20.3,11,21z"/>
		</g>
		<g id="XMLID_867_">
			<path class="st3" d="M-14.4,43.8c0,0-0.7-0.8-1.6-2.1c-0.5-0.7-1-1.7-1.5-2.7c-0.6-1.3-1.2-2.7-1.4-4.2c-0.6-3.3-0.1-6.9,3.3-10
				c8.6-7.8,10.4-1.1,15.5-8.2c0,0,3.8,3.7,11.2,4.5c4.9,0.5,8.6,6.5,8.4,12.3c0,1.3-0.3,2.7-0.8,3.9c-0.4,1-0.9,1.9-1.5,2.7"/>
			<path class="st3" d="M19.4,33.4c0,0,11.7-0.5,9.4,9.6c-0.3,1.6-0.8,3-1.4,4.3C22.8,57.3,11.7,59.7,6.8,62
				c-6.8,3.1-11.5,0.9-11.5,0.9s-10.3-2.7-17-8.9c-3.4-3.1-5.9-7.1-5.7-12c0,0-1-8.4,8.4-7.1"/>
		</g>
	</g>
</g>
</svg>
