<?xml version="1.0" encoding="utf-8"?>
<!-- Generator: Adobe Illustrator 19.0.0, SVG Export Plug-In . SVG Version: 6.00 Build 0)  -->
<svg version="1.1" xmlns="http://www.w3.org/2000/svg" xmlns:xlink="http://www.w3.org/1999/xlink" x="0px" y="0px"
	 viewBox="0 0 500 500" style="enable-background:new 0 0 500 500;" xml:space="preserve">
<g id="Layer_1">
	<g id="XMLID_6_">
		<path id="XMLID_54_" d="M275.4,180.5l-0.2-0.1C274.9,180.6,275.1,180.6,275.4,180.5z"/>
		<path id="XMLID_56_" d="M290.8,188.8l0.7,0.2C291.2,188.4,291,188.5,290.8,188.8z"/>
		<path id="XMLID_65_" d="M213.1,101c-3.1-0.1-6.1-0.2-8.1-0.3l0,1.6c0,0,1,0.3,2,0.7c1,0.4,2,0.7,2,0.7l1.5-1.9
			c0.7,0.3,1.3,0.6,1.9,0.8c0.6,0.2,1.1,0.4,1.7,0.6c1.1,0.3,2,0.4,2.9,0.5c1.8,0.2,3.3,0.2,5,0.6c2.4,0.6,4.3,0.3,4.9-0.5
			c0,0-1.3-0.2-2.6-0.3c-0.6-0.1-1.3-0.2-1.8-0.2c-0.5,0-0.8-0.1-0.8-0.1l0.4-1.2c-1.3-0.2-2.8-0.4-4.3-0.6
			C216.3,101.2,214.7,101.1,213.1,101z"/>
		<path id="XMLID_66_" d="M354.4,168l-0.2-0.2c-0.1,0.1-0.2,0.2-0.4,0.2C354,168.2,354.2,168.2,354.4,168z"/>
		<path id="XMLID_67_" d="M242.4,37.7l0.8,0.1c0-0.1-0.2-0.3-0.5-0.4C242.7,37.5,242.5,37.6,242.4,37.7z"/>
		<path id="XMLID_68_" d="M353.8,168c-0.2-0.2-0.4-0.5-0.5-1l-0.2-0.2C353.2,167.9,353.5,168.1,353.8,168z"/>
		<path id="XMLID_69_" d="M291.7,184.8l-0.2-0.1c-0.1,0.1-0.2,0.1-0.4,0.1C291.3,184.9,291.5,184.9,291.7,184.8z"/>
		<path id="XMLID_70_" d="M291.1,184.8c-0.2-0.1-0.3-0.3-0.4-0.6l-0.2-0.1C290.6,184.8,290.8,184.9,291.1,184.8z"/>
		<path id="XMLID_71_" d="M227.3,103.8c0-0.1-0.1-0.2-0.3-0.4c0,0.1-0.2,0.2-0.2,0.3L227.3,103.8z"/>
		<path id="XMLID_72_" d="M220,33.4c-5.1-0.3-9.9-0.6-13.2-0.6l0,1.6c0,0,1.7,0.3,3.4,0.7c1.7,0.4,3.3,0.8,3.3,0.8l2.4-1.8
			c1.1,0.3,2.1,0.6,3.1,0.9c1,0.3,1.9,0.5,2.8,0.7c1.7,0.4,3.3,0.6,4.7,0.8c2.9,0.4,5.4,0.6,8.2,1.2c3.9,0.9,6.9,0.9,7.8,0.1
			c0,0-2.1-0.4-4.1-0.7c-1-0.2-2.1-0.3-2.8-0.5c-0.8-0.1-1.3-0.2-1.3-0.2l0.5-1.1c-2.1-0.4-4.5-0.7-7-1.1
			C225.1,33.8,222.5,33.6,220,33.4z"/>
		<path id="XMLID_74_" d="M275.4,180.5l0.2,0.1c0-0.1,0-0.1,0-0.1C275.5,180.5,275.5,180.5,275.4,180.5z"/>
		<path id="XMLID_75_" d="M173.8,305.9C174.1,306,174.3,305.9,173.8,305.9L173.8,305.9z"/>
		<path id="XMLID_76_" d="M122.4,127.6c0.1-0.1,0.1-0.1,0.1-0.2c-0.2-0.4-0.3-0.7-0.4-1L122.4,127.6z"/>
		<path id="XMLID_77_" d="M152.4,108c0.1,0,0.2,0,0.2,0C152.5,107.8,152.5,107.6,152.4,108z"/>
		<path id="XMLID_78_" d="M96.4,204.2c-0.1-0.2-0.2-0.4-0.2-0.6C96.1,203.9,96.2,204.1,96.4,204.2z"/>
		<path id="XMLID_79_" d="M126.5,201c0.1,0.1,0.1,0.3,0.1,0.4C126.7,201.1,126.6,201,126.5,201z"/>
		<path id="XMLID_80_" d="M122.2,126.4l-0.1-0.5C122.1,126.1,122.1,126.3,122.2,126.4z"/>
		<path id="XMLID_81_" d="M183.5,98.1c0.1,0.3,0.2,0.5,0.3,0.7c0,0,0.1,0,0.1,0L183.5,98.1z"/>
		<path id="XMLID_82_" d="M291.1,184.8c0.1,0,0.2-0.1,0.4-0.1l-0.8-0.4C290.8,184.5,291,184.7,291.1,184.8z"/>
		<path id="XMLID_83_" d="M222.5,103.2c0.5,0.1,1.1,0.1,1.8,0.2c1.3,0.2,2.6,0.3,2.6,0.3c0.1-0.1,0.2-0.2,0.2-0.3
			c-0.6-0.5-2.5-1-5-1.5l-0.4,1.2C221.7,103.1,222.1,103.2,222.5,103.2z"/>
		<path id="XMLID_84_" d="M179.8,275.1c-3-0.8-5.9-1.7-8.8-2.9c-2.9-1.1-5.7-2.5-8.4-3.9c-2.7-1.5-5.3-3.1-7.8-5
			c-2.5-1.8-4.8-3.8-7-5.9c-2.1-2.2-4.2-4.4-6-6.8c-3.6-4.7-6.5-9.9-8.2-15.2c0.2-1.3-0.6-3.2-1.2-5.2c-0.2-0.5-0.3-1-0.5-1.5
			c-0.1-0.5-0.2-0.9-0.3-1.4c-0.1-0.9-0.2-1.6,0-2.1c-2.2-3-3.7-6.5-4.5-10.1c-0.2-0.9-0.4-1.8-0.5-2.7c-0.2-0.9-0.3-1.8-0.3-2.8
			c-0.1-0.9-0.1-1.8-0.2-2.8c0-0.9,0-1.8,0-2.7l0.2,0.3c0,0-0.1-0.8-0.2-1.7c-0.1-0.9-0.1-1.7-0.1-1.7c0.2-0.1,0.4-0.2,0.6,0
			c-0.4-1-0.6-2.1-0.6-3.3c0-1.2,0.1-2.5,0.5-3.7c0.3-1.3,0.7-2.5,1.2-3.8c0.5-1.2,0.9-2.4,1.4-3.5l0.2,0.3c0.2-0.8,0.4-1.6,0.6-2.4
			c0.2-0.8,0.5-1.6,0.7-2.4c0.4-1.6,1-3.2,1.5-4.8l0.9-2.3l0.4-1.2l0.5-1.1l0.9-2.3l1-2.2c0.3-0.8,0.7-1.5,1.1-2.2l1.1-2.2
			c0.8-1.4,1.6-2.9,2.5-4.2c1.7-2.8,3.7-5.4,5.8-8c4.3-5,9.3-9.5,14.9-13c5.6-3.6,12-6.1,18.6-7.5c3.2-0.1,6.4-0.6,9.7-1
			c1.6-0.3,3.3-0.4,5-0.7c0.8-0.1,1.7-0.2,2.5-0.3l1.3-0.2l1.3-0.1c0.9-0.1,1.7-0.1,2.6-0.2c0.9,0,1.8,0,2.6-0.1l1.3,0l1.3,0.1
			c0.9,0.1,1.8,0.1,2.7,0.2c3.5,0.4,7,1.3,10.3,2.8c1,1.3,8.4,3.3,15.3,6.8c7,3.2,13.3,7.7,14.6,8.2c0,0-0.1-0.3-0.1-0.6
			c-0.1-0.4-0.2-0.9-0.4-1.4c-0.3-1-0.6-2-0.6-2c4.7,3,7.4,6.1,9.8,9.1c2.4,3,4.5,5.9,8,9.3l-0.7-0.2c0.1,0.7,1.5,0.5,3.1,2.2
			c0.7,0.9,1.7,2.2,2.3,4.5c0.2,0.6,0.3,1.2,0.5,1.8c0.1,0.7,0.2,1.4,0.3,2.2c0.2,1.5,0.2,3.3,0.1,5.4l-0.2,0.1
			c0.2,0.5,0.7,0.3,0.4,1.5c0,0,0.2-0.7,0.3-1.5c0.1-0.7,0.2-1.5,0.2-1.5c1.2,1.2,2.7,2.2,3.5,4.1c-0.1,0.5-0.6,0.8-0.9,1
			c0,0,0,0.1,0,0.1l15.2,5.9c0.5-0.8,1-1.2,1.1-2c-0.1,0-0.2,0.1-0.4,0.2l0.2,0.1c-0.2,0.2-0.4,0.1-0.6,0c-0.3,0.1-0.5,0-0.6-0.7
			l0.2,0.1c-0.4-1-0.6-2.8-0.7-3.6l1.2-0.3c-0.6-0.3-1-1.3-1.2-2.6c-0.1-0.7-0.1-1.4-0.1-2.2c0-0.8,0-1.6,0-2.5
			c0-0.9,0.1-1.8,0.1-2.6c0-0.9,0-1.7,0-2.4c0-0.8-0.1-1.5-0.1-2c-0.1-0.6-0.2-1-0.3-1.3c0.1-1.5-0.5-2.8-1.4-4.1
			c-0.9-1.3-1.8-2.6-2.3-4.2c-2.3-4.7,0.2-3.2-0.3-6c-1.2-3.3-0.8,1.3-1.6,0.2c0,0-0.2-1.1-0.4-2.1c-0.2-1.1-0.5-2.1-0.5-2.1
			c1.5,1.8,1.3,0.4,1.5-0.2c-0.9-1.5-1.8-3.7-2.8-5.5c-0.5-0.9-1-1.6-1.6-2.1c-0.6-0.5-1.2-0.7-1.8-0.5c-0.6-1.1-1-2-1.2-2.7
			c-0.3-0.7-0.5-1.2-0.6-1.7c-0.3-0.9-0.5-1.5-1.2-2.3c0.2,0.8,0.8,2.1,0.5,2.4c-0.6-2.1-0.8-0.5-0.5,0.2c-0.7-0.3-1.5-1.4-2.4-2.8
			c-0.9-1.3-1.9-3-3-4.5c-2.1-3.1-4.3-5.6-5.4-4.8l0.3-0.4c-1.7,1.1-2.1,3.3-4.3,3l-0.6-1.5l-2.1-0.5c-0.7-1.3,0.1-1.4,0.2-1.6
			c-1.6-0.6-3.3-1.7-4.9-2.9c-1.7-1.2-3.4-2.6-5.2-3.6c0,0,0.3,1.7,0.6,3.3c0.3,1.7,0.5,3.4,0.5,3.4c-0.5-0.7-1.2-1.5-1.9-2.3
			c-0.7-0.8-1.5-1.6-2.3-2.3c-1.5-1.4-3-2.2-3.6-1.6c0,0-0.3-0.6-0.5-1.2c-0.3-0.6-0.6-1.2-0.6-1.2c-2.5-2.8-3.8-3-4.6-2.5
			c-0.9,0.4-1.3,1.3-2.4,0.4c0,0-0.7-0.7-1.3-1.5c-0.7-0.7-1.4-1.4-1.4-1.4s0.8,0.2,1.6,0.5c0.8,0.3,1.6,0.6,1.6,0.6
			c-0.7-0.5-1.4-1-1.9-1.4c-0.6-0.4-1.1-0.8-1.5-1.1c-1-0.7-1.8-1.5-3-2.5c0,0,0,0,0,0c0.2,0.1,0.3,0.2,0.3,0.4l-0.5-0.1
			c-0.7,0.9-2.6,1.1-4.9,0.5c-1.7-0.4-3.2-0.4-5-0.6c-0.9-0.1-1.8-0.2-2.9-0.5c-0.5-0.1-1.1-0.3-1.7-0.6c-0.6-0.2-1.2-0.5-1.9-0.8
			l-1.5,1.9c0,0-1-0.4-2-0.7c-1-0.3-2-0.7-2-0.7l0-1.6c2.1,0.1,5,0.2,8.1,0.3c1.6,0.1,3.2,0.3,4.7,0.4c1.5,0.2,3,0.4,4.3,0.6
			l0.2-0.7c-1.6-0.3-3.3-0.4-4.8-0.5c-1.6,0-3-0.1-4-0.3c-0.9-0.4-3-1.9-1.9-2.9l-1.7,1.1c-2.7-0.2-4.7-0.2-6.4-0.2
			c-1.7-0.1-3,0-4.4-0.1c-1.4-0.1-2.8-0.2-4.5-0.3c-0.9-0.1-1.9-0.1-3-0.2c-1.1-0.1-2.4-0.1-3.8-0.1l1.1,0.7c-1.1,0.4-2.1,0.7-3,0.9
			c-0.9,0.2-1.6,0.1-2-0.5c-6.7,0.9-13.8,1.9-18.7,1.5c0,0-0.1,0.5-0.1,1c-0.1,0.5-0.1,1.1-0.1,1.1c-1.4,0.4-4.5-1.4-4.2,1.3
			c0,0-0.2,0.1-0.4,0.3c-0.2,0.2-0.5,0.4-0.9,0.7c-0.6,0.5-1.2,1-1.2,1c-0.9,0.3-1.6,0.9-2.3,1.3c-0.7,0.5-1.5,0.9-2.7,0.9l0,0
			c0,0,0,0,0,0c-0.2,0-0.3,0-0.5,0c0,0.1,0.1,0.1,0.1,0.1c-2.2,0.6-2,1-1.8,1.4c0.1,0.4,0.2,0.8-2.3,1.6c-2.1-0.3-0.4,2.9-2.6,3.9
			c0,0-0.9-0.2-1.8-0.5c-0.9-0.2-1.8-0.5-1.8-0.5c-2.3,0.6-3.2,1.7-4.2,3c-0.5,0.7-1,1.4-1.7,2.3c-0.7,0.8-1.6,1.7-2.8,2.8
			c-3,1.3-5.7,0.6-5.5-2.3c-0.3,1.9-0.3,2.4-0.4,2.9c-0.2,0.5-0.5,0.9-1.5,2.7c-1.1-0.3-1-0.8-1-2c-1.7,0.8-1.9,1.3-1.9,1.9
			c0,0.6,0.1,1.2-0.8,2.1c0.9,1.9,2.5,4.6,2.1,5.2l1.1-0.3c-0.5,1.3-1.1,2.6-2,3.7c-0.8,1.1-1.8,2.2-3.2,3.1l-0.7-0.7
			c0,0-0.4,0.7-0.8,1.4c-0.4,0.7-0.8,1.4-0.8,1.4l-1.1-0.6c0,0-0.6,1-1.2,2c-0.3,0.5-0.6,1-0.8,1.4c-0.2,0.4-0.4,0.6-0.4,0.6
			l0.6-0.4c-0.2,0.5-0.7,1.6-1.4,2.7c-0.3,0.6-0.7,1.1-1.1,1.6c-0.4,0.5-0.7,1-1.1,1.4l-0.6-0.4c-1.2,1-2.1,2.1-2.8,3.3
			c-0.7,1.2-1.2,2.5-1.6,3.9c-0.8,2.7-1.3,5.7-2.4,8.9l-1-1.3c-2.1,1.7,1.7,1.3,0.2,3.7l-1.7-0.4c1.4,3.1-1.5,2.8-2.8,4.3l2.4-0.1
			l-1.3,2.9c-0.8,1.6-1.7,1.9-2.4,1.8c-0.7-0.1-1.4-0.8-1.9-1.2c0,0,0.3,0.7,0.6,1.4c0.3,0.7,0.6,1.4,0.6,1.4l-2,0
			c1.9,2.3-0.8,1.7-0.2,5c-0.8,0.1-1.1-0.7-1.6,0.3c0,0,0.5,1.4,0.9,2.8c0.5,1.4,1.1,2.8,1.1,2.8s-0.2-0.8-0.4-1.6
			c-0.1-0.4-0.2-0.8-0.3-1.1c-0.1-0.3-0.1-0.5-0.1-0.5l2.8,0.8c0.9,1.7,0.7,2.8,0.3,3.7c-0.4,0.9-0.9,1.7-0.6,2.9
			c0,0-0.2-0.4-0.4-0.8c-0.2-0.4-0.3-0.8-0.3-0.8c0.4,3.8-0.8,3.8-1.6,5.9c0.6-0.6,1.5-1.6,1.7-0.1c0.1,1.1-1,0.5-1.4,1.6
			c1,0.2,1.7,0.9,2,1.9c0.4,1,0.3,2.2-0.1,3.4c-0.3,0-0.5-0.1-0.7-0.2c0.3,0.6,0.8,0.9,0.4,2l-2.2-0.6l2.1,2
			c-0.6,1.4,1.2,3.3-0.3,3.2l-0.5-0.7c0,0,0,0.7,0,1.6c0,1,0,2.3,0.2,3.6c0.1,1.3,0.2,2.6,0.3,3.6c0.1,1,0.2,1.6,0.2,1.6l-1.7,0.4
			c1.3,0.3,1.3,1.8,1.4,3c0.1,1.3,0.3,2.4,1.7,1.9c-0.6,1.1,0.1,3,0.6,4.5c0.5,1.5,0.7,2.6-1.1,2.5c0.2,0.9,0.5,1.6,0.7,2.4
			c0.3,0.7,0.6,1.4,1,2.1c0.7,1.3,1.4,2.5,2.2,3.8c0.8,1.2,1.5,2.5,2.2,4c0.7,1.5,1.3,3.2,1.9,5.2c-0.6,2,0.2,4.8,1.7,7.6
			c0.4,0.7,0.7,1.4,1.2,2.1c0.4,0.7,0.9,1.4,1.3,2.1c0.4,0.7,0.9,1.3,1.3,2c0.4,0.6,0.8,1.3,1.2,1.8c3.6,4.1,6.9,7.1,10.2,10
			c1.7,1.4,3.4,2.9,5.2,4.3c0.9,0.7,1.9,1.5,2.9,2.2c1,0.7,2,1.5,3.1,2.3c0.6,1.8,1.8,3.2,3.3,4.5c1.5,1.2,3.3,2.2,5.2,3.2
			c3.8,1.8,7.7,3.3,10.2,5.8l2.4-0.5c0.7,1.1,1.8,1.9,3,2.6c1.2,0.7,2.6,1.3,4.2,1.7c3,1.1,6.2,2,9,4.1c1.7-0.2,2.6-0.2,3-0.2
			c-0.3-0.2-0.6-0.6-0.5-1.6c1.6,1.2,5.4,1.2,4.7,3.1l-0.5,0.1c-0.4,0.9,1.1,1,2.8,1.2c1.7,0,3.8,0.1,4.6,1.1l-0.8-2.3
			c0,0,0.8,0.2,1.7,0.5c0.9,0.2,1.7,0.4,1.7,0.4l-1,0.3c2.6-0.4,5-0.6,7.2-0.7l-13-32.6C180.5,275.2,180.1,275.1,179.8,275.1z"/>
		<path id="XMLID_85_" d="M211.6,97.6l0.5-0.3C211.8,97.4,211.7,97.5,211.6,97.6z"/>
		<path id="XMLID_86_" d="M275.5,180.3c-0.1,0-0.2,0.1-0.3,0.1l0.2,0.1c0,0,0.1,0,0.1-0.1L275.5,180.3z"/>
		<path id="XMLID_87_" d="M247.7,114.2c0.1,0,0.1,0.1,0.2,0.1l-0.3-1.5L247.7,114.2z"/>
		<path id="XMLID_88_" d="M285.9,147.6c-1-2.1-1.3-2-1.4-1.6C284.9,146.7,285.4,147.3,285.9,147.6z"/>
		<path id="XMLID_89_" d="M156.9,363.6C157.3,363.8,157.6,363.7,156.9,363.6L156.9,363.6z"/>
		<path id="XMLID_90_" d="M76,79.6c0.1-0.1,0.1-0.2,0.2-0.3c-0.1-0.5-0.2-0.9-0.2-1.2L76,79.6z"/>
		<path id="XMLID_91_" d="M122.8,47.3c0.1,0,0.2,0,0.4-0.1C123,47,123,46.8,122.8,47.3z"/>
		<path id="XMLID_92_" d="M32.4,200.9c-0.1-0.3-0.2-0.6-0.2-1C32.1,200.5,32.2,200.7,32.4,200.9z"/>
		<path id="XMLID_93_" d="M62.5,195.2c0.1,0.2,0.1,0.5,0.1,0.7C62.7,195.6,62.6,195.4,62.5,195.2z"/>
		<path id="XMLID_94_" d="M76,78.2l0-0.6C75.9,77.7,75.9,77.9,76,78.2z"/>
		<path id="XMLID_95_" d="M172.4,31.1c0.1,0.3,0.2,0.5,0.4,0.7c0.1,0,0.1,0,0.1,0L172.4,31.1z"/>
		<path id="XMLID_96_" d="M354.1,167.8l-0.9-0.8c0.2,0.5,0.4,0.8,0.5,1C353.9,167.9,354,167.8,354.1,167.8z"/>
		<path id="XMLID_97_" d="M235.4,36.5c0.8,0.1,1.8,0.3,2.8,0.5c2.1,0.4,4.1,0.7,4.1,0.7c0.1-0.1,0.3-0.2,0.3-0.3
			c-1.1-0.6-4.1-1.4-8.1-2.2l-0.5,1.1C234.1,36.4,234.6,36.4,235.4,36.5z"/>
		<path id="XMLID_98_" d="M217.3,29.9l0.8-0.3C217.7,29.6,217.5,29.7,217.3,29.9z"/>
		<path id="XMLID_99_" d="M183.6,336.3l-0.6,1.9c-2.5-0.2-3.5-0.7-4.1-1.2c-0.6-0.5-0.8-0.9-1.3-1.2c-1.4-0.2-2.8-0.4-4.2-0.7
			l-4.2-0.9l-2.1-0.4l-2.1-0.6l-4.1-1.1c-1.4-0.4-2.7-0.9-4.1-1.3c-1.4-0.4-2.7-0.8-4.1-1.3c-2.7-1-5.4-1.9-8-3.1
			c-1.3-0.6-2.6-1.1-3.9-1.7l-3.9-1.9l-1.9-0.9l-1.9-1l-3.8-2c-4.9-2.9-9.7-5.9-14.2-9.4c-4.6-3.3-8.7-7.1-12.8-11
			c-3.9-4-7.7-8-11-12.4c-6.7-8.6-12.1-17.9-15.9-27.4c-0.2-2.1-1.8-5.7-3-9.4c-0.3-0.9-0.6-1.8-0.9-2.7c-0.3-0.9-0.5-1.7-0.7-2.5
			c-0.4-1.6-0.6-2.9-0.5-3.7c-3.1-5.9-5.3-12.4-6.7-19.1c-0.2-0.8-0.3-1.7-0.5-2.5l-0.4-2.5l-0.4-2.5c-0.1-0.8-0.1-1.7-0.2-2.5
			c-0.1-1.7-0.2-3.4-0.4-5.1c0-1.7,0-3.4,0-5l0.2,0.5c0,0,0-0.4-0.1-1c0-0.6-0.1-1.4-0.2-2.2c-0.1-1.6-0.1-3.1-0.1-3.1
			c0.2-0.3,0.4-0.3,0.6-0.1c-0.4-1.8-0.6-3.8-0.5-6c0.1-2.2,0.3-4.5,0.8-6.8c0.5-2.3,0.9-4.7,1.6-7c0.7-2.3,1.2-4.5,2-6.6l0.1,0.5
			c0.4-1.5,0.7-3,1.1-4.6c0.4-1.5,0.8-3,1.3-4.5l0.6-2.2c0.2-0.7,0.5-1.5,0.7-2.2c0.5-1.5,1-2.9,1.4-4.4c0.5-1.4,1.1-2.9,1.6-4.3
			l0.8-2.2l0.9-2.1c0.6-1.4,1.2-2.8,1.8-4.2c0.7-1.4,1.3-2.7,2-4.1c0.3-0.7,0.7-1.4,1-2.1l1.1-2c0.7-1.3,1.4-2.7,2.2-4
			c1.6-2.6,3.1-5.2,4.8-7.7c3.3-5.1,7.1-9.8,11.1-14.5c2.1-2.2,4.1-4.5,6.3-6.6c1.1-1.1,2.1-2.2,3.3-3.2l3.4-3
			c4.7-3.9,9.5-7.7,14.7-10.9c10.3-6.6,21.8-11.5,33.9-14.7c1.5-0.2,2.9-0.4,4.4-0.7c0.7-0.1,1.5-0.3,2.2-0.4
			c0.7-0.1,1.5-0.2,2.2-0.4c1.5-0.2,3-0.5,4.4-0.8c1.5-0.2,3-0.5,4.5-0.7c0.8-0.1,1.5-0.3,2.3-0.4c0.8-0.1,1.5-0.2,2.3-0.3
			c1.5-0.2,3.1-0.4,4.7-0.7c1.6-0.2,3.1-0.3,4.7-0.5c0.8-0.1,1.6-0.2,2.4-0.3c0.8-0.1,1.6,0.1,2.4,0.1c1.6-0.1,3.2,0,4.9,0
			c1.6,0,3.3,0,4.9,0c0.8,0,1.6-0.2,2.5-0.2l2.5,0c1.6,0.1,3.3,0.1,4.9,0.3c6.6,0.7,13.1,2.1,19.3,4.3c2.1,1.6,16.1,5.3,28.9,11.9
			c6.4,3.2,12.7,6.8,17.4,10c0.6,0.4,1.2,0.8,1.7,1.1c0.6,0.4,1.1,0.8,1.6,1.1c1,0.7,1.9,1.3,2.7,1.9c1.6,1.1,2.7,1.9,3.2,2.2
			c0,0-0.2-0.4-0.5-0.9c-0.3-0.6-0.7-1.3-1.1-2c-0.9-1.4-1.7-2.9-1.7-2.9c8.3,5.8,13.4,11.4,18,16.7c4.5,5.4,8.6,10.7,14.2,17.4
			l-1-0.5c0.4,1.2,2,1.3,4.6,4.7c0.6,0.9,1.3,1.9,2,3.2c0.4,0.7,0.8,1.4,1.1,2.2c0.4,0.8,0.7,1.7,1.1,2.7c0.4,1,0.8,2,1.1,3.1
			c0.4,1.1,0.7,2.4,1,3.7c0.3,1.3,0.7,2.7,1,4.3c0.3,1.6,0.5,3.2,0.8,4.9l-0.2,0.1c0.4,0.9,0.8,0.7,0.8,2.7c0,0,0-0.3,0-0.8
			c0-0.5,0-1.1-0.1-1.7c-0.1-1.2-0.2-2.5-0.2-2.5c1.7,2.4,3.5,4.5,4.9,8.1c0,0.9-0.4,1.3-0.8,1.5c0,0,0.7,2.2,1.5,4.5
			c0.2,0.6,0.4,1.1,0.5,1.7c0.1,0.5,0.3,1,0.4,1.5c0.2,0.9,0.4,1.4,0.4,1.4l-0.9,3.1c0.8,1.3,1.8,1.5,2.7,2.3c0.4,0.4,0.8,1,1.1,2
			c0.1,0.5,0.2,1.1,0.3,1.8c0.1,0.7,0,1.6-0.1,2.6c1.9-3.3,1.8,3.7,2.9,2.6c-0.2,0.4-0.5,1.4-0.8,2.1c0.3,1.1,0.4,2.6,0.6,4.1
			c0.2,1.5,0.5,3.1,0.8,4.6c0.4,3.1,0.9,5.8,1.6,6.9c0,0,0.3-1.2,0.7-3c0.4-1.8,1.1-4.4,1.6-7.1c0.6-2.7,1.2-5.7,1.6-8.3
			c0.5-2.6,1-4.9,1.3-6.3c0.2,1.7,0.2,2.7,0.3,3.2c0.1,0.5,0.1,0.4,0.2,0.1c0.2-0.6,0.4-2.3,0.6-3l-0.6-0.4
			c-0.2-4.2,1.2-4.5,1.2-6.7c-0.1,0-0.2,0.1-0.4,0.2l0.2,0.2c-0.2,0.2-0.4,0.2-0.6,0c-0.3,0.1-0.6,0-0.7-1.2l0.2,0.2
			c-0.6-1.7-1.1-4.7-1.3-6l1.2-0.3c-0.7-0.6-1.3-2.3-1.7-4.5c-0.2-1.1-0.4-2.3-0.5-3.6c-0.2-1.3-0.4-2.7-0.5-4.1
			c-0.2-1.4-0.3-2.8-0.5-4.2c-0.2-1.4-0.4-2.7-0.6-3.9c-0.2-1.2-0.4-2.3-0.6-3.2c-0.2-0.9-0.5-1.7-0.7-2.2c-0.1-1.2-0.4-2.3-0.9-3.4
			c-0.5-1.1-1-2.3-1.7-3.4c-0.7-1.1-1.4-2.2-2-3.4c-0.3-0.6-0.6-1.2-0.9-1.8c-0.3-0.6-0.6-1.2-0.9-1.9c-4-7.8-0.6-4.7-2.1-9
			c-2.4-5.1-0.6,1.7-1.9-0.1c0,0-0.5-1.6-1.1-3.3c-0.6-1.6-1.2-3.2-1.2-3.2c2.4,3.1,1.8,1,1.7,0.1c-0.8-1.2-1.6-2.7-2.5-4.2
			c-0.8-1.5-1.8-3-2.7-4.4c-0.9-1.4-1.8-2.6-2.7-3.5c-0.9-0.8-1.7-1.3-2.5-1.3c-1.1-1.7-1.8-3-2.4-4c-0.6-1-1-1.8-1.4-2.5
			c-0.7-1.3-1.1-2.1-2.2-3.4c0.5,1.1,1.8,3,1.4,3.4c-1.4-3-1.2-0.9-0.5,0.2c-1-0.7-2.4-2.4-4-4.4c-0.8-1-1.7-2.1-2.6-3.3
			c-0.9-1.2-1.8-2.4-2.8-3.5c-1-1.1-1.9-2.2-2.8-3.2c-0.5-0.5-0.9-1-1.3-1.4c-0.4-0.4-0.9-0.8-1.3-1.2c-1.6-1.4-2.9-2.2-3.5-1.8
			l0.3-0.4c-2.1,0.9-1.8,3.5-5.1,2.3l-1.3-2l-3.2-1.2c-1.5-1.8-0.3-1.6-0.1-1.8c-1.2-0.6-2.6-1.3-3.9-2.1c-1.4-0.8-2.7-1.8-4.1-2.8
			c-2.9-1.8-5.7-4-8.7-5.6c0,0,0.2,0.5,0.6,1.2c0.3,0.8,0.8,1.7,1.2,2.7c0.8,2,1.7,4,1.7,4c-1-0.9-2.2-2.1-3.6-3.2
			c-1.3-1.1-2.8-2.3-4.1-3.3c-1.3-1-2.6-1.8-3.7-2.3c-1.1-0.5-1.9-0.7-2.3-0.4c0,0-0.6-0.8-1.1-1.5c-0.3-0.4-0.6-0.8-0.8-1
			c-0.2-0.3-0.4-0.5-0.4-0.5c-4.5-3.6-6.5-4.1-7.8-3.7c-1.3,0.3-1.9,1.1-3.8-0.1c0,0-1.2-0.9-2.3-1.8c-0.6-0.5-1.2-0.9-1.6-1.2
			c-0.5-0.3-0.8-0.5-0.8-0.5s0.3,0.1,0.8,0.2c0.5,0.2,1.2,0.3,1.8,0.6c1.3,0.5,2.7,0.9,2.7,0.9c-1.3-0.7-2.3-1.3-3.3-1.8
			c-1-0.5-1.8-1-2.6-1.4c-1.6-0.9-3.1-1.9-5.2-3.1c0,0-0.1,0-0.1,0c0.3,0.2,0.5,0.3,0.5,0.4l-0.8-0.1c-0.9,0.8-3.9,0.8-7.8-0.1
			c-2.8-0.6-5.3-0.8-8.2-1.2c-1.5-0.2-3-0.4-4.7-0.8c-0.9-0.2-1.8-0.4-2.8-0.7c-1-0.2-2-0.5-3.1-0.9l-2.4,1.8c0,0-1.7-0.4-3.3-0.8
			c-1.7-0.3-3.4-0.7-3.4-0.7l0-1.6c3.3,0.1,8.2,0.3,13.2,0.6c2.5,0.2,5.1,0.5,7.6,0.8c2.5,0.4,4.9,0.7,7,1.1l0.3-0.7
			c-2.5-0.4-5.3-0.8-7.8-1c-2.5-0.2-4.8-0.3-6.5-0.6c-0.4-0.1-1-0.4-1.5-0.7c-0.6-0.3-1.1-0.6-1.5-0.9c-0.7-0.5-0.9-1.1-0.2-1.5
			l-2.6,1c-4.3-0.4-7.5-0.3-10.3-0.4c-2.7-0.1-4.9,0-7.1-0.1c-1.1,0-2.2-0.1-3.4-0.1c-1.2,0-2.5,0-3.9,0c-1.4,0-3,0-4.8-0.1
			c-1.8,0-3.8,0.1-6.1,0.1l1.7,0.6c-1.8,0.5-3.5,0.9-4.9,1.1c-1.4,0.3-2.6,0.3-3.2-0.3c-10.8,1.6-21.9,3.8-29.4,4.3
			c0,0-0.2,0.6-0.4,1.1c-0.2,0.6-0.4,1.2-0.4,1.2c-2.2,0.7-6.5-0.6-6.6,2.3c0,0-0.3,0.2-0.7,0.4c-0.4,0.3-0.9,0.6-1.4,1
			c-1,0.7-2.1,1.4-2.1,1.4c-1.5,0.6-2.5,1.3-3.7,2c-1.1,0.7-2.4,1.3-4.2,1.7l0,0c0,0,0,0,0,0c-0.2,0-0.5,0.1-0.7,0.1
			c0,0.1,0.1,0.1,0.1,0.1c-3.4,1.3-3.2,1.7-3.1,2.1c0.1,0.4,0.1,0.8-3.8,2.4c-1.5,0.1-1.8,1-2.2,2c-0.4,1.1-0.8,2.4-2.6,3.2
			l-4.8-0.1c-3.4,1.4-5,2.9-6.8,4.8c-0.9,0.9-1.8,2-3,3.3c-1.2,1.3-2.7,2.6-4.7,4.3c-4.4,2.5-7.8,2.5-6.6-1.3c-1,2.5-1,3.1-1.4,3.8
			c-0.4,0.7-1,1.4-2.8,3.9c-1.4-0.1-1.1-0.7-0.7-2.3c-2.4,1.5-2.9,2.2-3.1,3c-0.2,0.8-0.2,1.5-1.6,3c0.6,2.2,1.9,5.3,1.1,6.3
			l1.5-0.7c-0.3,0.5-0.6,0.9-0.8,1.4c-0.3,0.5-0.6,1-0.9,1.4c-0.6,0.9-1.2,1.9-1.9,2.8c-0.7,0.9-1.5,1.8-2.3,2.7
			c-0.8,0.9-1.7,1.7-2.6,2.6L69.6,95c0,0-0.7,1.1-1.4,2.2c-0.7,1.1-1.4,2.2-1.4,2.2L65.6,99c0,0-1,1.6-2,3.2c-0.5,0.8-1,1.6-1.4,2.2
			c-0.4,0.6-0.6,1-0.6,1l0.8-0.7c-0.4,0.8-1.3,2.5-2.4,4.2c-0.5,0.9-1.1,1.8-1.7,2.6c-0.6,0.9-1.1,1.7-1.7,2.3l-0.5-0.5
			c-1.6,1.8-3,3.6-4,5.6c-1,2-1.9,4-2.7,6.1c-0.7,2.1-1.4,4.4-2.2,6.7c-0.4,1.1-0.7,2.3-1.1,3.6c-0.4,1.2-0.8,2.5-1.3,3.8l-0.8-1.8
			c-1.3,1.5-0.9,1.9-0.5,2.5c0.5,0.5,0.9,1.2-0.1,3.2l-1.7-0.4c0.4,2.2-0.1,3.4-0.9,4.3c-0.8,0.9-2,1.6-2.8,2.8l2.5-0.6l-1.9,4.8
			c-0.6,1.3-1.1,2.1-1.5,2.6c-0.4,0.5-0.9,0.6-1.2,0.6c-0.8-0.1-1.4-1.1-1.8-1.6c0,0,0,0.3,0.1,0.7c0.1,0.4,0.2,0.9,0.3,1.5
			c0.2,1.1,0.4,2.1,0.4,2.1l-2.1,0.3c1.6,3.3-1.1,2.7-0.7,7.9c-0.8,0.3-1-1.1-1.6,0.6c0,0,0.3,2.2,0.7,4.3c0.4,2.1,0.9,4.3,0.9,4.3
			s-0.2-1.3-0.3-2.5c-0.1-0.6-0.1-1.3-0.2-1.8c0-0.5-0.1-0.8-0.1-0.8l2.8,1c0.7,2.7,0.5,4.4,0,5.9c-0.4,1.5-1.1,2.8-0.8,4.6
			c0,0-0.2-0.6-0.3-1.3c-0.2-0.6-0.3-1.3-0.3-1.3c0.2,6-1,6.2-1.9,9.5c0.6-1,1.5-2.6,1.7-0.1c0.1,1.8-1,0.9-1.4,2.6
			c1,0.2,1.7,1.4,2,3c0.3,1.6,0.3,3.6-0.1,5.5c-0.3,0-0.5-0.1-0.7-0.4c0.3,1,0.8,1.5,0.4,3.2l-2.2-1l2.1,3.2
			c-0.5,2.2,1.3,5.3-0.2,5.1l-0.5-1.2c0,0,0,1,0.1,2.6c0.1,1.6,0.1,3.7,0.4,5.7c0.2,2.1,0.4,4.2,0.6,5.7c0.1,0.8,0.2,1.4,0.2,1.9
			c0.1,0.5,0.1,0.7,0.1,0.7l-1.7,0.5c1.3,0.6,1.5,2.9,1.7,4.9c0.2,2,0.6,3.7,1.9,3.1c-0.4,1.7,0.5,4.7,1.2,7.1
			c0.7,2.4,1.1,4.2-0.7,3.8c0.3,1.3,0.7,2.6,1.1,3.8c0.5,1.2,0.9,2.3,1.4,3.4c1,2.1,1.9,4.1,3.1,6.2c1.1,2,2.2,4.1,3.2,6.5
			c0.6,1.2,1.1,2.4,1.7,3.8c0.6,1.4,1,2.9,1.6,4.4c-0.2,2.7,1.4,7.1,3.8,11.4c0.6,1.1,1.2,2.2,1.9,3.3c0.7,1.1,1.4,2.2,2.1,3.3
			c0.7,1.1,1.4,2.1,2,3.1c0.7,1,1.3,2,1.9,2.9c5.3,6.7,10.3,11.6,15.4,16.5c1.3,1.2,2.6,2.4,3.9,3.6c1.3,1.2,2.7,2.4,4.1,3.6
			c1.4,1.2,2.9,2.4,4.4,3.7c1.6,1.2,3.2,2.5,4.9,3.8c1.3,2.4,3.4,4.5,5.8,6.5c2.4,1.9,5.2,3.6,8.1,5.3c5.8,3.2,11.8,5.9,16.3,9.4
			l3.4,0c0.7,0.7,1.4,1.4,2.3,1.9c0.9,0.6,1.8,1.1,2.8,1.6c2,1,4.2,2,6.6,2.8c4.7,1.8,9.8,3.4,14.5,6.1c2.7,0,4,0.2,4.6,0.3
			c-0.4-0.2-1-0.7-1-1.7c1.3,0.7,3.5,1.4,5.2,1.8c1.7,0.5,3,1.1,2.6,2l-0.8,0c-0.4,0.9,1.8,1.2,4.5,1.5c2.7,0.2,5.9,0.5,7.4,1.6
			l-1.4-2.4c0,0,1.4,0.3,2.7,0.7c1.4,0.3,2.7,0.5,2.7,0.5l-1.5,0.2c3.1-0.2,5.9-0.2,8.6-0.3c2.7-0.1,5.2,0,7.5,0.1
			c2.4,0,4.6,0.1,6.9,0.3c0.6,0,1.1,0.1,1.6,0.1c0.5,0,1.1,0,1.6,0.1c1.1,0,2.2,0.1,3.2,0.1l3.2,0.1c1.1,0,2.2,0,3.2,0
			c1.5-0.1,3-0.1,4.5-0.2l-11.9-29.8C198.2,338.8,190.5,338.4,183.6,336.3z"/>
		<path id="XMLID_101_" d="M336.7,157.7l-0.1-0.2C335.8,157.8,336.2,158,336.7,157.7z"/>
		<path id="XMLID_102_" d="M277,53.4c0.1,0.1,0.2,0.1,0.4,0.2l-0.8-1.8L277,53.4z"/>
		<path id="XMLID_103_" d="M339.2,108.3c-0.9-1.7-1.5-2.5-1.8-2.8c-0.3-0.3-0.4-0.2-0.4,0.1c0.4,0.6,0.7,1.1,1.1,1.5
			C338.5,107.6,338.9,108,339.2,108.3z"/>
		<path id="XMLID_104_" d="M343.6,183.4c0.2,1.7,0.6,1,1-0.1c-0.3-1.7-0.5-3-0.5-3C344,181.3,343.7,182.4,343.6,183.4z"/>
		<path id="XMLID_105_" d="M353.9,174.6l0.8,0.5C354.3,174,354.1,174.1,353.9,174.6z"/>
	</g>
</g>
<g id="Layer_2">
	<g id="qFAigP.tif">
		<g id="XMLID_1_">
			<path id="XMLID_28_" d="M417.4,462.5c-2.4-2-4.8-3.9-7-6.1c-33.3-33.3-42-42.1-75.4-75.5c-0.8-0.8-1.7-1.6-3.6-3.4
				c-0.7,1.2-1.2,2.5-2.1,3.5c-14.6,16.4-29.2,32.7-43.9,49c-7,7.8-14.3,6.6-18.3-3c-36.8-86.3-73.6-172.6-110.5-259
				c-2.3-5.4-1.9-9.5,1.3-12.5c3.8-3.6,8-3,12.5-1.1c85.8,36.8,171.7,73.4,257.6,110.1c10.2,4.4,11.4,11.5,3.2,18.8
				c-17.9,15.8-35.8,31.5-54.6,48c2.8,2.4,5.6,4.5,8,6.9c32.1,32,39.5,39.5,71.6,71.6c2.3,2.3,4.3,5,6.4,7.5c0,2.1,0,4.2,0,6.3
				c-12.9,12.9-25.8,25.8-38.7,38.7C421.6,462.5,419.5,462.5,417.4,462.5z"/>
		</g>
	</g>
</g>
</svg>
