<?xml version="1.0" encoding="utf-8"?>
<!-- Generator: Adobe Illustrator 19.0.0, SVG Export Plug-In . SVG Version: 6.00 Build 0)  -->
<svg version="1.1" xmlns="http://www.w3.org/2000/svg" xmlns:xlink="http://www.w3.org/1999/xlink" x="0px" y="0px"
	 viewBox="0 0 200 200" style="enable-background:new 0 0 200 200;" xml:space="preserve">
<style type="text/css">
	.st0{fill:#FFFFFF;}
	.st1{filter:url(#Adobe_OpacityMaskFilter);}
	.st2{opacity:0.75;mask:url(#XMLID_27_);}
	.st3{fill:#A98175;}
	.st4{fill:none;stroke:#FFFFFF;stroke-miterlimit:10;}
	.st5{fill:#76664D;}
	.st6{fill:none;stroke:#76664D;stroke-miterlimit:10;}
	.st7{fill:none;stroke:#76664D;stroke-width:2;stroke-miterlimit:10;}
	.st8{fill:none;stroke:#76664D;stroke-linecap:round;stroke-miterlimit:10;}
	.st9{fill:#BC904A;}
	.st10{fill:none;stroke:#BC904A;stroke-miterlimit:10;}
	.st11{fill:none;stroke:#BC904A;stroke-width:4;stroke-miterlimit:10;}
</style>
<g id="Layer_3">
	<g id="XMLID_49_">
		<g id="XMLID_54_">
			<path id="XMLID_58_" class="st0" d="M283,196h-76c0,6-6,11-13,11v76c7,0,13,6,13,13h76c0-7,5-13,11-13v-76
				C288,207,283,202,283,196z"/>
		</g>
		<defs>
			<filter id="Adobe_OpacityMaskFilter" filterUnits="userSpaceOnUse" x="194" y="196" width="100" height="100">
				
					<feColorMatrix  type="matrix" values="-1 0 0 0 1  0 -1 0 0 1  0 0 -1 0 1  0 0 0 1 0" color-interpolation-filters="sRGB" result="source"/>
			</filter>
		</defs>
		<mask maskUnits="userSpaceOnUse" x="194" y="196" width="100" height="100" id="XMLID_27_">
			<g id="XMLID_46_" class="st1">
				
					<image style="overflow:visible;" width="104" height="104" id="XMLID_47_" xlink:href="AB88C35C82E6A593.jpg"  transform="matrix(1 0 0 1 192 194)">
				</image>
			</g>
		</mask>
		<g id="XMLID_48_" class="st2">
			<path id="XMLID_53_" class="st3" d="M283,196h-76c0,6-6,11-13,11v76c7,0,13,6,13,13h76c0-7,5-13,11-13v-76
				C288,207,283,202,283,196z"/>
		</g>
	</g>
	<g id="XMLID_39_">
		
			<image style="overflow:visible;opacity:0.88;" width="109" height="109" id="XMLID_35_" xlink:href="AB88C35C82E6A591.png"  transform="matrix(1 0 0 1 189 192)">
		</image>
		<g id="XMLID_13_">
			<path id="XMLID_32_" class="st4" d="M274.7,207.5h-59.3c0,5-4.9,7.8-10.9,7.8v59.3c6,0,10.9,4.9,10.9,10.9h59.3
				c0-6,2.8-10.9,7.8-10.9v-59.3C277.5,215.3,274.7,212.5,274.7,207.5z"/>
		</g>
	</g>
</g>
<g id="Layer_1">
	<g id="XMLID_31_">
		<path id="XMLID_14_" class="st5" d="M280.2,199c1.2,5.3,5.5,9.5,10.8,10.7v70.7c-5.4,1.4-9.7,6.4-10.7,12.6h-70.6
			c-1.3-6.3-6.4-11.4-12.7-12.7v-70.6c6.2-1.1,11.2-5.4,12.6-10.7H280 M283,196h-76c0,6-6,11-13,11v76c7,0,13,6,13,13h76
			c0-7,5-13,11-13v-76C288,207,283,202,283,196L283,196z"/>
	</g>
	<path id="XMLID_30_" class="st6" d="M278.1,203.5h-65.7c0,5-5.9,8.4-11.9,8.4v65.7c6,0,11.9,5.9,11.9,11.9h65.7
		c0-6,3.4-11.9,8.4-11.9v-65.7C281.5,211.9,278.1,208.5,278.1,203.5z"/>
	<path id="XMLID_28_" class="st7" d="M274.7,207h-59.3c0,5-4.4,8.3-10.4,8.3v59.3c6,0,10.4,4.4,10.4,10.4h59.3
		c0-6,3.3-10.4,8.3-10.4v-59.3C278,215.3,274.7,212,274.7,207z"/>
</g>
<g id="Layer_2">
	<line id="XMLID_26_" class="st8" x1="201" y1="211.9" x2="195" y2="208.2"/>
	<line id="XMLID_25_" class="st8" x1="208" y1="196" x2="212.4" y2="203"/>
	<line id="XMLID_24_" class="st8" x1="278.1" y1="203" x2="281.8" y2="197.5"/>
	<line id="XMLID_23_" class="st8" x1="287" y1="211.9" x2="292.8" y2="208.2"/>
	<line id="XMLID_22_" class="st6" x1="201" y1="277.6" x2="195" y2="281.5"/>
	<line id="XMLID_21_" class="st6" x1="212.4" y1="289" x2="208" y2="295"/>
	<line id="XMLID_20_" class="st6" x1="278.1" y1="289" x2="283" y2="296"/>
	<line id="XMLID_19_" class="st6" x1="287" y1="277.6" x2="292.8" y2="281.5"/>
	<g id="XMLID_84_">
		<path id="XMLID_82_" class="st9" d="M198.6,1.4v197.2H1.4V1.4H198.6 M200,0H0v200h200V0L200,0z"/>
	</g>
	<rect id="XMLID_44_" x="4.5" y="5" class="st10" width="191.1" height="190.4"/>
	<rect id="XMLID_40_" x="10.4" y="10.8" class="st11" width="178.8" height="178.7"/>
</g>
</svg>
