<?xml version="1.0" encoding="utf-8"?>
<!-- Generator: Adobe Illustrator 19.0.0, SVG Export Plug-In . SVG Version: 6.00 Build 0)  -->
<svg version="1.1" id="Layer_1" xmlns="http://www.w3.org/2000/svg" xmlns:xlink="http://www.w3.org/1999/xlink" x="0px" y="0px"
	 viewBox="0 0 225 55" style="enable-background:new 0 0 225 55;" xml:space="preserve">
<style type="text/css">
	.st0{fill:#CBDCCB;}
	.st1{fill:#A1B799;}
	.st2{fill:#A23D2A;}
	.st3{fill:#182228;}
	.st4{fill:none;stroke:#7A1A11;stroke-miterlimit:10;}
</style>
<g id="XMLID_5_">
	<g id="XMLID_42_">
		<g id="XMLID_90_">
			<path id="XMLID_233_" class="st0" d="M223.1,30.6c0,0-2.2,2.3-2.7,6.7c-0.3,2.9-3.9,5.1-7.4,5.1c-0.7,0-1.3-0.1-2-0.3
				c5.7,0.4,4.6-6.5,5.2-8.9c0.6-2.3,1.8-2.5,1.8-2.5c-1.5,0.1-1.6-1.2-1.6-1.2c-0.4-10-7.1-9.1-7.1-9.1c0.8-0.4,1.8-0.8,2.8-1
				c2-0.4,4.2-0.1,6,2C222.9,26.4,218.8,27.5,223.1,30.6z"/>
			<path id="XMLID_230_" class="st1" d="M208.4,40.5c0,0,0.4,7.5-5.1,6.2c-1-0.6-1.8-1.5-2.6-2.4c-2.6-3.2-4-7.6-4.9-9.6
				c-1.9-4.1-0.5-6.9-0.5-6.9s0.1-0.5,0.4-1.2c0.8-2.2,2.8-7.1,6.3-9.8c0,0,0,0,0,0c0.3-0.2,4.4-2.2,6.4,4c0.3-0.2,0.6-0.3,0.9-0.5
				c0,0,6.6-0.9,7.1,9.1c0,0,0.1,1.3,1.6,1.2c0,0-1.2,0.2-1.8,2.5c-0.6,2.3,0.4,9.3-5.2,8.9c0,0,0,0,0,0
				C210,41.8,209.2,41.3,208.4,40.5z M204.6,33.2c2.9-1.8,0-5,0-5c-5.3-3.2-9.1,1.7-9.1,1.7c-1.2,1.2,0,2.2,0,2.2
				C198.3,34.4,201.7,35,204.6,33.2z"/>
			<path id="XMLID_229_" class="st0" d="M213,42.4c0,0,1.5,5.6-4.7,5.8c-1.9,0.1-3.6-0.5-5-1.5c5.6,1.2,5.1-6.2,5.1-6.2
				c0.7,0.8,1.6,1.3,2.6,1.5c0,0,0,0,0,0C211.6,42.3,212.3,42.4,213,42.4z"/>
			<path id="XMLID_228_" class="st0" d="M212.1,19.2l0,0.1c-1,0.2-2,0.6-2.8,1c-0.3,0.2-0.6,0.3-0.9,0.5c-2-6.2-6.2-4.2-6.4-4
				c1.6-1.3,3.6-2.1,5.9-2.1C207.8,14.8,211.7,13.8,212.1,19.2z"/>
			<path id="XMLID_225_" class="st0" d="M204.6,28.2c0,0,2.9,3.2,0,5c-2.9,1.8-6.3,1.2-9.1-1.1c0,0-1.2-1.1,0-2.2
				C195.5,29.9,199.3,24.9,204.6,28.2z M202.6,30.2c0,0-1.8-2-5.5,0.4c0,0,0,0.6,2.6,0.9C202.3,31.8,202.6,30.2,202.6,30.2z"/>
			<path id="XMLID_224_" class="st2" d="M197.1,30.6c3.7-2.4,5.5-0.4,5.5-0.4s-0.3,1.6-2.9,1.3C197.1,31.2,197.1,30.6,197.1,30.6z"
				/>
			<path id="XMLID_223_" class="st1" d="M95.5,11h97v14.4c0,0-0.3,3.9,1.1,3.4c1.5-0.5,2-2,2-2c-0.3,0.7-0.4,1.2-0.4,1.2
				s-1.3,2.8,0.5,6.9c0.9,2,2.3,6.3,4.9,9.6c-0.3,1.3-1,3-2.7,4.8c0,0-6.1,5.6-11.8,1h6.3v-3c4.3-1.3,3.5-6.2,0-9.5
				c-0.5-0.4-1-0.9-1.5-1.2c-1.9-1.2-2.4-4.9-2.5-7.7v-3.4V14.8H42.6c1.6-1.5,3.3-2.8,5.1-3.8h35.9H95.5z"/>
			<path id="XMLID_222_" class="st1" d="M192.5,47.2v3h-6.3H33.9v-2.8v-5.5V26.6c1.9-3.6,4.1-6.3,4.1-6.3v26.1h150.5V28.8
				c0.1,2.8,0.7,6.5,2.5,7.7c0.6,0.4,1.1,0.8,1.5,1.2V47.2z"/>
			<path id="XMLID_221_" class="st3" d="M188.5,28.8v17.7H38V20.4c1.4-2.2,2.9-4,4.6-5.6h145.9v10.6
				C188.5,25.4,188.4,26.8,188.5,28.8z"/>
			<path id="XMLID_220_" class="st1" d="M33.9,26.6c-1.1,2.1-2.1,4.4-2.5,6.8l-2.1-0.4c0.2-1.2,0.3-3.3-0.8-5.8
				c-0.2-0.5-0.4-1-0.7-1.7l0.1-0.1c0,0,0.9,2,2.4,0.1c0.1-0.2,0.3-0.4,0.5-0.7c1-2,2-3.8,3.2-5.6c2.1-3.2,4.6-6,7.5-8.4
				c2.8-2.3,6-4.1,9.7-5.5C62,1.3,73,4,81.5,7.1c4.5,1.6,9.2,2.8,14,3.9H83.6c-3.2-0.8-4.7-1.4-4.7-1.4c-5.6-2-19.8-5.1-31.2,1.4
				c-1.8,1-3.5,2.3-5.1,3.8c-1.7,1.5-3.2,3.4-4.6,5.6C38,20.4,35.8,23,33.9,26.6z"/>
			<path id="XMLID_219_" class="st1" d="M33.9,11h7.5c-2.9,2.4-5.4,5.2-7.5,8.4h0V11z"/>
			<path id="XMLID_218_" class="st1" d="M33.9,41.9v5.5c0,0-6-6-6-8.9c0-0.3-0.1-1-0.1-1.2c0.7-1.8,1.1-3.1,1.1-3.1s0.2-0.4,0.3-1.1
				l2.1,0.4c-0.3,1.8-0.3,3.6,0.2,5.3L33.9,41.9z"/>
			<path id="XMLID_98_" class="st1" d="M16.2,40.9c-0.4,0.3-1,0.6-1.6,0.9c-0.6,0.1-4.8,0.2-6.3-8c0,0,0.3-2.1-1.5-2.5
				c0,0,2.1-1.6,2.5-5.7c0.4-4.1,1.6-5.5,4.3-5.6c0.6,0.2,1.1,0.5,1.6,0.9c-0.1-0.3-1-4.2,4.7-6.3c4.1,2.1,6.4,7.5,7.7,10.8
				c0.3,0.7,0.5,1.2,0.7,1.7c1.2,2.6,1.1,4.7,0.8,5.8c-0.1,0.7-0.3,1.1-0.3,1.1s-0.4,1.3-1.1,3.1c-0.8,2-2.2,4.5-4.1,6.6
				c-0.5,0.5-1,1-1.5,1.4C19.2,46.9,16.7,41.9,16.2,40.9z M28.7,32.2c1.2-1.2,0-2.2,0-2.2c-2.8-2.3-6.2-2.9-9.1-1.1
				c-2.9,1.8,0,5,0,5C24.9,37.1,28.7,32.2,28.7,32.2z"/>
			<path id="XMLID_95_" class="st0" d="M28.7,29.9c0,0,1.2,1.1,0,2.2c0,0-3.8,4.9-9.1,1.7c0,0-2.9-3.2,0-5
				C22.5,27,25.9,27.6,28.7,29.9z M27.1,31.4c0,0,0-0.6-2.6-0.9s-2.9,1.3-2.9,1.3S23.4,33.8,27.1,31.4z"/>
			<path id="XMLID_94_" class="st2" d="M24.5,30.5c2.6,0.3,2.6,0.9,2.6,0.9c-3.7,2.4-5.5,0.4-5.5,0.4S21.9,30.2,24.5,30.5z"/>
			<path id="XMLID_93_" class="st0" d="M14.6,41.9c0.6-0.3,1.2-0.6,1.6-0.9c0.5,1,3,6,6,4.3c-1.6,1.3-3.6,2.1-5.9,2.1
				c0,0-3.8,1-4.3-4.4l0-0.1C13,42.6,13.8,42.2,14.6,41.9z"/>
			<path id="XMLID_92_" class="st0" d="M15.9,13.8c1.5-0.1,2.9,0.3,4,0.9c-5.7,2.1-4.8,6-4.7,6.3c-0.5-0.4-1.1-0.7-1.6-0.9
				c-0.8-0.3-1.6-0.4-2.4-0.5C11.2,19.7,9.7,14.1,15.9,13.8z"/>
			<path id="XMLID_91_" class="st0" d="M8.3,33.9c1.5,8.2,5.8,8,6.3,8c-0.8,0.4-1.6,0.7-2.5,0.9c-2,0.4-4.2,0.1-6-2
				c-4.7-5.2-0.7-6.3-4.9-9.3c0,0,2.3-2.3,2.7-6.7c0.3-2.9,3.9-5.1,7.4-5.1c0.8,0,1.6,0.2,2.4,0.5c-2.7,0.1-3.9,1.5-4.3,5.6
				c-0.4,4.1-2.5,5.7-2.5,5.7C8.6,31.8,8.3,33.9,8.3,33.9z"/>
		</g>
		<g id="XMLID_82_">
			<polyline id="XMLID_246_" class="st4" points="47.7,11 83.6,11 95.5,11 192.5,11 192.5,25.4 192.5,26.3 			"/>
			<polyline id="XMLID_245_" class="st4" points="192.5,37.6 192.5,37.7 192.5,47.2 192.5,50.2 186.2,50.2 33.9,50.2 33.9,47.3 
				33.9,41.9 33.9,26.6 33.9,26.4 			"/>
			<polyline id="XMLID_244_" class="st4" points="42.5,14.8 42.6,14.8 188.5,14.8 188.5,25.4 188.5,28.8 188.5,46.5 38,46.5 
				38,20.4 			"/>
			<path id="XMLID_243_" class="st4" d="M211,42.1c-0.9-0.3-1.8-0.8-2.6-1.5c-0.1-0.1-0.2-0.2-0.3-0.4l-1.3-1.2"/>
			<path id="XMLID_242_" class="st4" d="M206.7,22.1c0,0,0.6-0.6,1.7-1.2c0.3-0.2,0.6-0.3,0.9-0.5c0.8-0.4,1.8-0.8,2.8-1
				c2-0.4,4.2-0.1,6,2c4.7,5.2,0.7,6.3,4.9,9.3c0,0-2.2,2.3-2.7,6.7c-0.3,2.9-3.9,5.1-7.4,5.1c-0.7,0-1.3-0.1-2-0.3"/>
			<path id="XMLID_241_" class="st4" d="M202,16.8c1.6-1.3,3.6-2.1,5.9-2.1c0,0,3.8-1,4.3,4.4"/>
			<path id="XMLID_240_" class="st4" d="M213,42.4c0,0,1.5,5.6-4.7,5.8c-1.9,0.1-3.6-0.5-5-1.5c-1-0.6-1.8-1.5-2.6-2.4
				c-2.6-3.2-4-7.6-4.9-9.6c-1.9-4.1-0.5-6.9-0.5-6.9s0.1-0.5,0.4-1.2c0.8-2.2,2.8-7.1,6.3-9.8"/>
			<path id="XMLID_239_" class="st4" d="M188.5,25.4c0,0-0.1,1.5,0,3.4c0.1,2.8,0.7,6.5,2.5,7.7c0.6,0.4,1.1,0.8,1.5,1.2
				c3.5,3.3,4.3,8.2,0,9.5"/>
			<path id="XMLID_238_" class="st4" d="M200.7,44.3c-0.3,1.3-1,3-2.7,4.8c0,0-6.1,5.6-11.8,1"/>
			<path id="XMLID_237_" class="st4" d="M192.5,25.4c0,0-0.3,3.9,1.1,3.4c1.5-0.5,2-2,2-2"/>
			<path id="XMLID_236_" class="st4" d="M15.2,21c0.3,0.2,0.6,0.5,0.9,0.9l1.3,1.2"/>
			<path id="XMLID_235_" class="st4" d="M17.5,40c0,0-0.5,0.4-1.3,0.9c-0.4,0.3-1,0.6-1.6,0.9c-0.8,0.4-1.6,0.7-2.5,0.9
				c-2,0.4-4.2,0.1-6-2c-4.7-5.2-0.7-6.3-4.9-9.3c0,0,2.3-2.3,2.7-6.7c0.3-2.9,3.9-5.1,7.4-5.1c0.8,0,1.6,0.2,2.4,0.5
				c0.6,0.2,1.1,0.5,1.6,0.9"/>
			<path id="XMLID_234_" class="st4" d="M11.2,19.7c0,0-1.5-5.6,4.7-5.8c1.5-0.1,2.9,0.3,4,0.9c4.1,2.1,6.4,7.5,7.7,10.8
				c0.3,0.7,0.5,1.2,0.7,1.7c1.2,2.6,1.1,4.7,0.8,5.8c-0.1,0.7-0.3,1.1-0.3,1.1s-0.4,1.3-1.1,3.1c-0.8,2-2.2,4.5-4.1,6.6
				c-0.5,0.5-1,1-1.5,1.4c-1.6,1.3-3.6,2.1-5.9,2.1c0,0-3.8,1-4.3-4.4"/>
			<path id="XMLID_89_" class="st4" d="M33.9,41.9l-2.3-3.1c-0.5-1.7-0.5-3.5-0.2-5.3c0.4-2.4,1.4-4.8,2.5-6.8
				c1.9-3.6,4.1-6.3,4.1-6.3c1.4-2.2,2.9-4,4.6-5.6c1.6-1.5,3.3-2.8,5.1-3.8c11.4-6.4,25.6-3.4,31.2-1.4c0,0,1.5,0.6,4.7,1.4"/>
			<path id="XMLID_88_" class="st4" d="M30.7,25c1-2,2-3.8,3.2-5.6c2.1-3.2,4.6-6,7.5-8.4c2.8-2.3,6-4.1,9.7-5.5
				C62,1.3,73,4,81.5,7.1c4.5,1.6,9.2,2.8,14,3.9c0.1,0,0.3,0.1,0.4,0.1"/>
			<path id="XMLID_87_" class="st4" d="M33.9,47.3c0,0-6-6-6-8.9c0-0.3-0.1-1-0.1-1.2"/>
			<path id="XMLID_86_" class="st4" d="M27.8,25.5c0,0,0.9,2,2.4,0.1c0.1-0.2,0.3-0.4,0.5-0.7"/>
			<path id="XMLID_85_" class="st4" d="M201.9,16.8C201.9,16.8,202,16.8,201.9,16.8"/>
			<path id="XMLID_84_" class="st4" d="M209.3,20.4c0,0,6.6-0.9,7.1,9.1c0,0,0.1,1.3,1.6,1.2c0,0-1.2,0.2-1.8,2.5
				c-0.6,2.3,0.4,9.3-5.2,8.9c0,0,0,0,0,0"/>
			<path id="XMLID_83_" class="st4" d="M15.2,21C15.2,21,15.2,21,15.2,21"/>
		</g>
	</g>
</g>
<polyline id="XMLID_484_" class="st4" points="41.4,11 33.9,11 33.9,19.4 "/>
</svg>
