<?xml version="1.0" encoding="utf-8"?>
<!-- Generator: Adobe Illustrator 19.0.0, SVG Export Plug-In . SVG Version: 6.00 Build 0)  -->
<svg version="1.1" id="Layer_1" xmlns="http://www.w3.org/2000/svg" xmlns:xlink="http://www.w3.org/1999/xlink" x="0px" y="0px"
	 viewBox="-26.5 13.5 55 55" style="enable-background:new -26.5 13.5 55 55;" xml:space="preserve">
<style type="text/css">
	.st0{fill:#707D95;stroke:#BC904A;stroke-width:1.4;stroke-miterlimit:10;}
	.st1{fill:#424B50;}
	.st2{fill:#BC904A;}
	.st3{fill:#7A1A11;}
	.st4{fill:none;stroke:#BC904A;stroke-width:1.4;stroke-miterlimit:10;}
</style>
<g id="XMLID_842_">
</g>
<circle id="XMLID_1337_" class="st0" cx="1" cy="40.8" r="25.5"/>
<path id="XMLID_1247_" class="st1" d="M17.3,40.8c0-8.1-6-14.9-13.8-16.1c-0.5-0.1-0.9-0.5-0.9-1.1v-0.2c0-0.6-0.5-1.1-1.1-1.1H0.9
	c-0.1,0-0.2,0-0.3,0l-0.9,0.3c-0.5,0.1-0.8,0.6-0.8,1v0c0,0.5-0.4,1-0.9,1.1c-7.6,1.4-13.4,8-13.4,16.1c0,7,4.4,12.9,10.5,15.3
	c0.4,0.2,0.7,0.6,0.7,1v0.1c0,0.4,0.2,0.7,0.5,0.9l1.5,1c0.2,0.1,0.4,0.2,0.6,0.2l4.3,0c0.2,0,0.3,0,0.4-0.1l2-0.9
	c0.4-0.2,0.6-0.6,0.6-1v-0.8l0,0C12.4,54.3,17.3,48.1,17.3,40.8z"/>
<path id="XMLID_1246_" class="st2" d="M-2.4,50.3l-0.3,1.8c-0.1,0.4,0.1,0.8,0.4,1.1l1.2,0.8c0.2,0.1,0.3,0.2,0.5,0.2l2.3,0.2
	c0.2,0,0.5,0,0.7-0.2L4.2,53c0.4-0.3,0.6-0.8,0.4-1.3L4,50.2c-0.2-0.5-0.7-0.7-1.2-0.7l-2.1,0.4c-0.2,0-0.3,0-0.5,0l-1.2-0.4
	C-1.7,49.3-2.3,49.7-2.4,50.3z"/>
<path id="XMLID_1245_" class="st2" d="M-1.8,27l0.6-0.2c0.1,0,0.2-0.1,0.4-0.1l3,0.1c0.1,0,0.1,0,0.2,0l1,0.2
	c0.5,0.1,0.8,0.5,0.8,1.1v1.1c0,0.6-0.5,1.1-1.2,1.1l-3.7-0.3c-0.1,0-0.2,0-0.3,0l-0.2,0c-0.7,0.2-1.3-0.4-1.3-1l0-1.1
	C-2.6,27.6-2.3,27.2-1.8,27z"/>
<polygon id="XMLID_1242_" class="st3" points="-1.1,23.7 -1.8,32.5 -2.6,49.2 -3.8,54.3 -4.1,57.1 -1.6,59.2 3.1,59.1 5.1,58.2 
	6,54.3 4.6,51.7 4.4,47 4.1,37.8 3,30.4 4.1,29.3 3.3,27.1 2.6,23.6 1.5,22.3 "/>
<g id="XMLID_1198_">
	<polygon id="XMLID_1243_" class="st4" points="-2.6,27.3 -0.9,26.8 2.2,26.8 4.1,27.3 4.4,30.5 2.2,30 -1,30.1 -2.8,30.5 	"/>
	<polyline id="XMLID_1240_" class="st4" points="-0.9,26.8 -0.9,22.8 -0.2,22.3 1.4,22.3 2.4,22.8 2.6,26.9 	"/>
	<path id="XMLID_1239_" class="st4" d="M-2.8,30.5l1.1,0.7v15.8c0,0,0.6,0.7,2.9,0.7s2.6-0.6,2.6-0.6l-0.4-16l1.1-0.6"/>
	<path id="XMLID_1201_" class="st4" d="M-1.7,47.1c0,0-0.9-0.3-1.1,0.7c-0.3,1,1,2.2,3.6,2.2s4.1-1,4.1-1.9s-0.6-0.9-1.2-0.9"/>
	<polyline id="XMLID_1200_" class="st4" points="-2.1,49.2 -2.4,51.5 -2.9,51.8 -2.8,53.4 -0.6,54.3 2.5,54.3 4.9,53.1 4.4,51.4 
		4.4,50 4.2,49.2 	"/>
	<polyline id="XMLID_1199_" class="st4" points="-2.9,52.2 -3.6,52.9 -4.1,57.9 -1.4,59.2 3.1,59.2 6,57.7 5.4,53.1 4.7,52.2 	"/>
</g>
</svg>
