<?xml version="1.0" encoding="utf-8"?>
<!-- Generator: Adobe Illustrator 19.0.0, SVG Export Plug-In . SVG Version: 6.00 Build 0)  -->
<svg version="1.1" id="Layer_1" xmlns="http://www.w3.org/2000/svg" xmlns:xlink="http://www.w3.org/1999/xlink" x="0px" y="0px"
	 viewBox="-26.5 13.5 55 55" style="enable-background:new -26.5 13.5 55 55;" xml:space="preserve">
<style type="text/css">
	.st0{fill:#707D95;stroke:#BC904A;stroke-width:1.4;stroke-miterlimit:10;}
	.st1{fill:#424B50;}
	.st2{fill:#7A1A11;}
	.st3{fill:none;stroke:#BC904A;stroke-width:1.4;stroke-miterlimit:10;}
	.st4{fill:#BC904A;stroke:#BC904A;stroke-miterlimit:10;}
	.st5{fill:none;stroke:#BC904A;stroke-width:0.5;stroke-miterlimit:10;}
</style>
<g id="XMLID_842_">
</g>
<circle id="XMLID_1405_" class="st0" cx="1.3" cy="41" r="25.5"/>
<path id="XMLID_1340_" class="st1" d="M17.6,41c0-9-7.3-16.3-16.3-16.3S-15,32-15,41c0,6.4,3.7,12,9.1,14.6l-3.5,7.7
	c0,0,8.7,5.4,20.4,0.5l0.3-0.1L7.8,56C13.6,53.5,17.6,47.7,17.6,41z"/>
<polyline id="XMLID_1436_" class="st2" points="12,49.1 12,41.3 17.6,38.1 -15,37.1 -14.8,38.5 -10.5,41.1 -11.2,49.4 "/>
<g id="XMLID_1041_">
	<path id="XMLID_1123_" class="st3" d="M-16.1,38c0,0,13.7,1.1,22.7,0.6S18.6,38,18.6,38L12,41.2v8.1h-22.8l0.3-7.4l0.3-0.3v-0.4
		L-16.1,38z"/>
	<path id="XMLID_1122_" class="st4" d="M18.6,38v-1.1h-0.8v-0.6c0,0,0,0-1,0.2s-8.7-1.2-8.7-1.2l-0.8-0.4v-0.5
		c-0.2-1.2-1.1-1.2-1.1-1.2v0.2l-0.9,0.4c0,0,0.6-0.2,0.9,0.2s-0.5,0.6-0.5,0.6S2.4,34.8,1,34.9c-1.4,0.1-5.3-0.1-5.3-0.4
		c-0.1-0.3,0.8-0.7,0.8-0.7l-0.8-0.3l-0.3-0.2c-1.2,0.2-1,1.7-1,1.7c-2.6,0.9-10.5,1.3-10.5,1.3l0.3,0.7h-1.1l0.8,1.1
		C-16.1,38,9.5,38.9,18.6,38z"/>
	<polyline id="XMLID_1121_" class="st3" points="-3.5,49.4 -3.5,41.5 -5.1,38.5 	"/>
	<polyline id="XMLID_1102_" class="st3" points="-4.3,49.4 -4.3,41.5 -7.4,38.5 	"/>
	<polyline id="XMLID_1101_" class="st3" points="5.4,49.4 5.4,41.5 8.4,38.5 	"/>
	<polyline id="XMLID_1100_" class="st3" points="4.5,49.4 4.5,41.5 5.4,38.6 	"/>
	<line id="XMLID_1099_" class="st3" x1="-10.5" y1="41.9" x2="-4.3" y2="41.9"/>
	<line id="XMLID_1098_" class="st3" x1="-3.5" y1="41.9" x2="4.5" y2="41.9"/>
	<line id="XMLID_1097_" class="st3" x1="5.4" y1="41.9" x2="12" y2="41.9"/>
	<line id="XMLID_1096_" class="st5" x1="-9.5" y1="63.4" x2="-3" y2="49.4"/>
	<line id="XMLID_1095_" class="st5" x1="11.4" y1="63.5" x2="4.7" y2="49.4"/>
	<line id="XMLID_1069_" class="st5" x1="-4.5" y1="52.7" x2="6.3" y2="52.7"/>
	<path id="XMLID_1057_" class="st5" d="M-5.4,55.6c0,0,3.4,0.4,6.3,0.4s6.4-0.4,6.4-0.4"/>
	<path id="XMLID_1043_" class="st5" d="M-7.4,58.3c0,0,3.5,1,8.3,1c4.4,0,8.1-1,8.1-1"/>
	<path id="XMLID_1042_" class="st5" d="M-8,61.2c0,0,4.2,1.8,8.9,1.8c4.9,0,9.2-1.4,9.2-1.4"/>
</g>
</svg>
