<?xml version="1.0" encoding="utf-8"?>
<!-- Generator: Adobe Illustrator 19.0.0, SVG Export Plug-In . SVG Version: 6.00 Build 0)  -->
<svg version="1.1" id="Layer_1" xmlns="http://www.w3.org/2000/svg" xmlns:xlink="http://www.w3.org/1999/xlink" x="0px" y="0px"
	 viewBox="0 0 30 30" style="enable-background:new 0 0 30 30;" xml:space="preserve">
<g id="XMLID_2_">
	<rect id="XMLID_9_" x="11.1" y="12.4" width="1.3" height="2.6"/>
	<rect id="XMLID_8_" x="12.4" y="17.6" width="5.1" height="3.9"/>
	<rect id="XMLID_7_" x="13.1" y="12.4" width="3.9" height="2.6"/>
	<path id="XMLID_4_" d="M15,0.2C6.8,0.2,0.2,6.8,0.2,15S6.8,29.8,15,29.8c8.2,0,14.8-6.6,14.8-14.8S23.2,0.2,15,0.2z M20.8,17.7v3.7
		h0.6v0.6H8.6v-0.6h0.6v-3.7C8.1,18,6.6,16.9,6.6,16c1.7,0.1,3.3-0.5,3.9-1.2v-2.3c-0.7,0.4-1.9-0.6-1.9-1c3,1.1,6.4-3.6,6.4-3.6
		s3.5,4.7,6.4,3.6c0,0.5-1.2,1.5-1.9,1v2.3c0.5,0.7,2.1,1.3,3.9,1.2C23.4,16.9,21.9,18,20.8,17.7z"/>
	<rect id="XMLID_3_" x="17.6" y="12.4" width="1.3" height="2.6"/>
</g>
</svg>
