<?xml version="1.0" encoding="utf-8"?>
<!-- Generator: Adobe Illustrator 19.0.0, SVG Export Plug-In . SVG Version: 6.00 Build 0)  -->
<svg version="1.1" xmlns="http://www.w3.org/2000/svg" xmlns:xlink="http://www.w3.org/1999/xlink" x="0px" y="0px"
	 viewBox="0 0 700 600" style="enable-background:new 0 0 700 600;" xml:space="preserve">
<style type="text/css">
	.st0{display:none;}
	.st1{display:inline;opacity:0.5;}
	.st2{opacity:0.26;fill:#A5A5A5;}
	.st3{fill:#020202;}
	.st4{fill:#FFFDFD;stroke:#B7B7B7;stroke-width:3;stroke-miterlimit:10;}
	.st5{fill:#FFFDFD;stroke:#95A0A0;stroke-width:3;stroke-miterlimit:10;}
	.st6{fill:#95A0A0;}
	.st7{fill:#83FF0B;}
	.st8{fill:#727271;}
	.st9{fill:url(#XMLID_58_);}
	.st10{fill:#636362;}
	.st11{fill:url(#XMLID_61_);}
	.st12{opacity:0.32;fill:url(#XMLID_155_);}
	.st13{fill:#B7B7B7;}
	.st14{fill:#338987;}
	.st15{fill:#10BFBB;}
	.st16{fill:#666B6B;}
	.st17{fill:#FC5810;}
	.st18{fill:none;stroke:#FFFFFF;stroke-width:2.5;stroke-linecap:round;stroke-miterlimit:10;}
	.st19{fill:none;stroke:#338987;stroke-miterlimit:10;}
	.st20{fill:none;stroke:#338987;stroke-width:2;stroke-miterlimit:10;}
	.st21{fill:#098C82;}
	.st22{clip-path:url(#XMLID_157_);}
	.st23{fill:none;stroke:#10BFBB;stroke-width:2;stroke-miterlimit:10;}
	.st24{fill:#5B6B57;}
	.st25{fill:#892B2B;}
	.st26{fill:#E54141;}
	.st27{fill:#3D3F3F;}
	.st28{fill:url(#XMLID_158_);}
	.st29{fill:url(#XMLID_159_);}
	.st30{fill:#90B2AE;}
	.st31{fill:#DDDDDD;}
	.st32{opacity:0.72;fill:#90B2AE;}
	.st33{fill:#0D726D;}
	.st34{fill:none;stroke:#0D726D;stroke-width:3;stroke-miterlimit:10;}
	.st35{fill:#0AA098;}
	.st36{fill:#CE3F0D;}
	.st37{fill:none;stroke:#10BFBB;stroke-width:2.5;stroke-linecap:round;stroke-miterlimit:10;}
	.st38{fill:#0A9187;}
	.st39{opacity:0.59;fill:#892913;}
	.st40{fill:url(#XMLID_161_);}
	.st41{opacity:0.54;fill:url(#XMLID_164_);}
	.st42{opacity:0.54;fill:url(#XMLID_165_);}
	.st43{opacity:0.54;fill:url(#XMLID_166_);}
	.st44{clip-path:url(#XMLID_168_);}
	.st45{fill:none;stroke:#CE3F0D;stroke-width:2;stroke-miterlimit:10;}
	.st46{fill:none;stroke:#10BFBB;stroke-width:2.6;stroke-miterlimit:10;}
	.st47{fill:#FF8A61;}
	.st48{fill:#266A6D;}
	.st49{fill:none;stroke:#266A6D;stroke-width:2;stroke-miterlimit:10;}
	.st50{opacity:0.45;fill:url(#XMLID_169_);}
</style>
<g id="Layer_1" class="st0">
	<g id="Y6Vj0E.tif" class="st1">
		
			<image style="overflow:visible;" width="2996" height="2037" id="Layer_1_1_" xlink:href="170E590344C56E8F.png"  transform="matrix(0.2064 0 0 0.2064 49.0123 103.5607)">
		</image>
	</g>
</g>
<g id="Layer_5">
	<ellipse id="XMLID_28_" class="st2" cx="334" cy="485.4" rx="126" ry="20.6"/>
	<path id="XMLID_29_" class="st2" d="M-239.1-151.6c-25.1,0-47.2,4.2-59.8,10.6c-6-7.6-27.2-13.1-52.4-13.1
		c-29.9,0-54.1,7.8-54.1,17.5s24.2,17.5,54.1,17.5c16.9,0,32-2.5,41.9-6.4c4.6,11.2,34.4,19.9,70.4,19.9c39.2,0,71-10.3,71-23
		S-199.9-151.6-239.1-151.6z"/>
</g>
<g id="Layer_2">
	<polygon id="XMLID_619_" class="st3" points="275.6,148.1 279,166.4 311,160.6 308.2,140.3 	"/>
	<g id="XMLID_477_">
		<path id="XMLID_618_" class="st3" d="M472.4,127.8c2.7,0.2,5.4-0.3,7.9-1.3c-0.2-1.7-0.4-3.4-0.7-5c-2.5,0.9-5.2,1.4-7.8,1.4
			C472,124.5,472.2,126.2,472.4,127.8z"/>
		<path id="XMLID_617_" class="st3" d="M471.3,120.5c2.7,0,5.4-0.5,7.8-1.5c-0.3-1.8-0.7-3.5-1.2-5.2c-2.4,1.2-5,2-7.7,2.2
			C470.7,117.5,471.1,119,471.3,120.5z"/>
		<path id="XMLID_616_" class="st3" d="M468.6,110c0.4,1.2,0.8,2.4,1.1,3.6c2.7-0.2,5.3-1,7.7-2.2c-0.5-1.6-1-3.2-1.5-4.8
			C473.6,108.1,471.2,109.4,468.6,110z"/>
		<path id="XMLID_615_" class="st3" d="M378.5,54.2c1.7,0.1,3.4,0.2,5.1,0.4c0.8-2.6,0.8-5.4,0.2-8c-1.7-0.2-3.4-0.3-5.1-0.4
			c0.3,1.4,0.4,2.7,0.3,3.8C379,51.5,378.8,52.9,378.5,54.2z"/>
		<path id="XMLID_614_" class="st3" d="M400.8,49.3c-2.1-0.5-4.1-0.9-6.1-1.2c0.2,2.7-0.2,5.4-1.2,7.9c1.9,0.3,3.8,0.7,5.8,1.2
			C400.5,54.8,401.1,52,400.8,49.3z"/>
		<path id="XMLID_509_" class="st3" d="M392.2,47.7c-2-0.3-4-0.6-6-0.8c0.5,2.6,0.4,5.4-0.3,8c1.7,0.2,3.4,0.4,5.1,0.7
			C392.1,53.1,392.5,50.4,392.2,47.7z"/>
		<path id="XMLID_508_" class="st3" d="M480.9,142c0-1.7,0.1-3.5,0-5.2c-1.8,0.6-3.7,1.1-5.7,1.1c0,0,0,0,0,0
			c-0.8,0-1.5-0.1-2.2-0.2c0,2.5-0.1,4.9-0.2,7.4L480.9,142z"/>
		<path id="XMLID_507_" class="st3" d="M471.9,97.2c-0.8-1.6-1.7-3.2-2.6-4.7c-0.2,0.3-0.5,0.5-0.7,0.8c-1.7,1.7-3.5,3.2-5.5,4.6
			c0.7,1.3,1.4,2.6,2.1,4C467.7,100.7,470,99.2,471.9,97.2z"/>
		<path id="XMLID_506_" class="st3" d="M467.8,107.7c2.5-0.5,4.9-1.8,7.2-3.5c0-0.1-0.1-0.1-0.1-0.2c-0.6-1.5-1.2-3-1.9-4.5
			c-2,1.8-4.3,3.4-6.8,4.5c0.4,1,0.8,1.9,1.2,2.9C467.6,107.2,467.7,107.5,467.8,107.7z"/>
		<path id="XMLID_505_" class="st3" d="M444.3,71.8c0.6-1,1.4-2.7,1.3-4.2c-1.4-1-2.9-1.9-4.5-2.9c-0.5,2.7-1.5,5.3-2.9,7.6
			c1.4,0.9,2.7,1.8,4,2.7C442.9,74,443.6,72.9,444.3,71.8z"/>
		<path id="XMLID_504_" class="st3" d="M432.7,60.2c-1.9-0.9-3.9-1.9-6-2.7c-0.2,2.7-0.9,5.4-2.2,7.8c1.7,0.8,3.4,1.5,5.1,2.4
			c0.8-1.5,1.6-3.1,2.2-4.7C432.3,61.9,432.6,61,432.7,60.2z"/>
		<path id="XMLID_503_" class="st3" d="M419.4,54.6c0,1.9-0.5,3.7-0.9,5.1c-0.3,0.9-0.7,1.8-1.2,2.7c1.7,0.6,3.4,1.3,5.1,1.9
			c1.3-2.4,2-5.1,2-7.8C422.8,55.9,421.1,55.2,419.4,54.6z"/>
		<path id="XMLID_502_" class="st3" d="M435,61.3c-0.2,0.9-0.5,1.8-0.8,2.5c-0.7,1.7-1.5,3.3-2.3,4.8c1.5,0.8,2.9,1.6,4.3,2.4
			c1.5-2.3,2.4-5,2.8-7.7C437.6,62.7,436.3,62,435,61.3z"/>
		<path id="XMLID_501_" class="st3" d="M466.9,91.6c0.4-0.4,0.8-0.8,1.1-1.2c-1.1-1.7-2.2-3.3-3.4-4.9c-1.5,2.3-3.4,4.3-5.5,6
			c1,1.4,2,2.8,2.9,4.3C463.7,94.5,465.4,93.1,466.9,91.6z"/>
		<path id="XMLID_500_" class="st3" d="M451.9,72.4c-1.3-1.1-2.7-2.2-4.1-3.2c-0.2,1.2-0.7,2.4-1.4,3.8c-0.7,1.2-1.5,2.4-2.3,3.5
			c1.3,1,2.5,1.9,3.7,2.9C449.6,77.4,451,75,451.9,72.4z"/>
		<path id="XMLID_499_" class="st3" d="M449.6,81c1,0.9,1.9,1.8,2.8,2.7c0.9-0.8,1.8-1.6,2.6-2.5c0.8-0.9,1.8-2.3,2.4-3.8
			c-1.1-1.1-2.3-2.2-3.6-3.3C452.9,76.6,451.4,79,449.6,81z"/>
		<path id="XMLID_498_" class="st3" d="M463,83.5c-1.2-1.5-2.4-2.9-3.8-4.3c-0.6,1.2-1.4,2.4-2.4,3.6c-0.9,1-1.8,1.8-2.8,2.6
			c1.2,1.3,2.4,2.7,3.5,4.1C459.7,87.9,461.5,85.8,463,83.5z"/>
		<path id="XMLID_497_" class="st3" d="M475.2,135.5C475.2,135.5,475.2,135.5,475.2,135.5c1.9,0,3.8-0.6,5.7-1.2
			c-0.1-1.8-0.2-3.6-0.3-5.3c-2.3,0.8-4.7,1.3-7.1,1.3c-0.3,0-0.5,0-0.8,0c0.1,1.7,0.2,3.4,0.3,5
			C473.7,135.4,474.4,135.5,475.2,135.5z"/>
		<path id="XMLID_496_" class="st3" d="M343,50.4c-1.6,0.5-3.1,1-4.6,1.5c1.7,2,3,4.4,3.7,7c1.5-0.5,2.9-1,4.4-1.4
			C345.9,55,344.7,52.5,343,50.4z"/>
		<path id="XMLID_495_" class="st3" d="M406.6,59c1.4-2.3,2.3-5,2.3-7.6c-1.9-0.5-3.8-1-5.7-1.5c0.1,2.7-0.4,5.4-1.5,7.8
			C403.3,58.1,404.9,58.6,406.6,59z"/>
		<path id="XMLID_494_" class="st3" d="M360.1,49c-0.2-0.6-0.5-1.3-0.9-2c-1.8,0.2-3.5,0.5-5.2,0.8c1.4,2.3,2.3,4.9,2.5,7.5
			c1.5-0.3,3.1-0.5,4.6-0.7C361.1,52.7,360.8,50.8,360.1,49z"/>
		<path id="XMLID_493_" class="st3" d="M335.9,52.9c-1.5,0.6-2.9,1.2-4.3,1.8c1.7,2,2.9,4.4,3.7,7c1.5-0.7,3-1.3,4.5-1.9
			C339.1,57.2,337.8,54.8,335.9,52.9z"/>
		<path id="XMLID_492_" class="st3" d="M329.4,55.8c-1.7,0.8-3.3,1.7-4.9,2.6c2,1.8,3.5,4.1,4.5,6.6c1.4-0.8,2.8-1.5,4.2-2.2
			C332.4,60.2,331.1,57.8,329.4,55.8z"/>
		<path id="XMLID_491_" class="st3" d="M472.6,147.8c-3.2,40.3-25.5,78.4-25.8,78.9l6.9,4.1c0.4-0.7,10.7-18.2,18.6-42.6
			c5-15.4,7.8-30.1,8.5-43.7L472.6,147.8z"/>
		<path id="XMLID_490_" class="st3" d="M416.2,58.9c0.6-1.8,0.9-3.5,0.8-5.1c-1.5-0.5-2.9-1-4.4-1.4c-0.4-0.1-0.8-0.2-1.2-0.3
			c-0.2,2.7-0.9,5.3-2.3,7.7c0.4,0.1,0.8,0.2,1.2,0.4c1.6,0.5,3.2,1,4.8,1.5C415.5,60.7,415.9,59.8,416.2,58.9z"/>
		<path id="XMLID_488_" class="st3" d="M284.6,98.6c-6.4,10.8-9.1,19.2-9.3,19.7l7.6,2.4c0-0.1,3.1-9.3,10.3-20.9
			C290.4,99,287.5,98.6,284.6,98.6z"/>
		<path id="XMLID_487_" class="st3" d="M376.6,50c0-1.1-0.1-2.5-0.5-3.9c-2.1-0.1-4.1-0.1-6.1,0c0.8,2.5,1.2,5.2,1,7.9
			c1.6,0,3.3,0,5,0.1C376.4,52.8,376.6,51.4,376.6,50z"/>
		<path id="XMLID_486_" class="st3" d="M351.4,48.3c-2,0.4-4,0.9-6,1.4c1.6,2.1,2.8,4.6,3.4,7.2c1.8-0.5,3.5-0.9,5.3-1.2
			C354,53.1,353,50.4,351.4,48.3z"/>
		<path id="XMLID_485_" class="st3" d="M296.6,94.8c-2.6-1.1-5.4-1.9-8.3-2.1c-0.8,1.2-1.6,2.4-2.3,3.6c2.9,0.1,5.8,0.7,8.5,1.6
			C295.2,96.8,295.8,95.8,296.6,94.8z"/>
		<path id="XMLID_484_" class="st3" d="M322.3,59.6c-1.8,1.1-3.5,2.1-5.1,3.3c2.1,1.7,3.9,3.7,5.2,6c1.4-1,2.9-1.9,4.4-2.8
			C325.9,63.6,324.4,61.3,322.3,59.6z"/>
		<path id="XMLID_483_" class="st3" d="M362.4,48.2c0.7,2,1.1,4.1,1.2,6.3c1.7-0.1,3.4-0.2,5.1-0.3c0.2-2.7-0.2-5.4-1.1-7.9
			c-2,0.1-3.9,0.2-5.8,0.4C362,47.2,362.2,47.7,362.4,48.2z"/>
		<path id="XMLID_482_" class="st3" d="M292.7,86.4c-1,1.3-2,2.7-2.9,4c2.8,0.4,5.6,1.2,8.2,2.4c0.7-1,1.5-2,2.3-3
			C298,88.2,295.4,87.1,292.7,86.4z"/>
		<path id="XMLID_481_" class="st3" d="M297.7,80.3c-1.2,1.3-2.3,2.7-3.4,4c2.6,0.8,5.2,2,7.5,3.5c0.8-1,1.7-2,2.6-3.1
			C302.5,82.8,300.2,81.3,297.7,80.3z"/>
		<path id="XMLID_480_" class="st3" d="M308.9,69.3c-1.2,1.1-2.4,2.1-3.5,3.2c2.4,1.3,4.5,3,6.2,5.2c1.1-1,2.3-2.1,3.4-3
			C313.4,72.4,311.3,70.5,308.9,69.3z"/>
		<path id="XMLID_479_" class="st3" d="M315.1,64.3c-1.5,1.1-2.9,2.2-4.3,3.3c2.3,1.4,4.4,3.2,6,5.4c1.2-1,2.4-1.9,3.6-2.8
			C319.1,68,317.3,65.9,315.1,64.3z"/>
		<path id="XMLID_478_" class="st3" d="M303.5,74.2c-1.4,1.4-2.8,2.8-4.1,4.2c2.5,1.1,4.8,2.7,6.7,4.6c1.2-1.3,2.4-2.5,3.7-3.8
			c0,0,0,0,0,0C308.1,77.1,305.9,75.4,303.5,74.2z"/>
	</g>
	<path id="XMLID_476_" class="st4" d="M312,366.1c0,0-15.1,50.7-10.6,98.7c0,0-37.2,27.3-80.4,0.8l0,0c0,0,10-66.5,48-99.5
		S312,366.1,312,366.1z"/>
	<path id="XMLID_475_" class="st5" d="M339,365.5c0,0,27.3,35.1,26.8,100.1c0,0,43.9,30.7,83.9-6.8c0,0-10.7-66.5-68.2-103.5
		S339,365.5,339,365.5z"/>
	<polygon id="XMLID_474_" class="st6" points="245,146.1 263.8,310.2 390.5,292.6 385,325.1 191,352.6 173.5,155.6 	"/>
	<path id="XMLID_473_" class="st6" d="M370,92.1l51-0.1c0,0,27-3,33.5,19s16.5,212,16.5,212s2,18.5-26,28l-65.3,10.8l12.3-44.3
		L370,92.1z"/>
	<path id="XMLID_472_" class="st7" d="M405,92.1c0,0,18,3,20.5,23.5l5.8,61l4.9-23.2l-3.9-38.3c0,0-4.3-20.6-17-22.5L405,92.1z"/>
	<path id="XMLID_471_" class="st7" d="M435.8,276.4l3.4,45c0,0,2.1,19-20.1,34l13.1-2.2c0,0,16-8.1,16-29.1l-4.3-52.2L435.8,276.4z"
		/>
	<path id="XMLID_470_" class="st8" d="M434,147.3c0,0-2.4-28.1-3-32.5c-0.6-4.4-4.1-16-12-19.6c0,0-4.2-1.7-9.1-1.5l-4.9-1.6
		c0,0,13-1.5,18.4,2.8c4.4,3.5,8.6,9.2,9.9,17.8c1.3,8.7,2.9,33.3,2.9,33.3L434,147.3z"/>
	<linearGradient id="XMLID_58_" gradientUnits="userSpaceOnUse" x1="414.8097" y1="142.4661" x2="426.7054" y2="94.755">
		<stop  offset="0" style="stop-color:#80ED3F"/>
		<stop  offset="1" style="stop-color:#8DC63F;stop-opacity:0"/>
	</linearGradient>
	<path id="XMLID_469_" class="st9" d="M434,147.3c0,0-2.4-28.1-3-32.5c-0.6-4.4-4.1-16-12-19.6c0,0-4.2-1.7-9.1-1.5l-4.9-1.6
		c0,0,13-1.5,18.4,2.8c4.4,3.5,8.6,9.2,9.9,17.8c1.3,8.7,2.9,33.3,2.9,33.3L434,147.3z"/>
	<path id="XMLID_468_" class="st10" d="M442.7,276.4l3.3,47c0,0,0.5,15-9.7,24.2c0,0-3.4,3.4-13.3,5l-3.8,2.8c0,0,11.7-0.2,17.1-3.5
		c6.5-4,14.3-15.9,13.4-30c-1.7-21.2-3.6-47.4-3.6-47.4L442.7,276.4z"/>
	<linearGradient id="XMLID_61_" gradientUnits="userSpaceOnUse" x1="418.4065" y1="290.3903" x2="449.4817" y2="344.2141">
		<stop  offset="0" style="stop-color:#80ED3F"/>
		<stop  offset="1" style="stop-color:#8DC63F;stop-opacity:0"/>
	</linearGradient>
	<path id="XMLID_467_" class="st11" d="M442.7,276.4l3.3,47c0,0,0.5,15-9.7,24.2c0,0-3.4,3.4-13.3,5l-3.8,2.8c0,0,11.7-0.2,17.1-3.5
		c6.5-4,14.3-15.9,13.4-30c-1.7-21.2-3.6-47.4-3.6-47.4L442.7,276.4z"/>
	<path id="XMLID_466_" class="st7" d="M364,466.1l-0.8,16.2c0,0,21.8,17.5,55.9,11.5c0,0,24.2-3.4,34.2-18.9l-2.1-16.1l-1-2.9
		c0,0-16.5,17.1-34.8,19.1c-16.7,1.8-39.5-2.8-50.8-12.2L364,466.1z"/>
	<path id="XMLID_465_" class="st6" d="M402.2,371.6c0,0-16.6,10.8-52.1,13.7c0,0-3.9-10.9-7.2-16.5l42.8-6.8l4-0.9L402.2,371.6z"/>
	<path id="XMLID_464_" class="st7" d="M368.6,365c0,0,53.2,51.1,57.4,108.8l11.8-5.7c0,0-6.8-53.7-60.5-104.4L368.6,365z"/>
	<path id="XMLID_463_" class="st6" d="M376.5,363.7c0,0,47,44.4,55.8,99.6l5.6,2.9c0,0-2.8-30.9-29.5-70.9c0,0-14.8-21-26.8-32.5
		L376.5,363.7z"/>
	<linearGradient id="XMLID_155_" gradientUnits="userSpaceOnUse" x1="407.1635" y1="466.2196" x2="407.1635" y2="362.8342">
		<stop  offset="0" style="stop-color:#49313F"/>
		<stop  offset="1" style="stop-color:#8DC63F;stop-opacity:0"/>
	</linearGradient>
	<path id="XMLID_462_" class="st12" d="M376.5,363.7c0,0,47,44.4,55.8,99.6l5.6,2.9c0,0-2.8-30.9-29.5-70.9c0,0-14.8-21-26.8-32.5
		L376.5,363.7z"/>
	<path id="XMLID_461_" class="st13" d="M250.3,387.7c0,0,26.2,4.9,55.6,4.9l4-18.7l-56.1,7.7L250.3,387.7z"/>
	<g id="XMLID_410_">
		<path id="XMLID_438_" class="st14" d="M62.6,249.5c-1.7-3-3.4-6.1-5-9.1c2-4.1,4-8.1,6-12.1c3.6-0.9,7.3-1.5,11-2.1
			c1.7,3.2,3.5,6.4,5.3,9.6c-2,3.6-4,7.4-6,11.2C70.1,247.6,66.3,248.5,62.6,249.5z"/>
		<path id="XMLID_435_" class="st14" d="M79.9,235.8c-1.8-3.2-3.5-6.4-5.3-9.6c2-3.7,3.9-7.4,5.9-11c3.7-0.3,7.4-0.5,11.1-0.5
			c1.8,3.4,3.6,6.7,5.5,10.1c-1.9,3.3-3.8,6.6-5.8,10.1C87.5,235.1,83.7,235.3,79.9,235.8z"/>
		<path id="XMLID_434_" class="st14" d="M97,244.8c-1.9-3.3-3.8-6.6-5.6-9.9c2-3.4,3.9-6.8,5.8-10.1c3.8,0.1,7.5,0.3,11.3,0.7
			c1.9,3.5,3.8,6.9,5.8,10.4c-1.9,3-3.7,6-5.6,9.2C104.7,244.9,100.8,244.8,97,244.8z"/>
		<path id="XMLID_433_" class="st14" d="M79.3,256.3c-1.8-3.1-3.6-6.3-5.4-9.4c2-3.8,4-7.5,6-11.2c3.8-0.4,7.6-0.7,11.4-0.9
			c1.9,3.3,3.7,6.6,5.6,9.9c-2,3.3-3.9,6.8-5.9,10.2C87.1,255.3,83.2,255.8,79.3,256.3z"/>
		<path id="XMLID_432_" class="st14" d="M96.8,264.8c-2-3.2-3.9-6.5-5.8-9.7c2-3.5,4-6.9,5.9-10.2c3.9,0,7.7,0.1,11.6,0.4
			c2,3.4,3.9,6.8,5.9,10.3c-1.9,3-3.8,6.2-5.8,9.3C104.8,264.6,100.8,264.6,96.8,264.8z"/>
		<path id="XMLID_431_" class="st14" d="M43.8,287.9c-1.6-2.8-3.2-5.6-4.8-8.3c2.1-4.6,4.2-9.1,6.2-13.5c3.7-1.6,7.4-3,11.1-4.2
			c1.7,2.9,3.4,5.9,5.1,8.9c-2.1,4.1-4.2,8.3-6.3,12.6C51.4,284.6,47.6,286.2,43.8,287.9z"/>
		<path id="XMLID_430_" class="st14" d="M61.6,270.7c-1.7-3-3.5-5.9-5.1-8.9c2.1-4.2,4.1-8.3,6.2-12.3c3.7-1,7.5-1.8,11.3-2.5
			c1.8,3.1,3.6,6.2,5.4,9.4c-2,3.7-4.1,7.5-6.2,11.4C69.3,268.5,65.4,269.5,61.6,270.7z"/>
		<path id="XMLID_429_" class="st14" d="M78.7,276.9c-1.9-3.1-3.7-6.1-5.6-9.2c2.1-3.9,4.1-7.7,6.2-11.4c3.9-0.6,7.8-1,11.7-1.3
			c1.9,3.2,3.8,6.5,5.8,9.7c-2,3.4-4,6.9-6.1,10.4C86.7,275.6,82.7,276.2,78.7,276.9z"/>
		<path id="XMLID_428_" class="st14" d="M60.5,291.9c-1.8-2.9-3.6-5.8-5.3-8.6c2.1-4.3,4.2-8.5,6.3-12.6c3.8-1.2,7.7-2.1,11.6-3
			c1.8,3,3.7,6.1,5.6,9.2c-2.1,3.8-4.2,7.6-6.3,11.6C68.4,289.4,64.5,290.6,60.5,291.9z"/>
		<path id="XMLID_427_" class="st14" d="M78.1,297.4c-1.9-3-3.8-6-5.7-9c2.1-3.9,4.2-7.8,6.3-11.6c4-0.7,8-1.3,12-1.7
			c2,3.2,3.9,6.3,5.9,9.5c-2.1,3.5-4.1,7-6.2,10.6C86.3,295.9,82.2,296.6,78.1,297.4z"/>
		<path id="XMLID_426_" class="st14" d="M114.5,255.5c-2-3.4-4-6.9-5.9-10.3c1.9-3.1,3.8-6.2,5.6-9.2c3.8,0.5,7.6,1.2,11.4,2
			c2,3.6,4,7.2,6,10.8c-1.8,2.7-3.6,5.5-5.4,8.3C122.3,256.4,118.4,255.9,114.5,255.5z"/>
		<path id="XMLID_425_" class="st14" d="M131.6,248.9c-2-3.6-4-7.2-6-10.8c1.8-2.8,3.5-5.5,5.3-8.1c3.7,1,7.4,2.2,11,3.6
			c2,3.8,4,7.6,6,11.4c-1.6,2.4-3.3,4.8-5,7.3C139.2,250.9,135.4,249.8,131.6,248.9z"/>
		<path id="XMLID_424_" class="st14" d="M149.1,263.4c-2.1-3.8-4.1-7.5-6.2-11.3c1.7-2.5,3.4-4.9,5-7.3c3.7,1.5,7.3,3.1,10.8,4.9
			c2,3.9,4.1,7.9,6.1,11.9c-1.5,2.1-3.1,4.2-4.6,6.4C156.6,266.3,152.9,264.8,149.1,263.4z"/>
		<path id="XMLID_423_" class="st14" d="M132.4,267.8c-2.1-3.6-4.1-7.1-6.2-10.7c1.8-2.8,3.6-5.6,5.4-8.3c3.8,0.9,7.6,2,11.3,3.3
			c2,3.7,4.1,7.5,6.2,11.3c-1.7,2.4-3.4,4.9-5.1,7.4C140.1,269.6,136.3,268.7,132.4,267.8z"/>
		<path id="XMLID_422_" class="st14" d="M150.3,282c-2.1-3.7-4.2-7.4-6.3-11.1c1.7-2.5,3.5-5,5.1-7.4c3.8,1.4,7.5,2.9,11.1,4.6
			c2.1,3.9,4.2,7.8,6.2,11.8c-1.6,2.1-3.1,4.3-4.8,6.5C157.9,284.7,154.1,283.2,150.3,282z"/>
		<path id="XMLID_421_" class="st14" d="M96.7,284.7c-2-3.2-4-6.4-5.9-9.5c2.1-3.6,4.1-7,6.1-10.4c4-0.2,7.9-0.2,11.9,0
			c2,3.4,4,6.7,6.1,10.1c-2,3.1-3.9,6.3-5.9,9.5C104.8,284.3,100.7,284.5,96.7,284.7z"/>
		<path id="XMLID_420_" class="st14" d="M114.8,274.9c-2.1-3.4-4.1-6.7-6.1-10.1c2-3.2,3.9-6.3,5.8-9.3c3.9,0.4,7.8,0.9,11.7,1.7
			c2,3.5,4.1,7.1,6.2,10.7c-1.8,2.7-3.7,5.6-5.6,8.4C122.8,275.6,118.8,275.2,114.8,274.9z"/>
		<path id="XMLID_419_" class="st14" d="M133.1,286.8c-2.1-3.5-4.2-7-6.3-10.5c1.9-2.9,3.7-5.7,5.6-8.4c3.9,0.8,7.8,1.8,11.6,3
			c2.1,3.7,4.2,7.4,6.3,11.1c-1.7,2.4-3.5,5-5.3,7.5C141.1,288.4,137.1,287.5,133.1,286.8z"/>
		<path id="XMLID_418_" class="st14" d="M115.1,294.3c-2.1-3.3-4.2-6.6-6.2-9.9c2-3.2,4-6.4,5.9-9.5c4,0.3,8,0.7,12,1.3
			c2.1,3.5,4.2,7,6.3,10.5c-1.9,2.8-3.8,5.7-5.7,8.6C123.3,294.8,119.2,294.5,115.1,294.3z"/>
		<path id="XMLID_417_" class="st14" d="M59.5,313.1c-1.8-2.8-3.7-5.6-5.4-8.4c2.2-4.3,4.3-8.6,6.5-12.8c3.9-1.3,7.9-2.4,11.9-3.4
			c1.9,3,3.8,6,5.7,9c-2.1,3.9-4.3,7.8-6.5,11.8C67.6,310.3,63.5,311.6,59.5,313.1z"/>
		<path id="XMLID_416_" class="st14" d="M40.9,331.7c-1.7-2.6-0.5-4.4-2.2-7c2.2-4.8,1.5-10.3,3.6-14.9c3.8-1.9,7.7-3.6,11.7-5.2
			c1.8,2.8,3.6,5.6,5.4,8.4c-2.2,4.3-4.4,8.6-6.6,13C48.8,327.8,44.9,329.6,40.9,331.7z"/>
		<path id="XMLID_415_" class="st14" d="M58.4,334.2c-1.9-2.7-3.7-5.5-5.6-8.2c2.2-4.4,4.4-8.8,6.6-13c4-1.4,8.1-2.7,12.2-3.8
			c1.9,2.9,3.9,5.8,5.9,8.8c-2.2,3.9-4.4,7.9-6.6,12C66.7,331.2,62.6,332.6,58.4,334.2z"/>
		<path id="XMLID_414_" class="st14" d="M77.6,318c-2-2.9-3.9-5.8-5.9-8.8c2.2-4,4.3-7.9,6.5-11.8c4.1-0.9,8.2-1.5,12.3-2.1
			c2,3.1,4,6.2,6.1,9.3c-2.1,3.5-4.2,7.1-6.4,10.8C85.9,316.2,81.7,317,77.6,318z"/>
		<path id="XMLID_413_" class="st14" d="M96.5,304.7c-2.1-3.1-4.1-6.2-6.1-9.3c2.1-3.6,4.2-7.2,6.2-10.6c4.1-0.3,8.1-0.4,12.2-0.3
			c2.1,3.3,4.1,6.6,6.2,9.9c-2,3.2-4,6.4-6.1,9.7C104.9,304.1,100.7,304.3,96.5,304.7z"/>
		<path id="XMLID_412_" class="st14" d="M115.4,313.8c-2.2-3.3-4.3-6.5-6.4-9.8c2.1-3.3,4.1-6.5,6.1-9.7c4.1,0.2,8.2,0.5,12.3,1
			c2.1,3.4,4.3,6.9,6.5,10.4c-1.9,2.8-3.9,5.8-5.9,8.7C123.8,314,119.6,313.8,115.4,313.8z"/>
		<path id="XMLID_411_" class="st14" d="M96.4,324.7c-2.1-3.1-4.2-6.1-6.2-9.1c2.2-3.7,4.3-7.3,6.4-10.8c4.2-0.4,8.3-0.6,12.5-0.7
			c2.1,3.2,4.2,6.5,6.4,9.8c-2.1,3.2-4.1,6.5-6.2,9.8C104.9,323.8,100.6,324.1,96.4,324.7z"/>
	</g>
	<polygon id="XMLID_409_" class="st14" points="43.8,287.9 42.1,298.8 71.3,304.3 70.7,265.9 	"/>
	<path id="XMLID_408_" class="st15" d="M91.6,214.2L95,220l-5.8,8l5.8,10.5l-5.8,9.8H77.5l-7,9.5l7,11.1l-5.8,9.7l-14,1.8l-6,12
		l-10.2,4.1c-10.7,44.5-2.8,84.4-2.8,84.4c46-36.4,104.5-33.5,104.5-33.5c-8.5-51.2,22.5-60,22.5-60l10-92
		C175.7,195.2,147.4,166.3,91.6,214.2z"/>
	<path id="XMLID_405_" class="st5" d="M359.3,93.7L169,124.4c-13.3,2.1-22.8,15.8-21.3,30.3l23,203c1.5,14.5,14.8,33,40.3,29.2
		l172-25.5c18.7-2.7,28.4-20.6,28.4-40.7l-12.9-201.2C397.5,104.7,382.5,88.1,359.3,93.7z M372.1,307.4L205,333.1l-19-170.9
		l172.4-27.9L372.1,307.4z"/>
	<path id="XMLID_404_" class="st6" d="M151.2,185.1l-16.9,3.5l-12.8,5.4c0,0,26.7,25.5,28.9,105.4c0,0,6.2-6.7,11.7-9L151.2,185.1z"
		/>
	<polygon id="XMLID_403_" class="st16" points="212.3,159.8 228,324.1 234,321.8 218.1,158.8 	"/>
	<polygon id="XMLID_402_" class="st16" points="220.3,158.8 236.5,320.6 241.9,318.5 225.9,158.2 	"/>
</g>
<g id="Layer_3">
	<g id="XMLID_603_">
		<g id="XMLID_622_">
			<path id="XMLID_4_" class="st17" d="M594.5,353.2c-7.5,1.2-15.1-4.6-15.1-4.6c-3.5,1.1-6.9,1.3-8.5,1.5
				c-3.6,0.5-7.2-0.3-10.3-1.7c-1.3,0.4-2.8,0.7-4.3,0.8c-5.3,0.4-11.2-0.8-11.8-0.9c0,0,0,0,0,0c0,0,0,0,0,0
				c-0.8,1-13,16.1-24.7,17.1c0,0,0,0,0,0c-4.9-0.4-8.8-2.9-11.2-4.9c0,0,0,0,0,0c-4.3-5-4.6-9.8-3.1-14c3.9-8.6,15.1-15.4,16-15.9
				c0,0,0,0,0,0l3-6c-9-72-62.5-66.5-62.5-66.5s-24-7.7-25.7-49.7c-1.7-42,34.2-52.3,34.2-52.3s59-10.5,113,50.5
				c6.1,6.9,11.5,13.7,16.2,20.3c32,45.2,33.6,82.8,33.4,91.8l1.3,0c0,0,19.1,1.8,27.1,14.3s-1.4,17-1.4,17c2.2,2.8,3.7,5.9,3.9,9.5
				c1,16-24,11-28,8.5s-5.8-3.7-5.8-3.7l-0.9-0.1c-8,6.1-24.9-1.9-29.3-5.5C597.8,356.9,596,354.9,594.5,353.2z"/>
			<path id="XMLID_3_" class="st17" d="M599.7,226.9c-4.7-6.6-10.1-13.4-16.2-20.3c-54-61-113-50.5-113-50.5s-35.8,10.3-34.2,52.3
				c1.7,42,25.7,49.7,25.7,49.7s53.5-5.5,62.5,66.5c-8-54.5-39.5-61.6-39.5-61.6s-3.9,12.2-18.3,17.9c-17.3,6.9-53.8-7.5-63.2-46.5
				c-9.3-39,5.5-92.2,41.5-97.2c30.8-4.3,42.2,17.5,42.2,17.5S555.1,155.8,599.7,226.9z"/>
			<path id="XMLID_2_" class="st17" d="M544.5,348.4c-9.2,14.2-17.9,17.6-24.7,17.1C531.5,364.4,543.7,349.3,544.5,348.4z"/>
			<path id="XMLID_1_" class="st17" d="M508.5,360.5c-1.6-1.3-2.5-2.4-2.5-2.4c-2.5-3.9-2.2-7.9-0.5-11.6
				C503.9,350.7,504.3,355.5,508.5,360.5z"/>
		</g>
		<g id="XMLID_613_">
			<path id="XMLID_12_" class="st18" d="M551.5,326.6c0,0,29-21,36.7,3.6c3.8,12-2.5,16.5-8.7,18.4c-3.5,1.1-6.9,1.3-8.5,1.5
				c-3.6,0.5-7.2-0.3-10.3-1.7c-5.3-2.3-9.2-6-9.2-6"/>
			<path id="XMLID_11_" class="st18" d="M519.7,365.4c6.8,0.6,15.5-2.8,24.7-17.1"/>
			<path id="XMLID_10_" class="st18" d="M505.5,346.5c-1.7,3.7-2,7.7,0.5,11.6c0,0,0.9,1.1,2.5,2.4"/>
			<path id="XMLID_9_" class="st18" d="M606,330.6c0,0,31,7.2,27.1,27c-0.6,3.1-2,5.3-3.8,6.7c-8,6.1-24.9-1.9-29.3-5.5
				c-2.2-1.8-4-3.8-5.5-5.6c-2.1-2.6-3.3-4.6-3.3-4.6"/>
			<path id="XMLID_8_" class="st18" d="M636,335.4c0,0,16.3,4.9,24.1,14.6c2.2,2.8,3.7,5.9,3.9,9.5c1,16-24,11-28,8.5
				s-5.8-3.7-5.8-3.7"/>
			<path id="XMLID_7_" class="st18" d="M634.4,318.7c0,0,19.1,1.8,27.1,14.3s-1.4,17-1.4,17"/>
			<path id="XMLID_6_" class="st18" d="M579.5,348.5c0,0,7.5,5.8,15.1,4.6c0,0,0.1,0,0.1,0"/>
			<path id="XMLID_5_" class="st18" d="M559.8,348.5c-1.2,0.3-2.3,0.5-3.4,0.7c-6.4,0.9-11.3-0.7-11.8-0.9c0,0,0,0,0,0c0,0,0,0,0,0
				c-0.8,1-13,16.1-24.7,17.1c0,0,0,0,0,0c-3.9,0.3-7.8-0.9-11.2-4.9c0,0,0,0,0,0c-4.3-5-4.6-9.8-3.1-14c3.3-9,15.1-15.4,16-15.9
				c0,0,0,0,0,0l3-6c-8-54.5-39.5-61.6-39.5-61.6s-3.9,12.2-18.3,17.9c-17.3,6.9-53.8-7.5-63.2-46.5c-9.3-39,5.5-92.2,41.5-97.2
				c30.8-4.3,42.2,17.5,42.2,17.5s67.9,1.2,112.5,72.3"/>
		</g>
	</g>
	<path id="XMLID_602_" class="st7" d="M302.8,462.1l2.5,17.3c0,0-16.8,18-58.8,12.8c0,0-7.9,1.3-29.9-10.8l3.4-19.2
		C220,462.1,251.7,487.1,302.8,462.1z"/>
	<polygon id="XMLID_601_" class="st19" points="59.1,698.8 49.7,682.4 59.1,666.1 78,666.1 87.4,682.4 78,698.8 	"/>
	<polygon id="XMLID_600_" class="st19" points="87.4,682.4 78,666.1 87.4,649.8 106.3,649.8 115.7,666.1 106.3,682.4 	"/>
	<polygon id="XMLID_599_" class="st19" points="115.7,698.8 106.3,682.4 115.7,666.1 134.6,666.1 144,682.4 134.6,698.8 	"/>
	<polygon id="XMLID_70_" class="st19" points="85.4,740 76,723.7 85.4,707.3 104.3,707.3 113.7,723.7 104.3,740 	"/>
	<polygon id="XMLID_71_" class="st19" points="113.7,756.3 104.3,740 113.7,723.7 132.6,723.7 142,740 132.6,756.3 	"/>
	<polygon id="XMLID_76_" class="st19" points="28.9,772.7 19.4,756.3 28.9,740 47.7,740 57.1,756.3 47.7,772.7 	"/>
	<polygon id="XMLID_75_" class="st19" points="57.1,756.3 47.7,740 57.1,723.7 76,723.7 85.4,740 76,756.3 	"/>
	<polygon id="XMLID_74_" class="st19" points="85.4,772.7 76,756.3 85.4,740 104.3,740 113.7,756.3 104.3,772.7 	"/>
	<polygon id="XMLID_73_" class="st19" points="57.1,789 47.7,772.7 57.1,756.3 76,756.3 85.4,772.7 76,789 	"/>
	<polygon id="XMLID_72_" class="st19" points="85.4,805.3 76,789 85.4,772.7 104.3,772.7 113.7,789 104.3,805.3 	"/>
	<polygon id="XMLID_81_" class="st19" points="142,740 132.6,723.7 142,707.3 160.9,707.3 170.3,723.7 160.9,740 	"/>
	<polygon id="XMLID_598_" class="st19" points="172.3,698.8 162.9,682.4 172.3,666.1 191.2,666.1 200.6,682.4 191.2,698.8 	"/>
	<polygon id="XMLID_79_" class="st19" points="198.6,740 189.2,723.7 198.6,707.3 217.5,707.3 226.9,723.7 217.5,740 	"/>
	<polygon id="XMLID_78_" class="st19" points="170.3,756.3 160.9,740 170.3,723.7 189.2,723.7 198.6,740 189.2,756.3 	"/>
	<polygon id="XMLID_77_" class="st19" points="198.6,772.7 189.2,756.3 198.6,740 217.5,740 226.9,756.3 217.5,772.7 	"/>
	<polygon id="XMLID_86_" class="st19" points="113.7,789 104.3,772.7 113.7,756.3 132.6,756.3 142,772.7 132.6,789 	"/>
	<polygon id="XMLID_85_" class="st19" points="142,772.7 132.6,756.3 142,740 160.9,740 170.3,756.3 160.9,772.7 	"/>
	<polygon id="XMLID_84_" class="st19" points="170.3,789 160.9,772.7 170.3,756.3 189.2,756.3 198.6,772.7 189.2,789 	"/>
	<polygon id="XMLID_83_" class="st19" points="142,805.3 132.6,789 142,772.7 160.9,772.7 170.3,789 160.9,805.3 	"/>
	<polygon id="XMLID_92_" class="st19" points="57.1,821.7 47.7,805.3 57.1,789 76,789 85.4,805.3 76,821.7 	"/>
	<polygon id="XMLID_91_" class="st19" points="28.9,838 19.4,821.7 28.9,805.3 47.7,805.3 57.1,821.7 47.7,838 	"/>
	<polygon id="XMLID_90_" class="st19" points="57.1,854.3 47.7,838 57.1,821.7 76,821.7 85.4,838 76,854.3 	"/>
	<polygon id="XMLID_89_" class="st19" points="85.4,838 76,821.7 85.4,805.3 104.3,805.3 113.7,821.7 104.3,838 	"/>
	<polygon id="XMLID_88_" class="st19" points="113.7,821.7 104.3,805.3 113.7,789 132.6,789 142,805.3 132.6,821.7 	"/>
	<polygon id="XMLID_87_" class="st19" points="142,838 132.6,821.7 142,805.3 160.9,805.3 170.3,821.7 160.9,838 	"/>
	<polygon id="XMLID_82_" class="st19" points="113.7,854.3 104.3,838 113.7,821.7 132.6,821.7 142,838 132.6,854.3 	"/>
	<g id="XMLID_571_">
		<polygon id="XMLID_597_" class="st20" points="-286.8,421 -292.7,410.9 -286.8,400.8 -275.2,400.8 -269.4,410.9 -275.2,421 		"/>
		<polygon id="XMLID_596_" class="st20" points="-269.4,410.9 -275.2,400.8 -269.4,390.7 -257.7,390.7 -251.9,400.8 -257.7,410.9 		
			"/>
		<polygon id="XMLID_595_" class="st20" points="-251.9,421 -257.7,410.9 -251.9,400.8 -240.3,400.8 -234.4,410.9 -240.3,421 		"/>
		<polygon id="XMLID_594_" class="st20" points="-269.4,431 -275.2,421 -269.4,410.9 -257.7,410.9 -251.9,421 -257.7,431 		"/>
		<polygon id="XMLID_593_" class="st20" points="-251.9,441.1 -257.7,431 -251.9,421 -240.3,421 -234.4,431 -240.3,441.1 		"/>
		<polygon id="XMLID_592_" class="st20" points="-304.3,451.2 -310.1,441.1 -304.3,431 -292.7,431 -286.8,441.1 -292.7,451.2 		"/>
		<polygon id="XMLID_591_" class="st20" points="-286.8,441.1 -292.7,431 -286.8,421 -275.2,421 -269.4,431 -275.2,441.1 		"/>
		<polygon id="XMLID_590_" class="st20" points="-269.4,451.2 -275.2,441.1 -269.4,431 -257.7,431 -251.9,441.1 -257.7,451.2 		"/>
		<polygon id="XMLID_589_" class="st20" points="-286.8,461.3 -292.7,451.2 -286.8,441.1 -275.2,441.1 -269.4,451.2 -275.2,461.3 		
			"/>
		<polygon id="XMLID_588_" class="st20" points="-269.4,471.4 -275.2,461.3 -269.4,451.2 -257.7,451.2 -251.9,461.3 -257.7,471.4 		
			"/>
		<polygon id="XMLID_587_" class="st20" points="-234.4,431 -240.3,421 -234.4,410.9 -222.8,410.9 -217,421 -222.8,431 		"/>
		<polygon id="XMLID_586_" class="st20" points="-217,421 -222.8,410.9 -217,400.8 -205.3,400.8 -199.5,410.9 -205.3,421 		"/>
		<polygon id="XMLID_585_" class="st20" points="-199.5,431 -205.3,421 -199.5,410.9 -187.9,410.9 -182,421 -187.9,431 		"/>
		<polygon id="XMLID_584_" class="st20" points="-217,441.1 -222.8,431 -217,421 -205.3,421 -199.5,431 -205.3,441.1 		"/>
		<polygon id="XMLID_583_" class="st20" points="-199.5,451.2 -205.3,441.1 -199.5,431 -187.9,431 -182,441.1 -187.9,451.2 		"/>
		<polygon id="XMLID_582_" class="st20" points="-251.9,461.3 -257.7,451.2 -251.9,441.1 -240.3,441.1 -234.4,451.2 -240.3,461.3 		
			"/>
		<polygon id="XMLID_581_" class="st20" points="-234.4,451.2 -240.3,441.1 -234.4,431 -222.8,431 -217,441.1 -222.8,451.2 		"/>
		<polygon id="XMLID_580_" class="st20" points="-217,461.3 -222.8,451.2 -217,441.1 -205.3,441.1 -199.5,451.2 -205.3,461.3 		"/>
		<polygon id="XMLID_579_" class="st20" points="-234.4,471.4 -240.3,461.3 -234.4,451.2 -222.8,451.2 -217,461.3 -222.8,471.4 		
			"/>
		<polygon id="XMLID_578_" class="st20" points="-286.8,481.5 -292.7,471.4 -286.8,461.3 -275.2,461.3 -269.4,471.4 -275.2,481.5 		
			"/>
		<polygon id="XMLID_577_" class="st20" points="-304.3,491.5 -310.1,481.5 -304.3,471.4 -292.7,471.4 -286.8,481.5 -292.7,491.5 		
			"/>
		<polygon id="XMLID_576_" class="st20" points="-286.8,501.6 -292.7,491.5 -286.8,481.5 -275.2,481.5 -269.4,491.5 -275.2,501.6 		
			"/>
		<polygon id="XMLID_575_" class="st20" points="-269.4,491.5 -275.2,481.5 -269.4,471.4 -257.7,471.4 -251.9,481.5 -257.7,491.5 		
			"/>
		<polygon id="XMLID_574_" class="st20" points="-251.9,481.5 -257.7,471.4 -251.9,461.3 -240.3,461.3 -234.4,471.4 -240.3,481.5 		
			"/>
		<polygon id="XMLID_573_" class="st20" points="-234.4,491.5 -240.3,481.5 -234.4,471.4 -222.8,471.4 -217,481.5 -222.8,491.5 		
			"/>
		<polygon id="XMLID_572_" class="st20" points="-251.9,501.6 -257.7,491.5 -251.9,481.5 -240.3,481.5 -234.4,491.5 -240.3,501.6 		
			"/>
	</g>
	<g id="XMLID_565_">
		<polygon id="XMLID_570_" class="st21" points="41.1,380.1 60.4,358.3 111.6,340.6 141.1,347.8 122.4,371.7 71.3,389.5 		"/>
		<path id="XMLID_567_" class="st15" d="M111.7,341.9l27.2,6.7l-17.2,22.1l-50.4,17.5l-27.9-8.7l17.7-20L111.7,341.9 M111.5,339.2
			l-51.9,18l-20.9,23.5l32.6,10.1l51.9-18l20.1-25.8L111.5,339.2L111.5,339.2z"/>
	</g>
	<g id="XMLID_460_">
		<defs>
			<polygon id="XMLID_489_" points="38.7,380.7 72.7,390.2 123.2,372.8 143.3,347 120.3,332.3 62.4,337.9 			"/>
		</defs>
		<clipPath id="XMLID_157_">
			<use xlink:href="#XMLID_489_"  style="overflow:visible;"/>
		</clipPath>
		<g id="XMLID_510_" class="st22">
			<g id="XMLID_512_">
				<polygon id="XMLID_538_" class="st23" points="135.2,328.4 145.6,322.4 147.8,326.8 139.5,337.4 129.2,343.2 127.2,338.6 				
					"/>
				<polygon id="XMLID_537_" class="st23" points="129.2,343.2 139.5,337.4 141.5,342.1 132.9,353 122.6,358.8 120.9,353.8 				"/>
				<polygon id="XMLID_536_" class="st23" points="110.9,359.3 120.9,353.8 122.6,358.8 114.1,369.6 104.1,375.1 102.6,369.8 				
					"/>
				<polygon id="XMLID_535_" class="st23" points="117.1,344.2 127.2,338.6 129.2,343.2 120.9,353.8 110.9,359.3 109.1,354.4 				
					"/>
				<polygon id="XMLID_534_" class="st23" points="99.3,359.6 109.1,354.4 110.9,359.3 102.6,369.8 92.9,375 91.3,369.8 				"/>
				<polygon id="XMLID_533_" class="st23" points="128,315.8 138.2,310.1 140.7,314.1 132.9,324 122.8,329.7 120.5,325.4 				"/>
				<polygon id="XMLID_532_" class="st23" points="122.8,329.7 132.9,324 135.2,328.4 127.2,338.6 117.1,344.2 115.1,339.6 				"/>
				<polygon id="XMLID_531_" class="st23" points="105.2,344.9 115.1,339.6 117.1,344.2 109.1,354.4 99.3,359.6 97.5,354.7 				"/>
				<polygon id="XMLID_530_" class="st23" points="110.6,330.7 120.5,325.4 122.8,329.7 115.1,339.6 105.2,344.9 103.1,340.3 				
					"/>
				<polygon id="XMLID_529_" class="st23" points="93.6,345.3 103.1,340.3 105.2,344.9 97.5,354.7 88,359.7 86.1,354.8 				"/>
				<polygon id="XMLID_528_" class="st23" points="92.9,375 102.6,369.8 104.1,375.1 95.6,385.9 85.9,391 84.7,385.4 				"/>
				<polygon id="XMLID_527_" class="st23" points="85.9,391 95.6,385.9 96.8,391.5 88.1,402.5 78.4,407.7 77.4,401.7 				"/>
				<polygon id="XMLID_526_" class="st23" points="68,406.6 77.4,401.7 78.4,407.7 69.7,418.7 60.3,423.4 59.6,417.2 				"/>
				<polygon id="XMLID_525_" class="st23" points="75.2,390.3 84.7,385.4 85.9,391 77.4,401.7 68,406.6 67,400.7 				"/>
				<polygon id="XMLID_524_" class="st23" points="57.8,405.2 67,400.7 68,406.6 59.6,417.2 50.4,421.7 49.7,415.6 				"/>
				<polygon id="XMLID_523_" class="st23" points="88,359.7 97.5,354.7 99.3,359.6 91.3,369.8 81.8,374.7 80.3,369.5 				"/>
				<polygon id="XMLID_522_" class="st23" points="81.8,374.7 91.3,369.8 92.9,375 84.7,385.4 75.2,390.3 73.9,384.8 				"/>
				<polygon id="XMLID_521_" class="st23" points="64.7,389.4 73.9,384.8 75.2,390.3 67,400.7 57.8,405.2 56.8,399.4 				"/>
				<polygon id="XMLID_520_" class="st23" points="71,374.1 80.3,369.5 81.8,374.7 73.9,384.8 64.7,389.4 63.3,383.9 				"/>
				<polygon id="XMLID_519_" class="st23" points="98.6,331.6 108.3,326.5 110.6,330.7 103.1,340.3 93.6,345.3 91.4,340.8 				"/>
				<polygon id="XMLID_518_" class="st23" points="103.2,318.5 112.8,313.4 115.5,317.3 108.3,326.5 98.6,331.6 96.2,327.4 				"/>
				<polygon id="XMLID_517_" class="st23" points="86.8,332.2 96.2,327.4 98.6,331.6 91.4,340.8 82.1,345.6 79.9,341.1 				"/>
				<polygon id="XMLID_516_" class="st23" points="82.1,345.6 91.4,340.8 93.6,345.3 86.1,354.8 76.8,359.5 74.9,354.7 				"/>
				<polygon id="XMLID_515_" class="st23" points="76.8,359.5 86.1,354.8 88,359.7 80.3,369.5 71,374.1 69.4,369 				"/>
				<polygon id="XMLID_514_" class="st23" points="60.4,373.4 69.4,369 71,374.1 63.3,383.9 54.4,388.2 53,382.8 				"/>
				<polygon id="XMLID_513_" class="st23" points="65.8,359.1 74.9,354.7 76.8,359.5 69.4,369 60.4,373.4 58.7,368.3 				"/>
			</g>
		</g>
	</g>
	<polygon id="XMLID_459_" class="st24" points="375.5,331.8 339.5,337.1 338.2,322.1 374.2,316.7 	"/>
	<path id="XMLID_458_" class="st25" d="M329.7,331.6c-0.4-3.9-3.6-6.7-7.1-6.3c-0.6,0.1-1.1,0.2-1.6,0.4l-2.4,0.7l0.2,1
		c-1.2,1.4-1.9,3.5-1.6,5.6c0.3,2.7,2,5,4.2,5.9l0.3,1.2l3.2-0.8l0,0c0.5-0.1,1-0.3,1.5-0.6l0,0v0
		C328.6,337.5,330.1,334.7,329.7,331.6z"/>
	
		<ellipse id="XMLID_457_" transform="matrix(0.9935 -0.1141 0.1141 0.9935 -35.9016 38.7667)" class="st26" cx="320.8" cy="333.1" rx="6.3" ry="7.1"/>
	<polygon id="XMLID_456_" class="st27" points="340.8,321.7 342.1,334.7 375.3,329.8 375.5,331.8 339.5,337.1 338.2,322.1 	"/>
	<linearGradient id="XMLID_158_" gradientUnits="userSpaceOnUse" x1="363.25" y1="478.6082" x2="407.3885" y2="478.6082">
		<stop  offset="0" style="stop-color:#61AD55"/>
		<stop  offset="1" style="stop-color:#2484C6;stop-opacity:0"/>
	</linearGradient>
	<path id="XMLID_455_" class="st28" d="M364,462.1c0,0,9.7,8.7,28.1,11.9c18.4,3.2,15.1,1.5,15.1,1.5l-1.7,19.6
		c0,0-22.2,1.5-42.2-12.8C363.2,482.3,363.8,467.6,364,462.1z"/>
	<linearGradient id="XMLID_159_" gradientUnits="userSpaceOnUse" x1="305.25" y1="477.6057" x2="256.7394" y2="477.6057">
		<stop  offset="0" style="stop-color:#61AD55"/>
		<stop  offset="1" style="stop-color:#2484C6;stop-opacity:0"/>
	</linearGradient>
	<path id="XMLID_454_" class="st29" d="M302.8,462.1l2.5,17.3c0,0-9.4,12.3-43.5,13.7l-4.4-0.1l-0.6-19.9
		C256.7,473.2,277.9,474.8,302.8,462.1z"/>
	<g id="XMLID_451_">
		<path id="XMLID_453_" class="st30" d="M367.4,289.9l-8.5,1c-10.6-1.7-29.3-1.3-50.3,1.6c-20.2,2.8-37.7,7.2-47.6,11.6l-9.2,1.4
			l0.7,5.8c0.9,6,27.6,7.2,59.5,2.8s57-12.8,56-18.8L367.4,289.9z"/>
		<path id="XMLID_452_" class="st31" d="M367.4,289.9c0.9,6-24.1,14.4-56,18.8c-31.9,4.4-58.5,3.2-59.5-2.8s24.1-14.4,56-18.8
			S366.4,283.9,367.4,289.9z"/>
	</g>
	<path id="XMLID_450_" class="st32" d="M317.8,301.8l15.5,3l0.8,5.4L370,306v-10.6l-2-0.2l-0.7-5.4c0,0,0.7-3.4-12.8-4.9l-4,1.4
		l-23.4,9.9L317.8,301.8z"/>
	<g id="XMLID_436_">
		<path id="XMLID_449_" class="st15" d="M291.5,206.4c0,0-33.7,9.7-32.2,35.7c0,0,0.2,12.7,10.5,21.7c0,0-8.2,20.2-3.9,32.5
			c4.3,12.3,34.2,8.8,43.5,7.1c9.3-1.7,30.9-5.7,37.9-11.8s6.1-33.5,3.7-32.5c-2.3,1-5,4.7-5,4.7s0.7-9.4-1.3-7.5
			c-2,1.9-9.2,7.2-9.2,7.2s-6.8-7.3-8.8-9c0,0,9-7.4,5.3-17.7c-3.7-10.3-7.7-16.2-12-18.9c0,0,1.7-5.8-0.3-6.4s-4.7-0.3-4.7-0.3
			s1.3-8.8-3.7-7.6s-5,1.2-5,1.2s2.3-4.3-3.7-6C296.8,197.1,291.5,206.4,291.5,206.4z"/>
		<path id="XMLID_448_" class="st17" d="M270.5,247.7c0,0,13-1.5,22.8-4c0,0,6.8-1.5,5.2,2c-1.5,3.5-8.8,8-18,10.5
			s-18.2-3.8-15.5-6.4C267.8,247.2,270.5,247.7,270.5,247.7z"/>
		<path id="XMLID_447_" class="st33" d="M300.3,237.7c0,0-0.4-13.4,5.8-7.9c7.3,6.3,1.4,10.4,1.4,10.4S301.5,242.7,300.3,237.7z"/>
		<path id="XMLID_446_" class="st34" d="M257.4,235.5c0,0,4,1.9,7.1,6l0.8,1c0,0-4.7,1.1-6.6,2.6"/>
		<path id="XMLID_445_" class="st35" d="M302.8,198.7c0,0,2.2,4.9-0.8,10.9c0,0,3.3-2.7,4.5-4.9C307.7,202.5,306.5,200,302.8,198.7z
			"/>
		<path id="XMLID_444_" class="st35" d="M311.5,203.5c0,0,1.2,5.5-1,9c-2.2,3.5-0.8,2.4-0.8,2.4s3.4-0.4,5.4-3.8
			C315.2,211.1,316.5,202.3,311.5,203.5z"/>
		<path id="XMLID_443_" class="st35" d="M319.8,211.4c0,0-1.7,5.9-3.3,8.6c0,0,8.7,11.8,6.8,25.2c0,0-1.2,10.6-8,13.7
			c0,0,18.3,27.8,2.5,43c0,0,20.3-4,28.2-9.2s6.8-23.5,6.9-29l-1.7-4.6c0,0-4.3,3.4-5,4.7c0,0,0.7-6-0.5-7.6c-1.2-1.6-10,7.2-10,7.2
			s-3-5-8.8-9c0,0,7.8-7.5,6-14.9c-1.8-7.4-6.3-17.8-12.7-21.7C320.2,217.8,322,211.8,319.8,211.4z"/>
		<path id="XMLID_442_" class="st35" d="M277.5,264.7c0,0,7.2,0.4,17-1.4c0,0-4,7.8-8.5,8S277.5,264.7,277.5,264.7z"/>
		<path id="XMLID_441_" class="st36" d="M266.3,253.6c0,0,12.4,2.8,32.2-8l0,0c0,0-3.5,8.4-21.6,11c-0.8,0,0,0,0,0
			S270.1,257.5,266.3,253.6"/>
		<path id="XMLID_440_" class="st37" d="M292.8,206.8c0,0,6.8-6,9.2-15.2c2.4-9.2-15.2-14.3-17.3-7.5c-2.2,6.8,6.2,6.3,9.8,4.7
			c3.7-1.7,5.4-10.5,4.2-14.7s-5.6-5.7-5.6-5.7"/>
		<path id="XMLID_439_" class="st38" d="M298.7,185.7c0,0,0.8-2,1-2.8c0,0,1.2,1,1.9,2l-1,3C300.6,187.9,299.8,186.5,298.7,185.7z"
			/>
		<path id="XMLID_437_" class="st38" d="M297.3,181.5l-0.7,2.5c0,0-1.7-0.9-2.6-1.2c0,0,0.5-2.1,0.5-2.4
			C294.5,180.5,296.1,180.8,297.3,181.5z"/>
	</g>
</g>
<g id="Layer_4">
	<g id="XMLID_185_">
		<path id="XMLID_203_" class="st20" d="M89.4,216.9c1.9,3.5,1.1,2,3.1,5.5c-1.9,3-3.7,6-5.6,9.2"/>
		<path id="XMLID_202_" class="st20" d="M86.8,231.5c2,3.4,3.9,6.8,5.9,10.3c-1.9,3-3.8,6.2-5.8,9.3c-4-0.2-7.9-0.2-11.9,0"/>
		<path id="XMLID_201_" class="st20" d="M69,261.5c2,3.2,3.9,6.3,5.9,9.5c-2.1,3.5-4.1,7-6.2,10.6c-4.1,0.5-8.2,1.2-12.3,2.1"/>
		<path id="XMLID_200_" class="st20" d="M92.8,241.8c-2-3.4-4-6.9-5.9-10.3c1.9-3.1,3.8-6.2,5.6-9.2c3.8,0.5,7.6,1.2,11.4,2
			c2,3.6,4,7.2,6,10.8c-1.8,2.7-3.6,5.5-5.4,8.3C100.6,242.7,96.7,242.2,92.8,241.8z"/>
		<path id="XMLID_199_" class="st20" d="M109.9,235.2c-2-3.6-4-7.2-6-10.8c1.8-2.8,3.5-5.5,5.3-8.1c3.7,1,7.4,2.2,11,3.6
			c2,3.8,4,7.6,6,11.4c-1.6,2.4-3.3,4.8-5,7.3C117.5,237.2,113.7,236.1,109.9,235.2z"/>
		<path id="XMLID_198_" class="st20" d="M127.4,249.7c-2.1-3.8-4.1-7.5-6.2-11.3c1.7-2.5,3.4-4.9,5-7.3c3.7,1.5,7.3,3.1,10.8,4.9
			c2,3.9,4.1,7.9,6.1,11.9c-1.5,2.1-3.1,4.2-4.6,6.4C134.8,252.7,131.1,251.1,127.4,249.7z"/>
		<path id="XMLID_197_" class="st20" d="M110.6,254.1c-2.1-3.6-4.1-7.1-6.2-10.7c1.8-2.8,3.6-5.6,5.4-8.3c3.8,0.9,7.6,2,11.3,3.3
			c2,3.7,4.1,7.5,6.2,11.3c-1.7,2.4-3.4,4.9-5.1,7.4C118.4,256,114.5,255,110.6,254.1z"/>
		<path id="XMLID_196_" class="st20" d="M128.5,268.3c-2.1-3.7-4.2-7.4-6.3-11.1c1.7-2.5,3.5-5,5.1-7.4c3.8,1.4,7.5,2.9,11.1,4.6
			c2.1,3.9,4.2,7.8,6.2,11.8c-1.6,2.1-3.1,4.3-4.8,6.5C136.2,271,132.4,269.6,128.5,268.3z"/>
		<path id="XMLID_195_" class="st20" d="M74.9,271.1c-2-3.2-4-6.4-5.9-9.5c2.1-3.6,4.1-7,6.1-10.4c4-0.2,7.9-0.2,11.9,0
			c2,3.4,4,6.7,6.1,10.1c-2,3.1-3.9,6.3-5.9,9.5C83.1,270.7,79,270.8,74.9,271.1z"/>
		<path id="XMLID_194_" class="st20" d="M93.1,261.2c-2.1-3.4-4.1-6.7-6.1-10.1c2-3.2,3.9-6.3,5.8-9.3c3.9,0.4,7.8,0.9,11.7,1.7
			c2,3.5,4.1,7.1,6.2,10.7c-1.8,2.7-3.7,5.6-5.6,8.4C101.1,262,97.1,261.5,93.1,261.2z"/>
		<path id="XMLID_193_" class="st20" d="M111.4,273.1c-2.1-3.5-4.2-7-6.3-10.5c1.9-2.9,3.7-5.7,5.6-8.4c3.9,0.8,7.8,1.8,11.6,3
			c2.1,3.7,4.2,7.4,6.3,11.1c-1.7,2.4-3.5,5-5.3,7.5C119.3,274.7,115.4,273.8,111.4,273.1z"/>
		<path id="XMLID_192_" class="st20" d="M93.4,280.7c-2.1-3.3-4.2-6.6-6.2-9.9c2-3.2,4-6.4,5.9-9.5c4,0.3,8,0.7,12,1.3
			c2.1,3.5,4.2,7,6.3,10.5c-1.9,2.8-3.8,5.7-5.7,8.6C101.6,281.2,97.5,280.8,93.4,280.7z"/>
		<path id="XMLID_191_" class="st20" d="M56.4,283.8c-2.1,3.9-4.3,7.8-6.5,11.8c-4.1,1.1-3.8,1.6-7.8,3.1"/>
		<path id="XMLID_190_" class="st20" d="M49.9,295.6c1.9,2.9,3.9,5.8,5.9,8.8c-2.2,3.9-4.4,7.9-6.6,12c-4.2,1.2-6.3,1.7-10.4,3.3"/>
		<path id="XMLID_189_" class="st20" d="M55.8,304.3c-2-2.9-3.9-5.8-5.9-8.8c2.2-4,4.3-7.9,6.5-11.8c4.1-0.9,8.2-1.5,12.3-2.1
			c2,3.1,4,6.2,6.1,9.3c-2.1,3.5-4.2,7.1-6.4,10.8C64.2,302.5,60,303.3,55.8,304.3z"/>
		<path id="XMLID_188_" class="st20" d="M74.8,291c-2.1-3.1-4.1-6.2-6.1-9.3c2.1-3.6,4.2-7.2,6.2-10.6c4.1-0.3,8.1-0.4,12.2-0.3
			c2.1,3.3,4.1,6.6,6.2,9.9c-2,3.2-4,6.4-6.1,9.7C83.1,290.4,78.9,290.6,74.8,291z"/>
		<path id="XMLID_187_" class="st20" d="M93.7,300.1c-2.2-3.3-4.3-6.5-6.4-9.8c2.1-3.3,4.1-6.5,6.1-9.7c4.1,0.2,8.2,0.5,12.3,1
			c2.1,3.4,4.3,6.9,6.5,10.4c-1.9,2.8-3.9,5.8-5.9,8.7C102.1,300.4,97.9,300.1,93.7,300.1z"/>
		<path id="XMLID_186_" class="st20" d="M74.6,311c-2.1-3.1-4.2-6.1-6.2-9.1c2.2-3.7,4.3-7.3,6.4-10.8c4.2-0.4,8.3-0.6,12.5-0.7
			c2.1,3.2,4.2,6.5,6.4,9.8c-2.1,3.2-4.1,6.5-6.2,9.8C83.2,310.1,78.9,310.5,74.6,311z"/>
	</g>
	<path id="XMLID_184_" class="st39" d="M509,360.9c0.6,0.5,20.3-0.1,31.3-19.7c0,0,5.9,1.9,12.8,1l-1.6-1.7c0,0,27.5,5,37.7-2.3
		c0,0-0.1,3.4-2.2,5.5c0,0,0.2,1.3,6.2,1.3s4-0.5,4-0.5s14.4,19,34.7,16.4l1.3-4.4c0,0,15.5,13.9,27.5,11.3c0,0-12.1,9.1-31.2-3.9
		c0,0-8.9,7.2-27.6-3.9c0,0-4.3-3.1-7.3-7c0,0-6.7,1.7-15.2-4.6c0,0-7.5,3.5-18.5-0.2c0,0-8.9,2.1-16.5,0c0,0-8.4,14.4-18.4,16.5
		C516,366.8,509,360.9,509,360.9z"/>
	<linearGradient id="XMLID_161_" gradientUnits="userSpaceOnUse" x1="842.4986" y1="285.9026" x2="883.4766" y2="214.9266">
		<stop  offset="0" style="stop-color:#FFFFFF;stop-opacity:0"/>
		<stop  offset="5.140263e-02" style="stop-color:#E6E6E6;stop-opacity:3.855197e-02"/>
		<stop  offset="0.1411" style="stop-color:#C0C1C1;stop-opacity:0.1058"/>
		<stop  offset="0.238" style="stop-color:#A0A0A2;stop-opacity:0.1785"/>
		<stop  offset="0.3422" style="stop-color:#868688;stop-opacity:0.2566"/>
		<stop  offset="0.4561" style="stop-color:#717274;stop-opacity:0.3421"/>
		<stop  offset="0.5849" style="stop-color:#636466;stop-opacity:0.4386"/>
		<stop  offset="0.7409" style="stop-color:#5B5C5D;stop-opacity:0.5557"/>
		<stop  offset="1" style="stop-color:#58595B;stop-opacity:0.75"/>
	</linearGradient>
	<path id="XMLID_125_" class="st40" d="M916.1,233.8c0,0,3.4,3.9,2.6,4.9c-0.8,0.9-4.8,3.9-4.8,3.9l2.5,1.7l-34.9,11l-4.8,7.3
		l-24,5.9l-4.7,5.3l-22.1,1.7l-2.5-0.6l1.6-2c0,0-4.5-4.8-4-6.3s2.5-3.9,2.5-3.9s2.8-2,2.3-3.8c-0.5-1.8-1.5-4.4-5-6.1l5.4-5.7
		c0,0,0.8-1.8-0.5-2.7c-2.9-2-4.2-3.2-4.5-7.5l0.8-1.9c0,0,24.8,4.9,46.4,4.6C890,239.3,909.5,235.7,916.1,233.8z"/>
	<linearGradient id="XMLID_164_" gradientUnits="userSpaceOnUse" x1="584.5283" y1="326.4635" x2="559.7606" y2="340.7632">
		<stop  offset="0" style="stop-color:#EF4136;stop-opacity:0.75"/>
		<stop  offset="1" style="stop-color:#F15A29;stop-opacity:0"/>
	</linearGradient>
	<path id="XMLID_183_" class="st41" d="M554.9,325.7c0,0,15.7-9.7,25.6-3.2c9.9,6.5,6.8,21.6,2.5,22.7l-5,2.3
		C578,347.5,555.1,348.2,554.9,325.7z"/>
	<linearGradient id="XMLID_165_" gradientUnits="userSpaceOnUse" x1="631.8415" y1="349.3218" x2="598.5" y2="349.3218">
		<stop  offset="0" style="stop-color:#EF4136;stop-opacity:0.75"/>
		<stop  offset="1" style="stop-color:#F15A29;stop-opacity:0"/>
	</linearGradient>
	<path id="XMLID_163_" class="st42" d="M614.5,334.6c0,0,17.1,5.5,17.4,19.2S615.3,364,615.3,364s-9.8-2.6-13.7-5.9
		C597.8,354.8,593.5,331,614.5,334.6z"/>
	<linearGradient id="XMLID_166_" gradientUnits="userSpaceOnUse" x1="662.2729" y1="353.727" x2="630" y2="353.727">
		<stop  offset="0" style="stop-color:#EF4136;stop-opacity:0.75"/>
		<stop  offset="1" style="stop-color:#F15A29;stop-opacity:0"/>
	</linearGradient>
	<path id="XMLID_162_" class="st43" d="M642.6,339.5c0,0,15.9,6.8,19,16.1c3,9.3-5.1,14.1-12.6,13.5c-7.6-0.6-10.6-1.7-15.9-5.4
		c-5.3-3.8-1.1-0.7-1.1-0.7s6.4-5.2,1.2-16.3l-3.2-3.8C630,342.8,633.7,335.5,642.6,339.5z"/>
	<path id="XMLID_160_" class="st36" d="M438.2,223.8c0,0,2.1,20.2-22.2,32.8c0,0,11,18.2,31.2,23.5c20.2,5.3,31.4-7.1,37.3-18.2
		c0,0-11-4.9-22.5-3.8C462,258.1,447.7,257.1,438.2,223.8z"/>
	<g id="XMLID_144_">
		<defs>
			<path id="XMLID_145_" d="M512.2,163.6c0,0-24.6-17-53.6-1.6s-9,39.1-9,39.1l-2,52.3l-36.2,11.7l-25.2-98.7l43.3-32.8l47.2-2
				L512.2,163.6z"/>
		</defs>
		<clipPath id="XMLID_168_">
			<use xlink:href="#XMLID_145_"  style="overflow:visible;"/>
		</clipPath>
		<g id="XMLID_146_" class="st44">
			<path id="XMLID_156_" class="st45" d="M484.5,158.6c0,0-27.3-25.8-53.8,12.7c0,0-22.6,42.8,5.6,83.1"/>
			<path id="XMLID_154_" class="st45" d="M487.2,159.8c0,0-15-19.8-37-11c-22,8.8-32.7,33.5-33.2,53.8s3.2,44.4,22.2,61.1"/>
			<path id="XMLID_150_" class="st45" d="M487.2,157.1c0,0-31.9-35.7-62.2,6.8s0.3,101,9.4,101.2"/>
			<path id="XMLID_149_" class="st45" d="M488.2,157.8c0,0-24.5-30.2-52.6-11.7s-30.5,56-27.6,76c2.5,17.1,14.4,44.9,25.8,48"/>
			<path id="XMLID_148_" class="st45" d="M479.2,158.1c-8.2-4.8-21.6-1.1-27.6,3.9c-6,5-10.7,10.9-13.9,18.1
				c-4.8,10.7-5.8,22.1-5.4,33.8s5.2,27,13.4,35.4"/>
			<path id="XMLID_147_" class="st45" d="M481.8,158.8c0,0-19.2-17.2-42,7.8s-14.5,98,24.5,101.8"/>
		</g>
	</g>
	<g id="XMLID_117_">
		<path id="XMLID_143_" class="st46" d="M91.8,214.1c1.9,3.5,1.1,2,3.1,5.5c-1.9,3-3.7,6-5.6,9.2"/>
		<path id="XMLID_142_" class="st46" d="M89.2,228.7c2,3.4,3.9,6.8,5.9,10.3c-1.9,3-3.8,6.2-5.8,9.3c-4-0.2-7.9-0.2-11.9,0"/>
		<path id="XMLID_141_" class="st46" d="M71.3,258.8c2,3.2,3.9,6.3,5.9,9.5c-2.1,3.5-4.1,7-6.2,10.6c-4.1,0.5-8.2,1.2-12.3,2.1"/>
		<path id="XMLID_140_" class="st46" d="M95.1,239c-2-3.4-4-6.9-5.9-10.3c1.9-3.1,3.8-6.2,5.6-9.2c3.8,0.5,7.6,1.2,11.4,2
			c2,3.6,4,7.2,6,10.8c-1.8,2.7-3.6,5.5-5.4,8.3C102.9,240,99,239.4,95.1,239z"/>
		<path id="XMLID_139_" class="st46" d="M112.2,232.4c-2-3.6-4-7.2-6-10.8c1.8-2.8,3.5-5.5,5.3-8.1c3.7,1,7.4,2.2,11,3.6
			c2,3.8,4,7.6,6,11.4c-1.6,2.4-3.3,4.8-5,7.3C119.8,234.4,116,233.3,112.2,232.4z"/>
		<path id="XMLID_138_" class="st46" d="M129.7,247c-2.1-3.8-4.1-7.5-6.2-11.3c1.7-2.5,3.4-4.9,5-7.3c3.7,1.5,7.3,3.1,10.8,4.9
			c2,3.9,4.1,7.9,6.1,11.9c-1.5,2.1-3.1,4.2-4.6,6.4C137.2,249.9,133.5,248.3,129.7,247z"/>
		<path id="XMLID_137_" class="st46" d="M113,251.4c-2.1-3.6-4.1-7.1-6.2-10.7c1.8-2.8,3.6-5.6,5.4-8.3c3.8,0.9,7.6,2,11.3,3.3
			c2,3.7,4.1,7.5,6.2,11.3c-1.7,2.4-3.4,4.9-5.1,7.4C120.7,253.2,116.9,252.2,113,251.4z"/>
		<path id="XMLID_136_" class="st46" d="M130.9,265.5c-2.1-3.7-4.2-7.4-6.3-11.1c1.7-2.5,3.5-5,5.1-7.4c3.8,1.4,7.5,2.9,11.1,4.6
			c2.1,3.9,4.2,7.8,6.2,11.8c-1.6,2.1-3.1,4.3-4.8,6.5C138.5,268.2,134.7,266.8,130.9,265.5z"/>
		<path id="XMLID_131_" class="st46" d="M77.3,268.3c-2-3.2-4-6.4-5.9-9.5c2.1-3.6,4.1-7,6.1-10.4c4-0.2,7.9-0.2,11.9,0
			c2,3.4,4,6.7,6.1,10.1c-2,3.1-3.9,6.3-5.9,9.5C85.4,267.9,81.3,268,77.3,268.3z"/>
		<path id="XMLID_130_" class="st46" d="M95.4,258.4c-2.1-3.4-4.1-6.7-6.1-10.1c2-3.2,3.9-6.3,5.8-9.3c3.9,0.4,7.8,0.9,11.7,1.7
			c2,3.5,4.1,7.1,6.2,10.7c-1.8,2.7-3.7,5.6-5.6,8.4C103.4,259.2,99.4,258.7,95.4,258.4z"/>
		<path id="XMLID_126_" class="st46" d="M113.7,270.3c-2.1-3.5-4.2-7-6.3-10.5c1.9-2.9,3.7-5.7,5.6-8.4c3.9,0.8,7.8,1.8,11.6,3
			c2.1,3.7,4.2,7.4,6.3,11.1c-1.7,2.4-3.5,5-5.3,7.5C121.7,271.9,117.7,271,113.7,270.3z"/>
		<path id="XMLID_124_" class="st46" d="M95.7,277.9c-2.1-3.3-4.2-6.6-6.2-9.9c2-3.2,4-6.4,5.9-9.5c4,0.3,8,0.7,12,1.3
			c2.1,3.5,4.2,7,6.3,10.5c-1.9,2.8-3.8,5.7-5.7,8.6C103.9,278.4,99.8,278,95.7,277.9z"/>
		<path id="XMLID_123_" class="st46" d="M58.8,281c-2.1,3.9-4.3,7.8-6.5,11.8c-4.1,1.1-6.1,1.8-10.2,3.3"/>
		<path id="XMLID_122_" class="st46" d="M52.3,292.8c1.9,2.9,3.9,5.8,5.9,8.8c-2.2,3.9-4.4,7.9-6.6,12c-4.2,1.2-9.8,2.9-13.9,4.5"/>
		<path id="XMLID_121_" class="st46" d="M58.2,301.5c-2-2.9-3.9-5.8-5.9-8.8c2.2-4,4.3-7.9,6.5-11.8c4.1-0.9,8.2-1.5,12.3-2.1
			c2,3.1,4,6.2,6.1,9.3c-2.1,3.5-4.2,7.1-6.4,10.8C66.5,299.7,62.3,300.5,58.2,301.5z"/>
		<path id="XMLID_120_" class="st46" d="M77.1,288.2c-2.1-3.1-4.1-6.2-6.1-9.3c2.1-3.6,4.2-7.2,6.2-10.6c4.1-0.3,8.1-0.4,12.2-0.3
			c2.1,3.3,4.1,6.6,6.2,9.9c-2,3.2-4,6.4-6.1,9.7C85.5,287.6,81.3,287.8,77.1,288.2z"/>
		<path id="XMLID_119_" class="st46" d="M96,297.3c-2.2-3.3-4.3-6.5-6.4-9.8c2.1-3.3,4.1-6.5,6.1-9.7c4.1,0.2,8.2,0.5,12.3,1
			c2.1,3.4,4.3,6.9,6.5,10.4c-1.9,2.8-3.9,5.8-5.9,8.7C104.4,297.6,100.2,297.4,96,297.3z"/>
		<path id="XMLID_118_" class="st46" d="M77,308.2c-2.1-3.1-4.2-6.1-6.2-9.1c2.2-3.7,4.3-7.3,6.4-10.8c4.2-0.4,8.3-0.6,12.5-0.7
			c2.1,3.2,4.2,6.5,6.4,9.8c-2.1,3.2-4.1,6.5-6.2,9.8C85.5,307.3,81.2,307.7,77,308.2z"/>
	</g>
	<g id="XMLID_114_">
		<polygon id="XMLID_116_" class="st47" points="553.2,219.4 540.5,205.5 544.5,192.3 561.3,193 573.8,207 569.7,220.2 		"/>
	</g>
	<g id="XMLID_111_">
		<polygon id="XMLID_113_" class="st47" points="578.1,254.9 565.4,241 569.4,227.8 586.2,228.5 598.7,242.5 594.6,255.7 		"/>
	</g>
	<g id="XMLID_108_">
		<polygon id="XMLID_110_" class="st47" points="592.7,293.5 580.9,278.5 586.6,265.7 604.2,267.9 615.9,282.9 610.1,295.7 		"/>
	</g>
	<polygon id="XMLID_107_" class="st36" points="544,194.5 557.9,195.1 569.5,207.6 565.8,220 569.7,220.2 573.8,206.8 561.3,193 
		544.7,192.1 	"/>
	<polygon id="XMLID_106_" class="st36" points="569.5,227.8 568.8,230.3 583.7,230.8 594.3,242.8 590.6,255.5 594.6,255.7 
		598.8,242.4 586.1,228.4 	"/>
	<polygon id="XMLID_105_" class="st36" points="586.5,265.7 585.7,267.8 585.2,268.7 602.4,270.8 612.1,283.1 606.6,295.3 
		610.1,295.7 616,282.9 604.2,267.9 	"/>
	<g id="XMLID_16_">
		<g id="XMLID_18_">
			<g id="XMLID_23_">
				<path id="XMLID_43_" class="st6" d="M188.6,149.3c0.2,1,0.1,1.9-0.3,2.6c-0.2,0.4-0.4,0.7-0.8,0.9c-0.3,0.2-0.7,0.4-1.2,0.5
					l-1,0.2l-0.3,0l-1.2-7.1l0.9-0.1l0.5-0.1c0.5-0.1,0.9-0.1,1.3,0.1c0.4,0.1,0.7,0.3,1,0.6C188.1,147.5,188.5,148.3,188.6,149.3z
					 M187.8,149.5c-0.1-0.7-0.4-1.3-0.7-1.7c-0.4-0.4-1-0.6-1.6-0.5l-0.5,0.1l0.8,4.9l0.5-0.1c0.7-0.1,1.1-0.4,1.4-0.9
					C187.8,150.8,187.9,150.2,187.8,149.5z"/>
				<path id="XMLID_41_" class="st6" d="M194.6,152.1l-0.6-3.8l-1.2,3.6l-2.3-3.1l0.6,3.8l-0.9,0.1l-1.2-7.5l3.5,4.6l1.9-5.4
					l1.2,7.5L194.6,152.1z"/>
				<path id="XMLID_35_" class="st6" d="M196.9,147.3l2.1-0.3l0.2,1l-2.1,0.3l0.3,2.2l2.5-0.4l0.2,1l-2.5,0.4l-0.9,0.1l-1.1-7.2
					l0.9-0.1l2.5-0.4l0.2,1l-2.5,0.4L196.9,147.3z"/>
				<path id="XMLID_31_" class="st6" d="M204.4,148.3c0.1,0.4,0,0.7,0,1c-0.1,0.3-0.2,0.5-0.4,0.8c-0.3,0.4-0.8,0.6-1.5,0.7
					l-0.5,0.1l-0.7,0.1l-1.1-7.2l0.9-0.1l0.4-0.1c0.6-0.1,1.1,0,1.5,0.2c0.2,0.1,0.4,0.3,0.5,0.6c0.1,0.2,0.2,0.5,0.2,0.7
					c0.1,0.4,0,0.9-0.3,1.4c0.1,0.1,0.2,0.1,0.3,0.2c0.2,0.2,0.4,0.4,0.5,0.6C204.2,147.7,204.3,148,204.4,148.3z M201.1,144.7
					l0.3,2.2c0.2-0.1,0.4-0.2,0.5-0.3c0.3-0.2,0.5-0.4,0.6-0.6c0.1-0.2,0.2-0.4,0.1-0.7c-0.1-0.3-0.2-0.5-0.3-0.5
					c-0.2-0.2-0.7-0.2-1-0.1L201.1,144.7z M203.6,148.5c-0.1-0.4-0.2-0.7-0.4-0.9c-0.1-0.1-0.3-0.2-0.5-0.3
					c-0.1,0.1-0.1,0.1-0.2,0.2c-0.3,0.2-0.6,0.4-0.8,0.5l0.3,1.9l0.4-0.1c0.5-0.1,0.9-0.2,1.1-0.5
					C203.5,149.1,203.6,148.8,203.6,148.5z"/>
				<path id="XMLID_26_" class="st6" d="M207.2,149.8c-0.4-0.1-0.7-0.3-1-0.6c-0.3-0.3-0.6-0.6-0.8-1c-0.2-0.4-0.4-0.9-0.4-1.4
					c-0.1-0.5-0.1-1,0-1.4c0.1-0.4,0.2-0.9,0.4-1.2c0.2-0.4,0.5-0.7,0.8-0.9c0.3-0.2,0.7-0.4,1.1-0.5s0.8,0,1.2,0.1
					c0.4,0.1,0.7,0.3,1,0.6c0.3,0.3,0.6,0.6,0.8,1c0.2,0.4,0.4,0.9,0.4,1.4c0.1,0.5,0.1,1,0,1.4c-0.1,0.5-0.2,0.9-0.4,1.2
					c-0.2,0.4-0.5,0.7-0.8,0.9c-0.3,0.2-0.7,0.4-1.1,0.5S207.5,149.9,207.2,149.8z M206.2,144.8c-0.3,0.5-0.4,1.2-0.3,1.8
					c0.1,0.7,0.4,1.2,0.8,1.6c0.4,0.4,1,0.6,1.5,0.5c0.5-0.1,1-0.4,1.3-0.9c0.3-0.5,0.4-1.2,0.3-1.8c-0.1-0.7-0.4-1.2-0.8-1.6
					c-0.4-0.4-1-0.6-1.5-0.5C206.9,143.9,206.5,144.3,206.2,144.8z"/>
				<path id="XMLID_24_" class="st6" d="M214.5,142.6l-1.6,0.2l0.8,6.2l-0.9,0.1L212,143l-1.6,0.2l-0.1-1l4-0.6L214.5,142.6z"/>
			</g>
			<g id="XMLID_19_">
				<path id="XMLID_20_" class="st6" d="M217.3,150.7l-33.8,5.4l-1.9-11.3l34.2-5.4L217.3,150.7z M184.2,155.1l32.3-5.1l-1.3-9.7
					l-32.6,5.1L184.2,155.1z"/>
			</g>
		</g>
	</g>
	<g id="XMLID_129_">
		
			<text id="XMLID_170_" transform="matrix(0.8365 0 0 1 797.2509 137.2753)" class="st48" style="font-family:'ADAM.CGPRO'; font-size:23.6085px;">DMEBOT</text>
	</g>
	<rect id="XMLID_127_" x="794.9" y="115.9" class="st49" width="85.6" height="25.8"/>
	<polygon id="XMLID_15_" class="st16" points="306.1,164.8 305.8,161.6 284.4,165.4 285.2,168.5 291.2,167.4 291.6,169.7 
		296.2,168.8 295.9,166.6 	"/>
	<linearGradient id="XMLID_169_" gradientUnits="userSpaceOnUse" x1="294.9544" y1="163.0044" x2="296.2888" y2="168.7846">
		<stop  offset="0" style="stop-color:#FFFFFF;stop-opacity:0"/>
		<stop  offset="1" style="stop-color:#FFFFFF;stop-opacity:0.75"/>
	</linearGradient>
	<polygon id="XMLID_14_" class="st50" points="306.1,164.8 305.8,161.6 284.4,165.4 285.2,168.5 291.2,167.4 291.6,169.7 
		296.2,168.8 295.9,166.6 	"/>
</g>
</svg>
