<?xml version="1.0" encoding="utf-8"?>
<!-- Generator: Adobe Illustrator 19.0.0, SVG Export Plug-In . SVG Version: 6.00 Build 0)  -->
<svg version="1.1" xmlns="http://www.w3.org/2000/svg" xmlns:xlink="http://www.w3.org/1999/xlink" x="0px" y="0px"
	 viewBox="0 0 612 792" style="enable-background:new 0 0 612 792;" xml:space="preserve">
<style type="text/css">
	.st0{display:none;}
	.st1{display:inline;opacity:0.51;}
	.st2{opacity:0.26;fill:#A5A5A5;}
	.st3{fill:#A5A5A5;}
	.st4{fill:#D3BA26;}
	.st5{fill:#8D62D1;}
	.st6{fill:#D1A128;}
	.st7{fill:#5EB72A;}
	.st8{fill:#BCBCBC;}
	.st9{fill:#8B6EAF;}
	.st10{fill:#5594AA;}
	.st11{fill:#56A8A6;}
	.st12{fill:#6394CE;}
	.st13{fill:#2D7773;}
	.st14{fill:#CED625;}
	.st15{fill:#A55D9E;}
	.st16{fill:#518E57;}
	.st17{fill:#4CA1D6;}
	.st18{fill:#A8B52C;}
	.st19{fill:#020202;}
	.st20{fill:#D36288;}
	.st21{fill:#D16BC2;}
	.st22{fill:#FFFFFF;}
	.st23{fill:#1C1C1C;}
	.st24{fill:#026ABF;}
	.st25{fill:#4FAA6B;}
	.st26{fill:none;stroke:#A5A5A5;stroke-width:3;stroke-miterlimit:10;}
	.st27{fill:#020201;}
	.st28{fill:url(#XMLID_113_);}
	.st29{fill:url(#XMLID_114_);}
	.st30{fill:url(#XMLID_117_);}
	.st31{fill:url(#XMLID_118_);}
	.st32{fill:#F9F9F9;}
	.st33{fill:url(#XMLID_119_);}
	.st34{fill:#42CECE;}
	.st35{fill:url(#XMLID_120_);}
	.st36{fill:none;stroke:#000000;stroke-width:0.5;stroke-linecap:round;stroke-linejoin:round;}
	.st37{fill:#EDAA98;}
	.st38{fill:#999898;}
	.st39{opacity:0.28;fill:#5C6970;}
	.st40{opacity:0.73;fill:url(#XMLID_121_);}
	.st41{fill:url(#XMLID_122_);}
	.st42{opacity:0.69;fill:none;stroke:#C1C1C1;stroke-width:3;stroke-miterlimit:10;}
	.st43{fill:#F4C7BE;}
	.st44{opacity:0.68;fill:none;stroke:#C1C1C1;stroke-width:3;stroke-miterlimit:10;}
	.st45{fill:none;stroke:#4CA1D6;stroke-width:4;stroke-miterlimit:10;}
	.st46{fill:none;stroke:#000000;stroke-width:2;stroke-linecap:round;stroke-linejoin:round;}
	.st47{fill:url(#XMLID_123_);}
	.st48{fill:url(#XMLID_124_);}
	.st49{fill:url(#XMLID_125_);}
	.st50{fill:url(#XMLID_126_);}
	.st51{fill:url(#XMLID_138_);}
	.st52{fill:url(#XMLID_139_);}
	.st53{fill:url(#XMLID_140_);}
	.st54{fill:#ABB7BA;}
	.st55{fill:none;stroke:#BCBCBC;stroke-width:2;stroke-miterlimit:10;}
	.st56{fill:#4F4F4F;}
	.st57{fill:#FCFCFC;}
	.st58{fill:#969696;}
	.st59{fill:#D8D2C5;}
	.st60{fill:#D8A460;}
	.st61{fill:#191919;}
</style>
<g id="Layer_1" class="st0">
	<g id="_x32_Ul8x8.tif" class="st1">
		
			<image style="overflow:visible;" width="1677" height="2242" id="Layer_1_1_" xlink:href="43D935495E8DC4AB.png"  transform="matrix(0.2655 0 0 0.2655 89.75 92.3094)">
		</image>
	</g>
</g>
<g id="Layer_5">
	<path id="XMLID_116_" class="st2" d="M317.4,706.9c-25.1,0-47.2,4.2-59.8,10.6c-6-7.6-27.2-13.1-52.4-13.1
		c-29.9,0-54.1,7.8-54.1,17.5s24.2,17.5,54.1,17.5c16.9,0,32-2.5,41.9-6.4c4.6,11.2,34.4,19.9,70.4,19.9c39.2,0,71-10.3,71-23
		S356.6,706.9,317.4,706.9z"/>
</g>
<g id="Layer_2">
	<g id="XMLID_1_">
		<g id="XMLID_600_">
			<path id="XMLID_93_" class="st3" d="M116.6,195.3c-19.5,36.2,30.4,96.5,70.7,118.6c40.2,22.1,82.7,25.6,82.7,25.6l-112-158
				C158,181.5,136.1,159.1,116.6,195.3z"/>
			<polygon id="XMLID_92_" class="st4" points="137.8,613.5 206.2,685.3 189.5,634 			"/>
			<path id="XMLID_91_" class="st5" d="M158,181.5l112,158l31.6-48.6c-7.1-4.8-12.9-9.7-16.9-13.9L158,181.5z"/>
			<polygon id="XMLID_90_" class="st6" points="189.5,634 206.2,685.3 213.1,661.2 			"/>
			<polygon id="XMLID_89_" class="st7" points="213.1,661.2 206.2,685.3 270,676.9 248.1,664.1 			"/>
			<path id="XMLID_88_" class="st8" d="M207.6,72.5c0,0-26.8,109.5,58.9,152l0.9,0c0.8-15.6,6.1-32.3,17.6-47.9L207.6,72.5z"/>
			<polygon id="XMLID_87_" class="st5" points="207.6,72.5 284.9,176.7 323.2,143 			"/>
			<polygon id="XMLID_86_" class="st4" points="278.8,619.5 248.1,664.1 270,676.9 			"/>
			<polygon id="XMLID_85_" class="st9" points="270,339.5 266.4,417 311.3,369.9 361.5,313.9 			"/>
			<polygon id="XMLID_84_" class="st10" points="311.3,369.9 266.4,417 298.9,447.5 305.8,404.4 			"/>
			<polygon id="XMLID_83_" class="st11" points="266.4,417 291.2,563 331.3,477.9 298.9,447.5 			"/>
			<path id="XMLID_78_" class="st3" d="M362.3,286.1c3.8,0,7.5-1.2,9.2-2.3c3.8-2.7,8.7-1,8.7-1c2.2,1.5,4.2,2.5,6,3
				c0,0-2.4,21.5-15.6,20.8c-13.2-0.8-8.2-19.4-8.2-19.4L362.3,286.1z M267.3,224.6c-1,19.6,5.1,37.5,14.7,49.4c0.8,1,1.7,2,2.7,3
				c4,4.3,9.8,9.1,16.9,13.9c15,10.1,36.1,19.8,60,22.3c16.8,1.8,34.9,0.1,53.2-7.5c7.4-3.1,14.9-7.1,22.3-12.2
				c30.8-21.3,36.6-48.8,33.9-72.3c-3.2-27.7-18.4-49.9-18.4-49.9l-35,42l-30.7,55.4l-7.5,7.2l-5.5-6.3l-24.4-17.2
				c-5.2,3.4-13.8,4.9-13.8,4.9c-22.4-1.4-22.7-26.4-22.7-26.4l-28.2-54.2C273.4,192.3,268.1,209,267.3,224.6z M428,254.7
				c-8.2,0.8-16.7-6-16.7-6c8.6-35,33.3-19.5,33.3-19.5C444.6,251,435.1,254,428,254.7z"/>
			<path id="XMLID_77_" class="st12" d="M301.6,290.9L270,339.5l91.5-25.6l0.1-0.7C337.7,310.7,316.6,301,301.6,290.9z"/>
			<polygon id="XMLID_76_" class="st13" points="278.8,619.5 270,676.9 304,612.9 			"/>
			<polygon id="XMLID_75_" class="st14" points="296.3,582.7 278.8,619.5 304,612.9 			"/>
			<path id="XMLID_74_" class="st15" d="M284.9,176.7l28.2,54.2c1-0.7,2-1.3,2.9-1.8l45.5-28.6L323.2,143L284.9,176.7z"/>
			<polygon id="XMLID_73_" class="st16" points="331.3,477.9 291.2,563 374,600.9 			"/>
			<polygon id="XMLID_72_" class="st7" points="310.2,637.1 311.3,641.7 344.7,654.9 347.1,650.4 374,600.9 291.2,563 296.3,582.7 
				304,612.9 			"/>
			<path id="XMLID_71_" class="st3" d="M310.2,637.1c-10.2,6.7-15.2,21.8-11.5,37.4c4.5,18.8,19.9,31.3,34.6,27.8
				c14.6-3.5,22.8-21.5,18.3-40.4c-1-4.2-2.5-8.1-4.5-11.5l-2.4,4.5l-18.4,9.2l-14.9-22.4L310.2,637.1z"/>
			<path id="XMLID_70_" class="st3" d="M305.8,404.4l-6.9,43.1l32.4,30.4L374,600.9c0,0,10.3-45.4,43.7-65.5
				c25.7-15.5,37.1-11.2,40.9-8.4c1.2-1.9,2.7-3.9,4.5-6c9.9-11.4,21.5-17.6,31.9-20c4.6-13,4.3-18.5,4.3-18.5
				c5.7-47.7-41-43.1-61.6-52.8c-20.7-9.8-32-44.3-32-44.3l-66.8-11L305.8,404.4z"/>
			<polygon id="XMLID_69_" class="st14" points="311.3,369.9 305.8,404.4 338.8,374.4 			"/>
			<polygon id="XMLID_68_" class="st17" points="338.8,374.4 405.6,385.4 361.5,313.9 311.3,369.9 			"/>
			<polygon id="XMLID_67_" class="st18" points="311.3,641.7 326.3,664.1 344.7,654.9 			"/>
			<path id="XMLID_66_" class="st19" d="M316,229l-2.9,1.8c0,0,0.3,25,22.7,26.4c0,0,8.6-1.4,13.8-4.9
				C349.6,252.4,347.1,210.8,316,229z"/>
			<path id="XMLID_65_" class="st5" d="M361.5,200.4L316,229c31.1-18.2,33.5,23.4,33.5,23.4L361.5,200.4z"/>
			<polygon id="XMLID_64_" class="st20" points="323.2,143 361.5,200.4 408.2,143 			"/>
			<polygon id="XMLID_63_" class="st15" points="361.5,200.4 349.6,252.4 417.6,213.4 			"/>
			<polygon id="XMLID_62_" class="st20" points="349.6,252.4 374,269.7 386.9,268.8 417.6,213.4 			"/>
			<polygon id="XMLID_61_" class="st21" points="408.2,143 361.5,200.4 417.6,213.4 			"/>
			<path id="XMLID_60_" class="st10" d="M361.6,313.2l-0.1,0.7l44,71.6l5-32.8l0.8-5.1l3.5-41.8C396.5,313.3,378.4,315,361.6,313.2z
				"/>
			<path id="XMLID_59_" class="st22" d="M362.3,287.1c0,0-5,18.7,8.2,19.4c13.2,0.8,15.6-20.8,15.6-20.8c-1.8-0.5-3.7-1.4-6-3
				c0,0-4.8-1.7-8.7,1c-1.6,1.1-5.4,2.3-9.2,2.3L362.3,287.1z"/>
			<polygon id="XMLID_58_" class="st23" points="374,269.7 379.4,276 386.9,268.8 			"/>
			<polygon id="XMLID_57_" class="st21" points="490.2,45 408.2,143 452.7,171.3 			"/>
			<polygon id="XMLID_56_" class="st15" points="408.2,143 417.6,213.4 452.7,171.3 			"/>
			<polygon id="XMLID_55_" class="st11" points="434.9,339.5 503.2,302.7 414.8,305.8 411.3,347.5 410.5,352.7 			"/>
			<path id="XMLID_54_" class="st24" d="M411.3,248.7c0,0,8.5,6.8,16.7,6c7.2-0.7,16.7-3.7,16.7-25.5
				C444.6,229.2,419.9,213.7,411.3,248.7z"/>
			<polygon id="XMLID_53_" class="st10" points="434.9,339.5 471.7,349.2 503.2,302.7 			"/>
			<path id="XMLID_52_" class="st8" d="M490.2,45l-37.5,126.4c0,0,15.1,22.2,18.4,49.9l0.6-0.1C555.6,136.1,490.2,45,490.2,45z"/>
			<path id="XMLID_51_" class="st3" d="M458.5,527c-13.5,21,7.3,29.9,19.4,25.6c13.2-4.6,31.6-12.6,39.6-21.8c8-9.2,6.9-20.1,4-24.7
				c-3.4-5.4-14.1-8-26.7-5c-10.4,2.4-22.1,8.6-31.9,20C461.2,523.1,459.7,525.1,458.5,527z"/>
			<polygon id="XMLID_50_" class="st25" points="503.2,302.7 471.7,349.2 554.4,326.7 			"/>
			<polygon id="XMLID_49_" class="st13" points="471.7,349.2 490.2,401 554.4,326.7 			"/>
			<polygon id="XMLID_48_" class="st7" points="554.4,326.7 490.2,401 569.9,373.9 			"/>
			<polygon id="XMLID_47_" class="st14" points="490.2,401 531.8,406.1 569.9,373.9 			"/>
		</g>
		<g id="XMLID_597_">
			<path id="XMLID_95_" class="st26" d="M458.5,527c-13.5,21,7.3,29.9,19.4,25.6c13.2-4.6,31.6-12.6,39.6-21.8
				c8-9.2,6.9-20.1,4-24.7c-3.4-5.4-14.1-8-26.7-5c-10.4,2.4-22.1,8.6-31.9,20C461.2,523.1,459.7,525.1,458.5,527z"/>
			<path id="XMLID_94_" class="st26" d="M311.9,636c-0.6,0.3-1.2,0.7-1.7,1c-10.2,6.7-15.2,21.8-11.5,37.4
				c4.5,18.8,19.9,31.3,34.6,27.8c14.6-3.5,22.8-21.5,18.3-40.4c-1-4.2-2.5-8.1-4.5-11.5c-0.2-0.3-0.4-0.7-0.6-1"/>
		</g>
	</g>
	<circle id="XMLID_33_" class="st22" cx="331.3" cy="240.4" r="6.4"/>
	<circle id="XMLID_79_" class="st22" cx="428" cy="240.9" r="5.9"/>
	<path id="XMLID_173_" class="st19" d="M149.5,203.2c-1.5-2.7-3.9-4.9-6.7-6.1c-0.5-0.2-1-0.4-1.5-0.3c-1,0.2-1.5,1.3-1.7,2.3
		c-1.1,4.2-0.6,8.8,1.2,12.7c1.1,2.3,3.7,4.6,5.8,3.2c0.9-0.6,1.3-1.6,1.6-2.6C149.5,208,150.3,207.7,149.5,203.2"/>
	<path id="XMLID_174_" class="st19" d="M503,400.6c-0.4,1.3-0.9,3.2-0.9,4.6c0,0.4,0.6,1.5,1.1,1.9c0.5,0.3,0.7,0.4,1.3,0.5
		c1.4,0.2,2.8-0.6,3.6-1.8c0.8-1.2,1.2-2.6,1.5-3.9"/>
	<path id="XMLID_175_" class="st19" d="M515,402.7c0.2,2.1,0.9,4.1,1.9,5.9c0.2,0.4,0.5,0.7,0.8,1c0.6,0.5,1.5,0.5,2.2,0.2
		c0.7-0.3,1.2-0.9,1.6-1.6c0.8-1.3,1.1-3,0.7-4.5"/>
	<path id="XMLID_176_" class="st19" d="M535,400.4c0.6,1.3,1.4,2.4,2.4,3.3c1.1,1,2.7,1.8,4,1.1c0.8-0.4,1.3-1.4,1.4-2.3
		c0.1-0.9-0.2-1.8-0.5-2.7c-0.6-1.6-1.6-3.3-3.3-3.8"/>
	<path id="XMLID_177_" class="st19" d="M545,392.1c1.2,1.9,3.3,3.3,5.5,3.7c0.4,0.1,0.9,0.1,1.3-0.1c1-0.4,1.1-1.8,0.9-2.8
		c-0.5-2.2-1.8-4.2-3.7-5.5"/>
	<path id="XMLID_184_" class="st27" d="M312.8,693.3c-1.1,3.3-1.1,7-0.1,10.4c0.1,0.4,0.2,0.8,0.6,1c0.7,0.5,1.7-0.1,2.3-0.8
		c1.3-1.5,1.9-3.5,1.9-5.4"/>
	<path id="XMLID_185_" class="st27" d="M322.4,699.7c-0.3,2,0.1,4.1,0.7,6c0.4,1.5,0.9,3.1,2.2,4.1c0.2,0.2,0.5,0.3,0.8,0.3
		c0.6,0,1-0.5,1.2-1c1.3-2.4,1.8-5.2,1.2-7.8"/>
	<path id="XMLID_186_" class="st27" d="M333.7,700.3c0,2.1,0.8,4.2,2.3,5.7c0.6,0.6,1.4,1.1,2.2,0.8c0.5-0.2,0.8-0.7,1-1.1
		c0.5-1.2,0.5-2.6,0.3-3.9c-0.3-1.7-0.8-3.3-1.6-4.8"/>
	<path id="XMLID_187_" class="st27" d="M342.2,695.9c0.2,1.3,1,2.5,2,3.3c0.7,0.5,1.6,0.8,2.4,0.4c0.8-0.5,0.9-1.6,0.8-2.5
		c-0.2-2.4-0.9-4.7-2.2-6.7"/>
	<path id="XMLID_41_" class="st12" d="M313.1,230.9l-3,57.6l39.4-36.1c0,0-14.2,9.1-25.2,1.3C312.1,245,313.1,230.9,313.1,230.9z"/>
	<polygon id="XMLID_43_" class="st8" points="206.2,83.4 199.1,83.4 204.1,96.4 197.5,98.8 205.2,112.2 206.2,92.4 	"/>
	<polygon id="XMLID_348_" class="st8" points="495,56.1 500,49 501.6,65.8 506.9,63.3 506.9,80.3 	"/>
</g>
<g id="Layer_4">
	<g id="XMLID_599_">
		<g id="XMLID_632_">
			<linearGradient id="XMLID_113_" gradientUnits="userSpaceOnUse" x1="112.217" y1="257.0523" x2="269.9816" y2="257.0523">
				<stop  offset="0" style="stop-color:#6D6E71;stop-opacity:0.5"/>
				<stop  offset="0.137" style="stop-color:#6D6E71;stop-opacity:0.4315"/>
				<stop  offset="1" style="stop-color:#6D6E71;stop-opacity:0"/>
			</linearGradient>
			<path id="XMLID_111_" class="st28" d="M116.6,195.3c-19.5,36.2,30.4,96.5,70.7,118.6c40.2,22.1,82.7,25.6,82.7,25.6l-112-158
				C158,181.5,136.1,159.1,116.6,195.3z"/>
			<linearGradient id="XMLID_114_" gradientUnits="userSpaceOnUse" x1="203.5738" y1="148.5645" x2="284.9191" y2="148.5645">
				<stop  offset="0" style="stop-color:#6D6E71;stop-opacity:0.5"/>
				<stop  offset="0.137" style="stop-color:#6D6E71;stop-opacity:0.4315"/>
				<stop  offset="1" style="stop-color:#6D6E71;stop-opacity:0"/>
			</linearGradient>
			<path id="XMLID_110_" class="st29" d="M207.6,72.5c0,0-26.8,109.5,58.9,152l0.9,0c0.8-15.6,6.1-32.3,17.6-47.9L207.6,72.5z"/>
			<linearGradient id="XMLID_117_" gradientUnits="userSpaceOnUse" x1="207.5544" y1="124.607" x2="323.2165" y2="124.607">
				<stop  offset="0" style="stop-color:#6D6E71"/>
				<stop  offset="0.137" style="stop-color:#6D6E71;stop-opacity:0.863"/>
				<stop  offset="1" style="stop-color:#6D6E71;stop-opacity:0"/>
			</linearGradient>
			<polygon id="XMLID_109_" class="st30" points="207.6,72.5 284.9,176.7 323.2,143 			"/>
			<linearGradient id="XMLID_118_" gradientUnits="userSpaceOnUse" x1="267.2362" y1="242.6144" x2="471.6686" y2="242.6144">
				<stop  offset="0" style="stop-color:#FFFFFF;stop-opacity:0.3"/>
				<stop  offset="8.776546e-03" style="stop-color:#FBFBFB;stop-opacity:0.2974"/>
				<stop  offset="0.1029" style="stop-color:#D5D6D7;stop-opacity:0.2691"/>
				<stop  offset="0.2045" style="stop-color:#B5B5B7;stop-opacity:0.2386"/>
				<stop  offset="0.3136" style="stop-color:#9B9B9D;stop-opacity:0.2059"/>
				<stop  offset="0.4329" style="stop-color:#86878A;stop-opacity:0.1701"/>
				<stop  offset="0.5676" style="stop-color:#78797C;stop-opacity:0.1297"/>
				<stop  offset="0.7306" style="stop-color:#707173;stop-opacity:8.082663e-02"/>
				<stop  offset="1" style="stop-color:#6D6E71;stop-opacity:0"/>
			</linearGradient>
			<path id="XMLID_106_" class="st31" d="M267.3,224.6c-1,19.6,5.1,37.5,14.7,49.4c0.8,1,1.7,2,2.7,3c4,4.3,9.8,9.1,16.9,13.9
				c15,10.1,36.1,19.8,60,22.3c16.8,1.8,34.9,0.1,53.2-7.5c7.4-3.1,14.9-7.1,22.3-12.2c30.8-21.3,36.6-48.8,33.9-72.3
				c-3.2-27.7-18.4-49.9-18.4-49.9l-35,42l-30.7,55.4l-7.5,7.2l-5.5-6.3l-24.4-17.2c-5.2,3.4-13.8,4.9-13.8,4.9
				c-22.4-1.4-22.7-26.4-22.7-26.4l-28.2-54.2C273.4,192.3,268.1,209,267.3,224.6z M428,254.7c-7.9,2.1-16.7-6-16.7-6
				c8.6-35,33.3-19.5,33.3-19.5C444.6,246.4,434.3,253,428,254.7z"/>
			<path id="XMLID_105_" class="st32" d="M310.2,637.1c-10.2,6.7-15.2,21.8-11.5,37.4c4.5,18.8,19.9,31.3,34.6,27.8
				c14.6-3.5,22.8-21.5,18.3-40.4c-1-4.2-2.5-8.1-4.5-11.5l-2.4,4.5l-18.4,9.2l-14.9-22.4L310.2,637.1z"/>
			<linearGradient id="XMLID_119_" gradientUnits="userSpaceOnUse" x1="298.8684" y1="487.6625" x2="499.6572" y2="487.6625">
				<stop  offset="0" style="stop-color:#6D6E71;stop-opacity:0.5"/>
				<stop  offset="0.137" style="stop-color:#6D6E71;stop-opacity:0.4315"/>
				<stop  offset="1" style="stop-color:#6D6E71;stop-opacity:0"/>
			</linearGradient>
			<path id="XMLID_104_" class="st33" d="M305.8,404.4l-6.9,43.1l32.4,30.4L374,600.9c0,0,10.3-45.4,43.7-65.5
				c25.7-15.5,37.1-11.2,40.9-8.4c1.2-1.9,2.7-3.9,4.5-6c9.9-11.4,21.5-17.6,31.9-20c4.6-13,4.3-18.5,4.3-18.5
				c5.7-47.7-46-37.9-66.6-47.7c-20.7-9.8-27-49.4-27-49.4l-66.8-11L305.8,404.4z"/>
			<polygon id="XMLID_99_" class="st34" points="311.3,369.9 305.8,404.4 338.8,374.4 			"/>
			<linearGradient id="XMLID_120_" gradientUnits="userSpaceOnUse" x1="452.6785" y1="133.0754" x2="514.467" y2="133.0754">
				<stop  offset="0" style="stop-color:#6D6E71"/>
				<stop  offset="0.137" style="stop-color:#6D6E71;stop-opacity:0.863"/>
				<stop  offset="1" style="stop-color:#6D6E71;stop-opacity:0"/>
			</linearGradient>
			<path id="XMLID_98_" class="st35" d="M490.2,45l-37.5,126.4c0,0,15.1,22.2,18.4,49.9l0.6-0.1C555.6,136.1,490.2,45,490.2,45z"/>
			<path id="XMLID_97_" class="st32" d="M494.9,501c-10.4,2.4-22.1,8.6-31.9,20c-1.8,2.1-3.3,4.1-4.5,6c-13.5,21,7.3,29.9,19.4,25.6
				c13.2-4.6,31.6-12.6,39.6-21.8c8-9.2,6.9-20.1,4-24.7C518.3,500.7,507.5,498.1,494.9,501z"/>
		</g>
		<g id="XMLID_629_">
			<polyline id="XMLID_112_" class="st36" points="310.2,637.1 304,612.9 296.3,582.7 291.2,563 374,600.9 			"/>
		</g>
	</g>
	<path id="XMLID_598_" class="st19" d="M509.7,502.7c2.5-3.1,6.1-5.3,10.1-5.9c0.7-0.1,1.5-0.1,2,0.4c0.7,0.7,0.2,1.9-0.4,2.7
		c-1.3,1.9-2.8,3.7-4.8,4.7c-2.1,1-4.7,0.9-6.4-0.7"/>
	<path id="XMLID_596_" class="st19" d="M519.7,507.6c1.8-1.7,4.6-2.7,7.1-3.1c1-0.2,2.1-0.1,2.7,0.7c0.5,0.7,0.2,1.7-0.3,2.5
		c-1.1,1.7-3.1,2.6-5.1,3.1c-1.1,0.2-2.3,0.3-3.3-0.2C519.7,510,519.1,508.6,519.7,507.6"/>
	<path id="XMLID_595_" class="st19" d="M521.3,517.3c2.5-1.3,5.7-2.1,8.1-0.6c0.3,0.2,0.7,0.5,0.8,0.9c0.2,0.6-0.1,1.3-0.4,1.8
		c-1.7,2.4-5.1,2.7-8,2.3c-0.8-0.1-1.9-0.5-1.8-1.4c0-0.3,0.2-0.6,0.4-0.8c0.8-1.1,0.5-1.9,1.8-2.6"/>
	<path id="XMLID_594_" class="st19" d="M518.3,525.9c1.8-0.1,3.7,0.9,4.7,2.4c0.3,0.5,0.5,1,0.3,1.5c-0.2,0.4-0.6,0.6-1,0.8
		c-2.1,0.9-4.6,0.7-6.5-0.4c-0.4-0.2-0.8-0.6-0.8-1.1c0-0.3,0.3-0.4,0.4-0.7C515.9,527,517,526,518.3,525.9"/>
	<path id="XMLID_593_" class="st37" d="M488.1,524.9c-4.8,2.4-8.4,4.8-13.9,12.5c-1.1,1.5-2.1,3.6-1.2,5.2c0.9,1.6,3.1,1.9,4.9,1.8
		c5.3-0.1,10.5-1.8,15.1-4.2c3.5-1.8,6.9-4.2,8.4-7.6s0.6-8.2-2.9-9.9C495.2,521,491.1,522.7,488.1,524.9"/>
	<polygon id="XMLID_592_" class="st38" points="206.2,83.4 199.1,83.4 204.1,96.4 197.5,98.8 205.2,112.2 206.2,92.4 	"/>
	<path id="XMLID_591_" class="st19" d="M305.8,293.6l34.8,26.1l13.7,2.2l13.3,1.7l34.6-9.8l0.2-3.9c0,0-26.4,6.3-45.6,2.6
		C335.9,308.7,317.2,301.8,305.8,293.6z"/>
	<path id="XMLID_590_" class="st39" d="M386.3,360.6c0,0,5,0.2,4.6,2c-0.4,1.9-10.8,4.9-23.3,4.8c-12.5-0.1-7.3-4.9-7.3-4.9l-2-3.2
		l0.3-4l-1.6-2.4l0.7-3.6l-1.6-3.7l1.1-3.2l10.5-5.9l15,3.8L386.3,360.6z"/>
	<linearGradient id="XMLID_121_" gradientUnits="userSpaceOnUse" x1="297.0374" y1="659.9748" x2="326.2844" y2="659.9748">
		<stop  offset="0" style="stop-color:#FFFFFF;stop-opacity:0"/>
		<stop  offset="3.692508e-03" style="stop-color:#FEFEFE;stop-opacity:2.769381e-03"/>
		<stop  offset="0.1227" style="stop-color:#D2D2D3;stop-opacity:9.202887e-02"/>
		<stop  offset="0.2456" style="stop-color:#ADADAE;stop-opacity:0.1842"/>
		<stop  offset="0.3743" style="stop-color:#8E8F90;stop-opacity:0.2807"/>
		<stop  offset="0.5085" style="stop-color:#767779;stop-opacity:0.3814"/>
		<stop  offset="0.6507" style="stop-color:#656668;stop-opacity:0.488"/>
		<stop  offset="0.8061" style="stop-color:#5B5C5E;stop-opacity:0.6046"/>
		<stop  offset="1" style="stop-color:#58595B;stop-opacity:0.75"/>
	</linearGradient>
	<path id="XMLID_589_" class="st40" d="M326.3,664.1c0,0-14.1,10.3-24.8,18.6c0,0-14.4-29.7,8.3-45.4l1.5,4.4L326.3,664.1z"/>
	<linearGradient id="XMLID_122_" gradientUnits="userSpaceOnUse" x1="691.4986" y1="573.7583" x2="732.4766" y2="502.7823">
		<stop  offset="0" style="stop-color:#FFFFFF;stop-opacity:0"/>
		<stop  offset="5.140263e-02" style="stop-color:#E6E6E6;stop-opacity:3.855197e-02"/>
		<stop  offset="0.1411" style="stop-color:#C0C1C1;stop-opacity:0.1058"/>
		<stop  offset="0.238" style="stop-color:#A0A0A2;stop-opacity:0.1785"/>
		<stop  offset="0.3422" style="stop-color:#868688;stop-opacity:0.2566"/>
		<stop  offset="0.4561" style="stop-color:#717274;stop-opacity:0.3421"/>
		<stop  offset="0.5849" style="stop-color:#636466;stop-opacity:0.4386"/>
		<stop  offset="0.7409" style="stop-color:#5B5C5D;stop-opacity:0.5557"/>
		<stop  offset="1" style="stop-color:#58595B;stop-opacity:0.75"/>
	</linearGradient>
	<path id="XMLID_374_" class="st41" d="M765.1,521.6c0,0,3.4,3.9,2.6,4.9s-4.8,3.9-4.8,3.9l2.5,1.7l-34.9,11l-4.8,7.3l-24,5.9
		l-4.7,5.3l-22.1,1.7l-2.5-0.6l1.6-2c0,0-4.5-4.8-4-6.3c0.4-1.4,2.5-3.9,2.5-3.9s2.8-2,2.3-3.8c-0.5-1.8-1.5-4.4-5-6.1l5.4-5.7
		c0,0,0.8-1.8-0.5-2.7c-2.9-2-4.2-3.2-4.5-7.5l0.8-1.9c0,0,24.8,4.9,46.4,4.6C739,527.1,758.5,523.5,765.1,521.6z"/>
</g>
<g id="Layer_6">
	<path id="XMLID_190_" class="st42" d="M348.8,387.9c-0.2,4.9-0.1,9.7,0.2,14.6"/>
	<path id="XMLID_191_" class="st42" d="M362.1,380.9c-0.8,3-1.1,6.1-1,9.2"/>
	<path id="XMLID_192_" class="st42" d="M377.9,382.5c-0.5,3.4-0.5,6.9,0,10.3"/>
	<path id="XMLID_193_" class="st42" d="M367.6,394.9c-0.3,5.4,0.1,10.9,1,16.2"/>
	<path id="XMLID_194_" class="st42" d="M356.9,416.5c0.3,4.5,1.4,9,3.2,13.2"/>
	<path id="XMLID_195_" class="st42" d="M381.6,409.5c0.4,4.1,1.5,8.1,3.3,11.9"/>
	<path id="XMLID_196_" class="st42" d="M373.7,424.1c1.6,5.8,3.8,11.4,6.5,16.8c-0.1-0.5-0.1-1.1-0.2-1.6"/>
	<path id="XMLID_197_" class="st42" d="M393,398.2c0.8,4.7,2.5,9.3,5,13.4c-0.2-0.5-0.4-1-0.6-1.5"/>
	<path id="XMLID_198_" class="st42" d="M400.5,386.8c-0.2,4,1,8,3.3,11.3"/>
	<path id="XMLID_199_" class="st42" d="M395.3,425.2c1.1,3.5,3.1,6.8,5.6,9.5"/>
	<path id="XMLID_200_" class="st42" d="M408.6,421.4c1.2,4.2,3.7,8,7,10.9"/>
	<path id="XMLID_201_" class="st42" d="M392.8,444.2c1.8,3.8,4.1,7.4,6.9,10.5c0.2,0.2,0.5,0.4,0.7,0.3c0.2-0.1-0.1-0.6-0.2-0.3"/>
	<path id="XMLID_202_" class="st42" d="M410.7,441.5c2.5,3.9,6,7,10.2,8.9"/>
	<path id="XMLID_203_" class="st42" d="M428,442.7c4.3,2.5,8.8,4.5,13.5,5.8c-1.1-0.2-2.1-0.4-3.2-0.6"/>
	<path id="XMLID_204_" class="st42" d="M338.9,377.4c0.2,0.4,0.6-0.5,0.2-0.5s-0.7,0.4-0.9,0.9c-1.4,4.1-2.4,8.4-3,12.7"/>
	<path id="XMLID_205_" class="st42" d="M335.4,404.7c0.2,5.7,0.3,11.5,0.5,17.2c0,0.3,0.1,0.6,0.3,0.7c0.3,0.1,0.3-0.5,0.1-0.4"/>
	<path id="XMLID_206_" class="st42" d="M320.4,393.3c-1.3,4.8-2.3,9.7-3,14.7"/>
	<path id="XMLID_207_" class="st42" d="M320.6,420.3c0.2,5,0,10.1-0.5,15.1"/>
	<path id="XMLID_208_" class="st42" d="M307.8,415.5c-0.3,4.6-1.1,9.1-2.4,13.5"/>
	<path id="XMLID_209_" class="st42" d="M333.6,438.1c0.5,4.7,0.9,9.4,1.4,14.1"/>
	<path id="XMLID_210_" class="st42" d="M350.5,434.4c0.5,5.1,1.4,10.2,2.8,15.2"/>
	<path id="XMLID_211_" class="st42" d="M364.9,444.7c2.1,4.7,3.9,9.6,5.6,14.5"/>
	<path id="XMLID_212_" class="st42" d="M357.3,460.3c0.8,5,2.4,9.9,4.6,14.5"/>
	<path id="XMLID_213_" class="st42" d="M343.8,461.4c0.7,4,1.4,7.9,2.1,11.9"/>
	<path id="XMLID_214_" class="st42" d="M319.1,445.7c-0.6,4.3-0.8,8.6-0.6,12.9c0-0.5,0-1,0-1.5"/>
	<path id="XMLID_215_" class="st42" d="M303.4,439.8c0,2.7,0,5.4,0,8.1"/>
	<path id="XMLID_216_" class="st42" d="M331.4,464.6c0.3,3.6,0.4,7.2,0.4,10.8"/>
	<path id="XMLID_217_" class="st42" d="M349.6,486.8c1.2,4.5,2.4,8.9,3.6,13.4"/>
	<path id="XMLID_218_" class="st42" d="M348.3,513.2c1,3.8,2.5,7.5,4.5,11"/>
	<path id="XMLID_219_" class="st42" d="M366,487.9c2.1,3.7,4.2,7.4,6.3,11.1"/>
	<path id="XMLID_220_" class="st42" d="M365,511c2.6,3.5,4.7,7.3,6.5,11.3"/>
	<path id="XMLID_221_" class="st42" d="M363.9,535.9c1.5,2.9,3.5,5.8,4.9,8.8c0.4,0.8,3.2,7.2,2.1,4.7"/>
	<path id="XMLID_222_" class="st42" d="M380.6,532.1c2.2,2.8,4,5.9,5.4,9.2"/>
	<path id="XMLID_223_" class="st42" d="M379.6,551.5c2.4,4.2,4.2,8.8,5.3,13.5"/>
	<path id="XMLID_224_" class="st42" d="M368.9,565c1.2,4.5,2.4,9.1,3.6,13.6c0.1,0.3,0.2,0.7,0.6,0.7s0.2-0.7-0.1-0.4"/>
	<path id="XMLID_225_" class="st42" d="M397.5,535.6c1.9,3.4,3.1,7.2,3.3,11.1c0.3-0.5,0.1-1.2-0.3-1.6"/>
	<path id="XMLID_226_" class="st42" d="M392.6,549.4c0.5,1.5,1,2.9,1.4,4.4"/>
	<path id="XMLID_227_" class="st42" d="M381.1,511.6c3.2,4,5.6,8.6,7.1,13.5"/>
	<path id="XMLID_228_" class="st42" d="M383.2,493.3c2.6,3.8,5.1,7.5,7.7,11.3c-0.6-0.2-1.2-0.6-1.6-1.1"/>
	<path id="XMLID_229_" class="st42" d="M371.7,468.7c2.3,2.9,4.2,6,5.6,9.4"/>
	<path id="XMLID_230_" class="st42" d="M384.2,458.2c3.6,4.8,6.9,9.8,9.8,15.1"/>
	<path id="XMLID_231_" class="st42" d="M390.4,480.8c2.1,3.3,4.1,6.6,6.2,9.9"/>
	<path id="XMLID_232_" class="st42" d="M404.5,503.4c2.1,4.2,4.3,8.3,6.4,12.5"/>
	<path id="XMLID_233_" class="st42" d="M399.1,515.9c1.7,4.4,3.5,8.8,5.2,13.1c0.1,0.3,0.3,0.6,0.6,0.6s0-0.7-0.1-0.4"/>
	<path id="XMLID_234_" class="st42" d="M415.9,536.5c0.8-3.6,0.3-7.5-1.4-10.8"/>
	<path id="XMLID_235_" class="st42" d="M429.9,529.9c-0.8-4.8-1.7-9.7-2.5-14.5"/>
	<path id="XMLID_236_" class="st42" d="M413.5,493.2c1.4,2.2,2.8,4.4,4,6.7c0.2,0.4,2.6,5.3,1.4,3"/>
	<path id="XMLID_237_" class="st42" d="M407.8,470.4c2.2,2.8,4.4,5.6,6.6,8.4"/>
	<path id="XMLID_238_" class="st42" d="M417.4,461.3c5.1,3.4,9.9,7.4,14.2,11.7"/>
	<path id="XMLID_239_" class="st42" d="M426.7,484.5c2.9,4.6,5.9,9.3,8.8,13.9c0.1,0.2,0.3,0.4,0.6,0.4s0.1-0.5-0.1-0.4"/>
	<path id="XMLID_240_" class="st42" d="M439.8,509.3c1.7,4.5,2.6,9.3,2.5,14c0,0.4,0.7-0.1,0.4-0.4"/>
	<path id="XMLID_241_" class="st42" d="M446.4,490c2.6,2.6,4.4,6,5.1,9.6"/>
	<path id="XMLID_242_" class="st42" d="M449.2,508.9c1.7,3.1,2.9,6.3,3.7,9.7"/>
	<path id="XMLID_243_" class="st42" d="M466.1,493.7c1.6,3.5,2.8,7.1,3.6,10.9"/>
	<path id="XMLID_245_" class="st42" d="M443.2,470.6c4.4,3.5,8.8,7,13.2,10.5"/>
	<path id="XMLID_246_" class="st42" d="M445.4,456.9c4.9,1.5,9.7,3.7,14.1,6.5"/>
	<path id="XMLID_247_" class="st42" d="M461.1,448.9c5.5,0.6,10.7,2.7,15.1,6"/>
	<path id="XMLID_248_" class="st42" d="M470.3,464.1c3.8,2.6,7.2,5.8,9.9,9.6"/>
	<path id="XMLID_249_" class="st42" d="M472,481.2c3.7,2.5,6.4,6.5,7.3,11"/>
	<path id="XMLID_250_" class="st42" d="M491.3,485.1c0.5,4.9-0.1,9.9-1.6,14.6"/>
	<path id="XMLID_244_" class="st42" d="M488.2,457.5c3.1,3.6,5.3,7.9,6.2,12.6"/>
	<path id="XMLID_251_" class="st42" d="M463.1,512.7c0.6,2,1.8,3.9,3.4,5.3"/>
	<path id="XMLID_252_" class="st42" d="M214.2,320.4c4.6,1.2,9.2,2.3,13.9,3.1c-0.7-0.2-1.3-0.3-2-0.5"/>
	<path id="XMLID_253_" class="st42" d="M205.1,302.6c4.4,2.1,8.6,4.6,12.5,7.4"/>
	<path id="XMLID_254_" class="st42" d="M213.2,289c4.9,3.5,10.1,6.5,15.5,8.9"/>
	<path id="XMLID_255_" class="st42" d="M231.5,311.3c5.2,2.5,10.4,5,15.7,7.6"/>
	<path id="XMLID_256_" class="st42" d="M245,329.8c5.1,2.2,10.4,4.1,15.7,5.7"/>
	<path id="XMLID_257_" class="st42" d="M181.3,303.1c4.8,3.5,10.1,6.2,15.7,7.9"/>
	<path id="XMLID_258_" class="st42" d="M180.8,281c3.2,3.4,7.1,6.2,11.3,8.1"/>
	<path id="XMLID_259_" class="st42" d="M195.9,263.7c3.5,4.5,7.3,8.8,11.3,12.8c-0.7-0.3-1.4-0.6-2.1-1"/>
	<path id="XMLID_260_" class="st42" d="M177.8,257.9c2.3,4.5,5.8,8.4,10,11.1"/>
	<path id="XMLID_261_" class="st42" d="M157,258.8c3.6,3.9,7.2,7.9,10.9,11.8"/>
	<path id="XMLID_262_" class="st42" d="M152.6,278.9c4.5,3.8,9,7.6,13.5,11.4"/>
	<path id="XMLID_263_" class="st42" d="M134.1,248.7c2.9,4.7,6.1,9.2,9.5,13.5c0.2,0.3,0.6,0.6,0.9,0.5c0.3-0.2-0.2-0.8-0.3-0.4"/>
	<path id="XMLID_264_" class="st42" d="M152.8,231.7c2.6,3.3,5.2,6.6,7.8,9.9"/>
	<path id="XMLID_265_" class="st42" d="M166.2,221.6c3.3,3.6,6.6,7.1,9.9,10.7"/>
	<path id="XMLID_266_" class="st42" d="M181.6,242.9c3.1,3.5,6.2,6.9,9.2,10.4c0.7,0.8-0.6,2.3-1.5,1.7c-0.9-0.6,0.1-2.3,1.1-1.9"/>
	<path id="XMLID_267_" class="st42" d="M185.1,229.6c3.7,2.2,6.9,5.1,9.5,8.5"/>
	<path id="XMLID_268_" class="st42" d="M134,228.4c3.2,3.3,6.2,6.8,8.8,10.6"/>
	<path id="XMLID_269_" class="st42" d="M117.6,219.4c2,5.4,4.3,10.6,7,15.7"/>
	<path id="XMLID_270_" class="st42" d="M138.5,211.4c2.3,3.2,4.7,6.5,7,9.7"/>
	<path id="XMLID_271_" class="st42" d="M152.7,203.8c2.3,1.4,4.4,3.2,6.1,5.3"/>
	<path id="XMLID_272_" class="st42" d="M145.8,184.1c3.8,1.8,7.4,4,10.7,6.7c0.6,0.5,0.7,1.9,0,1.6"/>
	<path id="XMLID_273_" class="st42" d="M129.4,186.6c2,0.4,3.8,1.3,5.4,2.6"/>
	<path id="XMLID_274_" class="st42" d="M121.4,195.1c1.1,1.3,2.2,2.5,3.2,3.8"/>
	<path id="XMLID_275_" class="st42" d="M296.3,210.2c-2.1,4.1-3.8,8.5-5,12.9"/>
	<path id="XMLID_276_" class="st42" d="M286.5,194c-2.6,3-4.6,6.5-6,10.3"/>
	<path id="XMLID_277_" class="st42" d="M281.2,217.3c-1.5,5-3.1,10-4.6,15"/>
	<path id="XMLID_278_" class="st42" d="M287.2,235.6c0.1,4.9-0.2,9.7-0.6,14.6"/>
	<path id="XMLID_279_" class="st42" d="M277.1,250.2c0.2,5.3,1.1,10.7,2.8,15.8"/>
	<path id="XMLID_280_" class="st42" d="M294.1,262.6c0.4,4.2,1.2,8.4,2.5,12.5"/>
	<path id="XMLID_281_" class="st42" d="M302.4,237.3c-0.8,4.8-1.5,9.6-2.3,14.4c-0.1,0.4-0.1,0.9,0.3,1c0.4,0.1,0.4-0.7,0.1-0.5"/>
	<path id="XMLID_283_" class="st42" d="M306.5,263.3c1,4.7,1.9,9.3,2.9,14"/>
	<path id="XMLID_284_" class="st42" d="M300.6,285.3c1.7,2.7,3.7,5.3,5.9,7.6"/>
	<path id="XMLID_285_" class="st42" d="M320.8,289.5c1.9,3.6,3.9,7.3,5.8,10.9"/>
	<path id="XMLID_286_" class="st42" d="M327.8,274c-0.4,4.1,2.2,8.6,4.2,12.3"/>
	<path id="XMLID_287_" class="st42" d="M340.6,262.5c0.8,3.1,2.8,9.4,3.6,12.6"/>
	<path id="XMLID_288_" class="st42" d="M341.5,284.3c1.3,3.6,2.6,7.2,3.9,10.7"/>
	<path id="XMLID_289_" class="st42" d="M337.9,298.8c1.8,2.9,3.6,5.8,5.4,8.7"/>
	<path id="XMLID_290_" class="st42" d="M358.4,259.9c1.4,3.8,2.2,7.8,2.5,11.9"/>
	<path id="XMLID_291_" class="st42" d="M356.9,294.5c0.9,4.8,1.3,9.7,1.4,14.6"/>
	<path id="XMLID_292_" class="st42" d="M387.7,302.1c-0.1,3.6-1,7.1-2.8,10.2"/>
	<path id="XMLID_293_" class="st42" d="M402.3,288.6c-0.5,4.2-1.5,8.4-2.9,12.4"/>
	<path id="XMLID_294_" class="st42" d="M411,305.9c2.6-5,5.9-9.7,9.7-13.9"/>
	<path id="XMLID_295_" class="st42" d="M415.3,275c0.3,4.6-0.3,9.2-1.8,13.5"/>
	<path id="XMLID_314_" class="st42" d="M399.5,272.3"/>
	<path id="XMLID_313_" class="st42" d="M396.4,261c1.1,4,2.2,8,3.4,12"/>
	<path id="XMLID_297_" class="st42" d="M404.9,245.9c3,4.8,5.2,10.1,6.4,15.7"/>
	<path id="XMLID_298_" class="st42" d="M429.3,259.9c1.7,4.1,2.5,8.6,2.1,13"/>
	<path id="XMLID_299_" class="st42" d="M434.1,282.1c-1.2,4.5-2.3,9.1-3.5,13.6"/>
	<path id="XMLID_300_" class="st42" d="M444.8,271.3c1,4.9-1.4,9.8-3.7,14.1c-0.2,0.3-0.5,0.7-0.8,0.6c-0.4-0.1,0.1-0.8,0.2-0.4"/>
	<path id="XMLID_301_" class="st42" d="M443.5,251.7c0.8,2.9,1.4,5.8,1.7,8.7"/>
	<path id="XMLID_302_" class="st42" d="M451.6,233.1c2.2,4.8,3.7,9.8,4.4,15"/>
	<path id="XMLID_303_" class="st42" d="M456.7,257.2c0,4.7,0,9.4,0,14"/>
	<path id="XMLID_304_" class="st42" d="M410.8,227c1.4,2.4,2.5,4.9,3.4,7.5"/>
	<path id="XMLID_305_" class="st42" d="M418.9,214.1c2.1,3.4,3.8,7,5,10.7"/>
	<path id="XMLID_306_" class="st42" d="M426.6,203.7c2.2,2.8,4,5.9,5.3,9.2"/>
	<path id="XMLID_307_" class="st42" d="M437.6,209.4c3.2,3.4,5.3,7.9,6,12.5c0.1,0.3,0.2,0.8,0.5,0.9c0.3,0.1,0.6-0.6,0.2-0.6"/>
	<path id="XMLID_308_" class="st42" d="M449.3,203.7c3.6,4.6,6,10,7.1,15.7"/>
	<path id="XMLID_309_" class="st42" d="M437.4,190.7c1.7,3.1,3.5,6.2,5.2,9.3"/>
	<path id="XMLID_310_" class="st42" d="M446.5,182c-0.3-0.2,0-0.8,0.4-0.8c0.4,0,0.7,0.4,0.9,0.7c3,3.9,5.8,7.9,8.4,12.1"/>
	<path id="XMLID_311_" class="st42" d="M462.8,217.7c2,4.6,3.3,9.6,3.7,14.6"/>
	<path id="XMLID_312_" class="st42" d="M466.2,241.6c-0.2,5.4-0.3,10.8-0.5,16.2"/>
	<path id="XMLID_296_" class="st42" d="M261.8,165.9c4.3,3.9,8.7,7.9,13,11.8"/>
	<path id="XMLID_315_" class="st42" d="M245.6,145.4c5,2.7,9.4,6.4,13.1,10.7"/>
	<path id="XMLID_316_" class="st42" d="M230.6,124.2c3.9,3.3,7.8,6.6,11.8,9.9"/>
	<path id="XMLID_317_" class="st42" d="M215.4,103.2c4,2.6,7.7,5.6,11,9"/>
	<path id="XMLID_318_" class="st42" d="M206.2,117.2c4.6,2,8.8,4.8,12.4,8.2"/>
	<path id="XMLID_319_" class="st42" d="M214.2,141.2c4.8,2.6,9.3,5.6,13.6,9"/>
	<path id="XMLID_320_" class="st42" d="M223.4,134.7c2.7,2.5,5.5,5,8.2,7.4"/>
	<path id="XMLID_321_" class="st42" d="M205.2,85.9c2.9,2.2,5.7,4.3,8.6,6.5"/>
	<path id="XMLID_322_" class="st42" d="M235.9,153.4c4.8,2.6,9.2,5.9,13.3,9.6c0.3,0.3,0.6,0.6,0.5,1s-0.9,0.2-0.7-0.1"/>
	<path id="XMLID_323_" class="st42" d="M218,160.2c4.7,1.8,9.5,3.7,14.2,5.5"/>
	<path id="XMLID_324_" class="st42" d="M223.4,177c5.6,0.2,11.1,1.7,16.1,4.2"/>
	<path id="XMLID_325_" class="st42" d="M245,174.1c6,1.9,11.7,4.8,16.9,8.4"/>
	<path id="XMLID_326_" class="st42" d="M251.5,189.7c5.3,0.3,10.7,1.3,15.7,3.1c-0.7-0.1-1.5-0.2-2.2-0.3"/>
	<path id="XMLID_327_" class="st42" d="M229.3,193.9c3.9-1.1,7.9-1.4,11.9-0.9"/>
	<path id="XMLID_328_" class="st42" d="M245.5,205.1c5.4-2.1,11.1-3.1,16.9-3.2"/>
	<path id="XMLID_329_" class="st42" d="M254.3,214.2c3.8-1.1,7.6-2.4,11.3-4"/>
	<path id="XMLID_330_" class="st42" d="M460.1,172.6c4.1-3.4,8.5-6.3,13.3-8.6c0.3-0.1,0.7-0.3,0.9,0c0.2,0.2-0.3,0.7-0.4,0.4"/>
	<path id="XMLID_331_" class="st42" d="M460,155.2c3.5-5,8-9.2,13.3-12.2"/>
	<path id="XMLID_332_" class="st42" d="M469.4,129.1c3.5-6.5,8.7-12.1,14.9-16.1"/>
	<path id="XMLID_333_" class="st42" d="M481.5,132.9c4.5-2.3,9-4.7,13.5-7"/>
	<path id="XMLID_334_" class="st42" d="M478.9,149.2c4.8-2.6,9.9-4.6,15.1-6"/>
	<path id="XMLID_335_" class="st42" d="M484.9,162.8c4.3-0.9,8.5-1.9,12.8-2.8c0.4-0.1,0.8-0.1,1,0.1c0.2,0.3-0.2,0.8-0.4,0.5"/>
	<path id="XMLID_336_" class="st42" d="M477.9,174.9c5.3-1.6,11.1-1.2,16.2,1c-0.6-0.1-1.1-0.2-1.7-0.3"/>
	<path id="XMLID_337_" class="st42" d="M463.7,185.6c5.1-0.6,10.4,0,15.2,1.8"/>
	<path id="XMLID_338_" class="st42" d="M473,197.7c3.8,1.2,7.4,2.9,10.7,5"/>
	<path id="XMLID_339_" class="st42" d="M488.6,187.7c3,0.5,5.9,1.6,8.3,3.4"/>
	<path id="XMLID_340_" class="st42" d="M470.2,209.2c2.6,1.5,5.2,3,7.7,4.6"/>
	<path id="XMLID_341_" class="st42" d="M476.7,102.8c2.8-5.2,7.1-9.7,12.3-12.7"/>
	<path id="XMLID_342_" class="st42" d="M493,105c4.4-2.7,9-4.8,13.9-6.2"/>
	<path id="XMLID_343_" class="st42" d="M501.6,119.6c3.8-1.4,7.8-2.3,11.9-2.8"/>
	<path id="XMLID_344_" class="st42" d="M503.6,137.6c2.7-1.2,5.6-1.9,8.6-1.9c0.3,0,0.7,0,0.8-0.4c0.1-0.3-0.6-0.4-0.4-0.1"/>
	<path id="XMLID_345_" class="st42" d="M485.4,81.2c1.6-5.3,4.6-10.2,8.8-13.9"/>
	<path id="XMLID_346_" class="st42" d="M497.9,83.4c1.7-2.4,3.8-4.5,6.2-6.3"/>
	<path id="XMLID_347_" class="st42" d="M486.4,61.7c1.1-3,3.5-7.1,6.3-8.5"/>
	<path id="XMLID_351_" class="st43" d="M364.2,297.1c0,0,0.2,4.5,2.7,5.6c2.5,1.1,7.5,1.9,9.6-0.9c2-2.8,3.9-7.6-2.7-9.8
		C366.6,289.7,364.8,293.4,364.2,297.1z"/>
	<path id="XMLID_100_" class="st44" d="M422.8,423.7c3,2.2,8.2,6.7,11.3,8.6"/>
	<path id="XMLID_101_" class="st44" d="M445.6,436.3c4.5,1.6,9.2,2.9,13.9,3.9"/>
	<path id="XMLID_102_" class="st44" d="M473,443.6c3.8,1.1,7.5,2.5,11.1,4.2"/>
	<path id="XMLID_103_" class="st44" d="M409,405.5c1.6,4,4,7.8,6.9,11.1"/>
</g>
<g id="Layer_3">
	<path id="XMLID_387_" class="st45" d="M361.5,324.7c0,0,1.4-7.4,11.4-7.7c10-0.3,10.9,10,10.9,10"/>
	<path id="XMLID_386_" class="st46" d="M398.7,279c0,0-4.5,13.4-18.5,3.8c0,0-3.9-2.3-7.7,0.4c-3.8,2.7-20.1,6-20.1-6.1V274"/>
	<linearGradient id="XMLID_123_" gradientUnits="userSpaceOnUse" x1="477.1062" y1="518.6902" x2="449.966" y2="486.3458">
		<stop  offset="0.1845" style="stop-color:#FFFFFF;stop-opacity:0.3"/>
		<stop  offset="0.3793" style="stop-color:#D9DADA;stop-opacity:0.2283"/>
		<stop  offset="0.8043" style="stop-color:#8C8C8F;stop-opacity:7.198863e-02"/>
		<stop  offset="1" style="stop-color:#6D6E71;stop-opacity:0"/>
	</linearGradient>
	<path id="XMLID_385_" class="st47" d="M458.5,527c0,0-6-4.5-18.9-1.5l-11.1,4.1c0,0-1.2-38.5,33.3-47.5s37.9-5.4,37.9-5.4
		s-1.6,19.2-5.6,26.8C490,511.1,458.5,527,458.5,527z"/>
	<path id="XMLID_384_" class="st37" d="M141.3,196.8c0,0-2.9,0.5-2.1,9.3c0,0,0.4,2.7,0.7,3.5c0.3,0.7-14.4,10.9-13.9-1.2
		c0.5-12,9.4-19.3,13-16.4C142.6,194.9,141.3,196.8,141.3,196.8z"/>
	<linearGradient id="XMLID_124_" gradientUnits="userSpaceOnUse" x1="476.7258" y1="268.4848" x2="430.4215" y2="268.4848">
		<stop  offset="0" style="stop-color:#FFFFFF;stop-opacity:0.3"/>
		<stop  offset="0.4168" style="stop-color:#FDFDFD;stop-opacity:0.175"/>
		<stop  offset="0.567" style="stop-color:#F6F6F7;stop-opacity:0.1299"/>
		<stop  offset="0.674" style="stop-color:#EBEBEB;stop-opacity:9.780130e-02"/>
		<stop  offset="0.7606" style="stop-color:#DADADB;stop-opacity:7.182814e-02"/>
		<stop  offset="0.8347" style="stop-color:#C4C4C5;stop-opacity:4.958713e-02"/>
		<stop  offset="0.9003" style="stop-color:#A8A9AB;stop-opacity:2.990490e-02"/>
		<stop  offset="0.9582" style="stop-color:#898A8C;stop-opacity:1.253310e-02"/>
		<stop  offset="1" style="stop-color:#6D6E71;stop-opacity:0"/>
	</linearGradient>
	<path id="XMLID_383_" class="st48" d="M430.4,268.8c0,0,32.3-5.7,46.3-4.6c0,0-35.2,3.7-45.3,8.6"/>
	<linearGradient id="XMLID_125_" gradientUnits="userSpaceOnUse" x1="474.1436" y1="278.6606" x2="431.3852" y2="278.6606">
		<stop  offset="0" style="stop-color:#FFFFFF;stop-opacity:0.3"/>
		<stop  offset="0.4168" style="stop-color:#FDFDFD;stop-opacity:0.175"/>
		<stop  offset="0.567" style="stop-color:#F6F6F7;stop-opacity:0.1299"/>
		<stop  offset="0.674" style="stop-color:#EBEBEB;stop-opacity:9.780130e-02"/>
		<stop  offset="0.7606" style="stop-color:#DADADB;stop-opacity:7.182814e-02"/>
		<stop  offset="0.8347" style="stop-color:#C4C4C5;stop-opacity:4.958713e-02"/>
		<stop  offset="0.9003" style="stop-color:#A8A9AB;stop-opacity:2.990490e-02"/>
		<stop  offset="0.9582" style="stop-color:#898A8C;stop-opacity:1.253310e-02"/>
		<stop  offset="1" style="stop-color:#6D6E71;stop-opacity:0"/>
	</linearGradient>
	<path id="XMLID_382_" class="st49" d="M432.5,276.9c0,0,24.9-2.7,41.6,1.6c0,0-30.8-0.5-42.8,2.9"/>
	<linearGradient id="XMLID_126_" gradientUnits="userSpaceOnUse" x1="460.1636" y1="287.8772" x2="429.3101" y2="287.8772">
		<stop  offset="0" style="stop-color:#FFFFFF;stop-opacity:0.3"/>
		<stop  offset="0.4168" style="stop-color:#FDFDFD;stop-opacity:0.175"/>
		<stop  offset="0.567" style="stop-color:#F6F6F7;stop-opacity:0.1299"/>
		<stop  offset="0.674" style="stop-color:#EBEBEB;stop-opacity:9.780130e-02"/>
		<stop  offset="0.7606" style="stop-color:#DADADB;stop-opacity:7.182814e-02"/>
		<stop  offset="0.8347" style="stop-color:#C4C4C5;stop-opacity:4.958713e-02"/>
		<stop  offset="0.9003" style="stop-color:#A8A9AB;stop-opacity:2.990490e-02"/>
		<stop  offset="0.9582" style="stop-color:#898A8C;stop-opacity:1.253310e-02"/>
		<stop  offset="1" style="stop-color:#6D6E71;stop-opacity:0"/>
	</linearGradient>
	<path id="XMLID_381_" class="st50" d="M430.7,286.2c0,0,19-0.6,29.5,3.3c0,0-19.8-1.8-30.9-0.4"/>
	
		<linearGradient id="XMLID_138_" gradientUnits="userSpaceOnUse" x1="353.788" y1="264.4048" x2="307.4836" y2="264.4048" gradientTransform="matrix(-0.9917 0.1285 0.1285 0.9917 577.3344 -37.237)">
		<stop  offset="0" style="stop-color:#FFFFFF;stop-opacity:0.3"/>
		<stop  offset="0.4168" style="stop-color:#FDFDFD;stop-opacity:0.175"/>
		<stop  offset="0.567" style="stop-color:#F6F6F7;stop-opacity:0.1299"/>
		<stop  offset="0.674" style="stop-color:#EBEBEB;stop-opacity:9.780130e-02"/>
		<stop  offset="0.7606" style="stop-color:#DADADB;stop-opacity:7.182814e-02"/>
		<stop  offset="0.8347" style="stop-color:#C4C4C5;stop-opacity:4.958713e-02"/>
		<stop  offset="0.9003" style="stop-color:#A8A9AB;stop-opacity:2.990490e-02"/>
		<stop  offset="0.9582" style="stop-color:#898A8C;stop-opacity:1.253310e-02"/>
		<stop  offset="1" style="stop-color:#6D6E71;stop-opacity:0"/>
	</linearGradient>
	<path id="XMLID_380_" class="st51" d="M306.4,264.8c0,0-32.7-1.5-46.5,1.4c0,0,35.4-0.8,46,2.7"/>
	
		<linearGradient id="XMLID_139_" gradientUnits="userSpaceOnUse" x1="351.2057" y1="274.5807" x2="308.4474" y2="274.5807" gradientTransform="matrix(-0.9917 0.1285 0.1285 0.9917 577.3344 -37.237)">
		<stop  offset="0" style="stop-color:#FFFFFF;stop-opacity:0.3"/>
		<stop  offset="0.4168" style="stop-color:#FDFDFD;stop-opacity:0.175"/>
		<stop  offset="0.567" style="stop-color:#F6F6F7;stop-opacity:0.1299"/>
		<stop  offset="0.674" style="stop-color:#EBEBEB;stop-opacity:9.780130e-02"/>
		<stop  offset="0.7606" style="stop-color:#DADADB;stop-opacity:7.182814e-02"/>
		<stop  offset="0.8347" style="stop-color:#C4C4C5;stop-opacity:4.958713e-02"/>
		<stop  offset="0.9003" style="stop-color:#A8A9AB;stop-opacity:2.990490e-02"/>
		<stop  offset="0.9582" style="stop-color:#898A8C;stop-opacity:1.253310e-02"/>
		<stop  offset="1" style="stop-color:#6D6E71;stop-opacity:0"/>
	</linearGradient>
	<path id="XMLID_379_" class="st52" d="M305.4,273.1c0,0-25,0.5-41.1,6.9c0,0,30.4-4.5,42.8-2.6"/>
	
		<linearGradient id="XMLID_140_" gradientUnits="userSpaceOnUse" x1="337.2257" y1="283.7972" x2="306.3722" y2="283.7972" gradientTransform="matrix(-0.9917 0.1285 0.1285 0.9917 577.3344 -37.237)">
		<stop  offset="0" style="stop-color:#FFFFFF;stop-opacity:0.3"/>
		<stop  offset="0.4168" style="stop-color:#FDFDFD;stop-opacity:0.175"/>
		<stop  offset="0.567" style="stop-color:#F6F6F7;stop-opacity:0.1299"/>
		<stop  offset="0.674" style="stop-color:#EBEBEB;stop-opacity:9.780130e-02"/>
		<stop  offset="0.7606" style="stop-color:#DADADB;stop-opacity:7.182814e-02"/>
		<stop  offset="0.8347" style="stop-color:#C4C4C5;stop-opacity:4.958713e-02"/>
		<stop  offset="0.9003" style="stop-color:#A8A9AB;stop-opacity:2.990490e-02"/>
		<stop  offset="0.9582" style="stop-color:#898A8C;stop-opacity:1.253310e-02"/>
		<stop  offset="1" style="stop-color:#6D6E71;stop-opacity:0"/>
	</linearGradient>
	<path id="XMLID_378_" class="st53" d="M308.4,282.1c0,0-19,1.9-28.8,7.1c0,0,19.4-4.3,30.5-4.3"/>
	<path id="XMLID_377_" class="st14" d="M122.1,385.1c-1.4-1.5-1.4-4.8-1.6-6.8c-0.7-8.2-1.1-15.8,1.4-23.6c1-3.1,4-7.3,6.5-9.4
		c2.4-2.1,6.9-1.7,9.6,0.1c3.4,2.3,3.3,7.5,1.6,11.2c-2.5,5.5-7.3,9.6-11.3,14.2c-4,4.6-7.4,10.5-6,16.5"/>
	<path id="XMLID_376_" class="st20" d="M104.5,339.5c0.9-8.3,3.3-17.7,4.8-25.4c1-5.2,1.5-10.9-1-15.5c-2.3-4.3-7.4-7.1-12.3-6.5
		c-4.9,0.6-9.2,4.8-9.7,9.7c-0.7,6.1,3.8,11.4,7.4,16.3C99.1,325.5,102.1,330.5,104.5,339.5"/>
	<path id="XMLID_375_" class="st5" d="M94.9,360.9c-0.5-4.8-1.4-9.6-3.6-14c-2.2-4.3-5.6-8.2-10-10.1c-2.3-1-5.3-1.3-7,0.6
		c-0.8,0.9-1.1,2-1.2,3.2c-0.2,2.6,0.8,5.2,2.5,7.1c2.9,3.1,7.4,3.8,11.2,5.6C91.4,355.3,92.5,356.6,94.9,360.9"/>
	<g id="XMLID_364_">
		<path id="XMLID_373_" class="st22" d="M393.1,356.6c0,0-0.9-3-1.5-3.5c-0.6-0.5,0.1-3.6,0.1-3.6l-1.7-3.9l0.3-2.9l-1.6-3.3
			l0.4-2.8l-1.6-3.4l0.3-3.2c0,0-12.3-5.4-29.1,6l1.9,3.8l-0.6,2.7l1.9,3.8l-0.5,3.1l2.1,2.8l-0.8,3.3l1.9,2l-0.4,5.1L393.1,356.6z"
			/>
		
			<ellipse id="XMLID_372_" transform="matrix(-0.9796 0.201 -0.201 -0.9796 821.5496 635.713)" class="st54" cx="378.5" cy="359.6" rx="14.9" ry="3.7"/>
		
			<ellipse id="XMLID_371_" transform="matrix(-0.9796 0.201 -0.201 -0.9796 787.46 593.9838)" class="st54" cx="363.6" cy="337" rx="2.3" ry="2.3"/>
		<path id="XMLID_370_" class="st19" d="M361.6,322.2c1.6-3,4.7-4.9,9.1-5.8c3.8-0.8,6.9-0.2,9.4,1.7c4.6,3.6,4.9,10.6,4.9,10.9
			l-1.9,0.1c0-0.1-0.3-6.5-4.2-9.5c-2-1.6-4.6-2-7.8-1.4c-3.9,0.8-6.5,2.4-7.9,4.9c-2,3.7-0.9,8.5,0.3,12l0.7,1.2
			c0,0,0.4,0.7-0.2,1.2c-0.8,0.6-1.4-0.3-1.4-0.3l-0.7-1.3l0-0.1C360.4,332,359.2,326.6,361.6,322.2z"/>
		<path id="XMLID_369_" class="st55" d="M389.7,351.4c-3.7-0.2-7.3,0.1-10.9,0.9"/>
		<path id="XMLID_368_" class="st55" d="M380.2,346.1c-4.7,0.7-9.3,2.2-13.6,4.3c0.1-0.1,0.1-0.3,0.2-0.4"/>
		<path id="XMLID_367_" class="st55" d="M389.4,342.2c-5.7-1.5-11.9-0.8-17.4,1.2"/>
		<path id="XMLID_366_" class="st55" d="M378.4,337.5c-5.7,0.6-9.9,2.8-14.4,5.2"/>
		<path id="XMLID_365_" class="st55" d="M385.9,333.2c-5.2-0.7-10.2-0.1-15.2,1.5"/>
	</g>
	<path id="XMLID_363_" class="st19" d="M145.7,178c-0.6-4.5-3.7-7.5-7.9-9.1c-0.8-0.3-1.8-0.5-2.4,0.1c-0.6,0.5-0.6,1.3-0.6,2.1
		c0.1,2.1,0.7,4.1,1.7,5.9c0.4,0.8,1,1.6,1.9,1.9c0.6,0.2,1.3,0.1,1.9,0C142.5,178.5,143.5,178.3,145.7,178"/>
	<path id="XMLID_362_" class="st19" d="M129.8,181.8c-2.2-2.5-4.9-4.5-8-5.8c-0.7-0.3-1.4-0.5-2.1-0.3c-1.1,0.4-1.2,1.9-1,3
		c0.7,3.9,3.7,7.4,7.5,8.7c1.2-1.6,2.5-3.2,3.7-4.7"/>
	<path id="XMLID_361_" class="st19" d="M119.7,194.8c-2.5-0.9-4.9-1.7-7.4-2.6c-0.4-0.2-0.9-0.3-1.3-0.1c-0.8,0.3-0.9,1.3-0.8,2.2
		c0.5,4.5,5,8.2,9.5,8c1-2.6,0.9-5.7-0.4-8.2"/>
	<path id="XMLID_360_" class="st19" d="M111.8,208.7c-1.4-0.4-1.6-0.3-3,0s-2.8,1.7-2.5,3.1c0.2,1.1,1.2,1.8,2.1,2.5
		c1.1,0.8,2.2,1.6,3.5,1.8c1.3,0.3,2.9-0.1,3.6-1.3c0.7-1.1,0.4-2.5,0.1-3.7c-0.2-1-0.3-0.9-1-1.5
		C113.9,209,112.3,207.8,111.8,208.7"/>
	<g id="XMLID_157_">
		<g id="XMLID_163_">
			<path id="XMLID_96_" class="st17" d="M351.4,538.2l48.1,13.4c0,0-18.1,27.7-25.5,49.3L351.4,538.2z"/>
		</g>
		<g id="XMLID_162_">
		</g>
	</g>
	<g id="XMLID_127_">
		<g id="XMLID_137_">
			<polygon id="XMLID_46_" class="st56" points="152.8,450.4 201.5,503.5 166.1,549.4 			"/>
			<polygon id="XMLID_45_" class="st57" points="201.5,503.5 189.2,563.2 166.1,549.4 			"/>
			<polygon id="XMLID_44_" class="st6" points="172.4,572.2 189.6,634 137.8,613.5 166.1,549.4 			"/>
			<polygon id="XMLID_42_" class="st58" points="189.2,563.2 172.4,572.2 166.1,549.4 			"/>
			<polygon id="XMLID_40_" class="st3" points="152.8,450.4 166.1,549.4 54.2,544.4 106.2,494.9 106.2,494.9 106.2,494.9 			"/>
			<polygon id="XMLID_39_" class="st59" points="166.1,549.4 137.8,613.5 121.1,591.7 			"/>
			<polygon id="XMLID_38_" class="st60" points="166.1,549.4 121.1,591.7 86.2,587.7 			"/>
			<polygon id="XMLID_37_" class="st57" points="166.1,549.4 86.2,587.7 54.2,544.4 			"/>
			<polygon id="XMLID_36_" class="st61" points="102.3,384 152.8,450.4 91,440.2 			"/>
			<polygon id="XMLID_34_" class="st56" points="152.8,450.4 106.2,494.9 91,440.2 			"/>
			<polygon id="XMLID_32_" class="st61" points="91,440.2 106.2,494.9 106.2,494.9 54.2,492.4 			"/>
			<polygon id="XMLID_31_" class="st59" points="106.2,494.9 54.2,544.4 54.2,492.4 			"/>
		</g>
		<g id="XMLID_136_">
		</g>
	</g>
	<polygon id="XMLID_115_" class="st20" points="92,435.5 103,413.6 110.2,438.1 112.2,411.6 131.5,440.9 123.3,411.6 102.3,384 	"/>
</g>
</svg>
