<?xml version="1.0" encoding="utf-8"?>
<!-- Generator: Adobe Illustrator 19.0.0, SVG Export Plug-In . SVG Version: 6.00 Build 0)  -->
<svg version="1.1" xmlns="http://www.w3.org/2000/svg" xmlns:xlink="http://www.w3.org/1999/xlink" x="0px" y="0px"
	 viewBox="0 0 612 792" style="enable-background:new 0 0 612 792;" xml:space="preserve">
<style type="text/css">
	.st0{opacity:0.26;fill:#A5A5A5;}
	.st1{display:none;}
	.st2{display:inline;}
	.st3{fill:#32868E;}
	.st4{fill:#5EAEB2;}
	.st5{fill:#E56D02;}
	.st6{fill:#E6AE00;}
	.st7{fill:#3F9FA8;}
	.st8{fill:#6E7070;}
	.st9{fill:#E3AD07;}
	.st10{fill:#C7C9C9;}
	.st11{fill:#909191;}
	.st12{fill:#A3A3A3;}
	.st13{fill:#565656;}
	.st14{fill:#B5B5B5;}
	.st15{fill:#8B8C8C;}
	.st16{fill:#384F4E;}
	.st17{fill:url(#XMLID_117_);}
	.st18{fill:url(#XMLID_118_);}
	.st19{fill:#050505;}
	.st20{fill:none;stroke:#5EAEB2;stroke-width:2.4;stroke-linecap:round;stroke-miterlimit:10;}
	.st21{fill:url(#XMLID_119_);}
	.st22{fill:url(#XMLID_121_);}
	.st23{fill:#FFFFFF;}
	.st24{opacity:0.36;fill:url(#XMLID_122_);}
	.st25{fill:url(#XMLID_123_);}
	.st26{opacity:0.36;fill:url(#XMLID_125_);}
	.st27{fill:#545454;}
	.st28{clip-path:url(#XMLID_126_);fill:none;stroke:#545454;stroke-width:3;stroke-miterlimit:10;}
	.st29{fill:#266A6D;}
	.st30{fill:none;stroke:#D36011;stroke-width:4;stroke-linecap:round;stroke-linejoin:round;stroke-miterlimit:10;}
	.st31{clip-path:url(#XMLID_127_);fill:none;stroke:#6E7070;stroke-width:3;stroke-miterlimit:10;}
	.st32{clip-path:url(#XMLID_128_);fill:#545454;}
	.st33{clip-path:url(#XMLID_128_);fill:none;stroke:#545454;stroke-width:3;stroke-miterlimit:10;}
	.st34{clip-path:url(#XMLID_128_);fill:none;stroke:#6E7070;stroke-width:3;stroke-miterlimit:10;}
</style>
<g id="Layer_4">
	<path id="XMLID_130_" class="st0" d="M-161.6,231.8c-25.1,0-47.2,4.2-59.8,10.6c-6-7.6-27.2-13.1-52.4-13.1
		c-29.9,0-54.1,7.8-54.1,17.5s24.2,17.5,54.1,17.5c16.9,0,32-2.5,41.9-6.4c4.6,11.2,34.4,19.9,70.4,19.9c39.2,0,71-10.3,71-23
		S-122.4,231.8-161.6,231.8z"/>
	<ellipse id="XMLID_189_" class="st0" cx="322" cy="706.7" rx="110.8" ry="49.3"/>
</g>
<g id="Layer_1" class="st1">
	<g id="TuwLD0.tif" class="st2">
		
			<image style="overflow:visible;" width="2011" height="2677" id="Layer_1_1_" xlink:href="2E563E6B99B5D5D6.png"  transform="matrix(0.24 0 0 0.24 42.18 74.76)">
		</image>
	</g>
</g>
<g id="Layer_2">
	<path id="XMLID_98_" class="st3" d="M411.4,519.9v28.5c0,3.3,7.8,8.6,17.4,8.6c9.6,0,17.4-5.3,17.4-8.6v-28.5H411.4z"/>
	<ellipse id="XMLID_97_" class="st4" cx="428.7" cy="521.3" rx="17.4" ry="6.7"/>
	<path id="XMLID_96_" class="st5" d="M420.7,507.5v12.5c0,1.4,3.4,3.1,7.6,3.1s7.6-1.7,7.6-3.1v-12.5H420.7z"/>
	<ellipse id="XMLID_95_" class="st6" cx="428.3" cy="508.1" rx="7.6" ry="2.9"/>
	<path id="XMLID_104_" class="st3" d="M188.6,526.1v28.5c0,3.3,7.8,8.6,17.4,8.6s17.4-5.3,17.4-8.6v-28.5H188.6z"/>
	<ellipse id="XMLID_103_" class="st4" cx="205.9" cy="527.4" rx="17.4" ry="6.7"/>
	<path id="XMLID_102_" class="st5" d="M197.8,513.6v12.5c0,1.4,3.4,3.1,7.6,3.1s7.6-1.7,7.6-3.1v-12.5H197.8z"/>
	<ellipse id="XMLID_101_" class="st6" cx="205.5" cy="514.2" rx="7.6" ry="2.9"/>
	<path id="XMLID_30_" class="st7" d="M218.4,534.7c0,0-22.5,2.3-13.3,25.8l64.2,28.3l13.3-25.8L218.4,534.7z"/>
	<path id="XMLID_47_" class="st7" d="M414.6,529.5c0,0,22.4-2.5,18.5,22.4l-56.7,41.4L358,570.9L414.6,529.5z"/>
	<path id="XMLID_70_" class="st3" d="M239,552.2v56c0,16.2,37.7,29.3,84.2,29.3c43.4,0,79.1-11.4,83.7-26.1l0.5,0v-59.1H239z"/>
	<ellipse id="XMLID_29_" class="st4" cx="323.1" cy="552.2" rx="84.2" ry="29.3"/>
	<g id="XMLID_60_">
		<g id="XMLID_65_">
			<path id="XMLID_111_" class="st8" d="M499.8,259.8c4.8,12.4,8.2,25.4,7.8,38.6c-0.9,28.4-16.1,56.7-40.6,71
				c-21.7,12.6-50.2,15.2-76.1,14.3c-0.7-9.7-0.1-19.6,1.9-29.1c1.8,0.5,3.6,1,5.5,1.3c16.2,3.2,33.1-0.7,47.6-8.6
				c17.6-9.5,25.9-19.4,31.8-34.8c2.7-7.1,3.6-17.4,3-25c-0.4-5.1-2.5-10.1-5.2-14.9c5,0.5,10.1-0.5,14.5-3
				C493.4,267.7,497.8,263.9,499.8,259.8z"/>
			<path id="XMLID_76_" class="st9" d="M494.9,245.6L494.9,245.6c1-0.6,1.8-1.3,2.4-2.3c1.7,4,3.9,8.7,3.7,12.4
				c-0.1,1.4-0.5,2.8-1.2,4.1c-2.1,4.2-6.5,7.9-9.9,9.9c-4.4,2.5-9.5,3.5-14.5,3c-1.8-0.2-3.5-0.5-5.2-1.1c-3.4-3.7-6.8-7.5-10-11.4
				C471.9,255.4,483.3,250.3,494.9,245.6z"/>
			<path id="XMLID_72_" class="st10" d="M497.3,243.3c-0.6,0.9-1.4,1.7-2.4,2.2c-0.2,0.1-0.4,0.2-0.6,0.2c-1.8,0.6-3.8,0.2-5.6-0.4
				c-10.8-3.5-18.6-13-24.5-22.7c-11-17.8-17.3-37-20.2-57.8c6.4,6.3,10.5,10.4,17.5,16c2.6,8.4,6,16.5,10,24.3c2.1,4,4.5,8,8.5,10
				c1.5-1,0.9-3.3,0.2-5c-4.1-9.2-11.3-22.3-16.9-29.3l-0.2-0.6l-9.4-25.8c8.4,4.4,14.2,12.3,19.4,20.3
				c6.7,10.3,12.5,21.2,17.5,32.4c3.9,8.8,7.3,17.9,8.2,27.5C499.1,237.5,498.8,241,497.3,243.3z M490.6,236
				c1.4-0.6,1.4-3.9-0.1-7.4c-1.5-3.5-3.9-5.8-5.3-5.1c-1.4,0.6-1.4,3.9,0.1,7.4C486.7,234.3,489.1,236.6,490.6,236z"/>
			<path id="XMLID_71_" class="st11" d="M460.3,260.2c-0.7,0.3-1.4,0.6-2.1,0.9c-18.2-10.2-31.9-28-37.1-48.2l2.9-36.4
				c6.6-3.9,13.3-7.8,19.9-11.7l0,0.1c2.8,20.7,9.2,39.9,20.2,57.8c6,9.7,13.7,19.2,24.5,22.7c1.8,0.6,3.8,1,5.6,0.4
				c0.2-0.1,0.4-0.2,0.6-0.2l0,0.1C483.3,250.3,471.9,255.4,460.3,260.2z"/>
			<path id="XMLID_69_" class="st11" d="M490.4,228.6c1.5,3.4,1.6,6.8,0.1,7.4c-1.4,0.6-3.8-1.7-5.3-5.1c-1.5-3.5-1.6-6.8-0.1-7.4
				C486.5,222.8,488.9,225.1,490.4,228.6z"/>
			<path id="XMLID_68_" class="st8" d="M480.2,210.2c0.7,1.7,1.3,3.9-0.2,5c-4-2-6.4-6.1-8.5-10c-4.1-7.8-7.4-15.9-10-24.3l1.6-0.6
				l0.2,0.6C468.9,187.9,476.1,201,480.2,210.2z"/>
			<path id="XMLID_67_" class="st8" d="M443.9,164.8c-6.6,3.9-13.3,7.8-19.9,11.7v-6.1l6.1-2.4l23.6-13.4l9.4,25.8l-1.6,0.6
				C454.5,175.3,450.4,171.2,443.9,164.8L443.9,164.8z"/>
		</g>
		<g id="XMLID_66_">
		</g>
	</g>
	<g id="XMLID_37_">
		<g id="XMLID_40_">
			<path id="XMLID_110_" class="st8" d="M374.1,547.2c-0.8,1.6-0.8,1.9-1.7,2.9c-15.9,4.2-32.1,7.3-48.5,7.5
				c-16.6,0.1-35.6-2.9-50.7-10.4c1-0.8,1.9-1.5,2.9-2.3c-0.9-0.8-1.8-1.6-2.6-2.4c15.4,7.1,32.7,9.6,49.7,9.4
				c16.3-0.2,32.9-2.8,48.5-6.6C372.4,546,373.2,546.6,374.1,547.2z"/>
			<path id="XMLID_109_" class="st12" d="M371.9,550.5c1.2,0.8,1,2.5,1.8,3.6c-1.2,1.3-4.8,2-7.1,2.7c-27.7,9-57.2,9.3-85.4-0.7
				c-4-1.4-7.2-1.3-10.3-7.3c0.7-0.6,1.4-1.1,2.1-1.7c15.1,7.5,34.1,10.5,50.7,10.4c16.4-0.1,32.6-3.2,48.5-7.5
				C372.2,550.2,372,550.4,371.9,550.5z"/>
			<path id="XMLID_108_" class="st12" d="M371.9,530.3c0.8,0.8,1,1.9,0.7,3.1c-31.7,8.1-65.5,8.2-97.2,0.1c0.5-0.4,1-0.8,1.6-1.3
				c-0.3-2-2.5-3.4-3.5-5.1c31,8.7,63.7,8.6,95,0.6C368.6,529,370.8,529.3,371.9,530.3z"/>
			<path id="XMLID_93_" class="st8" d="M372.6,533.4c-0.1,0.7-0.4,1.4-0.8,2c-1,1.5-2.4,3-2.6,4.8c0,0.3-0.1,0.5,0,0.8
				c-0.2,0-0.3,0.1-0.5,0.1c-32.1,8.7-66.8,7.4-98.2-3.6c1.6-1.3,3.3-2.6,4.9-3.9C307.1,541.5,340.9,541.5,372.6,533.4z"/>
			<path id="XMLID_52_" class="st8" d="M371.2,520.1c0.4,2,0,4.2-1.6,5.6c-0.5,0.5-1.1,0.9-1.2,1.5c0,0.2,0,0.3,0,0.4
				c-31.2,8-63.9,8.2-95-0.6c-0.3-0.6-0.6-1.2-0.5-1.9c0.1-1.2,0.9-2.2,1.8-3C306.3,530.1,340,529.4,371.2,520.1z"/>
			<path id="XMLID_50_" class="st12" d="M371.3,507.5c-31.6,8.4-65.1,9.3-97.1,2.6c1.1-1.1,2.2-2.2,3.3-3.4c0.5-0.5,1-1,1.1-1.7
				c0.1-0.8-0.2-1.4-0.8-1.9c28.9,8.1,60.1,7.5,88.6-1.6c1.4,0.9,2.9,1.9,3.9,3.3C370.7,505.5,371.1,506.5,371.3,507.5z"/>
			<path id="XMLID_49_" class="st8" d="M274.1,510c32,6.7,65.5,5.8,97.1-2.6c0.1,0.9,0,1.7-0.4,2.5c-0.8,1.6-2.8,2.7-3.6,4.1
				c-28.8,9-60,9.6-89.5,3.1c-0.2-2.4-2.8-4.5-5-5.8C273.2,511,273.7,510.5,274.1,510z"/>
			<path id="XMLID_46_" class="st8" d="M370.2,495.7c0.3,0.5,0.6,1,0.4,1.5c-0.1,0.4-0.5,0.7-0.8,1c-1.3,1-2.7,2-4,3
				c0.1,0.1,0.3,0.2,0.4,0.3c-28.5,9.1-59.8,9.7-88.6,1.6c-0.6-0.6-1.5-1.1-2.1-1.6c-1.5-1.1-2.3-3-2.4-4.9
				c31.6,7.9,65.3,7.4,96.6-1.5C369.9,495.2,370.1,495.5,370.2,495.7z"/>
			<path id="XMLID_44_" class="st12" d="M366.1,489.3c1.2,1.9,2.4,3.8,3.6,5.6c-31.3,8.9-65,9.5-96.6,1.5c-0.1-2.1,0.7-4.1,2.2-5.5
				c8.3,2.6,17.2,3.3,25.9,3.5C323,495.2,344.8,493.5,366.1,489.3z"/>
			<path id="XMLID_43_" class="st12" d="M277.8,517.2c29.5,6.5,60.7,5.9,89.5-3.1c-0.2,0.4-0.3,0.9-0.3,1.4c1.9,0.5,3.4,2,4,3.9
				c0.1,0.2,0.2,0.5,0.2,0.8c-31.2,9.3-64.9,10-96.5,2.1c1.1-1,2.4-2,2.9-3.3C277.8,518.3,277.9,517.8,277.8,517.2z"/>
			<path id="XMLID_42_" class="st12" d="M273.4,542.5c-1.3-1.4-2.5-3-3.5-4.6c0.2-0.1,0.4-0.3,0.6-0.5c31.4,11,66.1,12.3,98.2,3.6
				c0.1,0,0.3-0.1,0.5-0.1c0.1,1.7,1.1,3.1,2.5,4.3c-15.6,3.8-32.2,6.4-48.5,6.6C306.1,552.1,288.8,549.6,273.4,542.5z"/>
		</g>
		<g id="XMLID_41_">
		</g>
	</g>
	<path id="XMLID_3_" class="st3" d="M239,347.9v124c0,14.4,35.8,26,80,26s80-11.6,80-26v-124H239z"/>
	<ellipse id="XMLID_1_" class="st4" cx="319" cy="347.9" rx="80" ry="26"/>
	<g id="XMLID_12_">
		<g id="XMLID_15_">
			<path id="XMLID_92_" class="st13" d="M123.5,512.9c1.5,8.5-2.8,22.7-13,24.5l-4,0.5c-6,0.1-12.2-0.2-18.2,0.3
				c3.9-0.4,8.2-2.1,11.7-4c3.5-1.9,6.5-4.9,7.7-8.6c0.8-2.4,0.8-5.1,0.3-7.6c-1.6-8.8-9.7-16-18.7-16.6c-3.7-0.2-7.6,0.6-10.2,3.2
				c2.2-8.4,11.8-14.4,20.7-13.2C111,492.9,122,504.4,123.5,512.9z"/>
			<path id="XMLID_80_" class="st14" d="M114,475.2c3.1,0,5.6,2.5,5.6,5.5c0,3-2.5,5.5-5.6,5.5s-5.6-2.5-5.6-5.5
				C108.4,477.7,110.9,475.2,114,475.2z"/>
			<path id="XMLID_79_" class="st14" d="M106.5,537.9l5,30c-6-1.9-11.9-1.5-18.2-2.3c-1.8-8.7-2.8-18.8-5-27.4
				C94.3,537.7,100.5,538,106.5,537.9z"/>
			<path id="XMLID_78_" class="st8" d="M106.8,445c11.1-27.1,30.2-51.3,55.4-66.3c25.4-15.1,56.7-17.6,85.4-10.8
				c8.6,2,8.3,9.2,8.5,15.2c0.2,6-3.6,13.8-8.4,17.4c-22.4-7-45.1-7.4-64.9,4.3c-19.2,11.3-33.7,29.6-43.8,49.5l-0.1,0
				c-1.1,1.5-1.8,3.1-2.3,4.9C129.2,450.5,118.2,445.6,106.8,445z"/>
			<path id="XMLID_75_" class="st9" d="M91,456.1c2.8-4.1,5.3-7.1,8.6-10.9c2.4-0.2,4.8-0.3,7.2-0.2c11.5,0.6,22.4,5.5,29.8,14.2
				c1,1.1,1.9,2.4,2.8,3.7c-1,3.9-1.9,9.2-2.1,13.2c-4.2-4.8-9.3-9.2-15-12.2C122.3,463.9,107.4,456.6,91,456.1z"/>
			<path id="XMLID_25_" class="st15" d="M91,456.1c16.4,0.5,31.3,7.8,31.3,7.8c5.7,3,10.7,7.4,15,12.2c6.8,7.7,11.5,16.4,13,21.8
				c4,14.1,3.3,36.7-7.8,52c-10.8,14.9-31,18-31,18l-5-30l4-0.5c10.2-1.8,14.5-16,13-24.5s-12.5-20-23.5-21.5
				c-8.9-1.2-18.5,4.8-20.7,13.2c-0.5,2-0.7,4.1-0.3,6.3c2,11.5,10.7,22,10.7,22l-2.7,3l-0.4,0.4L65,556.4c-0.3,0-0.6,0.1-0.9,0.1
				l-4.7-6.1c-5.5-7.5-13-25-14.5-33s-3.5-32,18-52c1.2-1.1,2.5-2.1,3.7-3c0,0,0,0,0,0C74.1,457.4,82.7,455.9,91,456.1z
				 M119.6,480.7c0-3-2.5-5.5-5.6-5.5s-5.6,2.5-5.6,5.5c0,3,2.5,5.5,5.6,5.5S119.6,483.7,119.6,480.7z"/>
			<path id="XMLID_2_" class="st13" d="M45.5,476.2c5.9-5,14.4-10.1,21.2-13.8c-1.3,0.9-2.5,1.9-3.7,3c-21.5,20-19.5,44-18,52
				s9,25.5,14.5,33l4.7,6.1c-5.3,0.7-10.4,1.8-15.7,2.9c-9.1-9.5-15.3-21.8-17.3-34.7c-2.1-13,0-26.6,5.7-38.4
				C39.2,481.5,41.2,479.8,45.5,476.2z"/>
		</g>
		<g id="XMLID_16_">
		</g>
	</g>
	<path id="XMLID_82_" class="st7" d="M387.3,603.7c0,0-21.9,7-13.3,27.8l64.2,30.6l13.3-27.8L387.3,603.7z"/>
	<path id="XMLID_91_" class="st3" d="M435.5,631.8v30.3c0,3.5,8.3,9.1,18.5,9.1c10.2,0,18.5-5.6,18.5-9.1v-30.3H435.5z"/>
	<ellipse id="XMLID_90_" class="st4" cx="454" cy="633.3" rx="18.5" ry="7.1"/>
	<path id="XMLID_89_" class="st5" d="M445.4,618.5v13.3c0,1.5,3.6,3.3,8.1,3.3c4.5,0,8.1-1.8,8.1-3.3v-13.3H445.4z"/>
	<ellipse id="XMLID_87_" class="st6" cx="453.5" cy="619.2" rx="8.1" ry="3.1"/>
	<path id="XMLID_105_" class="st16" d="M267.6,350.3c0,0,33-13.5,101,0l-21,6.7l-35.1,2.9L291,357L267.6,350.3z"/>
	<linearGradient id="XMLID_117_" gradientUnits="userSpaceOnUse" x1="286.9063" y1="349.3882" x2="353.5639" y2="233.9339">
		<stop  offset="0" style="stop-color:#FFFFFF;stop-opacity:0"/>
		<stop  offset="7.367390e-02" style="stop-color:#E0E1E1;stop-opacity:6.630651e-02"/>
		<stop  offset="0.1631" style="stop-color:#C3C4C5;stop-opacity:0.1468"/>
		<stop  offset="0.2625" style="stop-color:#AAABAD;stop-opacity:0.2363"/>
		<stop  offset="0.374" style="stop-color:#97999B;stop-opacity:0.3366"/>
		<stop  offset="0.5043" style="stop-color:#8A8C8F;stop-opacity:0.4539"/>
		<stop  offset="0.6711" style="stop-color:#828487;stop-opacity:0.604"/>
		<stop  offset="1" style="stop-color:#808285;stop-opacity:0.9"/>
	</linearGradient>
	<path id="XMLID_106_" class="st17" d="M340.4,352.9c0,0-6.7-70.9-7.3-74c-0.7-3.1-7.3-4.1-7.3-4.1s-0.5,0-1.4,0v-45.4h1.5
		c2.9,0,5.3-2.4,5.3-5.3s-2.4-5.3-5.3-5.3h-16c-2.9,0-5.3,2.4-5.3,5.3s2.4,5.3,5.3,5.3h1.5v45.4c-0.7,0-1.4,0-2,0
		c-6.4,0.1-7.6,4.1-7.6,4.1l-5.8,75.7"/>
	<linearGradient id="XMLID_118_" gradientUnits="userSpaceOnUse" x1="295.5693" y1="338.8246" x2="322.278" y2="292.5638">
		<stop  offset="0" style="stop-color:#FFFFFF;stop-opacity:0"/>
		<stop  offset="1" style="stop-color:#FFFFFF"/>
	</linearGradient>
	<path id="XMLID_107_" class="st18" d="M308.2,289.2c-0.8,9.5-1.7,19-2.5,28.6c-0.8,8.5-1.5,17.1-0.6,25.6c0.1,0.5,0.2,1.1,0.8,1.4
		c0.5,0.2,1.1,0,1.6-0.3c3.2-1.8,3.9-5.4,4.4-8.6c2-15.4,3.3-31,1.3-46.4c-0.2-1.6-1.2-3.7-3.1-3.5c-1,1.5-1.5,3.2-1.3,4.8"/>
	<path id="XMLID_23_" class="st19" d="M182,613"/>
	<path id="XMLID_120_" class="st19" d="M416.6,502.3c10.2,4.9,19.6,11.7,30.3,15.1c9.4,3,19.5,3.3,29.3,2.8c0.6,0,1.3-0.2,1.3-0.8
		c0-0.3-0.2-0.5-0.4-0.7c-6.5-6-15.7-7.8-24.3-9.7c-8.8-1.9-17.6-4.2-26.3-6.6c-6.5-1.9-11.7-4-18-6.4c-5.8-2.2-9.3-2.4-15.6-2.2
		c6.9,5,11.3,6.6,19.4,9.2c6.7,2.1,13.9,3.3,19.9,6.9"/>
	<path id="XMLID_116_" class="st19" d="M460.7,589.8c0,0-2.5,3.4-4.6,10.3c-3.8,12.4-16,26.1-16,26.1s-7.7,10.1-1.9,21.6
		c0,0,9.9,16.8,9.9,6.6s5.5-34.3,10.5-38.9s9.6-8.6,9.6-13.1c0-4.4-1.7-2.5-2.1-5.9S464.3,589.1,460.7,589.8z"/>
	<path id="XMLID_86_" class="st8" d="M453.5,610.2c-1.5,0-2.8,3.1-2.8,3.1v4.4c0,0.9,1.3,1.5,2.8,1.5c1.5,0,2.8-0.7,2.8-1.5v-4.4
		C456.2,613.3,455,610.2,453.5,610.2z"/>
	<path id="XMLID_22_" class="st19" d="M450.6,614.7c0,0,2.1,1.9,5.6,0c3.5-1.9,0.9,2,0.9,2l-1.7,3.9l-5.7,1.2l-1.2-2.6L450.6,614.7z
		"/>
	<path id="XMLID_94_" class="st8" d="M428.3,499.6c-1.5,0-2.7,2.9-2.7,2.9v4.1c0,0.8,1.2,1.5,2.7,1.5c1.4,0,2.6-0.6,2.6-1.5v-4.1
		C430.9,502.5,429.7,499.6,428.3,499.6z"/>
	<path id="XMLID_115_" class="st19" d="M425.6,503.8c0,0,2.1,2,5.2,0l1.6,2l0.4,4.5l-4.7-1.8l-4.2-2.4L425.6,503.8z"/>
	<path id="XMLID_31_" class="st19" d="M170,521.3c0,0,19.3-0.7,38.2-9c0,0,2.6-4.1,13-5.1c10.4-1,25-9.1,25-9.1s-12.1-0.1-25,3.5
		s-17.9,7-30.1,9.2c-10.5,1.9-29.8,7.1-31.5,8.8C157.9,521.3,169.2,521.4,170,521.3z"/>
	<path id="XMLID_100_" class="st8" d="M205.5,505.7c-1.5,0-2.7,2.9-2.7,2.9v4.1c0,0.8,1.2,1.5,2.7,1.5c1.4,0,2.6-0.6,2.6-1.5v-4.1
		C208,508.6,206.9,505.7,205.5,505.7z"/>
	<path id="XMLID_48_" class="st19" d="M202.8,509.5c0,0,2.2,1.8,5.2,0c3.1-1.8,0.2,2.9,0.2,2.9l-5.5,2.2l-3.6-1L202.8,509.5z"/>
	<path id="XMLID_45_" class="st19" d="M290.3,468.5c0,0,57.3,12.1,95.7-9.2v-46.2c0,0-35.1,12.3-95.7,7.3V468.5z"/>
	<path id="XMLID_77_" class="st9" d="M298,455.7l20,9.7c0,0,5.7-14.4,24.2-15.6c17.3-1.1,22.6,11.2,22.6,11.2l16.1-11.9
		c0,0-13.6-24.1-40.7-21.8C309.4,429.9,298,455.7,298,455.7z"/>
	<line id="XMLID_99_" class="st20" x1="262.1" y1="365.9" x2="262.1" y2="488.9"/>
	<line id="XMLID_124_" class="st20" x1="256.9" y1="569.5" x2="256.9" y2="613"/>
	<path id="XMLID_51_" class="st7" d="M264.2,608.1l-58.3,40.7l17.6,25.3l58.3-40.7C287,611.4,264.2,608.1,264.2,608.1z"/>
	<path id="XMLID_83_" class="st3" d="M187.5,646v30.3c0,3.5,8.3,9.1,18.5,9.1c10.2,0,18.5-5.6,18.5-9.1V646H187.5z"/>
	<ellipse id="XMLID_81_" class="st4" cx="205.9" cy="647.4" rx="18.5" ry="7.1"/>
	<path id="XMLID_85_" class="st5" d="M197.3,632.7V646c0,1.5,3.6,3.3,8.1,3.3s8.1-1.8,8.1-3.3v-13.3H197.3z"/>
	<ellipse id="XMLID_84_" class="st6" cx="205.4" cy="633.4" rx="8.1" ry="3.1"/>
	<path id="XMLID_114_" class="st19" d="M191.8,624.6c11.6,6.9,22.1,16,34.5,21.2c10.9,4.6,22.9,6,34.7,6.5c0.7,0,1.6-0.1,1.6-0.8
		c0-0.3-0.2-0.6-0.5-0.9c-7.1-7.8-17.8-11-27.9-14.2c-10.3-3.3-20.5-6.8-30.6-10.7c-7.6-2.9-14-7.8-21.3-11.4
		c-6.7-3.3-14.1-5.2-21.5-5.6c7.6,6.7,16.4,12.2,25.8,16.1c7.8,3.2,16.2,5.5,23,10.4"/>
	<path id="XMLID_88_" class="st8" d="M205.4,624.4c-1.5,0-2.8,3.1-2.8,3.1v4.4c0,0.9,1.3,1.5,2.8,1.5c1.5,0,2.8-0.7,2.8-1.5v-4.4
		C208.2,627.5,207,624.4,205.4,624.4z"/>
	<path id="XMLID_112_" class="st19" d="M207.9,635.3c0,0-7.5-5.6-10.5-6.4l5.2,0.8c0,0,2.2,2.1,5.6,0.5c1.6-0.8,5.4,4.9,5.4,4.9
		L207.9,635.3z"/>
</g>
<g id="Layer_3">
	<linearGradient id="XMLID_119_" gradientUnits="userSpaceOnUse" x1="312.2623" y1="54.8095" x2="312.2623" y2="361.8766">
		<stop  offset="0" style="stop-color:#FFFFFF;stop-opacity:0"/>
		<stop  offset="1" style="stop-color:#96F1FF;stop-opacity:0.75"/>
	</linearGradient>
	<path id="XMLID_283_" class="st21" d="M254,345.9c0,0,24,16,65,16s64-16,64-16s6-12,8-24s7-58,22-82s26-97,8-125s-43-54-83-59
		s-87,8-111,30s-36,54-32,80s14,52,27,76s18,46.3,20,56.3S248.6,336.2,254,345.9z"/>
	<g id="XMLID_278_">
		<path id="XMLID_280_" class="st12" d="M319.4,59.6c6.2,0,12.2,0.4,17.9,1.2c40.6,5.7,70.5,33.3,82.2,58.2c6,12.8,7.9,35.1,5,61.1
			c-2.6,23.6-8.8,46-15.7,57.1c-13.6,21.8-19.1,59.6-21.8,77.7c-0.4,2.5-0.7,4.6-0.9,6.1c-1.5,9-5.5,18.2-7,21.4
			c-2.1,1.3-7.1,4.1-14.8,6.9c-9.5,3.4-25,7.5-45.3,7.5c-34.2,0-56.3-11.7-61.2-14.5c-3.9-8.3-7.7-28.4-9.8-39.4
			c-0.4-2.2-0.8-4.2-1.1-5.7c-4.2-20.9-11.1-40.3-20.5-57.7c-13.9-25.7-22.8-50.7-26.5-74.4c-3.8-25,8.4-55.3,30.4-75.6
			C249.9,71.7,285.7,59.6,319.4,59.6 M319.4,54.6c-35.1,0-72,12.6-92.4,31.3c-24,22-36,54-32,80s14,52,27,76s18,46.3,20,56.3
			s6.7,38,12,47.7c0,0,24,16,65,16s64-16,64-16s6-12,8-24s7-58,22-82s25.2-92.9,11.1-123c-12-25.5-43.1-55-86.1-61
			C331.9,55,325.7,54.6,319.4,54.6L319.4,54.6z"/>
	</g>
	<linearGradient id="XMLID_121_" gradientUnits="userSpaceOnUse" x1="246.667" y1="129.8443" x2="246.667" y2="321.8766">
		<stop  offset="0" style="stop-color:#FFFFFF;stop-opacity:0"/>
		<stop  offset="1" style="stop-color:#FFFFFF;stop-opacity:0.75"/>
	</linearGradient>
	<path id="XMLID_277_" class="st22" d="M221.3,139.9c-3.9,21.9,1.5,37.5,8.6,58.5c6.1,18,16,34.5,21.7,52.5
		c6.7,21.4,7.4,44.4,14.5,65.6c1.1,3.3,5,7.1,7.2,4.4c-3.5-35.3-11.6-70.1-23.8-103.4c-5-13.5-10.7-26.9-13.9-41
		c-2.6-11.7-1.2-23.4-1-35.4c0-2.8,0.1-7-1.8-9C230.9,130.2,226.3,125.5,221.3,139.9"/>
	<path id="XMLID_276_" class="st23" d="M269.3,329.2c2.8-0.2,4.9,2.4,6.2,4.8c0.7,1.4,1.3,2.9,1.2,4.5s-1.4,3.1-2.9,3.1
		c-0.8,0-1.6-0.4-2.3-0.8c-1.7-1.1-3.1-2.5-4.2-4.2c-0.8-1.3-1.4-2.7-1.3-4.2c0.1-1.5,1-2.9,2.4-3.4c1.4-0.5,3.2,0.5,3.4,1.9"/>
	<linearGradient id="XMLID_122_" gradientUnits="userSpaceOnUse" x1="284.9004" y1="586.5457" x2="319.6241" y2="526.4025">
		<stop  offset="0" style="stop-color:#FFFFFF;stop-opacity:0"/>
		<stop  offset="7.380247e-03" style="stop-color:#F6FAFC;stop-opacity:5.535185e-03"/>
		<stop  offset="4.767627e-02" style="stop-color:#C8E1ED;stop-opacity:3.575720e-02"/>
		<stop  offset="9.308982e-02" style="stop-color:#9DCADF;stop-opacity:6.981736e-02"/>
		<stop  offset="0.1419" style="stop-color:#77B6D3;stop-opacity:0.1064"/>
		<stop  offset="0.195" style="stop-color:#57A5C9;stop-opacity:0.1463"/>
		<stop  offset="0.2537" style="stop-color:#3B96C0;stop-opacity:0.1903"/>
		<stop  offset="0.32" style="stop-color:#258AB9;stop-opacity:0.24"/>
		<stop  offset="0.3974" style="stop-color:#1481B4;stop-opacity:0.2981"/>
		<stop  offset="0.4931" style="stop-color:#097BB0;stop-opacity:0.3698"/>
		<stop  offset="0.6274" style="stop-color:#0277AE;stop-opacity:0.4705"/>
		<stop  offset="1" style="stop-color:#0076AD;stop-opacity:0.75"/>
	</linearGradient>
	<path id="XMLID_275_" class="st24" d="M370,555.9c5.6-2.1-45.4,21.9-78.1,23.6c0,0-48.1-6.9-52.7-24.9c-4.6-18,36.2-26.5,36.2-26.5
		l1.5,4.2l-7,5.7l6.1,7.1l-5,3.9c0,0,1,3.5,4,4.9s29.1,11.2,48.6,9.9C323.6,563.6,352.4,562.6,370,555.9z"/>
	<linearGradient id="XMLID_123_" gradientUnits="userSpaceOnUse" x1="294.4719" y1="544.5284" x2="335.4499" y2="473.5524">
		<stop  offset="0" style="stop-color:#FFFFFF;stop-opacity:0"/>
		<stop  offset="5.140263e-02" style="stop-color:#E6E6E6;stop-opacity:3.855197e-02"/>
		<stop  offset="0.1411" style="stop-color:#C0C1C1;stop-opacity:0.1058"/>
		<stop  offset="0.238" style="stop-color:#A0A0A2;stop-opacity:0.1785"/>
		<stop  offset="0.3422" style="stop-color:#868688;stop-opacity:0.2566"/>
		<stop  offset="0.4561" style="stop-color:#717274;stop-opacity:0.3421"/>
		<stop  offset="0.5849" style="stop-color:#636466;stop-opacity:0.4386"/>
		<stop  offset="0.7409" style="stop-color:#5B5C5D;stop-opacity:0.5557"/>
		<stop  offset="1" style="stop-color:#58595B;stop-opacity:0.75"/>
	</linearGradient>
	<path id="XMLID_274_" class="st25" d="M368.1,492.4c0,0,3.4,3.9,2.6,4.9c-0.8,1-4.8,3.9-4.8,3.9l2.5,1.7l-34.9,11l-4.8,7.3l-24,5.9
		l-4.7,5.3l-22.1,1.7l-2.5-0.6l1.6-2c0,0-4.5-4.8-4-6.3c0.4-1.4,2.5-3.9,2.5-3.9s2.8-2,2.3-3.8c-0.5-1.8-1.5-4.4-5-6.1l5.4-5.7
		c0,0,0.8-1.8-0.5-2.7c-2.9-2-4.2-3.2-4.5-7.5l0.8-1.9c0,0,24.8,4.9,46.4,4.6S361.4,494.3,368.1,492.4z"/>
	<path id="XMLID_273_" class="st3" d="M272.8,639.7c0,0-17.3-17.2-31.9-15.3l23.3-16.3c0,0,25.3,2.5,17.6,25.3L272.8,639.7z"/>
	<path id="XMLID_272_" class="st3" d="M241.6,545c0,0-3.4,4.5-2.4,9.6c1,5.1-0.2,20.9-0.2,20.9l-19.8-8.8c0,0-5.5-18,12.1-26.3
		L241.6,545z"/>
	<linearGradient id="XMLID_125_" gradientUnits="userSpaceOnUse" x1="247.5134" y1="448.3766" x2="247.5134" y2="384.562">
		<stop  offset="0" style="stop-color:#FFFFFF;stop-opacity:0"/>
		<stop  offset="7.380247e-03" style="stop-color:#F6FAFC;stop-opacity:5.535185e-03"/>
		<stop  offset="4.767627e-02" style="stop-color:#C8E1ED;stop-opacity:3.575720e-02"/>
		<stop  offset="9.308982e-02" style="stop-color:#9DCADF;stop-opacity:6.981736e-02"/>
		<stop  offset="0.1419" style="stop-color:#77B6D3;stop-opacity:0.1064"/>
		<stop  offset="0.195" style="stop-color:#57A5C9;stop-opacity:0.1463"/>
		<stop  offset="0.2537" style="stop-color:#3B96C0;stop-opacity:0.1903"/>
		<stop  offset="0.32" style="stop-color:#258AB9;stop-opacity:0.24"/>
		<stop  offset="0.3974" style="stop-color:#1481B4;stop-opacity:0.2981"/>
		<stop  offset="0.4931" style="stop-color:#097BB0;stop-opacity:0.3698"/>
		<stop  offset="0.6274" style="stop-color:#0277AE;stop-opacity:0.4705"/>
		<stop  offset="1" style="stop-color:#0076AD;stop-opacity:0.75"/>
	</linearGradient>
	<path id="XMLID_271_" class="st26" d="M256.1,384.6c0,0-2.1,32-17.1,63.8v-31.9l2.7-17.6l5.9,1.7
		C247.6,400.5,256,394.1,256.1,384.6z"/>
	<path id="XMLID_270_" class="st27" d="M136.5,459.4c0,0,15.1-35.1,41.3-51.4c26.2-16.3,45-12.5,50.2-11.8
		c5.2,0.8,19.7,4.3,19.7,4.3s4.6-4.3,6.3-8.4c0,0-40.7-12.3-67.5-0.5c-26.4,11.6-41,31.5-48.8,42.8c-7.7,11.2-10,17.2-10,17.2
		L136.5,459.4z"/>
	<g id="XMLID_260_">
		<defs>
			<path id="XMLID_261_" d="M138.1,455.9c10.1-20.6,24.9-39.4,44.6-51.1c19.8-11.6,42.5-11.3,64.9-4.3c4.8-3.7,8.7-11.4,8.4-17.4
				c-0.2-6,0-13.2-8.5-15.2c-28.7-6.7-60-4.3-85.4,10.8c-25.3,15.1-44.5,39.5-55.6,66.9"/>
		</defs>
		<clipPath id="XMLID_126_">
			<use xlink:href="#XMLID_261_"  style="overflow:visible;"/>
		</clipPath>
		<path id="XMLID_269_" class="st28" d="M108,436.9c2.2-1.7,5.3-1.6,8.1-1.1c7.3,1.4,16,4.5,20.5,10.4"/>
		<path id="XMLID_268_" class="st28" d="M116,421c10.5-0.8,21.2,3.1,28.7,10.5"/>
		<path id="XMLID_267_" class="st28" d="M128,404.6c2.9-1.3,6.2-0.2,9.2,0.9c7.2,2.8,14.7,6.1,18.9,12.5"/>
		<path id="XMLID_266_" class="st28" d="M141.5,389.1c11.6,1.2,22.5,8.2,28.5,18.3c-0.2-0.2-0.5-0.5-0.7-0.7"/>
		<path id="XMLID_265_" class="st28" d="M159.3,376.1c10.4,2.9,19.5,10,25,19.2c0.1,0.2,0.2,0.5,0,0.7c-0.2,0.2-0.4-0.4-0.2-0.3"/>
		<path id="XMLID_264_" class="st28" d="M179.7,365.9c1.5-0.2,3,0.4,4.4,1.1c8.8,4.4,14.8,13.1,18,22.3"/>
		<path id="XMLID_263_" class="st28" d="M203.8,361c10.6,5.2,17.6,17.1,17.1,28.9c0,0.7-0.9,1.3-1.6,0.9s-0.7-1.4-0.2-1.8
			c0.6-0.4,1.6-0.1,1.7,0.6"/>
		<path id="XMLID_262_" class="st28" d="M226.7,360.4c6.3,2,11,7.6,13.2,13.8c2.2,6.2,2.1,13.1,1.1,19.6"/>
	</g>
	<g id="XMLID_212_">
		<g id="XMLID_363_">
			<path id="XMLID_383_" class="st29" d="M256.6,478.5l-2.9-1.5l2.6,2.8l-2.6,0.1l2.9,1.5v0.7l-5.8-3l3.9-0.2l-3.9-4.2l5.8,3V478.5z
				"/>
			<path id="XMLID_380_" class="st29" d="M255.4,473.7v1.6l1.2,1v0.8l-5.8-5l5.8,1v0.8L255.4,473.7z M254.6,473.5l-1.7-0.3l1.7,1.4
				V473.5z"/>
			<path id="XMLID_377_" class="st29" d="M253.8,467.6c0.8,0.4,1.5,0.9,1.9,1.6c0.3,0.3,0.5,0.7,0.6,1.1c0.1,0.4,0.2,0.7,0.2,1.1
				v0.9v0.2l-5.5-2.8v-0.7v-0.4c0-0.4,0.1-0.7,0.2-0.9c0.1-0.2,0.3-0.4,0.6-0.4C252.3,467.1,253,467.2,253.8,467.6z M253.8,468.4
				c-0.6-0.3-1-0.4-1.4-0.3c-0.4,0.1-0.5,0.4-0.5,0.9v0.4l3.8,2v-0.4c0-0.5-0.2-1-0.5-1.5C254.8,469,254.3,468.6,253.8,468.4z"/>
			<path id="XMLID_375_" class="st29" d="M253.3,465.8v-1.7l0.8,0.4v1.7l1.7,0.9v-2l0.8,0.4v2.1v0.7l-5.5-2.9v-0.7v-2.1l0.8,0.4v2.1
				L253.3,465.8z"/>
			<path id="XMLID_373_" class="st29" d="M256.6,462.8l-5.5-2.9v-0.7l5.5,2.9V462.8z"/>
			<path id="XMLID_371_" class="st29" d="M253,458.5l3.6,1.8v0.7l-5.8-3l3.8-0.9l-3.5-1.8v-0.7l5.8,3L253,458.5z"/>
			<path id="XMLID_368_" class="st29" d="M253.8,449.8c0.8,0.4,1.5,1,1.9,1.6c0.3,0.3,0.5,0.7,0.6,1.1c0.1,0.4,0.2,0.7,0.2,1.1v0.9
				v0.2l-5.5-2.9V451v-0.4c0-0.4,0.1-0.7,0.2-0.9c0.1-0.2,0.3-0.4,0.6-0.4C252.3,449.2,253,449.4,253.8,449.8z M253.8,450.5
				c-0.6-0.3-1-0.4-1.4-0.3c-0.4,0.1-0.5,0.4-0.5,0.9v0.4l3.8,2v-0.4c0-0.5-0.2-1-0.5-1.5C254.8,451.2,254.3,450.8,253.8,450.5z"/>
			<path id="XMLID_366_" class="st29" d="M256.6,446.8l-2.9-1.5l2.6,2.8l-2.6,0.1l2.9,1.5v0.7l-5.8-3l3.9-0.1l-3.9-4.2l5.8,3V446.8z
				"/>
			<path id="XMLID_364_" class="st29" d="M253.3,442.7V441l0.8,0.4v1.7l1.7,0.9v-2l0.8,0.4v2.1v0.7l-5.5-2.9v-0.7v-2.1l0.8,0.4v2.1
				L253.3,442.7z"/>
		</g>
	</g>
	<path id="XMLID_210_" class="st5" d="M318,465.4c0,0,6-13.7,23-15.5c17-1.8,23,9.5,23.9,11.1l16.1-11.9l-1.5-2.3l-15.3,11.5
		c0,0-7.7-12.9-24.2-10.9c-16.5,2-21.9,11.3-25.3,16.3L318,465.4z"/>
	
		<rect id="XMLID_209_" x="338" y="432" transform="matrix(0.9976 -6.967256e-02 6.967256e-02 0.9976 -29.8577 24.7278)" class="st5" width="3.1" height="16.7"/>
	
		<rect id="XMLID_208_" x="332.1" y="442.9" transform="matrix(0.971 -0.2392 0.2392 0.971 -96.9996 92.7646)" class="st5" width="3.1" height="6.3"/>
	
		<rect id="XMLID_207_" x="344" y="441.7" transform="matrix(0.9976 6.911553e-02 -6.911553e-02 0.9976 31.5742 -22.8195)" class="st5" width="3.1" height="6.3"/>
	
		<rect id="XMLID_206_" x="350.1" y="442.9" transform="matrix(0.9686 0.2488 -0.2488 0.9686 122.0409 -73.4836)" class="st5" width="3.1" height="6.3"/>
	
		<rect id="XMLID_205_" x="355.9" y="446.2" transform="matrix(0.8176 0.5758 -0.5758 0.8176 323.6101 -123.9357)" class="st5" width="3.1" height="5.3"/>
	
		<rect id="XMLID_204_" x="326.5" y="445" transform="matrix(0.8956 -0.4449 0.4449 0.8956 -165.1115 192.7473)" class="st5" width="3.1" height="6.3"/>
	
		<rect id="XMLID_203_" x="321" y="448.2" transform="matrix(0.7851 -0.6194 0.6194 0.7851 -210.2753 296.8344)" class="st5" width="3.1" height="6.3"/>
	
		<rect id="XMLID_202_" x="316.2" y="452.5" transform="matrix(0.6221 -0.7829 0.7829 0.6221 -236.6601 421.0256)" class="st5" width="3.1" height="6.3"/>
	
		<rect id="XMLID_201_" x="364" y="442.6" transform="matrix(0.6788 0.7343 -0.7343 0.6788 447.6319 -124.0359)" class="st5" width="3.1" height="14.2"/>
	
		<rect id="XMLID_200_" x="309.3" y="451.5" transform="matrix(0.4669 -0.8843 0.8843 0.4669 -239.834 519.3752)" class="st5" width="3.1" height="14.1"/>
	<path id="XMLID_199_" class="st30" d="M289.9,330.9c-0.5-40.9-8-81.7-22-120.1c-8.9-24.3-20.3-51.4-9.7-75
		c14.1,6.7,22.9,23.2,20.4,38.6c-6-6.5-9-15.6-8-24.4c0.3-2.4,0.9-4.8,2.5-6.6c2.9-3.3,8.2-3.4,12.2-1.4c3.9,2,6.8,5.6,9.5,9.1
		c3.1,4,6.1,9.8,2.8,13.5c-5.6-1.4-8.6-8.8-5.8-13.9c2.8-5.1,10.2-6.7,15.1-3.7s6.8,10,4.5,15.3c-3-3.4-6.1-7.1-6.9-11.6
		c-0.8-4.5,1.8-9.9,6.4-10.4c1.8-0.2,3.6,0.4,5.2,1.2c6,2.8,10.9,8.2,13.1,14.5c1.3,3.6-0.4,9.4-4,8.1c-0.8-0.3-1.5-1-2-1.7
		c-2.6-3.6-3.1-8.6-1.2-12.6c3.4-7,13.9-8.8,19.9-3.9c6,5,6.4,15,1.4,20.9c-6.3-4.8-6.7-15.6-0.7-20.9c1.7-1.5,3.8-2.6,6.1-2.5
		c4.7,0.1,9.4,9.1,9.3,13.9s0,7-6.3,9.3c0.1-16,7.4-31.8,19.4-42.3c1.5-1.3,3.2-2.6,5.2-3.1c4.8-1.1,9.5,3.4,10.4,8.3
		c1,4.8-0.6,9.8-2.2,14.5c-20.3,61.8-31,126.7-31.8,191.8"/>
	<g id="XMLID_188_">
		<defs>
			<path id="XMLID_190_" d="M136.5,459.4c0,0,15.1-35.1,41.3-51.4c26.2-16.3,45-12.5,50.2-11.8c5.2,0.8,19.7,4.3,19.7,4.3
				s4.6-4.3,6.3-8.4c0,0-25.7-19-68.8-4.1c-27.3,9.4-42.9,33.6-50.7,44.8c-7.7,11.2-6.8,18.7-6.8,18.7L136.5,459.4z"/>
		</defs>
		<clipPath id="XMLID_127_">
			<use xlink:href="#XMLID_190_"  style="overflow:visible;"/>
		</clipPath>
		<path id="XMLID_198_" class="st31" d="M131,437.5c5.9,3.7,11.3,8.2,16.1,13.3"/>
		<path id="XMLID_197_" class="st31" d="M139.1,423.4c6.8,4.3,12.7,10,17.2,16.7"/>
		<path id="XMLID_196_" class="st31" d="M151.1,409c7,5.4,12.7,12.5,16.4,20.5"/>
		<path id="XMLID_195_" class="st31" d="M166,397.5c5.8,6.6,9.8,14.8,11.3,23.4"/>
		<path id="XMLID_194_" class="st31" d="M182.9,388.1c3.9,5.5,6.1,12.2,6,18.9c0,1.3-0.1,2.7,0.7,3.8"/>
		<path id="XMLID_193_" class="st31" d="M201.5,380.6c3.5,7.2,4.6,15.7,2.9,23.6"/>
		<path id="XMLID_192_" class="st31" d="M222.5,380.2c1.7,5.6,1.5,11.8-0.5,17.3c-0.7,1.9-1.6,3.7-2.2,5.5c0,0.1-0.1,0.3,0,0.4
			c0.1,0.1,0.3,0.1,0.3,0"/>
		<path id="XMLID_191_" class="st31" d="M245.1,384.2c0.1,4.6-1.1,9.1-2.9,13.3c-1.8,4.2-4.2,8.1-6.7,12"/>
	</g>
	<g id="XMLID_166_">
		<defs>
			<path id="XMLID_167_" d="M468.9,261.4c4.6,8.1,11,16.8,11.7,26.1c0.6,7.6-0.3,17.8-3,25c-5.8,15.4-14.2,25.3-31.7,34.8
				c-14.5,7.8-31.5,11.7-47.6,8.6c-4.2-0.8-8.3-2.1-12.2-3.7l-5.1,30.9c28.4,1.9,61.5,0.5,86.1-13.8c24.6-14.3,39.7-42.6,40.6-71
				c0.5-15.9-4.4-31.4-10.8-45.9"/>
		</defs>
		<clipPath id="XMLID_128_">
			<use xlink:href="#XMLID_167_"  style="overflow:visible;"/>
		</clipPath>
		<path id="XMLID_187_" class="st32" d="M399,356v11.3c0,0,40.6,4.5,66.2-18s25.8-44.2,26.6-52.5s-5.5-23.7-6.7-25.1
			c-0.1-0.2-1.6,0.4-2,0.5c-6.7,1.8-17.8-1.9-17.8-1.9L423,333.6L399,356z"/>
		<path id="XMLID_186_" class="st33" d="M507.3,273.8c0.2-0.2-0.1-0.6-0.3-0.6c-0.3,0-0.5,0.2-0.8,0.4c-6,5.6-13.8,9.3-21.9,10.5"/>
		<path id="XMLID_185_" class="st33" d="M510.1,291.8c-8.2,3.9-17.2,6.2-26.3,6.6c-0.3,0-0.6,0-0.7,0.3c-0.2,0.2,0,0.6,0.3,0.5"/>
		<path id="XMLID_184_" class="st33" d="M481.9,310.1c1.7,1.7,4.3,2.2,6.7,2.3c7.1,0.4,14.3-1,20.8-4"/>
		<path id="XMLID_183_" class="st33" d="M477.4,322.5c2,1.8,4.5,2.8,7.1,3.5c7.9,2.3,16.3,2.7,24.3,1.1c-0.3,0.1-0.6,0.2-0.8,0.2"/>
		<path id="XMLID_182_" class="st33" d="M470.2,334.4c3.9,3.6,9.3,5.2,14.5,6.5c5.1,1.4,10.6,2.7,15.7,1.4c0.2,0,0.4-0.1,0.4,0.1
			s-0.3,0.2-0.2,0.1"/>
		<path id="XMLID_181_" class="st33" d="M459.5,341.4c3.2,4.9,8.2,8.6,13.5,11.2c5.3,2.6,11,4.2,16.7,5.8c-0.6,0.2-1.1,0.3-1.7,0.5"
			/>
		<path id="XMLID_180_" class="st33" d="M449,352.8c6.4,8.9,16.4,15.1,27.2,16.9c-0.3-0.1-0.7-0.2-1-0.3"/>
		<path id="XMLID_179_" class="st33" d="M434.8,356c4,9.8,12,17.9,21.8,22"/>
		<path id="XMLID_178_" class="st33" d="M420.4,357.4c1.4,10.7,7,20.9,15.3,27.8c0.2,0.2,0.4,0.3,0.4,0.6c0,0.2-0.4,0.4-0.5,0.1"/>
		<path id="XMLID_177_" class="st33" d="M404.1,357.1c0.9,11.7,5.3,23.1,12.4,32.5"/>
		<path id="XMLID_176_" class="st34" d="M478,282.5c2.6,2.1,5.9,3.4,9.2,3.5c3.3,0.2,6.7-0.8,9.5-2.6"/>
		<path id="XMLID_175_" class="st34" d="M478,295.1c1.6,1.9,3.2,3.9,5.5,4.8c1.4,0.6,3,0.7,4.6,0.8c2.9,0.1,5.8,0,8.6-0.3
			c0.1,0.1,0.2,0.3,0.1,0.4"/>
		<path id="XMLID_174_" class="st34" d="M493.1,316.3c-3.4-0.5-6.7-1.2-9.8-2.5c-3.1-1.3-6-3.4-7.9-6.2c-0.1-0.1-0.2-0.1-0.3-0.1
			c-0.1,0-0.2-0.1-0.2-0.2c0-0.1,0.2,0,0.1,0.1"/>
		<path id="XMLID_173_" class="st34" d="M484.9,329.3c-5.3-1.3-10.1-4.8-12.9-9.5"/>
		<path id="XMLID_172_" class="st34" d="M476.5,341.4c-5.7-1.6-10.7-5.8-13.2-11.1"/>
		<path id="XMLID_171_" class="st34" d="M466.2,352.2c-5.1-3.8-9.2-8.8-11.8-14.6"/>
		<path id="XMLID_170_" class="st34" d="M451.8,361.5c-3.8-4.9-5.7-11-7.1-17.1"/>
		<path id="XMLID_169_" class="st34" d="M437.1,367c-3.2-5.3-3.5-11.8-3.8-18c0-0.2,0-0.5,0-0.7"/>
		<path id="XMLID_168_" class="st34" d="M420.9,370.6c-2.4-7.3-3.2-15-2.3-22.6"/>
	</g>
</g>
</svg>
